<mxfile host="Electron" agent="Mozilla/5.0 (Windows NT 10.0; Win64; x64) AppleWebKit/537.36 (KHTML, like Gecko) draw.io/24.7.17 Chrome/128.0.6613.36 Electron/32.0.1 Safari/537.36" version="24.7.17">
  <diagram name="第 1 页" id="NNWLvO94sinzXdZwAOdS">
    <mxGraphModel dx="1514" dy="757" grid="0" gridSize="10" guides="1" tooltips="1" connect="1" arrows="1" fold="1" page="0" pageScale="1" pageWidth="827" pageHeight="1169" math="0" shadow="0">
      <root>
        <mxCell id="0" />
        <mxCell id="1" parent="0" />
        <mxCell id="_Jj7Ve39ARDFc18teFEc-16" style="edgeStyle=orthogonalEdgeStyle;rounded=0;orthogonalLoop=1;jettySize=auto;html=1;entryX=0.5;entryY=0;entryDx=0;entryDy=0;" edge="1" parent="1" source="_Jj7Ve39ARDFc18teFEc-1" target="_Jj7Ve39ARDFc18teFEc-4">
          <mxGeometry relative="1" as="geometry" />
        </mxCell>
        <mxCell id="_Jj7Ve39ARDFc18teFEc-17" style="edgeStyle=orthogonalEdgeStyle;rounded=0;orthogonalLoop=1;jettySize=auto;html=1;entryX=0.5;entryY=0;entryDx=0;entryDy=0;" edge="1" parent="1" source="_Jj7Ve39ARDFc18teFEc-1" target="_Jj7Ve39ARDFc18teFEc-9">
          <mxGeometry relative="1" as="geometry" />
        </mxCell>
        <mxCell id="_Jj7Ve39ARDFc18teFEc-18" style="edgeStyle=orthogonalEdgeStyle;rounded=0;orthogonalLoop=1;jettySize=auto;html=1;" edge="1" parent="1" source="_Jj7Ve39ARDFc18teFEc-1" target="_Jj7Ve39ARDFc18teFEc-12">
          <mxGeometry relative="1" as="geometry" />
        </mxCell>
        <mxCell id="_Jj7Ve39ARDFc18teFEc-1" value="" style="shape=image;verticalLabelPosition=bottom;labelBackgroundColor=default;verticalAlign=top;aspect=fixed;imageAspect=0;image=data:image/png,iVBORw0KGgoAAAANSUhEUgAAANYAAACzCAYAAAD12uLHAAAAAXNSR0IArs4c6QAAAARnQU1BAACxjwv8YQUAAAAJcEhZcwAADsMAAA7DAcdvqGQAADQ4SURBVHhe7X3PryXHdd7X9703v4czwyFFiaYkSqJt2bIcyyZgK1ZiJDIQwAhgJwi8TLLJIlnkB5BFoOyyyT5/QIAACQ0ECSDbcQJkYdkIIMc2YBmObcmiSJGiKFISNb/ImTfvvXu7sug6p7/66lS/J8+9LYvqA9T0+fGdU1Wnzrl9b9/7yO7o6ChhoYUW2iqtVLHQQgs9Oi2NtdBCO6ClsRZaaAe0NNZCC+2AlsZaaKEd0NJYCy20A1oaa6GFdkBLYy200A5oaayFFtoBLY210EI7oKWxFlpoB7Q01kIL7YCWxlpooR3Q0lgLLbQDWhproYV2QEtjLbTQDmhprIUW2gEtjbXQQjugpbEWWmgHtDTWQgvtgJbGWmihHdDSWAsttANaGmuhhXZAS2MttNAOqPte/Qc7U0q4d+8ubr31Bg7v38NmcwygU9hfWeq6FfbPXcDFS1dx5ep1XL58FRcuXFDYQj+gNHtjpZRw+9Z38I3XvoR7b/4xDh7+OS7imzi3OkTXAQnDcoYW65CQ0KEDEoAuN14aRKcOQErSmIyYbtg0lYHs6lNk2qR9POyv4Lh7CuuD92H/8jO48dSP4n3PfASPPXZtBC70A0mzNtZ6vca33nwdr37xf+Pmw9/Ah66+iPP7x1h1PTqkoXI7q2L1LpsjpRGUUoeuM4cOKSXvQdflpu7yBEPDUr/KfC4mC5Qb13q7B3p02PQr9Gkf944v4bUHH8XhlV/A9fd9Au99+sO4+tg1HBwcWKSFfoBotsY6OjrCa6++iG/+xWfxkf3fwjOPvYFV12fr0AwRedOksagxljlSsiYDNdeIQQK63GVjs+Qrx0uDYmi5AWNtaHfNqSa0tdw7voKX3v4Y7l/8FK49/Tw+8KEfW+5gP4A0S2OllPD1r72Mr/3xf8JPXPwNPHHp9vDi39kbPwyNY3esglZASsONIw2FrQ1ijQUUN5XxbWTQVCnHYhvr/M5nYm6ssY2C9WRdn1a4c3wNL7/zcZzc+CX8yE9+Go/ffIJRC73LaZangg8fPsSbr/0J3r//f/DE5Tu5LtNwl0i5qUBNlbr8Rm24f9jNKmwqk6ljLKw1QzIzdQA3ld0svalczmtIwxianzAmprxmu8t1CTfO38Vfu/F53Lz3H/GlL/xP3L71neZdeaF3H83SWHduv4WTW1/A+658Hej6ssKNEvKdwIq5bojAK79Vy13RpfFtn/nlEfmazt7e2ecvmL+Rq3PzJ4e5fVD5aoDUY3+1wbNXX8bN+/8VX/yj38Jbb32LnBZ6N9MsjXX7rddxI/0/XDo4GpX02UjfAnrdUnEPkFzBQydlS36zl2PZXaFjCLEpx0oujCC/o3Rd9TbRmwrFe83qbmdvPU1xsLfBhx/7Mp64/1/w5S/8Fu7du5udF3o30yyNdfjOt/DeSy97U3RdR++qOgAdUqKldGOj2VtCUOGPn6mG61DDwwOOxHe7TP5Wzgp/7KXcOh3Q5c9Q1ri2VoUyxkR/Gzg++GD7wWqNjzz2Eh5/8Ot48c8+j6MjeoFZ6F1JszRWf/IANy/cy1J+uobhrmBN0OXPXPwWzoq0/GxS3k3cJHcM67URSfVujMXJuOHJ39iYRfwB4OsaRhlAH6IYpQTsdT3ef+VlbN78dbz84p+i7+2J6ELvRpqlsVLqsbfaUCVTAxlmZL247amFPbSwO0OBz8050vgkj6fw54+moCch9hkL1vYWM/ps1nX+OQ7WyFl2dXGbG6e6vP8AH77wh/jOi/8d33j91RK00LuKZmmsgexxdUBy50Au7oLs0aDL0lASPIGe4Jmr322GQMwr+WemYE6fN9gQv+3ME1j7AQm4ceEOPnTwu3jlTz6Lt779zeVJ4buUZmushKE5/G1XlxuKCpfvTEgYPmtZYdLdgPvPmyWNj9YH+/iE0DA1DcGKt36FuSsesQ/zuJFvejnOMJ/0IpC/AkAHrLqEp6+8iac3v4m/+ML/wttv21vkhd5NNFtjjfeIoIBJGHqt/ObVCt8pC3w3GQqYS3q8QybAv5Ny8maht5e2MHccHkckjM3Ov+5wztaXfQc8hXGPLCfg6Uuv48rb/wNf+eIfYL1eC2Kh73earbEKooobinosbngTAMCKa3y8k5luZNEB5ecor+zOH2iEjQD4nbTEZb6YpLyDGSV+4ejG94q63oGGO925/TU+dPUvcPL6Z/HyV/58aa53Gc3UWGXjALlAuSCtEPmzWJfy00JrtLJK+f40fDlMBqtpq3Ny7YYuHBqiG5rBb5Dd+HloaIIczJ11FfrQYvwsOIjj201Qo3YArp57gOcu/T6+/cUX8LVXXlyeFL6LaKbGKotx+MCef9JENv3MMhT/WNTcXuOwwre7ySi7Jxf62DPeEHaHtIbD0M50ByxbyXE0DDF+1zZOmII5hjswcOP8bXz43Ofw9T//Tdy+9R2bYqHvc5qtsTr/py5oo6Kp5DNSRawkPtlbQOsJsldx8jwD6RfL49O98snhyNfrGx+ydB0/qMlxrKEcDwAdbl64jff0v4sX//R3cP/+/cK60PcnzfLr9j/4nV/DJ/f+DTWSTUm/diBK/MqecaWVm2K483X5lxMBMgckA5B/pTGqz56EYmG56QYhJXp6KSQ3vYqON+fxxbsfx8Mbfx9Xrv+Qmhd6BFrtHeDi5cdw7foTuHb9Bvb39xWydZqpsV7AX9//DAB7q2Qv60PBVbVI1T40zVj4jE/0uGF43J5/O0EBE6yJyi+O6Y3id9FURU9lyg8+pKMNY/pWY/Fd7fDkHL59+AQebK6Vmx6QLGTiPNqkudF9QTlDtIDxDkpfSRDpL12GEIKz22+X3/TkJAz55h9D03lXh216W7YnI9wuRcpm/XnaYChwCVinczjs3oPNxedw/elP4NnnfhLXrl0Xx+3S96CxBl3i75kGxUg5scNnnDGVdi7DGeaDA/zuA37Txgkv7k420ehTgulQ+dE6r88atYP4Ci5vZdB3xVzDHuzBjK4Bw/pMXTSAK/Ncq3GdNPfgO7zQuClh8LUkOtY+cA5V2eUXPEp9Jto3T1m8+NmG80odWwajpZZfk9jc9LI5SJYzU/AZZFV+x5ByzyPP3yegT3t4uLmArx9+BA+u/R0888OfwtPPPItz586NAbZIszbWeLgYmqbbR3fwOHD+KWDvMoC97JGLhrPGRCtOwHCfyn+O7wk1gN0V7dWUiJPPDTGUI7/JIzJFtbRBUb3aFzSstkmpB/pjoH8IpJNBruA5hheP3gUyVQvXpY+AYslE4x2tTHgJ1z0Rnpu3mNdeOMnVOzlaTDVpRSmH8OXmu/ggJqTNMfr1EfrNGm8dXsfXNn8DT370H+AjP/LxnTTXLI31+9ZYiTK8dwXd1Y+hu/HzwJWPAQc30a0OvFhsUUPe7Y4z/ltmmg/WJjBe7X91yFeXAKRjYP0ddMffRtrcRdcfAmmTgYakPWc2f30dlKQD8j8ao0QD9DLPOuX9EJkE53OaKpoz4Iv5yaeIZ1jiffOpwiUkoN+gPznE5ugu1oe3sDm8gzsPL+LLx5/Gcz/7T/DM+5/NPtujeRrrcy/gk/ufGfbadcDB4+ge/xS69/4qumvPI+1dnPMB5V8hysXcP0B39Dq6o1eA9Z3cUPwHoVJcrQLUq7H0pfWIEbzFL5rABrdto9D1ynGque064dO1YlAs0/lP3zimyRju/Ckh9WtsHt7F8d3XcHz/LXz11k3cvfmP8PynfmXrd615GwsY3vLd/FtYfeCfAlc+7p+Kxu9/trecKpIpTruBVY5TFIH1bSdPPFo6nGBvcxfd8TewOn4N2LwzFoc1lxeMXbJ9VAiv2Oia+QJjOsaqjXjWR9fizhbhpzBZ1mYq8KRvXs3HBSAl9OtDnNx7A/duvYE/vfWTePaT/xo/9MwHCPfoNEtj/cHv/Bp+dvVvh41deg7dB/8Zuqd+GQn7SCmNA5TDkeFLcADDB6TSPnaO6YcXQPWtqUJQAH+BbK2GhCpOXtcQI2GFExz038S59WvY29wa3gqiB/p1/nxljaW/xrDIPJkvrC6kiD8V02i64qp6E6dwvIZANxpoDaQ3ubhDkT3kSUc+aXOEo7uv40uvHOPe4/8QP/cLv6IOj0Szvf9K9gJ04RngsZ9Gn/aw2Wyw6Xts+h69j80wNn22b4brxFj3jBv81nk4xm02RoyPNcVdD0Nt680GJ+txrNc91uvBvt5scJKH69brPAZ+sz5GWt/D3smrODj+CvY23wLS0dBI/RHQPwD6w0HXnwBpffrAptal9RAz4gu86vNAll2XmzylfFW9+Rkv+sK3z3FNR3qXU347bINkt1ljMp+HxyDZGy6h2zuHg8tP4D3XgaO7X5FqfXSarbGAHikl9HuPIR08RY00jE3fo7dG2/RlQ/WbwVY1x9AgQxMOo8/+fR5FoxRNGmCCMcy7LuXcyPZCUOPzi0PGDHOtgc19HPRv4uL6RVxcfwX7/e1c1CdDM/WH+W5VF8I4TGbKst8tRK98gWO9/RPF0aF2M5ltAneqPvBtrTnCuSpoMMLvHVzCtetXsbd5x3Xbotkaq8/7TdjHBueG4ku5qNdUvOs11lTIw6v8ZtD5q3892LYxbI6zznxxNZ7m2hS2en7z9buZz0d228N6Pdzl1kND7fffwsX+FVzavIjz/etYpcP81u8Y2BwOj9j7TaOhjMTmRWO2Bg6WfMUrbzFZ1YpLuvCFgOzs5/FFX1wZq5iIZ6wr6BqMNHy5feHiZRyc2/4vMWZpLPv81Ceg75O//RsaKhfleoOT9XoYJyc+hgIdrifSQDZGrPkd42R9jPXJyTDW65E/OcFJjlfGsLmHsV4POFuT4n3e9RrH6zXWJ2ts1ifDdyXrI6TNA6w2d3DQv4lL6au40n8ZF/tXsZ/uoUN+C9Y/zHepYykgBDwVihUn9HPVaTGmeCnMjm3CpzxnWMwq52uB1fUGPhw3kX5UBLLG06uJI647OI/Vwfb/ZxazPLz4/c+9gOfxGfR9h/Sev4f+R/49+s0GqV+jS0dAWufvG3r0GA6gzKUu0b5A5tyVX5SO55IZw7uNvsZPGObP0OFLxkFI+ScF9oXxSNmepQ49VuixwhqrboM9PMTB6hDnuvvYx8OMtM8c66GZ+vzAoihOjtrgbf0FCY4xnqcgFsa9VvrWwxBXBbaKz/KZfabmINnWVa3RKEks/kkJYVKPz7/0DJ7/xX9J+kenWRrr/37uBfxM/xn0qcPmyV8GfvjfYdU/wCrdxz4eYIVjdPkDKBd4/Qo38IOkBzAIHfIvZJIUV7b7hV6Rx6eFI7b8Gpqbzn5KVMbtkIbm6jZYYRjDh2rz3+TPT8f5M5V9KGcK1sq8qU59Koa6gAqq91vGU3yOd1qD+jrVf0qm8y5+mjXhc6a9Zf60WEj4/Evvx/Of/ueke3Sap7F++wV8ov8M+rQCnvy72H/uX+F8dxt7OESHDW2UX9my3OTtEFR/Rl31FopsiGzFwkTPB2j+9PTKHlCk49xg7K+8ysTrHiI+ceOJrZBtnawzCuQqLtn4+t00VZXjU+6ujxq7wX/+pWfw/Kf/Bdkeneb5jJX/f1K48AzOXX0vLnTfwj7uo0sn+bdxx8DmIbA5yo+cj/LnD+Z5ZH2B53Hc1qVAZ2vwEekmxuZ4fGvXH9M6Hwxf+m7u589S+nDCsmNXtgkubKoIEzR5hc1XxzFpbJKLuEG8ZiyVI1+mBq54L85+sibPsWICPkUvFo9Os9yxfu+3X8BP7f0HnHvv38b5p34eq4PLw3c0fS5I+56joCgRstSw2JjXpEVxOMkTtogv8Hy1u1UeVVyVhTexeVclOUV3kjPEVn1Bdoci/qz4ybsK8UXMU3wKc+TDcadiZdnmznfHz7/0fjz/i9+Hd6yu28Pq8gdxcOPjWO1fBDYPgPVdYHM3f39zRG+Vpgbd4bwpg+GYk0Zc1p8IjvENXG88Y2ys84uEfdmJoAhUzlfDe0G3ikiKxedQG/HFK3MDYzLjPDbpCtLCZzIDrSvZvtjGFMzldyrzCzCqLhTsR/rk/2ydZmksrM5hdflD2Dt/fXhbtH47N1NOMj1ICBPiKsZyQlo8yw29xT21iJP9DF1w0VpUbvG2BinOU+/ELOt8rLfYjDNswCs2mc2IeMcSFTlkXu2uEF5lnkfthHE+mFP5RC9cYczt0EyNdR4HVz+IDifDZ460LjdWFTVtWA+6KjrxSazXuILz2OwT8Dxn5eOGUS5i81CcFmcDZ2twUZuA8VFsniOSM77Sa2wTmWc744I1u4PgjOd9pciHeMdkXMcN0/LJfBXX5O3RLI3VrQ6wf/Fm/gM+/nMIyOYoAdVeg0QZXxxEFJvlFi6irLfPDlxQLf8qthtIH8UiWxg764uiUEwkKy9rCPelAwFW7DpPITYwupaWrdDbReav1ka6ZGsIYu2IZmqsFVarg+GX283N6UaDRJ2ZF7lKMBPPwck3PGOMGEO4ydiqi+SWja++KOGzbOuJbH9pXklxJPP8/tb5rGvJcvGZingPE/j4NfNVozJPeA21JZqlsQZaB79ChvCWkMimCeGkKCaSz6InW2Kc2AqM4jRmvvIrqu9RY9s1moexgRw2lM4TraHlwyqOY0rGRoP9FEv+LrIfy1GMyG6+tMcpvOMYsz2ap7FSPzwxqzYg8mRCCJPy27MzPY5u6MO49qoY2Ao/u6ie51KbsRGGhrsJX/mY2Jin4FluFR5jKK7mwn1I76ziAt5ZaqqiwGU+xtdK4qN9abx8beZsezRPYyHlv9UhmTdpo0qCbJoTF/o4MF9Yr7GZFMfUsk3xuk79YD3BV98d6XqIqv3ZVfS2hhAfyFWBuqHmXUWN4m/lst7ZHK86u2gthKnwjMtXXkdxFf1kDrZHMzWWkSQm3GSAOTWxmWfsmYsjwvFcNMK1aLx8TXbY5KvxNGYVm/wjfBibSedjXYDRuBVG+NSwJZaNDfxDntdhpLyOSB/gm2vYPs3YWCnvZypxomOM/zf+NHmWNANGcQM5ncXH1pzxLYyOs8Rt0hSuZQtwnmfSVT4kN9dscuYTggYMcCwXuTMKdBa7Ugof7o2vmbdYTazOtT2ar7GS/yPKIClVIrJcvMUwG8Wumo95w/JBTxyQ66NYRsIX5gmcXRKvmWwFb0FVVhzZvOgjjMqSD9Z/V7zIRfHbeniwD+NEH/L5ak8dC1/VTcVQ/fZovsaa3AxtuHjFIr56UGGF3IpFvB+yYaMm5DWIf8WrHMUK4hrPa+Y1OZFPEUIxJBd7bGBMZmw1f4vn+SOMxC706mOk+AhH+mRnk3XRXKpTO2Mcu32asbEgSeONkkptyE3Ah5oYQz7Ngw/IY7BiInZB0cFM4YmKg1Se5vUiyrZwb2zTORtyc36ViU/s18CA16ukhmi9po/k6Fxa64iohT3N7y9PMzZWY0PFK0q26RM0xliC3Sy+6pf0R5zKk4/FLjCK4yJnHGNsQsJXTajzsNiyKc8FJ/qCz/Lk/GIrIBInosKksZlIPut6kunYTrzDNV4UV3nFbIdmbCzUCWOeX3WjwnJz5M/6zPOhFa/oyhur+oAPm0ObhmyuV5vgXGzEVxysmFh/Cl/EZYzELfjW+skWrpmx6gPJS4AxucIF+LPE8ViYiLddmrGxaAO2SdVHCWnaGno/ZLMxGVZihz5nwShvsuqMWnqLr2tTPBVIcw3C63KqB0Ao4xaxdS1TvK6B7cY29Iqp9qjYLFdnwrLpVG6tYbs0Y2MZ0aY8MZoUS5yNwBbxRb4UF83RWgPjeH7FRPFMHdgK3vC2hhaeZI+rsRhHvIs8X4Ar+LNg7MJ6k3WA9siYgG9ijKJ4oo/8XB/47IhmbCx6JeqmfmjZKIgiMZIk91GsDsNqA0zFZZsbhLfYJE/G5n22MEaBLfzziDx4f2Fskh0bPSVV3nxMpRiNb6LilM8Yj6lD9FU8sRXna/goFtu3T/M0lu/FEpA35Zs1G/FFApnOglNMEAYgpQI07kRsZ6dwTFpEEWUbFwrbTt2zyi3bGdfPxVo1NRGHKOKdElf1TDavXQclA0ZcQRqX1lNA1W87NE9jAXEynCd58pWTZE90hDPiw0CjWRiQMa4SW2ueKu7ESByHiWPYhecQubBZ8ZmeYwnPhVphVD5rU7Mc+PhV9MW7lmB4c2oMwVTzRX7Gamyxb4lmaqzWZqOEGB8RJzLyn8JFsQMf1ysvcSx+WGjEO87UipO5inVHuABfYCb4Km/RHMSb2J3ygje5ZuMVj8Z6Mp8CP8VWew8wzqPEF/vZPs3UWEpUaEXhtZJlcovEx8TwFZFlmd9tglFTQY244L0EtiqY4rOu8GFTtGblKUQYe4Ln2D5XhNM1sky4Ii7jxI4optjPxJuKm57i8hyB26PSjI1FG/ONtJKiPDViZHOeMVExqNyyKYbmqZqfccQXoSdwGr/QsxzZWryp2FYYYt4aKJm+FTvz1QsHk/pzXL6KvYrZmpv4ai57MSC/IhfEF028PZqxsTJVrx5BUow/00FnPnFsxTCOh9giHxancMxXcRu8hzKfABPFTvpWRjFcMIoTmfNR4IxUfxZ8lotc8/w6MrbSW1yOM4XVuXg9UTyzb5/mayxPCCsKY8knfSvX4D05E5giNpPZIn+Lbaop32yvCoixxLtZcUakSxybbMyPwCBuNAcXqOgLnmPUbBtvsXVuiZfyP74Ovp42ZxCrqi/FZt7mLQNvleZrLN1ciy/yocmRYQnyEJos4r0wTc9xmYLCDw+eqLK7QXymDjWIEe7fjSXv5gmMjQJH+kI2Yt4eYrQw9gIQ2Tk+Rkxiu/oRPsRILCf1IT6xXfnt0cyNFWyU7b7pqWFw1Ussk/2g2SYYlpPadA7yKYoowrOc8ewfYo0N/CuZ+Oo/JhrxFpcHY2T4ixE1jIeKsN9F3MJuvBHPp/7iV52tYrO+iMVY47dLMzYWU5CMFOmF91xMJcSw0QHyYDz5FLEj3lRscyXxIhcFgCC2YoM5FeMhtOADvsqHG4gnSvYPn02wrmpfEIzMVcQivbMRpoEt7BHW4oku9NsuzdxYmoDMJ/8n2KzyUROSDZBEtvgsu1sLJz5hgdLcThR78mBZx4OJdVIoxVoiXudvYNiWiGe98ha3wAfYlLFVXJb5jhLEYL2dQRWPeD+nifmK63ZpxsayZHBScgI8aZokS6ThRB/5TcbLV8MwdvJQc9wwNuNNVizp1b/IySl4z1sU20j8T12zxmec2E0/mYtWvLPiArvrzTaF0TlbWM57hm2RZmos3iSreeOubCQkwjE15gBif5+7RdFc6hPISWPr+tUmlFRPfBeNILYVSxVLiWxVPiyAYCbPTLC8zgJLmGqNAZ9o7gKvsSJ7g+dpdkAzNZbkSzdZ6EX0RLUSJKPCyTwej0nXYNjTCon5aD71Ib0VQfGj1gafIPtkWXx8vaL39fA6jJW1VRjVaVy+UjwPp5ipvNo1Dz9THuJXrV/sThaTZb5uj+ZrLCDYuI6cJC/oCJ/5MJlGLEvsKp7Kxp42V+Ydy0WueI5lovlEWG4gsymGZVDORF/wWeYcN/NMsosBhucN1xBgm3Maz1fVEfZMsWik7KP6HdB8jdX8D+RnKg4Fgsm8JcZMVRiOLfEmY3NAlRknoh+SXabwtO6CeL5Ir2tiW0SKY7I1mF7jEO9NoLjI95SGqvyM1J55mzcxnv1aeuW5mfltM2N5Dduj+RqrKGzUiYz0Td5I/YgvxFaMgE/2T8tnShfxPD+C2GyKmq/lS7I3OMeNcJmv3n6KHOZLebvoPKKzwlZ9i2/OzToeEZabiXURdjc0X2M58cY56WaL+CxykorkCM8JrIrOiHzsEAqs+pCuWjPFUp8qpuI4ZjQUbyrbp9ntyjjaG9uq4iW5uQ4ayWJEcVTXiksYi1edlcYwMdgT46vzIZvxxZlvn2ZuLN4k62TTylvCq4S1EqU45skeFV2BN5JDNV0V21haTxXvjP6R3ny4AB0b4TLfnbbPaL1qN5XGUDzH0qeWTIazGBorj+LslRes6cK7lJH67YZmbKy8CU56tTGSvVFEPxjp2orHiQv4ZkEyRX7GM5FscYu3WxanMWexlog32S4T80d86GMU4ENd5l2MMJyfPIq5WR/5M5+vHaaxKdu5XqbyWdhNv32ar7EmNxQkoLCxnofFbPkLrppfB9n8sE4rfMWRznFMJFsxRPMzedFEOB1Zf9qaDVPFlfhu0hjMUyz253xUehfomnmPFdmjwVjVZz7luKov/LdH8zVWlQDl+XBMz0kgKjDMq2ys8M2iz7qUr6qveI7FeuMD2dXRGtjHYvNo4FylBc4Y8q8wjVHMb3iNp7GMxMfXNoHxOQNe6dRaoVz4PhS7O5qvsaoHD7pZoiKhEzY3MUZ8woNU3mQuEtGzHBaIymJzyNQ8Zqa9nWWeonBIr3yxbr1m3kJVZxDgfZ06n/iEe4gGY/Rt4FQ8sSOqDbFXY7s0X2P54dMm+KALeyMJjElsE97iRofiMvPkx/NFOD5Ux+sLR+aLdYgt4jleC+O87nECZ9hIz7rUsou+2pPi83USx/GMVb1ion3QfJFfgWMsx2P7dmi+xqoWLxuM9E0fTUYrFlMjyYkTbDgm8mmus2WbiOWysQ19xKcIz3MS76JiSGem6gmeGbKcrPkUwzrCViQ6h5NfFY/tPCJMa16MfjtsJqYZG4vID0g3KDybw8IvAHWywr92BSU486wvqGVTXmWM6/UfoOo6CVc1CeNEXxXFaXwLb/EIU8QWn+YaRZdwBqzqeWQdn49dCxI8onnPYte426GZG6t1Z9ANUjL9/42liaJk2SEUOC0U8puKpzIXfvFXuoazq/iY/qzFWv0FsF2juGyb4ItcK8YuaiM7pMCrwRjNqw6JUcQ0Mlvkx3iOw3M3MB6T5+C426cZGytKWNYrxjbdmbmBrwqNeU0aJ5Z1rBc/PoywwMzG4mnzMIZsRWzjGaY+dpW4ya6NOFPr0vndpBi78pmqnXgvfl5bw49VyPiK1E/j8VWxqud9bo9maiw+6Czr5nyDmfcnQq1k6H+iOOJN5kNlfcQbzuY7DWf6yEf9s49fW7EbPlVsogLjSrrmYXtLfWAXv+ouqnPIGiJsc+0ykmF1GBmOcl7l0HA5Fk9XxSS++Hux7dBMjWUUbUyTqo9ZDcs+jadwzmd/S25xAC0+klmnPqo3W4u3QmjYlPf16zwy5ySmVYjk75hgFLEC3uKeaRhJLF5fiKXB63decWjgKK7NmYwn25Zoxsbixcsm1RYdKiejIo0d+LvcIpoH/B/EZDKM4Vxoz1msu4UjvlnUJrOoOB0OzKL4h0SYKj7xVTyy+xLUnwe7c3y6U3outPgbPOMLeySrfrs0Y2Oh3EzKiajsymtSKYGJccJXf3tD8Xh4LJmnFbvSMwXrRL67VusJ+KoQ3UBy5r2AIiyz7MeUAPSNOZVHmZ+ieI1nnen5KnxxphIrsa6FbfESq7C3dNunGRuLEyVysUHivXlYH+BMrhqkhc98EZuJ5yJsVcxR7IxjrMqVv8VGqWPZ92bYIIZiKwzJFUbsFY7ffkexTNQYGevrP2W+72ZUMRPFjdaY1xlit0vzNRYnIfoPoLisvGLYlnk+fOhnNE0iFYHrGMcy02l6E1s4I9IXhSE2XgvvLVxHxiadX3nDsS3CGhtgEvNaqBpDffK1mJ/15pL5opGFr9ZmV5mnym/Lb7s0X2NVpJvNsieDMYqLBuGahcoq9lOcYbkIgnkUV2AZQ7KrolgBHvwXvw278c1fTmDMaVHUjGU+wsj+3BzgQr3qRB/Fq3LEvAxtnsLX9GQ3TIXbDs3UWFNJIIwmp+DZH1TM5B8NTl46Q2xQbMNUySe5OnyJxXJiOeIVz+tXbOaL/SlGsH5lvcQO51Q/9p/gqzhsp5Ea+mJkTIrOnGWcfiacs8J/ezRTYzGdtklNSkSKCZJUHICZVMHrsKEY5hmvRUO2Am8iywHvBW0mjRXwvNYohxyv+M6P4xmO9+OGMlbBi91lise6Fl/lxa4Sy8bUz9T8GsUzNljDDmjmxpJNcfKLDWcd857PrP+u3n/bEJnV4Qdz4T2sxiyMJT7h9EKsdPaiwPOQrxduNNiP4wU62DwREdbW7/Oy3ag1R4NPOV5oj8j8FEv6xPthW56rqgvGbZdmbCzZVDKdbpZ1LT4nKsJz8qpXacaNsHbBKE8HqPpCtovMWWAMF+XCeJvTcDq3+HFxeX4YE2CnMGCM6QwrPrauIqZgfW3i6ziKUayP4xkRpsgJx4t00dg+zddYnISEYEOSiALfSozgIb/ICA/Z5id5ks9yaugL/jSczFEVTuDj8VivfiiLK3zqyjGMNJbMU7goJl+r8zEKsIVedcZGeo2layO98xZL1xDptk/zNVZBmrxog1MY4Ys8RQkkvSU7/MJWfIrG5sE+xNv8bCqFUWdY1vlV4ql+NGZWMFVBWbxT7IYp9mwYB0g81gd8FU/jkl334byR8hqPMfla7SPy2T7N11jVb/tM5mtORHhgmpCI14KNfIxlm2K0EMRX/cLCCYYXEMfTOTRehI1whjEyjMoSo2ljP+J9D+KrfLiHVlzWTYxibo0rGLdpbBY11vZovsYqEmCy2KtNTmDtUh2w+Ljaiqw1B2Ga6whkn1/0upZqncYbZb6K18C6qHHJJ9ELGruz4HsWPccpeJbVHo2ItEmyrvKJ1qYYI64fjptt5lM1UxTr0Wm+xirWH206GoTlg0hZVoxTFF/1IhcHzBTI1eFkfYt3kedo8apjPfHVn3SI3fhqrdEcLd7kfC2K1Yjt5q44NzTm0jmZsi0Zr7ZIbzqJrevawZ+LGM3XWLr5qlEYIwkpfFk/ZdNCUD7CtTAk6+FoLI2bAn1hlzxUsWhexoRxlWdd1lsco+aDDpGb8+naA7vrst6xjCM7x60wGjfH85gR1ngmi6/67dCMjWVEmw8fIChlffi9lSQyQQqQsexD+qT6CEPxC2r4VIXGg/2UAn0Uy2XSu9l4jqXzGy5aT+Y9j1yAEsfm8l/vazz1iexGxIdrU3/ep8ZnP4vH+gi/XZq3sYoi0aSYnnhLbjKsEeNZp4ni+DKHrsVtzPOBmE5tpGsWBNNUsfJgX44hOIdH/qbP1wJnap4j82fJNa8/xIvK8l3lh3n7MxYebKdzS9zMiiVMFU+wbt8uzdhYtKlkstpI9r1LIgqeMNXh8iC9qzSWxhPc1AEZvogVxC/WGdgr7FTxsF9k5zhaQBEep6zPSHU0D8tqb9l4fcUajSi+m3RO1oHiaDxZR8q8TrkFmq+xqsS7gfgs24ZDHCUlRXFZNooOJl+LD7A6J9NEXPDbIcZoPLU3+GT/aPEwJu9n6qdYRYEF9kI2Up3iM1998Cc7N0l1PpmvGqm1Dl2L4mXeSK8YF6M5tkPzNRYgG4g2zk3FJHJYMAWgIQY+xcHbhePryPao4N2XZBc1hmL1wPVKI9H/OFvXb3wRZ4K3Ai+K0jA8GGvzNua265nXptTw8yvPYaqzYCP9bmjGxgo2bodTJEc3HyWGSeOK/2RBM454tVW6fOXYhb/IzaIlsdCznQrfijrECo79eS7jHaeYRrwij4Jt2g0jWNXp4L1W68xXs6uvxrb5qvUpfrs0Y2Oh3Igly/fFG6TkFInNuupXHJIgPxSzMUksnp/56D8mw4ddGso1VPMaTxjjwwNXrBFhijlk7U3KtqJQG3wVRhUaK/O+Lo0XnKNfKVaFCWKxrXpaTDYXNWbEb5dmaqzWRqOkNRJoI0X+TJFNYvDo+DDJJ3GszIefZ3jglEYxlvcR2JVvFY8VYjL7GUaxV/YjvtgDYwUfFqzoms1ivLGyhgJH+mS8qQOM2R2r8ZTfPs3UWEy6SdaxjDJpSX9vKEkqDjCIxT5JYrvSjafElfiO4UF2jVdgIny+plxIraJLrGNf0dv6qjXqXBNNwLZmLIoHXp+R8NWc4t/iPa4O04PW1yCzT0AehWZsLE0i6f1Km41woS67hR/miffwrDdin3xNcoCtYuI1ReuzazW3rkPmjOYqsPnKOuaL9QZ25qtYSrSGIr9sE77KM2F8bUw0R6EjPplO1yD6sAaMSPZ426d5Gsv3pxuWBIXFoMlhLKsnDsvVEreYj0YijBNjjFW74jSeYo2P1hFgiz3qfA4i3kTF0ijsUxgmjkc6W1+1l2gwsU4wHtNs7EP4Ym7FEq7gW9hHp3kaCwg2w/qIVH/WA5N5kv1j8TguYe3wHB9gWFXE09h60DrErygGLiLTG8bswXw8qjkVaxfF6UAQi+PkURS0B2/gorf0jDea2ofoqrkbozgTxm6fZmwsJdtsTkyVHMIUycn4gqbk03gtZJ2bscaqPsLyXEYZZwVWHTLjiPcCY7vE96IxuxtiLCIs0eTaNOZpvOjCwpaY1doEm3BK3ZCuyAsP1m2XZmws3aypdFO68axzUfSRnBAURsB7wpla2Ix3HWOMsr44bNKH8ll51bGsOuUJV61N7C6zPuATGoUtMSzHiXRsZx+L53kWu8t8NZ5G4lhsF7/w/LdDMzYWgg0qTzpOcpUck5knP9AvE6o5TNQ5g7kLP8GwzOtMZmth1GbUwBbrbOFEz/gqVjCfq06Zz+c1fWTPunCvgvO1Z77AGs868nOKbGpXPppjuzRfY+kB+2/NWhtnask5QYniF7AgXoRTO6gpLbbO6bxhG7Zq7aozn6wz01R+qj3oXBxTcaxTfObdRXF57khfYTJFX7RX85k8sZ6U4xZnyjiZV2PwcBjjt0vzNRbkh5vFAWW7XVld/SEeJ9JETZAegOpEH+mSrSOyZ97hwdoMU1xbfL76fFxshE02F+GqGFyI5kt2NVqxFnsI4lYBG1iNkwJsMZ/ZjYR3kbE8TK32iLeL1EdRF9uhGRvLSDdLclHMebhsZHpJGNsKXuM0hs0dNrKNrOfCqNahPmeZG3VBOhmG9YEdFoN10VA7U0O23KTGz8ksH4l8qnkplpPEKebTvBnPV8Kq3vw4VpVjjr1dmrGxOAFZLmjipzsVT0nhu6ATJxVBUTJvF/MhvV+N1E76wt900dxid9/I3tIHfJFbTPunjK8KzewyOEZzPyzLfHZpnr/M7TodhK3WprzGF/8d04yNhelNp5ws1auPNYvDFEMN5XHsqvEb/mZPYq+KSnzMbvNX+yHe7MlskZ34AsPz8rp4UCxnOVZEWd986CN8MVVj7pTnrWLIqM5swifMq+LRmJd5nnO7NFNj8abyhnUUO6SNM7nIdk7SVNLFL4Gw6jMV1/TCV/O2YvB+o1hiT2YL4iY0cif8afNpvALPsQynmBaW3lpXzUq4xD5RLDTOVvEUrzovxbJt+zRTYxlFyWGKNs+kthbPsl4hxchX0VVvMyNsljsrIh5kt2tx4HYlbFiwjMnXRLwropjRW+yIV3+205ynzWsNYPswfLTvZjy7Em9fn7TOLkXx9Gqivjhsn+ZrLNv4qBCeh6mDgyp87EoH2BwG1xiB3UM3Pqw78YHyGuxKftVDEcIWe2QSbDGHDvYxlvLW8kuGC/wLnOnVTrzPwWb248Eg1XMMXqP65SurqxiF8Qz72A7N2Fi9McEwvbF6kNHItpTxRRyJaRjHaZyW3WJ7kHHYgVf/2a9G3GR2xrFuQl/4ayzSu533kv01brhfHeyiMWRUc+jI+oRgbiOKFWI05ln0ald9T/L2aJ7GSglpczyxAdJ7ISsFSUqRnngPpQlVndqjQsFY4D6vFHxFU3NkvvDnYZCGn18znzK2iKdEhc065bmwPZ5diXcxiFHwkW6Kj3Q8L81d5KfBV7jx2vdpfM3fIs3SWCmtsTl+hzU1769QrOdhGFaJ3f0yFtwgAQYUr/lfWFJ9hCE+QYqSiefltbHN+DOsvSBdUyCnCGeU+eIMTB/FI7vH1WH6HLdqggA7tWfPqfoGWOMdn/1lvs1Jwvpk+501S2MBwOH9t4G0GTfGiS4Os9x4qWe+NaJ46pNlTnRSrLHcJOI/grJJ7TIMU8zFPPkXsdgmes9jYPN5GWN6shdz8hM8jmW6qTkn8BXWILS+ao0k29oK/wBbxdIx4lOfcPQw4eSkekr1yDRLY632zuH2vRP0J4eUIIyJML5KlImnFHYyDMdjjMQNcSybWjF2lZH0jhfxJvPVeIqTEMwrfpPFI35FLNPzNfMcK4zb8Kt4wRfnK/Zqn2wnvhmDdVM868ZaWp8k3H7nAOvuMQU+Ms3SWBcvP44371zC8dtvol8f+cYG4iSxHkHxKIYbjol9eJ4cM5w780XRRhi+GhutQ2I1iyP7uqvaI94o0pFcFa7gU8Yk0rGded+H6RTDezS1zMfXam3B1acxJpo3X6u12Rwac9D164SHD9b4xp3ruHDzoxmzPZqlsR5/8odwt/8g7t/6Bo7vvY5+fdhIkibF9IG9GI0YGi88TOL9IE4bGRsdHM/npP6ETS27Yg2vNoplo7nXCH+KvdjnxHC3KR+zR2835Vr4M5aGzzUVi3GDvu8TDh+scevOCnfSh/GB5z6R8dujWRrr6mM3cHD9x/DG7fM4vPUqju68hs3De0ibE/rchZwEEzlRRpYoEqsDMspyAhWZ4XQQviDS2QE24zGeYynWRC4+VxJPOikM1/uV+LOsjeO0HtqkvMaKRFfsg20a1+JZfPZhPePcUWTDuBDwZS2llNBvEk6Oerxzb427t3u88fYT2Lv503jyPe8l/+1Qd3R0JCvePqWU8MpXX8Srf/Sf8ezeb+PJyw+wf/EG9i9ex97BBXR754Cu8ySIt33lPtoKyCAkpPxDiRprCLMYyvwMNxq0iLNOZfap8KTjXz44TPyr+JmkyHgvo1J9fVflfOOmhSH/VO5nuIz2TtZq9vLjv66H10hrc8oamxuUG7YHngOJXtZsTbVeJxw/7PHwQY87Dy/j66u/iR/+5D/G+z/4IXTDxrZGszQWABwfH+OrL30Rb/zZf8Ozq8/h8Qt3sepWWO2fQ7e3PxwNryTv02vBbNw3lIsEoKMCSwC6rhvrUoub8ziAkVJUfAEe44IGEzsNvIXKoZHSUFBRGDvTlAHF0ngdvqwOXbFA5BeWMdBozTnAsKAin90Qx+aotp6ANCx+VHZ5va6qvGKyNbg4+A2hcjAubs1XXkaYRF6c7U3Osu8T+g2w6Tu8fXIZ30g/gyd/4lfx0Y/9NA4ODjzStmi2xgKAvu/xyldfxNf+32dx4/j3cPPgm7hw8BAH3Ror9J57v3llGpKfM9tlTQYMRZFP2iB0RbISpMKTo+CzKpIhhkEc442xy5oAn2vWc4PYmqWOaDXMd3435hhjMw64hOGFhN2HAhuA41YsT5YN3jHlJ9x79qO/Ci7PBcN66cUig/L6RplMI5/KnAy64cqurfiGs7UPuRnWuE57OO7P4c76Cdw7/wk8/eO/hB/98Z/C3t4eBdoezdpYAJBSwnfe+jZe/tIf4sG3/xj7J2/iXLqLDidFWTneS2w4wA45aXagbq3LZKR8NxrFssnkoJL/sxvyYrHNVHPaq7VUWUApDehV16HP/qvsZuF0vkEelP4WaGK/YT6CwzJxatWMKeJ2yC8Cw85HXZyLKg7N63Fzc/XdAfrVZWwOnsSl9/wEnvvYz+HJJ5/a+ts/ptkby6jve9x/5x3cvv0WDh+8jX6zVsgWiA9Kj0KTqsfzvSc+mGgHsxKnbPbJ//LUdR1We3u4cOEyHrt+A9euXcdqtftndt+zxlpooXcz7b51F1roB5CWxlpooR3Q0lgLLbQDWhproYV2QEtjLbTQDmhprIUW2gEtjbXQQjugpbEWWmgHtDTWQgvtgJbGWmihHdDSWAsttANaGmuhhXZAS2MttNAOaGmshRbaAS2NtdBCO6ClsRZaaAe0NNZCC+2AlsZaaKEd0NJYCy20A/r/86aOfhLWLFYAAAAASUVORK5CYII=;" vertex="1" parent="1">
          <mxGeometry x="201" y="118" width="59.78" height="50" as="geometry" />
        </mxCell>
        <mxCell id="_Jj7Ve39ARDFc18teFEc-22" style="edgeStyle=orthogonalEdgeStyle;rounded=0;orthogonalLoop=1;jettySize=auto;html=1;" edge="1" parent="1" source="_Jj7Ve39ARDFc18teFEc-4" target="_Jj7Ve39ARDFc18teFEc-8">
          <mxGeometry relative="1" as="geometry" />
        </mxCell>
        <mxCell id="_Jj7Ve39ARDFc18teFEc-23" style="edgeStyle=orthogonalEdgeStyle;rounded=0;orthogonalLoop=1;jettySize=auto;html=1;entryX=0.5;entryY=0;entryDx=0;entryDy=0;" edge="1" parent="1" source="_Jj7Ve39ARDFc18teFEc-4" target="_Jj7Ve39ARDFc18teFEc-7">
          <mxGeometry relative="1" as="geometry">
            <Array as="points">
              <mxPoint x="35" y="266" />
            </Array>
          </mxGeometry>
        </mxCell>
        <mxCell id="_Jj7Ve39ARDFc18teFEc-4" value="" style="shape=image;verticalLabelPosition=bottom;labelBackgroundColor=default;verticalAlign=top;aspect=fixed;imageAspect=0;image=data:image/png,iVBORw0KGgoAAAANSUhEUgAAANYAAACzCAYAAAD12uLHAAAAAXNSR0IArs4c6QAAAARnQU1BAACxjwv8YQUAAAAJcEhZcwAADsMAAA7DAcdvqGQAADQ4SURBVHhe7X3PryXHdd7X9703v4czwyFFiaYkSqJt2bIcyyZgK1ZiJDIQwAhgJwi8TLLJIlnkB5BFoOyyyT5/QIAACQ0ECSDbcQJkYdkIIMc2YBmObcmiSJGiKFISNb/ImTfvvXu7sug6p7/66lS/J8+9LYvqA9T0+fGdU1Wnzrl9b9/7yO7o6ChhoYUW2iqtVLHQQgs9Oi2NtdBCO6ClsRZaaAe0NNZCC+2AlsZaaKEd0NJYCy20A1oaa6GFdkBLYy200A5oaayFFtoBLY210EI7oKWxFlpoB7Q01kIL7YCWxlpooR3Q0lgLLbQDWhproYV2QEtjLbTQDmhprIUW2gEtjbXQQjugpbEWWmgHtDTWQgvtgJbGWmihHdDSWAsttANaGmuhhXZAS2MttNAOqPte/Qc7U0q4d+8ubr31Bg7v38NmcwygU9hfWeq6FfbPXcDFS1dx5ep1XL58FRcuXFDYQj+gNHtjpZRw+9Z38I3XvoR7b/4xDh7+OS7imzi3OkTXAQnDcoYW65CQ0KEDEoAuN14aRKcOQErSmIyYbtg0lYHs6lNk2qR9POyv4Lh7CuuD92H/8jO48dSP4n3PfASPPXZtBC70A0mzNtZ6vca33nwdr37xf+Pmw9/Ah66+iPP7x1h1PTqkoXI7q2L1LpsjpRGUUoeuM4cOKSXvQdflpu7yBEPDUr/KfC4mC5Qb13q7B3p02PQr9Gkf944v4bUHH8XhlV/A9fd9Au99+sO4+tg1HBwcWKSFfoBotsY6OjrCa6++iG/+xWfxkf3fwjOPvYFV12fr0AwRedOksagxljlSsiYDNdeIQQK63GVjs+Qrx0uDYmi5AWNtaHfNqSa0tdw7voKX3v4Y7l/8FK49/Tw+8KEfW+5gP4A0S2OllPD1r72Mr/3xf8JPXPwNPHHp9vDi39kbPwyNY3esglZASsONIw2FrQ1ijQUUN5XxbWTQVCnHYhvr/M5nYm6ssY2C9WRdn1a4c3wNL7/zcZzc+CX8yE9+Go/ffIJRC73LaZangg8fPsSbr/0J3r//f/DE5Tu5LtNwl0i5qUBNlbr8Rm24f9jNKmwqk6ljLKw1QzIzdQA3ld0svalczmtIwxianzAmprxmu8t1CTfO38Vfu/F53Lz3H/GlL/xP3L71neZdeaF3H83SWHduv4WTW1/A+658Hej6ssKNEvKdwIq5bojAK79Vy13RpfFtn/nlEfmazt7e2ecvmL+Rq3PzJ4e5fVD5aoDUY3+1wbNXX8bN+/8VX/yj38Jbb32LnBZ6N9MsjXX7rddxI/0/XDo4GpX02UjfAnrdUnEPkFzBQydlS36zl2PZXaFjCLEpx0oujCC/o3Rd9TbRmwrFe83qbmdvPU1xsLfBhx/7Mp64/1/w5S/8Fu7du5udF3o30yyNdfjOt/DeSy97U3RdR++qOgAdUqKldGOj2VtCUOGPn6mG61DDwwOOxHe7TP5Wzgp/7KXcOh3Q5c9Q1ri2VoUyxkR/Gzg++GD7wWqNjzz2Eh5/8Ot48c8+j6MjeoFZ6F1JszRWf/IANy/cy1J+uobhrmBN0OXPXPwWzoq0/GxS3k3cJHcM67URSfVujMXJuOHJ39iYRfwB4OsaRhlAH6IYpQTsdT3ef+VlbN78dbz84p+i7+2J6ELvRpqlsVLqsbfaUCVTAxlmZL247amFPbSwO0OBz8050vgkj6fw54+moCch9hkL1vYWM/ps1nX+OQ7WyFl2dXGbG6e6vP8AH77wh/jOi/8d33j91RK00LuKZmmsgexxdUBy50Au7oLs0aDL0lASPIGe4Jmr322GQMwr+WemYE6fN9gQv+3ME1j7AQm4ceEOPnTwu3jlTz6Lt779zeVJ4buUZmushKE5/G1XlxuKCpfvTEgYPmtZYdLdgPvPmyWNj9YH+/iE0DA1DcGKt36FuSsesQ/zuJFvejnOMJ/0IpC/AkAHrLqEp6+8iac3v4m/+ML/wttv21vkhd5NNFtjjfeIoIBJGHqt/ObVCt8pC3w3GQqYS3q8QybAv5Ny8maht5e2MHccHkckjM3Ov+5wztaXfQc8hXGPLCfg6Uuv48rb/wNf+eIfYL1eC2Kh73earbEKooobinosbngTAMCKa3y8k5luZNEB5ecor+zOH2iEjQD4nbTEZb6YpLyDGSV+4ejG94q63oGGO925/TU+dPUvcPL6Z/HyV/58aa53Gc3UWGXjALlAuSCtEPmzWJfy00JrtLJK+f40fDlMBqtpq3Ny7YYuHBqiG5rBb5Dd+HloaIIczJ11FfrQYvwsOIjj201Qo3YArp57gOcu/T6+/cUX8LVXXlyeFL6LaKbGKotx+MCef9JENv3MMhT/WNTcXuOwwre7ySi7Jxf62DPeEHaHtIbD0M50ByxbyXE0DDF+1zZOmII5hjswcOP8bXz43Ofw9T//Tdy+9R2bYqHvc5qtsTr/py5oo6Kp5DNSRawkPtlbQOsJsldx8jwD6RfL49O98snhyNfrGx+ydB0/qMlxrKEcDwAdbl64jff0v4sX//R3cP/+/cK60PcnzfLr9j/4nV/DJ/f+DTWSTUm/diBK/MqecaWVm2K483X5lxMBMgckA5B/pTGqz56EYmG56QYhJXp6KSQ3vYqON+fxxbsfx8Mbfx9Xrv+Qmhd6BFrtHeDi5cdw7foTuHb9Bvb39xWydZqpsV7AX9//DAB7q2Qv60PBVbVI1T40zVj4jE/0uGF43J5/O0EBE6yJyi+O6Y3id9FURU9lyg8+pKMNY/pWY/Fd7fDkHL59+AQebK6Vmx6QLGTiPNqkudF9QTlDtIDxDkpfSRDpL12GEIKz22+X3/TkJAz55h9D03lXh216W7YnI9wuRcpm/XnaYChwCVinczjs3oPNxedw/elP4NnnfhLXrl0Xx+3S96CxBl3i75kGxUg5scNnnDGVdi7DGeaDA/zuA37Txgkv7k420ehTgulQ+dE6r88atYP4Ci5vZdB3xVzDHuzBjK4Bw/pMXTSAK/Ncq3GdNPfgO7zQuClh8LUkOtY+cA5V2eUXPEp9Jto3T1m8+NmG80odWwajpZZfk9jc9LI5SJYzU/AZZFV+x5ByzyPP3yegT3t4uLmArx9+BA+u/R0888OfwtPPPItz586NAbZIszbWeLgYmqbbR3fwOHD+KWDvMoC97JGLhrPGRCtOwHCfyn+O7wk1gN0V7dWUiJPPDTGUI7/JIzJFtbRBUb3aFzSstkmpB/pjoH8IpJNBruA5hheP3gUyVQvXpY+AYslE4x2tTHgJ1z0Rnpu3mNdeOMnVOzlaTDVpRSmH8OXmu/ggJqTNMfr1EfrNGm8dXsfXNn8DT370H+AjP/LxnTTXLI31+9ZYiTK8dwXd1Y+hu/HzwJWPAQc30a0OvFhsUUPe7Y4z/ltmmg/WJjBe7X91yFeXAKRjYP0ddMffRtrcRdcfAmmTgYakPWc2f30dlKQD8j8ao0QD9DLPOuX9EJkE53OaKpoz4Iv5yaeIZ1jiffOpwiUkoN+gPznE5ugu1oe3sDm8gzsPL+LLx5/Gcz/7T/DM+5/NPtujeRrrcy/gk/ufGfbadcDB4+ge/xS69/4qumvPI+1dnPMB5V8hysXcP0B39Dq6o1eA9Z3cUPwHoVJcrQLUq7H0pfWIEbzFL5rABrdto9D1ynGque064dO1YlAs0/lP3zimyRju/Ckh9WtsHt7F8d3XcHz/LXz11k3cvfmP8PynfmXrd615GwsY3vLd/FtYfeCfAlc+7p+Kxu9/trecKpIpTruBVY5TFIH1bSdPPFo6nGBvcxfd8TewOn4N2LwzFoc1lxeMXbJ9VAiv2Oia+QJjOsaqjXjWR9fizhbhpzBZ1mYq8KRvXs3HBSAl9OtDnNx7A/duvYE/vfWTePaT/xo/9MwHCPfoNEtj/cHv/Bp+dvVvh41deg7dB/8Zuqd+GQn7SCmNA5TDkeFLcADDB6TSPnaO6YcXQPWtqUJQAH+BbK2GhCpOXtcQI2GFExz038S59WvY29wa3gqiB/p1/nxljaW/xrDIPJkvrC6kiD8V02i64qp6E6dwvIZANxpoDaQ3ubhDkT3kSUc+aXOEo7uv40uvHOPe4/8QP/cLv6IOj0Szvf9K9gJ04RngsZ9Gn/aw2Wyw6Xts+h69j80wNn22b4brxFj3jBv81nk4xm02RoyPNcVdD0Nt680GJ+txrNc91uvBvt5scJKH69brPAZ+sz5GWt/D3smrODj+CvY23wLS0dBI/RHQPwD6w0HXnwBpffrAptal9RAz4gu86vNAll2XmzylfFW9+Rkv+sK3z3FNR3qXU347bINkt1ljMp+HxyDZGy6h2zuHg8tP4D3XgaO7X5FqfXSarbGAHikl9HuPIR08RY00jE3fo7dG2/RlQ/WbwVY1x9AgQxMOo8/+fR5FoxRNGmCCMcy7LuXcyPZCUOPzi0PGDHOtgc19HPRv4uL6RVxcfwX7/e1c1CdDM/WH+W5VF8I4TGbKst8tRK98gWO9/RPF0aF2M5ltAneqPvBtrTnCuSpoMMLvHVzCtetXsbd5x3Xbotkaq8/7TdjHBueG4ku5qNdUvOs11lTIw6v8ZtD5q3892LYxbI6zznxxNZ7m2hS2en7z9buZz0d228N6Pdzl1kND7fffwsX+FVzavIjz/etYpcP81u8Y2BwOj9j7TaOhjMTmRWO2Bg6WfMUrbzFZ1YpLuvCFgOzs5/FFX1wZq5iIZ6wr6BqMNHy5feHiZRyc2/4vMWZpLPv81Ceg75O//RsaKhfleoOT9XoYJyc+hgIdrifSQDZGrPkd42R9jPXJyTDW65E/OcFJjlfGsLmHsV4POFuT4n3e9RrH6zXWJ2ts1ifDdyXrI6TNA6w2d3DQv4lL6au40n8ZF/tXsZ/uoUN+C9Y/zHepYykgBDwVihUn9HPVaTGmeCnMjm3CpzxnWMwq52uB1fUGPhw3kX5UBLLG06uJI647OI/Vwfb/ZxazPLz4/c+9gOfxGfR9h/Sev4f+R/49+s0GqV+jS0dAWufvG3r0GA6gzKUu0b5A5tyVX5SO55IZw7uNvsZPGObP0OFLxkFI+ScF9oXxSNmepQ49VuixwhqrboM9PMTB6hDnuvvYx8OMtM8c66GZ+vzAoihOjtrgbf0FCY4xnqcgFsa9VvrWwxBXBbaKz/KZfabmINnWVa3RKEks/kkJYVKPz7/0DJ7/xX9J+kenWRrr/37uBfxM/xn0qcPmyV8GfvjfYdU/wCrdxz4eYIVjdPkDKBd4/Qo38IOkBzAIHfIvZJIUV7b7hV6Rx6eFI7b8Gpqbzn5KVMbtkIbm6jZYYRjDh2rz3+TPT8f5M5V9KGcK1sq8qU59Koa6gAqq91vGU3yOd1qD+jrVf0qm8y5+mjXhc6a9Zf60WEj4/Evvx/Of/ueke3Sap7F++wV8ov8M+rQCnvy72H/uX+F8dxt7OESHDW2UX9my3OTtEFR/Rl31FopsiGzFwkTPB2j+9PTKHlCk49xg7K+8ysTrHiI+ceOJrZBtnawzCuQqLtn4+t00VZXjU+6ujxq7wX/+pWfw/Kf/Bdkeneb5jJX/f1K48AzOXX0vLnTfwj7uo0sn+bdxx8DmIbA5yo+cj/LnD+Z5ZH2B53Hc1qVAZ2vwEekmxuZ4fGvXH9M6Hwxf+m7u589S+nDCsmNXtgkubKoIEzR5hc1XxzFpbJKLuEG8ZiyVI1+mBq54L85+sibPsWICPkUvFo9Os9yxfu+3X8BP7f0HnHvv38b5p34eq4PLw3c0fS5I+56joCgRstSw2JjXpEVxOMkTtogv8Hy1u1UeVVyVhTexeVclOUV3kjPEVn1Bdoci/qz4ybsK8UXMU3wKc+TDcadiZdnmznfHz7/0fjz/i9+Hd6yu28Pq8gdxcOPjWO1fBDYPgPVdYHM3f39zRG+Vpgbd4bwpg+GYk0Zc1p8IjvENXG88Y2ys84uEfdmJoAhUzlfDe0G3ikiKxedQG/HFK3MDYzLjPDbpCtLCZzIDrSvZvtjGFMzldyrzCzCqLhTsR/rk/2ydZmksrM5hdflD2Dt/fXhbtH47N1NOMj1ICBPiKsZyQlo8yw29xT21iJP9DF1w0VpUbvG2BinOU+/ELOt8rLfYjDNswCs2mc2IeMcSFTlkXu2uEF5lnkfthHE+mFP5RC9cYczt0EyNdR4HVz+IDifDZ460LjdWFTVtWA+6KjrxSazXuILz2OwT8Dxn5eOGUS5i81CcFmcDZ2twUZuA8VFsniOSM77Sa2wTmWc744I1u4PgjOd9pciHeMdkXMcN0/LJfBXX5O3RLI3VrQ6wf/Fm/gM+/nMIyOYoAdVeg0QZXxxEFJvlFi6irLfPDlxQLf8qthtIH8UiWxg764uiUEwkKy9rCPelAwFW7DpPITYwupaWrdDbReav1ka6ZGsIYu2IZmqsFVarg+GX283N6UaDRJ2ZF7lKMBPPwck3PGOMGEO4ydiqi+SWja++KOGzbOuJbH9pXklxJPP8/tb5rGvJcvGZingPE/j4NfNVozJPeA21JZqlsQZaB79ChvCWkMimCeGkKCaSz6InW2Kc2AqM4jRmvvIrqu9RY9s1moexgRw2lM4TraHlwyqOY0rGRoP9FEv+LrIfy1GMyG6+tMcpvOMYsz2ap7FSPzwxqzYg8mRCCJPy27MzPY5u6MO49qoY2Ao/u6ie51KbsRGGhrsJX/mY2Jin4FluFR5jKK7mwn1I76ziAt5ZaqqiwGU+xtdK4qN9abx8beZsezRPYyHlv9UhmTdpo0qCbJoTF/o4MF9Yr7GZFMfUsk3xuk79YD3BV98d6XqIqv3ZVfS2hhAfyFWBuqHmXUWN4m/lst7ZHK86u2gthKnwjMtXXkdxFf1kDrZHMzWWkSQm3GSAOTWxmWfsmYsjwvFcNMK1aLx8TXbY5KvxNGYVm/wjfBibSedjXYDRuBVG+NSwJZaNDfxDntdhpLyOSB/gm2vYPs3YWCnvZypxomOM/zf+NHmWNANGcQM5ncXH1pzxLYyOs8Rt0hSuZQtwnmfSVT4kN9dscuYTggYMcCwXuTMKdBa7Ugof7o2vmbdYTazOtT2ar7GS/yPKIClVIrJcvMUwG8Wumo95w/JBTxyQ66NYRsIX5gmcXRKvmWwFb0FVVhzZvOgjjMqSD9Z/V7zIRfHbeniwD+NEH/L5ak8dC1/VTcVQ/fZovsaa3AxtuHjFIr56UGGF3IpFvB+yYaMm5DWIf8WrHMUK4hrPa+Y1OZFPEUIxJBd7bGBMZmw1f4vn+SOMxC706mOk+AhH+mRnk3XRXKpTO2Mcu32asbEgSeONkkptyE3Ah5oYQz7Ngw/IY7BiInZB0cFM4YmKg1Se5vUiyrZwb2zTORtyc36ViU/s18CA16ukhmi9po/k6Fxa64iohT3N7y9PMzZWY0PFK0q26RM0xliC3Sy+6pf0R5zKk4/FLjCK4yJnHGNsQsJXTajzsNiyKc8FJ/qCz/Lk/GIrIBInosKksZlIPut6kunYTrzDNV4UV3nFbIdmbCzUCWOeX3WjwnJz5M/6zPOhFa/oyhur+oAPm0ObhmyuV5vgXGzEVxysmFh/Cl/EZYzELfjW+skWrpmx6gPJS4AxucIF+LPE8ViYiLddmrGxaAO2SdVHCWnaGno/ZLMxGVZihz5nwShvsuqMWnqLr2tTPBVIcw3C63KqB0Ao4xaxdS1TvK6B7cY29Iqp9qjYLFdnwrLpVG6tYbs0Y2MZ0aY8MZoUS5yNwBbxRb4UF83RWgPjeH7FRPFMHdgK3vC2hhaeZI+rsRhHvIs8X4Ar+LNg7MJ6k3WA9siYgG9ijKJ4oo/8XB/47IhmbCx6JeqmfmjZKIgiMZIk91GsDsNqA0zFZZsbhLfYJE/G5n22MEaBLfzziDx4f2Fskh0bPSVV3nxMpRiNb6LilM8Yj6lD9FU8sRXna/goFtu3T/M0lu/FEpA35Zs1G/FFApnOglNMEAYgpQI07kRsZ6dwTFpEEWUbFwrbTt2zyi3bGdfPxVo1NRGHKOKdElf1TDavXQclA0ZcQRqX1lNA1W87NE9jAXEynCd58pWTZE90hDPiw0CjWRiQMa4SW2ueKu7ESByHiWPYhecQubBZ8ZmeYwnPhVphVD5rU7Mc+PhV9MW7lmB4c2oMwVTzRX7Gamyxb4lmaqzWZqOEGB8RJzLyn8JFsQMf1ysvcSx+WGjEO87UipO5inVHuABfYCb4Km/RHMSb2J3ygje5ZuMVj8Z6Mp8CP8VWew8wzqPEF/vZPs3UWEpUaEXhtZJlcovEx8TwFZFlmd9tglFTQY244L0EtiqY4rOu8GFTtGblKUQYe4Ln2D5XhNM1sky4Ii7jxI4optjPxJuKm57i8hyB26PSjI1FG/ONtJKiPDViZHOeMVExqNyyKYbmqZqfccQXoSdwGr/QsxzZWryp2FYYYt4aKJm+FTvz1QsHk/pzXL6KvYrZmpv4ai57MSC/IhfEF028PZqxsTJVrx5BUow/00FnPnFsxTCOh9giHxancMxXcRu8hzKfABPFTvpWRjFcMIoTmfNR4IxUfxZ8lotc8/w6MrbSW1yOM4XVuXg9UTyzb5/mayxPCCsKY8knfSvX4D05E5giNpPZIn+Lbaop32yvCoixxLtZcUakSxybbMyPwCBuNAcXqOgLnmPUbBtvsXVuiZfyP74Ovp42ZxCrqi/FZt7mLQNvleZrLN1ciy/yocmRYQnyEJos4r0wTc9xmYLCDw+eqLK7QXymDjWIEe7fjSXv5gmMjQJH+kI2Yt4eYrQw9gIQ2Tk+Rkxiu/oRPsRILCf1IT6xXfnt0cyNFWyU7b7pqWFw1Ussk/2g2SYYlpPadA7yKYoowrOc8ewfYo0N/CuZ+Oo/JhrxFpcHY2T4ixE1jIeKsN9F3MJuvBHPp/7iV52tYrO+iMVY47dLMzYWU5CMFOmF91xMJcSw0QHyYDz5FLEj3lRscyXxIhcFgCC2YoM5FeMhtOADvsqHG4gnSvYPn02wrmpfEIzMVcQivbMRpoEt7BHW4oku9NsuzdxYmoDMJ/8n2KzyUROSDZBEtvgsu1sLJz5hgdLcThR78mBZx4OJdVIoxVoiXudvYNiWiGe98ha3wAfYlLFVXJb5jhLEYL2dQRWPeD+nifmK63ZpxsayZHBScgI8aZokS6ThRB/5TcbLV8MwdvJQc9wwNuNNVizp1b/IySl4z1sU20j8T12zxmec2E0/mYtWvLPiArvrzTaF0TlbWM57hm2RZmos3iSreeOubCQkwjE15gBif5+7RdFc6hPISWPr+tUmlFRPfBeNILYVSxVLiWxVPiyAYCbPTLC8zgJLmGqNAZ9o7gKvsSJ7g+dpdkAzNZbkSzdZ6EX0RLUSJKPCyTwej0nXYNjTCon5aD71Ib0VQfGj1gafIPtkWXx8vaL39fA6jJW1VRjVaVy+UjwPp5ipvNo1Dz9THuJXrV/sThaTZb5uj+ZrLCDYuI6cJC/oCJ/5MJlGLEvsKp7Kxp42V+Ydy0WueI5lovlEWG4gsymGZVDORF/wWeYcN/NMsosBhucN1xBgm3Maz1fVEfZMsWik7KP6HdB8jdX8D+RnKg4Fgsm8JcZMVRiOLfEmY3NAlRknoh+SXabwtO6CeL5Ir2tiW0SKY7I1mF7jEO9NoLjI95SGqvyM1J55mzcxnv1aeuW5mfltM2N5Dduj+RqrKGzUiYz0Td5I/YgvxFaMgE/2T8tnShfxPD+C2GyKmq/lS7I3OMeNcJmv3n6KHOZLebvoPKKzwlZ9i2/OzToeEZabiXURdjc0X2M58cY56WaL+CxykorkCM8JrIrOiHzsEAqs+pCuWjPFUp8qpuI4ZjQUbyrbp9ntyjjaG9uq4iW5uQ4ayWJEcVTXiksYi1edlcYwMdgT46vzIZvxxZlvn2ZuLN4k62TTylvCq4S1EqU45skeFV2BN5JDNV0V21haTxXvjP6R3ny4AB0b4TLfnbbPaL1qN5XGUDzH0qeWTIazGBorj+LslRes6cK7lJH67YZmbKy8CU56tTGSvVFEPxjp2orHiQv4ZkEyRX7GM5FscYu3WxanMWexlog32S4T80d86GMU4ENd5l2MMJyfPIq5WR/5M5+vHaaxKdu5XqbyWdhNv32ar7EmNxQkoLCxnofFbPkLrppfB9n8sE4rfMWRznFMJFsxRPMzedFEOB1Zf9qaDVPFlfhu0hjMUyz253xUehfomnmPFdmjwVjVZz7luKov/LdH8zVWlQDl+XBMz0kgKjDMq2ys8M2iz7qUr6qveI7FeuMD2dXRGtjHYvNo4FylBc4Y8q8wjVHMb3iNp7GMxMfXNoHxOQNe6dRaoVz4PhS7O5qvsaoHD7pZoiKhEzY3MUZ8woNU3mQuEtGzHBaIymJzyNQ8Zqa9nWWeonBIr3yxbr1m3kJVZxDgfZ06n/iEe4gGY/Rt4FQ8sSOqDbFXY7s0X2P54dMm+KALeyMJjElsE97iRofiMvPkx/NFOD5Ux+sLR+aLdYgt4jleC+O87nECZ9hIz7rUsou+2pPi83USx/GMVb1ion3QfJFfgWMsx2P7dmi+xqoWLxuM9E0fTUYrFlMjyYkTbDgm8mmus2WbiOWysQ19xKcIz3MS76JiSGem6gmeGbKcrPkUwzrCViQ6h5NfFY/tPCJMa16MfjtsJqYZG4vID0g3KDybw8IvAHWywr92BSU486wvqGVTXmWM6/UfoOo6CVc1CeNEXxXFaXwLb/EIU8QWn+YaRZdwBqzqeWQdn49dCxI8onnPYte426GZG6t1Z9ANUjL9/42liaJk2SEUOC0U8puKpzIXfvFXuoazq/iY/qzFWv0FsF2juGyb4ItcK8YuaiM7pMCrwRjNqw6JUcQ0Mlvkx3iOw3M3MB6T5+C426cZGytKWNYrxjbdmbmBrwqNeU0aJ5Z1rBc/PoywwMzG4mnzMIZsRWzjGaY+dpW4ya6NOFPr0vndpBi78pmqnXgvfl5bw49VyPiK1E/j8VWxqud9bo9maiw+6Czr5nyDmfcnQq1k6H+iOOJN5kNlfcQbzuY7DWf6yEf9s49fW7EbPlVsogLjSrrmYXtLfWAXv+ouqnPIGiJsc+0ykmF1GBmOcl7l0HA5Fk9XxSS++Hux7dBMjWUUbUyTqo9ZDcs+jadwzmd/S25xAC0+klmnPqo3W4u3QmjYlPf16zwy5ySmVYjk75hgFLEC3uKeaRhJLF5fiKXB63decWjgKK7NmYwn25Zoxsbixcsm1RYdKiejIo0d+LvcIpoH/B/EZDKM4Vxoz1msu4UjvlnUJrOoOB0OzKL4h0SYKj7xVTyy+xLUnwe7c3y6U3outPgbPOMLeySrfrs0Y2Oh3EzKiajsymtSKYGJccJXf3tD8Xh4LJmnFbvSMwXrRL67VusJ+KoQ3UBy5r2AIiyz7MeUAPSNOZVHmZ+ieI1nnen5KnxxphIrsa6FbfESq7C3dNunGRuLEyVysUHivXlYH+BMrhqkhc98EZuJ5yJsVcxR7IxjrMqVv8VGqWPZ92bYIIZiKwzJFUbsFY7ffkexTNQYGevrP2W+72ZUMRPFjdaY1xlit0vzNRYnIfoPoLisvGLYlnk+fOhnNE0iFYHrGMcy02l6E1s4I9IXhSE2XgvvLVxHxiadX3nDsS3CGhtgEvNaqBpDffK1mJ/15pL5opGFr9ZmV5mnym/Lb7s0X2NVpJvNsieDMYqLBuGahcoq9lOcYbkIgnkUV2AZQ7KrolgBHvwXvw278c1fTmDMaVHUjGU+wsj+3BzgQr3qRB/Fq3LEvAxtnsLX9GQ3TIXbDs3UWFNJIIwmp+DZH1TM5B8NTl46Q2xQbMNUySe5OnyJxXJiOeIVz+tXbOaL/SlGsH5lvcQO51Q/9p/gqzhsp5Ea+mJkTIrOnGWcfiacs8J/ezRTYzGdtklNSkSKCZJUHICZVMHrsKEY5hmvRUO2Am8iywHvBW0mjRXwvNYohxyv+M6P4xmO9+OGMlbBi91lise6Fl/lxa4Sy8bUz9T8GsUzNljDDmjmxpJNcfKLDWcd857PrP+u3n/bEJnV4Qdz4T2sxiyMJT7h9EKsdPaiwPOQrxduNNiP4wU62DwREdbW7/Oy3ag1R4NPOV5oj8j8FEv6xPthW56rqgvGbZdmbCzZVDKdbpZ1LT4nKsJz8qpXacaNsHbBKE8HqPpCtovMWWAMF+XCeJvTcDq3+HFxeX4YE2CnMGCM6QwrPrauIqZgfW3i6ziKUayP4xkRpsgJx4t00dg+zddYnISEYEOSiALfSozgIb/ICA/Z5id5ks9yaugL/jSczFEVTuDj8VivfiiLK3zqyjGMNJbMU7goJl+r8zEKsIVedcZGeo2layO98xZL1xDptk/zNVZBmrxog1MY4Ys8RQkkvSU7/MJWfIrG5sE+xNv8bCqFUWdY1vlV4ql+NGZWMFVBWbxT7IYp9mwYB0g81gd8FU/jkl334byR8hqPMfla7SPy2T7N11jVb/tM5mtORHhgmpCI14KNfIxlm2K0EMRX/cLCCYYXEMfTOTRehI1whjEyjMoSo2ljP+J9D+KrfLiHVlzWTYxibo0rGLdpbBY11vZovsYqEmCy2KtNTmDtUh2w+Ljaiqw1B2Ga6whkn1/0upZqncYbZb6K18C6qHHJJ9ELGruz4HsWPccpeJbVHo2ItEmyrvKJ1qYYI64fjptt5lM1UxTr0Wm+xirWH206GoTlg0hZVoxTFF/1IhcHzBTI1eFkfYt3kedo8apjPfHVn3SI3fhqrdEcLd7kfC2K1Yjt5q44NzTm0jmZsi0Zr7ZIbzqJrevawZ+LGM3XWLr5qlEYIwkpfFk/ZdNCUD7CtTAk6+FoLI2bAn1hlzxUsWhexoRxlWdd1lsco+aDDpGb8+naA7vrst6xjCM7x60wGjfH85gR1ngmi6/67dCMjWVEmw8fIChlffi9lSQyQQqQsexD+qT6CEPxC2r4VIXGg/2UAn0Uy2XSu9l4jqXzGy5aT+Y9j1yAEsfm8l/vazz1iexGxIdrU3/ep8ZnP4vH+gi/XZq3sYoi0aSYnnhLbjKsEeNZp4ni+DKHrsVtzPOBmE5tpGsWBNNUsfJgX44hOIdH/qbP1wJnap4j82fJNa8/xIvK8l3lh3n7MxYebKdzS9zMiiVMFU+wbt8uzdhYtKlkstpI9r1LIgqeMNXh8iC9qzSWxhPc1AEZvogVxC/WGdgr7FTxsF9k5zhaQBEep6zPSHU0D8tqb9l4fcUajSi+m3RO1oHiaDxZR8q8TrkFmq+xqsS7gfgs24ZDHCUlRXFZNooOJl+LD7A6J9NEXPDbIcZoPLU3+GT/aPEwJu9n6qdYRYEF9kI2Up3iM1998Cc7N0l1PpmvGqm1Dl2L4mXeSK8YF6M5tkPzNRYgG4g2zk3FJHJYMAWgIQY+xcHbhePryPao4N2XZBc1hmL1wPVKI9H/OFvXb3wRZ4K3Ai+K0jA8GGvzNua265nXptTw8yvPYaqzYCP9bmjGxgo2bodTJEc3HyWGSeOK/2RBM454tVW6fOXYhb/IzaIlsdCznQrfijrECo79eS7jHaeYRrwij4Jt2g0jWNXp4L1W68xXs6uvxrb5qvUpfrs0Y2Oh3Igly/fFG6TkFInNuupXHJIgPxSzMUksnp/56D8mw4ddGso1VPMaTxjjwwNXrBFhijlk7U3KtqJQG3wVRhUaK/O+Lo0XnKNfKVaFCWKxrXpaTDYXNWbEb5dmaqzWRqOkNRJoI0X+TJFNYvDo+DDJJ3GszIefZ3jglEYxlvcR2JVvFY8VYjL7GUaxV/YjvtgDYwUfFqzoms1ivLGyhgJH+mS8qQOM2R2r8ZTfPs3UWEy6SdaxjDJpSX9vKEkqDjCIxT5JYrvSjafElfiO4UF2jVdgIny+plxIraJLrGNf0dv6qjXqXBNNwLZmLIoHXp+R8NWc4t/iPa4O04PW1yCzT0AehWZsLE0i6f1Km41woS67hR/miffwrDdin3xNcoCtYuI1ReuzazW3rkPmjOYqsPnKOuaL9QZ25qtYSrSGIr9sE77KM2F8bUw0R6EjPplO1yD6sAaMSPZ426d5Gsv3pxuWBIXFoMlhLKsnDsvVEreYj0YijBNjjFW74jSeYo2P1hFgiz3qfA4i3kTF0ijsUxgmjkc6W1+1l2gwsU4wHtNs7EP4Ym7FEq7gW9hHp3kaCwg2w/qIVH/WA5N5kv1j8TguYe3wHB9gWFXE09h60DrErygGLiLTG8bswXw8qjkVaxfF6UAQi+PkURS0B2/gorf0jDea2ofoqrkbozgTxm6fZmwsJdtsTkyVHMIUycn4gqbk03gtZJ2bscaqPsLyXEYZZwVWHTLjiPcCY7vE96IxuxtiLCIs0eTaNOZpvOjCwpaY1doEm3BK3ZCuyAsP1m2XZmws3aypdFO68axzUfSRnBAURsB7wpla2Ix3HWOMsr44bNKH8ll51bGsOuUJV61N7C6zPuATGoUtMSzHiXRsZx+L53kWu8t8NZ5G4lhsF7/w/LdDMzYWgg0qTzpOcpUck5knP9AvE6o5TNQ5g7kLP8GwzOtMZmth1GbUwBbrbOFEz/gqVjCfq06Zz+c1fWTPunCvgvO1Z77AGs868nOKbGpXPppjuzRfY+kB+2/NWhtnask5QYniF7AgXoRTO6gpLbbO6bxhG7Zq7aozn6wz01R+qj3oXBxTcaxTfObdRXF57khfYTJFX7RX85k8sZ6U4xZnyjiZV2PwcBjjt0vzNRbkh5vFAWW7XVld/SEeJ9JETZAegOpEH+mSrSOyZ97hwdoMU1xbfL76fFxshE02F+GqGFyI5kt2NVqxFnsI4lYBG1iNkwJsMZ/ZjYR3kbE8TK32iLeL1EdRF9uhGRvLSDdLclHMebhsZHpJGNsKXuM0hs0dNrKNrOfCqNahPmeZG3VBOhmG9YEdFoN10VA7U0O23KTGz8ksH4l8qnkplpPEKebTvBnPV8Kq3vw4VpVjjr1dmrGxOAFZLmjipzsVT0nhu6ATJxVBUTJvF/MhvV+N1E76wt900dxid9/I3tIHfJFbTPunjK8KzewyOEZzPyzLfHZpnr/M7TodhK3WprzGF/8d04yNhelNp5ws1auPNYvDFEMN5XHsqvEb/mZPYq+KSnzMbvNX+yHe7MlskZ34AsPz8rp4UCxnOVZEWd986CN8MVVj7pTnrWLIqM5swifMq+LRmJd5nnO7NFNj8abyhnUUO6SNM7nIdk7SVNLFL4Gw6jMV1/TCV/O2YvB+o1hiT2YL4iY0cif8afNpvALPsQynmBaW3lpXzUq4xD5RLDTOVvEUrzovxbJt+zRTYxlFyWGKNs+kthbPsl4hxchX0VVvMyNsljsrIh5kt2tx4HYlbFiwjMnXRLwropjRW+yIV3+205ynzWsNYPswfLTvZjy7Em9fn7TOLkXx9Gqivjhsn+ZrLNv4qBCeh6mDgyp87EoH2BwG1xiB3UM3Pqw78YHyGuxKftVDEcIWe2QSbDGHDvYxlvLW8kuGC/wLnOnVTrzPwWb248Eg1XMMXqP65SurqxiF8Qz72A7N2Fi9McEwvbF6kNHItpTxRRyJaRjHaZyW3WJ7kHHYgVf/2a9G3GR2xrFuQl/4ayzSu533kv01brhfHeyiMWRUc+jI+oRgbiOKFWI05ln0ald9T/L2aJ7GSglpczyxAdJ7ISsFSUqRnngPpQlVndqjQsFY4D6vFHxFU3NkvvDnYZCGn18znzK2iKdEhc065bmwPZ5diXcxiFHwkW6Kj3Q8L81d5KfBV7jx2vdpfM3fIs3SWCmtsTl+hzU1769QrOdhGFaJ3f0yFtwgAQYUr/lfWFJ9hCE+QYqSiefltbHN+DOsvSBdUyCnCGeU+eIMTB/FI7vH1WH6HLdqggA7tWfPqfoGWOMdn/1lvs1Jwvpk+501S2MBwOH9t4G0GTfGiS4Os9x4qWe+NaJ46pNlTnRSrLHcJOI/grJJ7TIMU8zFPPkXsdgmes9jYPN5GWN6shdz8hM8jmW6qTkn8BXWILS+ao0k29oK/wBbxdIx4lOfcPQw4eSkekr1yDRLY632zuH2vRP0J4eUIIyJML5KlImnFHYyDMdjjMQNcSybWjF2lZH0jhfxJvPVeIqTEMwrfpPFI35FLNPzNfMcK4zb8Kt4wRfnK/Zqn2wnvhmDdVM868ZaWp8k3H7nAOvuMQU+Ms3SWBcvP44371zC8dtvol8f+cYG4iSxHkHxKIYbjol9eJ4cM5w780XRRhi+GhutQ2I1iyP7uqvaI94o0pFcFa7gU8Yk0rGded+H6RTDezS1zMfXam3B1acxJpo3X6u12Rwac9D164SHD9b4xp3ruHDzoxmzPZqlsR5/8odwt/8g7t/6Bo7vvY5+fdhIkibF9IG9GI0YGi88TOL9IE4bGRsdHM/npP6ETS27Yg2vNoplo7nXCH+KvdjnxHC3KR+zR2835Vr4M5aGzzUVi3GDvu8TDh+scevOCnfSh/GB5z6R8dujWRrr6mM3cHD9x/DG7fM4vPUqju68hs3De0ibE/rchZwEEzlRRpYoEqsDMspyAhWZ4XQQviDS2QE24zGeYynWRC4+VxJPOikM1/uV+LOsjeO0HtqkvMaKRFfsg20a1+JZfPZhPePcUWTDuBDwZS2llNBvEk6Oerxzb427t3u88fYT2Lv503jyPe8l/+1Qd3R0JCvePqWU8MpXX8Srf/Sf8ezeb+PJyw+wf/EG9i9ex97BBXR754Cu8ySIt33lPtoKyCAkpPxDiRprCLMYyvwMNxq0iLNOZfap8KTjXz44TPyr+JmkyHgvo1J9fVflfOOmhSH/VO5nuIz2TtZq9vLjv66H10hrc8oamxuUG7YHngOJXtZsTbVeJxw/7PHwQY87Dy/j66u/iR/+5D/G+z/4IXTDxrZGszQWABwfH+OrL30Rb/zZf8Ozq8/h8Qt3sepWWO2fQ7e3PxwNryTv02vBbNw3lIsEoKMCSwC6rhvrUoub8ziAkVJUfAEe44IGEzsNvIXKoZHSUFBRGDvTlAHF0ngdvqwOXbFA5BeWMdBozTnAsKAin90Qx+aotp6ANCx+VHZ5va6qvGKyNbg4+A2hcjAubs1XXkaYRF6c7U3Osu8T+g2w6Tu8fXIZ30g/gyd/4lfx0Y/9NA4ODjzStmi2xgKAvu/xyldfxNf+32dx4/j3cPPgm7hw8BAH3Ror9J57v3llGpKfM9tlTQYMRZFP2iB0RbISpMKTo+CzKpIhhkEc442xy5oAn2vWc4PYmqWOaDXMd3435hhjMw64hOGFhN2HAhuA41YsT5YN3jHlJ9x79qO/Ci7PBcN66cUig/L6RplMI5/KnAy64cqurfiGs7UPuRnWuE57OO7P4c76Cdw7/wk8/eO/hB/98Z/C3t4eBdoezdpYAJBSwnfe+jZe/tIf4sG3/xj7J2/iXLqLDidFWTneS2w4wA45aXagbq3LZKR8NxrFssnkoJL/sxvyYrHNVHPaq7VUWUApDehV16HP/qvsZuF0vkEelP4WaGK/YT6CwzJxatWMKeJ2yC8Cw85HXZyLKg7N63Fzc/XdAfrVZWwOnsSl9/wEnvvYz+HJJ5/a+ts/ptkby6jve9x/5x3cvv0WDh+8jX6zVsgWiA9Kj0KTqsfzvSc+mGgHsxKnbPbJ//LUdR1We3u4cOEyHrt+A9euXcdqtftndt+zxlpooXcz7b51F1roB5CWxlpooR3Q0lgLLbQDWhproYV2QEtjLbTQDmhprIUW2gEtjbXQQjugpbEWWmgHtDTWQgvtgJbGWmihHdDSWAsttANaGmuhhXZAS2MttNAOaGmshRbaAS2NtdBCO6ClsRZaaAe0NNZCC+2AlsZaaKEd0NJYCy20A/r/86aOfhLWLFYAAAAASUVORK5CYII=;" vertex="1" parent="1">
          <mxGeometry x="-53" y="241" width="59.78" height="50" as="geometry" />
        </mxCell>
        <mxCell id="_Jj7Ve39ARDFc18teFEc-7" value="" style="shape=image;verticalLabelPosition=bottom;labelBackgroundColor=default;verticalAlign=top;aspect=fixed;imageAspect=0;image=data:image/png,iVBORw0KGgoAAAANSUhEUgAAANYAAACzCAYAAAD12uLHAAAAAXNSR0IArs4c6QAAAARnQU1BAACxjwv8YQUAAAAJcEhZcwAADsMAAA7DAcdvqGQAADQ4SURBVHhe7X3PryXHdd7X9703v4czwyFFiaYkSqJt2bIcyyZgK1ZiJDIQwAhgJwi8TLLJIlnkB5BFoOyyyT5/QIAACQ0ECSDbcQJkYdkIIMc2YBmObcmiSJGiKFISNb/ImTfvvXu7sug6p7/66lS/J8+9LYvqA9T0+fGdU1Wnzrl9b9/7yO7o6ChhoYUW2iqtVLHQQgs9Oi2NtdBCO6ClsRZaaAe0NNZCC+2AlsZaaKEd0NJYCy20A1oaa6GFdkBLYy200A5oaayFFtoBLY210EI7oKWxFlpoB7Q01kIL7YCWxlpooR3Q0lgLLbQDWhproYV2QEtjLbTQDmhprIUW2gEtjbXQQjugpbEWWmgHtDTWQgvtgJbGWmihHdDSWAsttANaGmuhhXZAS2MttNAOqPte/Qc7U0q4d+8ubr31Bg7v38NmcwygU9hfWeq6FfbPXcDFS1dx5ep1XL58FRcuXFDYQj+gNHtjpZRw+9Z38I3XvoR7b/4xDh7+OS7imzi3OkTXAQnDcoYW65CQ0KEDEoAuN14aRKcOQErSmIyYbtg0lYHs6lNk2qR9POyv4Lh7CuuD92H/8jO48dSP4n3PfASPPXZtBC70A0mzNtZ6vca33nwdr37xf+Pmw9/Ah66+iPP7x1h1PTqkoXI7q2L1LpsjpRGUUoeuM4cOKSXvQdflpu7yBEPDUr/KfC4mC5Qb13q7B3p02PQr9Gkf944v4bUHH8XhlV/A9fd9Au99+sO4+tg1HBwcWKSFfoBotsY6OjrCa6++iG/+xWfxkf3fwjOPvYFV12fr0AwRedOksagxljlSsiYDNdeIQQK63GVjs+Qrx0uDYmi5AWNtaHfNqSa0tdw7voKX3v4Y7l/8FK49/Tw+8KEfW+5gP4A0S2OllPD1r72Mr/3xf8JPXPwNPHHp9vDi39kbPwyNY3esglZASsONIw2FrQ1ijQUUN5XxbWTQVCnHYhvr/M5nYm6ssY2C9WRdn1a4c3wNL7/zcZzc+CX8yE9+Go/ffIJRC73LaZangg8fPsSbr/0J3r//f/DE5Tu5LtNwl0i5qUBNlbr8Rm24f9jNKmwqk6ljLKw1QzIzdQA3ld0svalczmtIwxianzAmprxmu8t1CTfO38Vfu/F53Lz3H/GlL/xP3L71neZdeaF3H83SWHduv4WTW1/A+658Hej6ssKNEvKdwIq5bojAK79Vy13RpfFtn/nlEfmazt7e2ecvmL+Rq3PzJ4e5fVD5aoDUY3+1wbNXX8bN+/8VX/yj38Jbb32LnBZ6N9MsjXX7rddxI/0/XDo4GpX02UjfAnrdUnEPkFzBQydlS36zl2PZXaFjCLEpx0oujCC/o3Rd9TbRmwrFe83qbmdvPU1xsLfBhx/7Mp64/1/w5S/8Fu7du5udF3o30yyNdfjOt/DeSy97U3RdR++qOgAdUqKldGOj2VtCUOGPn6mG61DDwwOOxHe7TP5Wzgp/7KXcOh3Q5c9Q1ri2VoUyxkR/Gzg++GD7wWqNjzz2Eh5/8Ot48c8+j6MjeoFZ6F1JszRWf/IANy/cy1J+uobhrmBN0OXPXPwWzoq0/GxS3k3cJHcM67URSfVujMXJuOHJ39iYRfwB4OsaRhlAH6IYpQTsdT3ef+VlbN78dbz84p+i7+2J6ELvRpqlsVLqsbfaUCVTAxlmZL247amFPbSwO0OBz8050vgkj6fw54+moCch9hkL1vYWM/ps1nX+OQ7WyFl2dXGbG6e6vP8AH77wh/jOi/8d33j91RK00LuKZmmsgexxdUBy50Au7oLs0aDL0lASPIGe4Jmr322GQMwr+WemYE6fN9gQv+3ME1j7AQm4ceEOPnTwu3jlTz6Lt779zeVJ4buUZmushKE5/G1XlxuKCpfvTEgYPmtZYdLdgPvPmyWNj9YH+/iE0DA1DcGKt36FuSsesQ/zuJFvejnOMJ/0IpC/AkAHrLqEp6+8iac3v4m/+ML/wttv21vkhd5NNFtjjfeIoIBJGHqt/ObVCt8pC3w3GQqYS3q8QybAv5Ny8maht5e2MHccHkckjM3Ov+5wztaXfQc8hXGPLCfg6Uuv48rb/wNf+eIfYL1eC2Kh73earbEKooobinosbngTAMCKa3y8k5luZNEB5ecor+zOH2iEjQD4nbTEZb6YpLyDGSV+4ejG94q63oGGO925/TU+dPUvcPL6Z/HyV/58aa53Gc3UWGXjALlAuSCtEPmzWJfy00JrtLJK+f40fDlMBqtpq3Ny7YYuHBqiG5rBb5Dd+HloaIIczJ11FfrQYvwsOIjj201Qo3YArp57gOcu/T6+/cUX8LVXXlyeFL6LaKbGKotx+MCef9JENv3MMhT/WNTcXuOwwre7ySi7Jxf62DPeEHaHtIbD0M50ByxbyXE0DDF+1zZOmII5hjswcOP8bXz43Ofw9T//Tdy+9R2bYqHvc5qtsTr/py5oo6Kp5DNSRawkPtlbQOsJsldx8jwD6RfL49O98snhyNfrGx+ydB0/qMlxrKEcDwAdbl64jff0v4sX//R3cP/+/cK60PcnzfLr9j/4nV/DJ/f+DTWSTUm/diBK/MqecaWVm2K483X5lxMBMgckA5B/pTGqz56EYmG56QYhJXp6KSQ3vYqON+fxxbsfx8Mbfx9Xrv+Qmhd6BFrtHeDi5cdw7foTuHb9Bvb39xWydZqpsV7AX9//DAB7q2Qv60PBVbVI1T40zVj4jE/0uGF43J5/O0EBE6yJyi+O6Y3id9FURU9lyg8+pKMNY/pWY/Fd7fDkHL59+AQebK6Vmx6QLGTiPNqkudF9QTlDtIDxDkpfSRDpL12GEIKz22+X3/TkJAz55h9D03lXh216W7YnI9wuRcpm/XnaYChwCVinczjs3oPNxedw/elP4NnnfhLXrl0Xx+3S96CxBl3i75kGxUg5scNnnDGVdi7DGeaDA/zuA37Txgkv7k420ehTgulQ+dE6r88atYP4Ci5vZdB3xVzDHuzBjK4Bw/pMXTSAK/Ncq3GdNPfgO7zQuClh8LUkOtY+cA5V2eUXPEp9Jto3T1m8+NmG80odWwajpZZfk9jc9LI5SJYzU/AZZFV+x5ByzyPP3yegT3t4uLmArx9+BA+u/R0888OfwtPPPItz586NAbZIszbWeLgYmqbbR3fwOHD+KWDvMoC97JGLhrPGRCtOwHCfyn+O7wk1gN0V7dWUiJPPDTGUI7/JIzJFtbRBUb3aFzSstkmpB/pjoH8IpJNBruA5hheP3gUyVQvXpY+AYslE4x2tTHgJ1z0Rnpu3mNdeOMnVOzlaTDVpRSmH8OXmu/ggJqTNMfr1EfrNGm8dXsfXNn8DT370H+AjP/LxnTTXLI31+9ZYiTK8dwXd1Y+hu/HzwJWPAQc30a0OvFhsUUPe7Y4z/ltmmg/WJjBe7X91yFeXAKRjYP0ddMffRtrcRdcfAmmTgYakPWc2f30dlKQD8j8ao0QD9DLPOuX9EJkE53OaKpoz4Iv5yaeIZ1jiffOpwiUkoN+gPznE5ugu1oe3sDm8gzsPL+LLx5/Gcz/7T/DM+5/NPtujeRrrcy/gk/ufGfbadcDB4+ge/xS69/4qumvPI+1dnPMB5V8hysXcP0B39Dq6o1eA9Z3cUPwHoVJcrQLUq7H0pfWIEbzFL5rABrdto9D1ynGque064dO1YlAs0/lP3zimyRju/Ckh9WtsHt7F8d3XcHz/LXz11k3cvfmP8PynfmXrd615GwsY3vLd/FtYfeCfAlc+7p+Kxu9/trecKpIpTruBVY5TFIH1bSdPPFo6nGBvcxfd8TewOn4N2LwzFoc1lxeMXbJ9VAiv2Oia+QJjOsaqjXjWR9fizhbhpzBZ1mYq8KRvXs3HBSAl9OtDnNx7A/duvYE/vfWTePaT/xo/9MwHCPfoNEtj/cHv/Bp+dvVvh41deg7dB/8Zuqd+GQn7SCmNA5TDkeFLcADDB6TSPnaO6YcXQPWtqUJQAH+BbK2GhCpOXtcQI2GFExz038S59WvY29wa3gqiB/p1/nxljaW/xrDIPJkvrC6kiD8V02i64qp6E6dwvIZANxpoDaQ3ubhDkT3kSUc+aXOEo7uv40uvHOPe4/8QP/cLv6IOj0Szvf9K9gJ04RngsZ9Gn/aw2Wyw6Xts+h69j80wNn22b4brxFj3jBv81nk4xm02RoyPNcVdD0Nt680GJ+txrNc91uvBvt5scJKH69brPAZ+sz5GWt/D3smrODj+CvY23wLS0dBI/RHQPwD6w0HXnwBpffrAptal9RAz4gu86vNAll2XmzylfFW9+Rkv+sK3z3FNR3qXU347bINkt1ljMp+HxyDZGy6h2zuHg8tP4D3XgaO7X5FqfXSarbGAHikl9HuPIR08RY00jE3fo7dG2/RlQ/WbwVY1x9AgQxMOo8/+fR5FoxRNGmCCMcy7LuXcyPZCUOPzi0PGDHOtgc19HPRv4uL6RVxcfwX7/e1c1CdDM/WH+W5VF8I4TGbKst8tRK98gWO9/RPF0aF2M5ltAneqPvBtrTnCuSpoMMLvHVzCtetXsbd5x3Xbotkaq8/7TdjHBueG4ku5qNdUvOs11lTIw6v8ZtD5q3892LYxbI6zznxxNZ7m2hS2en7z9buZz0d228N6Pdzl1kND7fffwsX+FVzavIjz/etYpcP81u8Y2BwOj9j7TaOhjMTmRWO2Bg6WfMUrbzFZ1YpLuvCFgOzs5/FFX1wZq5iIZ6wr6BqMNHy5feHiZRyc2/4vMWZpLPv81Ceg75O//RsaKhfleoOT9XoYJyc+hgIdrifSQDZGrPkd42R9jPXJyTDW65E/OcFJjlfGsLmHsV4POFuT4n3e9RrH6zXWJ2ts1ifDdyXrI6TNA6w2d3DQv4lL6au40n8ZF/tXsZ/uoUN+C9Y/zHepYykgBDwVihUn9HPVaTGmeCnMjm3CpzxnWMwq52uB1fUGPhw3kX5UBLLG06uJI647OI/Vwfb/ZxazPLz4/c+9gOfxGfR9h/Sev4f+R/49+s0GqV+jS0dAWufvG3r0GA6gzKUu0b5A5tyVX5SO55IZw7uNvsZPGObP0OFLxkFI+ScF9oXxSNmepQ49VuixwhqrboM9PMTB6hDnuvvYx8OMtM8c66GZ+vzAoihOjtrgbf0FCY4xnqcgFsa9VvrWwxBXBbaKz/KZfabmINnWVa3RKEks/kkJYVKPz7/0DJ7/xX9J+kenWRrr/37uBfxM/xn0qcPmyV8GfvjfYdU/wCrdxz4eYIVjdPkDKBd4/Qo38IOkBzAIHfIvZJIUV7b7hV6Rx6eFI7b8Gpqbzn5KVMbtkIbm6jZYYRjDh2rz3+TPT8f5M5V9KGcK1sq8qU59Koa6gAqq91vGU3yOd1qD+jrVf0qm8y5+mjXhc6a9Zf60WEj4/Evvx/Of/ueke3Sap7F++wV8ov8M+rQCnvy72H/uX+F8dxt7OESHDW2UX9my3OTtEFR/Rl31FopsiGzFwkTPB2j+9PTKHlCk49xg7K+8ysTrHiI+ceOJrZBtnawzCuQqLtn4+t00VZXjU+6ujxq7wX/+pWfw/Kf/Bdkeneb5jJX/f1K48AzOXX0vLnTfwj7uo0sn+bdxx8DmIbA5yo+cj/LnD+Z5ZH2B53Hc1qVAZ2vwEekmxuZ4fGvXH9M6Hwxf+m7u589S+nDCsmNXtgkubKoIEzR5hc1XxzFpbJKLuEG8ZiyVI1+mBq54L85+sibPsWICPkUvFo9Os9yxfu+3X8BP7f0HnHvv38b5p34eq4PLw3c0fS5I+56joCgRstSw2JjXpEVxOMkTtogv8Hy1u1UeVVyVhTexeVclOUV3kjPEVn1Bdoci/qz4ybsK8UXMU3wKc+TDcadiZdnmznfHz7/0fjz/i9+Hd6yu28Pq8gdxcOPjWO1fBDYPgPVdYHM3f39zRG+Vpgbd4bwpg+GYk0Zc1p8IjvENXG88Y2ys84uEfdmJoAhUzlfDe0G3ikiKxedQG/HFK3MDYzLjPDbpCtLCZzIDrSvZvtjGFMzldyrzCzCqLhTsR/rk/2ydZmksrM5hdflD2Dt/fXhbtH47N1NOMj1ICBPiKsZyQlo8yw29xT21iJP9DF1w0VpUbvG2BinOU+/ELOt8rLfYjDNswCs2mc2IeMcSFTlkXu2uEF5lnkfthHE+mFP5RC9cYczt0EyNdR4HVz+IDifDZ460LjdWFTVtWA+6KjrxSazXuILz2OwT8Dxn5eOGUS5i81CcFmcDZ2twUZuA8VFsniOSM77Sa2wTmWc744I1u4PgjOd9pciHeMdkXMcN0/LJfBXX5O3RLI3VrQ6wf/Fm/gM+/nMIyOYoAdVeg0QZXxxEFJvlFi6irLfPDlxQLf8qthtIH8UiWxg764uiUEwkKy9rCPelAwFW7DpPITYwupaWrdDbReav1ka6ZGsIYu2IZmqsFVarg+GX283N6UaDRJ2ZF7lKMBPPwck3PGOMGEO4ydiqi+SWja++KOGzbOuJbH9pXklxJPP8/tb5rGvJcvGZingPE/j4NfNVozJPeA21JZqlsQZaB79ChvCWkMimCeGkKCaSz6InW2Kc2AqM4jRmvvIrqu9RY9s1moexgRw2lM4TraHlwyqOY0rGRoP9FEv+LrIfy1GMyG6+tMcpvOMYsz2ap7FSPzwxqzYg8mRCCJPy27MzPY5u6MO49qoY2Ao/u6ie51KbsRGGhrsJX/mY2Jin4FluFR5jKK7mwn1I76ziAt5ZaqqiwGU+xtdK4qN9abx8beZsezRPYyHlv9UhmTdpo0qCbJoTF/o4MF9Yr7GZFMfUsk3xuk79YD3BV98d6XqIqv3ZVfS2hhAfyFWBuqHmXUWN4m/lst7ZHK86u2gthKnwjMtXXkdxFf1kDrZHMzWWkSQm3GSAOTWxmWfsmYsjwvFcNMK1aLx8TXbY5KvxNGYVm/wjfBibSedjXYDRuBVG+NSwJZaNDfxDntdhpLyOSB/gm2vYPs3YWCnvZypxomOM/zf+NHmWNANGcQM5ncXH1pzxLYyOs8Rt0hSuZQtwnmfSVT4kN9dscuYTggYMcCwXuTMKdBa7Ugof7o2vmbdYTazOtT2ar7GS/yPKIClVIrJcvMUwG8Wumo95w/JBTxyQ66NYRsIX5gmcXRKvmWwFb0FVVhzZvOgjjMqSD9Z/V7zIRfHbeniwD+NEH/L5ak8dC1/VTcVQ/fZovsaa3AxtuHjFIr56UGGF3IpFvB+yYaMm5DWIf8WrHMUK4hrPa+Y1OZFPEUIxJBd7bGBMZmw1f4vn+SOMxC706mOk+AhH+mRnk3XRXKpTO2Mcu32asbEgSeONkkptyE3Ah5oYQz7Ngw/IY7BiInZB0cFM4YmKg1Se5vUiyrZwb2zTORtyc36ViU/s18CA16ukhmi9po/k6Fxa64iohT3N7y9PMzZWY0PFK0q26RM0xliC3Sy+6pf0R5zKk4/FLjCK4yJnHGNsQsJXTajzsNiyKc8FJ/qCz/Lk/GIrIBInosKksZlIPut6kunYTrzDNV4UV3nFbIdmbCzUCWOeX3WjwnJz5M/6zPOhFa/oyhur+oAPm0ObhmyuV5vgXGzEVxysmFh/Cl/EZYzELfjW+skWrpmx6gPJS4AxucIF+LPE8ViYiLddmrGxaAO2SdVHCWnaGno/ZLMxGVZihz5nwShvsuqMWnqLr2tTPBVIcw3C63KqB0Ao4xaxdS1TvK6B7cY29Iqp9qjYLFdnwrLpVG6tYbs0Y2MZ0aY8MZoUS5yNwBbxRb4UF83RWgPjeH7FRPFMHdgK3vC2hhaeZI+rsRhHvIs8X4Ar+LNg7MJ6k3WA9siYgG9ijKJ4oo/8XB/47IhmbCx6JeqmfmjZKIgiMZIk91GsDsNqA0zFZZsbhLfYJE/G5n22MEaBLfzziDx4f2Fskh0bPSVV3nxMpRiNb6LilM8Yj6lD9FU8sRXna/goFtu3T/M0lu/FEpA35Zs1G/FFApnOglNMEAYgpQI07kRsZ6dwTFpEEWUbFwrbTt2zyi3bGdfPxVo1NRGHKOKdElf1TDavXQclA0ZcQRqX1lNA1W87NE9jAXEynCd58pWTZE90hDPiw0CjWRiQMa4SW2ueKu7ESByHiWPYhecQubBZ8ZmeYwnPhVphVD5rU7Mc+PhV9MW7lmB4c2oMwVTzRX7Gamyxb4lmaqzWZqOEGB8RJzLyn8JFsQMf1ysvcSx+WGjEO87UipO5inVHuABfYCb4Km/RHMSb2J3ygje5ZuMVj8Z6Mp8CP8VWew8wzqPEF/vZPs3UWEpUaEXhtZJlcovEx8TwFZFlmd9tglFTQY244L0EtiqY4rOu8GFTtGblKUQYe4Ln2D5XhNM1sky4Ii7jxI4optjPxJuKm57i8hyB26PSjI1FG/ONtJKiPDViZHOeMVExqNyyKYbmqZqfccQXoSdwGr/QsxzZWryp2FYYYt4aKJm+FTvz1QsHk/pzXL6KvYrZmpv4ai57MSC/IhfEF028PZqxsTJVrx5BUow/00FnPnFsxTCOh9giHxancMxXcRu8hzKfABPFTvpWRjFcMIoTmfNR4IxUfxZ8lotc8/w6MrbSW1yOM4XVuXg9UTyzb5/mayxPCCsKY8knfSvX4D05E5giNpPZIn+Lbaop32yvCoixxLtZcUakSxybbMyPwCBuNAcXqOgLnmPUbBtvsXVuiZfyP74Ovp42ZxCrqi/FZt7mLQNvleZrLN1ciy/yocmRYQnyEJos4r0wTc9xmYLCDw+eqLK7QXymDjWIEe7fjSXv5gmMjQJH+kI2Yt4eYrQw9gIQ2Tk+Rkxiu/oRPsRILCf1IT6xXfnt0cyNFWyU7b7pqWFw1Ussk/2g2SYYlpPadA7yKYoowrOc8ewfYo0N/CuZ+Oo/JhrxFpcHY2T4ixE1jIeKsN9F3MJuvBHPp/7iV52tYrO+iMVY47dLMzYWU5CMFOmF91xMJcSw0QHyYDz5FLEj3lRscyXxIhcFgCC2YoM5FeMhtOADvsqHG4gnSvYPn02wrmpfEIzMVcQivbMRpoEt7BHW4oku9NsuzdxYmoDMJ/8n2KzyUROSDZBEtvgsu1sLJz5hgdLcThR78mBZx4OJdVIoxVoiXudvYNiWiGe98ha3wAfYlLFVXJb5jhLEYL2dQRWPeD+nifmK63ZpxsayZHBScgI8aZokS6ThRB/5TcbLV8MwdvJQc9wwNuNNVizp1b/IySl4z1sU20j8T12zxmec2E0/mYtWvLPiArvrzTaF0TlbWM57hm2RZmos3iSreeOubCQkwjE15gBif5+7RdFc6hPISWPr+tUmlFRPfBeNILYVSxVLiWxVPiyAYCbPTLC8zgJLmGqNAZ9o7gKvsSJ7g+dpdkAzNZbkSzdZ6EX0RLUSJKPCyTwej0nXYNjTCon5aD71Ib0VQfGj1gafIPtkWXx8vaL39fA6jJW1VRjVaVy+UjwPp5ipvNo1Dz9THuJXrV/sThaTZb5uj+ZrLCDYuI6cJC/oCJ/5MJlGLEvsKp7Kxp42V+Ydy0WueI5lovlEWG4gsymGZVDORF/wWeYcN/NMsosBhucN1xBgm3Maz1fVEfZMsWik7KP6HdB8jdX8D+RnKg4Fgsm8JcZMVRiOLfEmY3NAlRknoh+SXabwtO6CeL5Ir2tiW0SKY7I1mF7jEO9NoLjI95SGqvyM1J55mzcxnv1aeuW5mfltM2N5Dduj+RqrKGzUiYz0Td5I/YgvxFaMgE/2T8tnShfxPD+C2GyKmq/lS7I3OMeNcJmv3n6KHOZLebvoPKKzwlZ9i2/OzToeEZabiXURdjc0X2M58cY56WaL+CxykorkCM8JrIrOiHzsEAqs+pCuWjPFUp8qpuI4ZjQUbyrbp9ntyjjaG9uq4iW5uQ4ayWJEcVTXiksYi1edlcYwMdgT46vzIZvxxZlvn2ZuLN4k62TTylvCq4S1EqU45skeFV2BN5JDNV0V21haTxXvjP6R3ny4AB0b4TLfnbbPaL1qN5XGUDzH0qeWTIazGBorj+LslRes6cK7lJH67YZmbKy8CU56tTGSvVFEPxjp2orHiQv4ZkEyRX7GM5FscYu3WxanMWexlog32S4T80d86GMU4ENd5l2MMJyfPIq5WR/5M5+vHaaxKdu5XqbyWdhNv32ar7EmNxQkoLCxnofFbPkLrppfB9n8sE4rfMWRznFMJFsxRPMzedFEOB1Zf9qaDVPFlfhu0hjMUyz253xUehfomnmPFdmjwVjVZz7luKov/LdH8zVWlQDl+XBMz0kgKjDMq2ys8M2iz7qUr6qveI7FeuMD2dXRGtjHYvNo4FylBc4Y8q8wjVHMb3iNp7GMxMfXNoHxOQNe6dRaoVz4PhS7O5qvsaoHD7pZoiKhEzY3MUZ8woNU3mQuEtGzHBaIymJzyNQ8Zqa9nWWeonBIr3yxbr1m3kJVZxDgfZ06n/iEe4gGY/Rt4FQ8sSOqDbFXY7s0X2P54dMm+KALeyMJjElsE97iRofiMvPkx/NFOD5Ux+sLR+aLdYgt4jleC+O87nECZ9hIz7rUsou+2pPi83USx/GMVb1ion3QfJFfgWMsx2P7dmi+xqoWLxuM9E0fTUYrFlMjyYkTbDgm8mmus2WbiOWysQ19xKcIz3MS76JiSGem6gmeGbKcrPkUwzrCViQ6h5NfFY/tPCJMa16MfjtsJqYZG4vID0g3KDybw8IvAHWywr92BSU486wvqGVTXmWM6/UfoOo6CVc1CeNEXxXFaXwLb/EIU8QWn+YaRZdwBqzqeWQdn49dCxI8onnPYte426GZG6t1Z9ANUjL9/42liaJk2SEUOC0U8puKpzIXfvFXuoazq/iY/qzFWv0FsF2juGyb4ItcK8YuaiM7pMCrwRjNqw6JUcQ0Mlvkx3iOw3M3MB6T5+C426cZGytKWNYrxjbdmbmBrwqNeU0aJ5Z1rBc/PoywwMzG4mnzMIZsRWzjGaY+dpW4ya6NOFPr0vndpBi78pmqnXgvfl5bw49VyPiK1E/j8VWxqud9bo9maiw+6Czr5nyDmfcnQq1k6H+iOOJN5kNlfcQbzuY7DWf6yEf9s49fW7EbPlVsogLjSrrmYXtLfWAXv+ouqnPIGiJsc+0ykmF1GBmOcl7l0HA5Fk9XxSS++Hux7dBMjWUUbUyTqo9ZDcs+jadwzmd/S25xAC0+klmnPqo3W4u3QmjYlPf16zwy5ySmVYjk75hgFLEC3uKeaRhJLF5fiKXB63decWjgKK7NmYwn25Zoxsbixcsm1RYdKiejIo0d+LvcIpoH/B/EZDKM4Vxoz1msu4UjvlnUJrOoOB0OzKL4h0SYKj7xVTyy+xLUnwe7c3y6U3outPgbPOMLeySrfrs0Y2Oh3EzKiajsymtSKYGJccJXf3tD8Xh4LJmnFbvSMwXrRL67VusJ+KoQ3UBy5r2AIiyz7MeUAPSNOZVHmZ+ieI1nnen5KnxxphIrsa6FbfESq7C3dNunGRuLEyVysUHivXlYH+BMrhqkhc98EZuJ5yJsVcxR7IxjrMqVv8VGqWPZ92bYIIZiKwzJFUbsFY7ffkexTNQYGevrP2W+72ZUMRPFjdaY1xlit0vzNRYnIfoPoLisvGLYlnk+fOhnNE0iFYHrGMcy02l6E1s4I9IXhSE2XgvvLVxHxiadX3nDsS3CGhtgEvNaqBpDffK1mJ/15pL5opGFr9ZmV5mnym/Lb7s0X2NVpJvNsieDMYqLBuGahcoq9lOcYbkIgnkUV2AZQ7KrolgBHvwXvw278c1fTmDMaVHUjGU+wsj+3BzgQr3qRB/Fq3LEvAxtnsLX9GQ3TIXbDs3UWFNJIIwmp+DZH1TM5B8NTl46Q2xQbMNUySe5OnyJxXJiOeIVz+tXbOaL/SlGsH5lvcQO51Q/9p/gqzhsp5Ea+mJkTIrOnGWcfiacs8J/ezRTYzGdtklNSkSKCZJUHICZVMHrsKEY5hmvRUO2Am8iywHvBW0mjRXwvNYohxyv+M6P4xmO9+OGMlbBi91lise6Fl/lxa4Sy8bUz9T8GsUzNljDDmjmxpJNcfKLDWcd857PrP+u3n/bEJnV4Qdz4T2sxiyMJT7h9EKsdPaiwPOQrxduNNiP4wU62DwREdbW7/Oy3ag1R4NPOV5oj8j8FEv6xPthW56rqgvGbZdmbCzZVDKdbpZ1LT4nKsJz8qpXacaNsHbBKE8HqPpCtovMWWAMF+XCeJvTcDq3+HFxeX4YE2CnMGCM6QwrPrauIqZgfW3i6ziKUayP4xkRpsgJx4t00dg+zddYnISEYEOSiALfSozgIb/ICA/Z5id5ks9yaugL/jSczFEVTuDj8VivfiiLK3zqyjGMNJbMU7goJl+r8zEKsIVedcZGeo2layO98xZL1xDptk/zNVZBmrxog1MY4Ys8RQkkvSU7/MJWfIrG5sE+xNv8bCqFUWdY1vlV4ql+NGZWMFVBWbxT7IYp9mwYB0g81gd8FU/jkl334byR8hqPMfla7SPy2T7N11jVb/tM5mtORHhgmpCI14KNfIxlm2K0EMRX/cLCCYYXEMfTOTRehI1whjEyjMoSo2ljP+J9D+KrfLiHVlzWTYxibo0rGLdpbBY11vZovsYqEmCy2KtNTmDtUh2w+Ljaiqw1B2Ga6whkn1/0upZqncYbZb6K18C6qHHJJ9ELGruz4HsWPccpeJbVHo2ItEmyrvKJ1qYYI64fjptt5lM1UxTr0Wm+xirWH206GoTlg0hZVoxTFF/1IhcHzBTI1eFkfYt3kedo8apjPfHVn3SI3fhqrdEcLd7kfC2K1Yjt5q44NzTm0jmZsi0Zr7ZIbzqJrevawZ+LGM3XWLr5qlEYIwkpfFk/ZdNCUD7CtTAk6+FoLI2bAn1hlzxUsWhexoRxlWdd1lsco+aDDpGb8+naA7vrst6xjCM7x60wGjfH85gR1ngmi6/67dCMjWVEmw8fIChlffi9lSQyQQqQsexD+qT6CEPxC2r4VIXGg/2UAn0Uy2XSu9l4jqXzGy5aT+Y9j1yAEsfm8l/vazz1iexGxIdrU3/ep8ZnP4vH+gi/XZq3sYoi0aSYnnhLbjKsEeNZp4ni+DKHrsVtzPOBmE5tpGsWBNNUsfJgX44hOIdH/qbP1wJnap4j82fJNa8/xIvK8l3lh3n7MxYebKdzS9zMiiVMFU+wbt8uzdhYtKlkstpI9r1LIgqeMNXh8iC9qzSWxhPc1AEZvogVxC/WGdgr7FTxsF9k5zhaQBEep6zPSHU0D8tqb9l4fcUajSi+m3RO1oHiaDxZR8q8TrkFmq+xqsS7gfgs24ZDHCUlRXFZNooOJl+LD7A6J9NEXPDbIcZoPLU3+GT/aPEwJu9n6qdYRYEF9kI2Up3iM1998Cc7N0l1PpmvGqm1Dl2L4mXeSK8YF6M5tkPzNRYgG4g2zk3FJHJYMAWgIQY+xcHbhePryPao4N2XZBc1hmL1wPVKI9H/OFvXb3wRZ4K3Ai+K0jA8GGvzNua265nXptTw8yvPYaqzYCP9bmjGxgo2bodTJEc3HyWGSeOK/2RBM454tVW6fOXYhb/IzaIlsdCznQrfijrECo79eS7jHaeYRrwij4Jt2g0jWNXp4L1W68xXs6uvxrb5qvUpfrs0Y2Oh3Igly/fFG6TkFInNuupXHJIgPxSzMUksnp/56D8mw4ddGso1VPMaTxjjwwNXrBFhijlk7U3KtqJQG3wVRhUaK/O+Lo0XnKNfKVaFCWKxrXpaTDYXNWbEb5dmaqzWRqOkNRJoI0X+TJFNYvDo+DDJJ3GszIefZ3jglEYxlvcR2JVvFY8VYjL7GUaxV/YjvtgDYwUfFqzoms1ivLGyhgJH+mS8qQOM2R2r8ZTfPs3UWEy6SdaxjDJpSX9vKEkqDjCIxT5JYrvSjafElfiO4UF2jVdgIny+plxIraJLrGNf0dv6qjXqXBNNwLZmLIoHXp+R8NWc4t/iPa4O04PW1yCzT0AehWZsLE0i6f1Km41woS67hR/miffwrDdin3xNcoCtYuI1ReuzazW3rkPmjOYqsPnKOuaL9QZ25qtYSrSGIr9sE77KM2F8bUw0R6EjPplO1yD6sAaMSPZ426d5Gsv3pxuWBIXFoMlhLKsnDsvVEreYj0YijBNjjFW74jSeYo2P1hFgiz3qfA4i3kTF0ijsUxgmjkc6W1+1l2gwsU4wHtNs7EP4Ym7FEq7gW9hHp3kaCwg2w/qIVH/WA5N5kv1j8TguYe3wHB9gWFXE09h60DrErygGLiLTG8bswXw8qjkVaxfF6UAQi+PkURS0B2/gorf0jDea2ofoqrkbozgTxm6fZmwsJdtsTkyVHMIUycn4gqbk03gtZJ2bscaqPsLyXEYZZwVWHTLjiPcCY7vE96IxuxtiLCIs0eTaNOZpvOjCwpaY1doEm3BK3ZCuyAsP1m2XZmws3aypdFO68axzUfSRnBAURsB7wpla2Ix3HWOMsr44bNKH8ll51bGsOuUJV61N7C6zPuATGoUtMSzHiXRsZx+L53kWu8t8NZ5G4lhsF7/w/LdDMzYWgg0qTzpOcpUck5knP9AvE6o5TNQ5g7kLP8GwzOtMZmth1GbUwBbrbOFEz/gqVjCfq06Zz+c1fWTPunCvgvO1Z77AGs868nOKbGpXPppjuzRfY+kB+2/NWhtnask5QYniF7AgXoRTO6gpLbbO6bxhG7Zq7aozn6wz01R+qj3oXBxTcaxTfObdRXF57khfYTJFX7RX85k8sZ6U4xZnyjiZV2PwcBjjt0vzNRbkh5vFAWW7XVld/SEeJ9JETZAegOpEH+mSrSOyZ97hwdoMU1xbfL76fFxshE02F+GqGFyI5kt2NVqxFnsI4lYBG1iNkwJsMZ/ZjYR3kbE8TK32iLeL1EdRF9uhGRvLSDdLclHMebhsZHpJGNsKXuM0hs0dNrKNrOfCqNahPmeZG3VBOhmG9YEdFoN10VA7U0O23KTGz8ksH4l8qnkplpPEKebTvBnPV8Kq3vw4VpVjjr1dmrGxOAFZLmjipzsVT0nhu6ATJxVBUTJvF/MhvV+N1E76wt900dxid9/I3tIHfJFbTPunjK8KzewyOEZzPyzLfHZpnr/M7TodhK3WprzGF/8d04yNhelNp5ws1auPNYvDFEMN5XHsqvEb/mZPYq+KSnzMbvNX+yHe7MlskZ34AsPz8rp4UCxnOVZEWd986CN8MVVj7pTnrWLIqM5swifMq+LRmJd5nnO7NFNj8abyhnUUO6SNM7nIdk7SVNLFL4Gw6jMV1/TCV/O2YvB+o1hiT2YL4iY0cif8afNpvALPsQynmBaW3lpXzUq4xD5RLDTOVvEUrzovxbJt+zRTYxlFyWGKNs+kthbPsl4hxchX0VVvMyNsljsrIh5kt2tx4HYlbFiwjMnXRLwropjRW+yIV3+205ynzWsNYPswfLTvZjy7Em9fn7TOLkXx9Gqivjhsn+ZrLNv4qBCeh6mDgyp87EoH2BwG1xiB3UM3Pqw78YHyGuxKftVDEcIWe2QSbDGHDvYxlvLW8kuGC/wLnOnVTrzPwWb248Eg1XMMXqP65SurqxiF8Qz72A7N2Fi9McEwvbF6kNHItpTxRRyJaRjHaZyW3WJ7kHHYgVf/2a9G3GR2xrFuQl/4ayzSu533kv01brhfHeyiMWRUc+jI+oRgbiOKFWI05ln0ald9T/L2aJ7GSglpczyxAdJ7ISsFSUqRnngPpQlVndqjQsFY4D6vFHxFU3NkvvDnYZCGn18znzK2iKdEhc065bmwPZ5diXcxiFHwkW6Kj3Q8L81d5KfBV7jx2vdpfM3fIs3SWCmtsTl+hzU1769QrOdhGFaJ3f0yFtwgAQYUr/lfWFJ9hCE+QYqSiefltbHN+DOsvSBdUyCnCGeU+eIMTB/FI7vH1WH6HLdqggA7tWfPqfoGWOMdn/1lvs1Jwvpk+501S2MBwOH9t4G0GTfGiS4Os9x4qWe+NaJ46pNlTnRSrLHcJOI/grJJ7TIMU8zFPPkXsdgmes9jYPN5GWN6shdz8hM8jmW6qTkn8BXWILS+ao0k29oK/wBbxdIx4lOfcPQw4eSkekr1yDRLY632zuH2vRP0J4eUIIyJML5KlImnFHYyDMdjjMQNcSybWjF2lZH0jhfxJvPVeIqTEMwrfpPFI35FLNPzNfMcK4zb8Kt4wRfnK/Zqn2wnvhmDdVM868ZaWp8k3H7nAOvuMQU+Ms3SWBcvP44371zC8dtvol8f+cYG4iSxHkHxKIYbjol9eJ4cM5w780XRRhi+GhutQ2I1iyP7uqvaI94o0pFcFa7gU8Yk0rGded+H6RTDezS1zMfXam3B1acxJpo3X6u12Rwac9D164SHD9b4xp3ruHDzoxmzPZqlsR5/8odwt/8g7t/6Bo7vvY5+fdhIkibF9IG9GI0YGi88TOL9IE4bGRsdHM/npP6ETS27Yg2vNoplo7nXCH+KvdjnxHC3KR+zR2835Vr4M5aGzzUVi3GDvu8TDh+scevOCnfSh/GB5z6R8dujWRrr6mM3cHD9x/DG7fM4vPUqju68hs3De0ibE/rchZwEEzlRRpYoEqsDMspyAhWZ4XQQviDS2QE24zGeYynWRC4+VxJPOikM1/uV+LOsjeO0HtqkvMaKRFfsg20a1+JZfPZhPePcUWTDuBDwZS2llNBvEk6Oerxzb427t3u88fYT2Lv503jyPe8l/+1Qd3R0JCvePqWU8MpXX8Srf/Sf8ezeb+PJyw+wf/EG9i9ex97BBXR754Cu8ySIt33lPtoKyCAkpPxDiRprCLMYyvwMNxq0iLNOZfap8KTjXz44TPyr+JmkyHgvo1J9fVflfOOmhSH/VO5nuIz2TtZq9vLjv66H10hrc8oamxuUG7YHngOJXtZsTbVeJxw/7PHwQY87Dy/j66u/iR/+5D/G+z/4IXTDxrZGszQWABwfH+OrL30Rb/zZf8Ozq8/h8Qt3sepWWO2fQ7e3PxwNryTv02vBbNw3lIsEoKMCSwC6rhvrUoub8ziAkVJUfAEe44IGEzsNvIXKoZHSUFBRGDvTlAHF0ngdvqwOXbFA5BeWMdBozTnAsKAin90Qx+aotp6ANCx+VHZ5va6qvGKyNbg4+A2hcjAubs1XXkaYRF6c7U3Osu8T+g2w6Tu8fXIZ30g/gyd/4lfx0Y/9NA4ODjzStmi2xgKAvu/xyldfxNf+32dx4/j3cPPgm7hw8BAH3Ror9J57v3llGpKfM9tlTQYMRZFP2iB0RbISpMKTo+CzKpIhhkEc442xy5oAn2vWc4PYmqWOaDXMd3435hhjMw64hOGFhN2HAhuA41YsT5YN3jHlJ9x79qO/Ci7PBcN66cUig/L6RplMI5/KnAy64cqurfiGs7UPuRnWuE57OO7P4c76Cdw7/wk8/eO/hB/98Z/C3t4eBdoezdpYAJBSwnfe+jZe/tIf4sG3/xj7J2/iXLqLDidFWTneS2w4wA45aXagbq3LZKR8NxrFssnkoJL/sxvyYrHNVHPaq7VUWUApDehV16HP/qvsZuF0vkEelP4WaGK/YT6CwzJxatWMKeJ2yC8Cw85HXZyLKg7N63Fzc/XdAfrVZWwOnsSl9/wEnvvYz+HJJ5/a+ts/ptkby6jve9x/5x3cvv0WDh+8jX6zVsgWiA9Kj0KTqsfzvSc+mGgHsxKnbPbJ//LUdR1We3u4cOEyHrt+A9euXcdqtftndt+zxlpooXcz7b51F1roB5CWxlpooR3Q0lgLLbQDWhproYV2QEtjLbTQDmhprIUW2gEtjbXQQjugpbEWWmgHtDTWQgvtgJbGWmihHdDSWAsttANaGmuhhXZAS2MttNAOaGmshRbaAS2NtdBCO6ClsRZaaAe0NNZCC+2AlsZaaKEd0NJYCy20A/r/86aOfhLWLFYAAAAASUVORK5CYII=;" vertex="1" parent="1">
          <mxGeometry x="5.3900000000000015" y="394" width="59.78" height="50" as="geometry" />
        </mxCell>
        <mxCell id="_Jj7Ve39ARDFc18teFEc-8" value="" style="shape=image;verticalLabelPosition=bottom;labelBackgroundColor=default;verticalAlign=top;aspect=fixed;imageAspect=0;image=data:image/png,iVBORw0KGgoAAAANSUhEUgAAANYAAACzCAYAAAD12uLHAAAAAXNSR0IArs4c6QAAAARnQU1BAACxjwv8YQUAAAAJcEhZcwAADsMAAA7DAcdvqGQAADQ4SURBVHhe7X3PryXHdd7X9703v4czwyFFiaYkSqJt2bIcyyZgK1ZiJDIQwAhgJwi8TLLJIlnkB5BFoOyyyT5/QIAACQ0ECSDbcQJkYdkIIMc2YBmObcmiSJGiKFISNb/ImTfvvXu7sug6p7/66lS/J8+9LYvqA9T0+fGdU1Wnzrl9b9/7yO7o6ChhoYUW2iqtVLHQQgs9Oi2NtdBCO6ClsRZaaAe0NNZCC+2AlsZaaKEd0NJYCy20A1oaa6GFdkBLYy200A5oaayFFtoBLY210EI7oKWxFlpoB7Q01kIL7YCWxlpooR3Q0lgLLbQDWhproYV2QEtjLbTQDmhprIUW2gEtjbXQQjugpbEWWmgHtDTWQgvtgJbGWmihHdDSWAsttANaGmuhhXZAS2MttNAOqPte/Qc7U0q4d+8ubr31Bg7v38NmcwygU9hfWeq6FfbPXcDFS1dx5ep1XL58FRcuXFDYQj+gNHtjpZRw+9Z38I3XvoR7b/4xDh7+OS7imzi3OkTXAQnDcoYW65CQ0KEDEoAuN14aRKcOQErSmIyYbtg0lYHs6lNk2qR9POyv4Lh7CuuD92H/8jO48dSP4n3PfASPPXZtBC70A0mzNtZ6vca33nwdr37xf+Pmw9/Ah66+iPP7x1h1PTqkoXI7q2L1LpsjpRGUUoeuM4cOKSXvQdflpu7yBEPDUr/KfC4mC5Qb13q7B3p02PQr9Gkf944v4bUHH8XhlV/A9fd9Au99+sO4+tg1HBwcWKSFfoBotsY6OjrCa6++iG/+xWfxkf3fwjOPvYFV12fr0AwRedOksagxljlSsiYDNdeIQQK63GVjs+Qrx0uDYmi5AWNtaHfNqSa0tdw7voKX3v4Y7l/8FK49/Tw+8KEfW+5gP4A0S2OllPD1r72Mr/3xf8JPXPwNPHHp9vDi39kbPwyNY3esglZASsONIw2FrQ1ijQUUN5XxbWTQVCnHYhvr/M5nYm6ssY2C9WRdn1a4c3wNL7/zcZzc+CX8yE9+Go/ffIJRC73LaZangg8fPsSbr/0J3r//f/DE5Tu5LtNwl0i5qUBNlbr8Rm24f9jNKmwqk6ljLKw1QzIzdQA3ld0svalczmtIwxianzAmprxmu8t1CTfO38Vfu/F53Lz3H/GlL/xP3L71neZdeaF3H83SWHduv4WTW1/A+658Hej6ssKNEvKdwIq5bojAK79Vy13RpfFtn/nlEfmazt7e2ecvmL+Rq3PzJ4e5fVD5aoDUY3+1wbNXX8bN+/8VX/yj38Jbb32LnBZ6N9MsjXX7rddxI/0/XDo4GpX02UjfAnrdUnEPkFzBQydlS36zl2PZXaFjCLEpx0oujCC/o3Rd9TbRmwrFe83qbmdvPU1xsLfBhx/7Mp64/1/w5S/8Fu7du5udF3o30yyNdfjOt/DeSy97U3RdR++qOgAdUqKldGOj2VtCUOGPn6mG61DDwwOOxHe7TP5Wzgp/7KXcOh3Q5c9Q1ri2VoUyxkR/Gzg++GD7wWqNjzz2Eh5/8Ot48c8+j6MjeoFZ6F1JszRWf/IANy/cy1J+uobhrmBN0OXPXPwWzoq0/GxS3k3cJHcM67URSfVujMXJuOHJ39iYRfwB4OsaRhlAH6IYpQTsdT3ef+VlbN78dbz84p+i7+2J6ELvRpqlsVLqsbfaUCVTAxlmZL247amFPbSwO0OBz8050vgkj6fw54+moCch9hkL1vYWM/ps1nX+OQ7WyFl2dXGbG6e6vP8AH77wh/jOi/8d33j91RK00LuKZmmsgexxdUBy50Au7oLs0aDL0lASPIGe4Jmr322GQMwr+WemYE6fN9gQv+3ME1j7AQm4ceEOPnTwu3jlTz6Lt779zeVJ4buUZmushKE5/G1XlxuKCpfvTEgYPmtZYdLdgPvPmyWNj9YH+/iE0DA1DcGKt36FuSsesQ/zuJFvejnOMJ/0IpC/AkAHrLqEp6+8iac3v4m/+ML/wttv21vkhd5NNFtjjfeIoIBJGHqt/ObVCt8pC3w3GQqYS3q8QybAv5Ny8maht5e2MHccHkckjM3Ov+5wztaXfQc8hXGPLCfg6Uuv48rb/wNf+eIfYL1eC2Kh73earbEKooobinosbngTAMCKa3y8k5luZNEB5ecor+zOH2iEjQD4nbTEZb6YpLyDGSV+4ejG94q63oGGO925/TU+dPUvcPL6Z/HyV/58aa53Gc3UWGXjALlAuSCtEPmzWJfy00JrtLJK+f40fDlMBqtpq3Ny7YYuHBqiG5rBb5Dd+HloaIIczJ11FfrQYvwsOIjj201Qo3YArp57gOcu/T6+/cUX8LVXXlyeFL6LaKbGKotx+MCef9JENv3MMhT/WNTcXuOwwre7ySi7Jxf62DPeEHaHtIbD0M50ByxbyXE0DDF+1zZOmII5hjswcOP8bXz43Ofw9T//Tdy+9R2bYqHvc5qtsTr/py5oo6Kp5DNSRawkPtlbQOsJsldx8jwD6RfL49O98snhyNfrGx+ydB0/qMlxrKEcDwAdbl64jff0v4sX//R3cP/+/cK60PcnzfLr9j/4nV/DJ/f+DTWSTUm/diBK/MqecaWVm2K483X5lxMBMgckA5B/pTGqz56EYmG56QYhJXp6KSQ3vYqON+fxxbsfx8Mbfx9Xrv+Qmhd6BFrtHeDi5cdw7foTuHb9Bvb39xWydZqpsV7AX9//DAB7q2Qv60PBVbVI1T40zVj4jE/0uGF43J5/O0EBE6yJyi+O6Y3id9FURU9lyg8+pKMNY/pWY/Fd7fDkHL59+AQebK6Vmx6QLGTiPNqkudF9QTlDtIDxDkpfSRDpL12GEIKz22+X3/TkJAz55h9D03lXh216W7YnI9wuRcpm/XnaYChwCVinczjs3oPNxedw/elP4NnnfhLXrl0Xx+3S96CxBl3i75kGxUg5scNnnDGVdi7DGeaDA/zuA37Txgkv7k420ehTgulQ+dE6r88atYP4Ci5vZdB3xVzDHuzBjK4Bw/pMXTSAK/Ncq3GdNPfgO7zQuClh8LUkOtY+cA5V2eUXPEp9Jto3T1m8+NmG80odWwajpZZfk9jc9LI5SJYzU/AZZFV+x5ByzyPP3yegT3t4uLmArx9+BA+u/R0888OfwtPPPItz586NAbZIszbWeLgYmqbbR3fwOHD+KWDvMoC97JGLhrPGRCtOwHCfyn+O7wk1gN0V7dWUiJPPDTGUI7/JIzJFtbRBUb3aFzSstkmpB/pjoH8IpJNBruA5hheP3gUyVQvXpY+AYslE4x2tTHgJ1z0Rnpu3mNdeOMnVOzlaTDVpRSmH8OXmu/ggJqTNMfr1EfrNGm8dXsfXNn8DT370H+AjP/LxnTTXLI31+9ZYiTK8dwXd1Y+hu/HzwJWPAQc30a0OvFhsUUPe7Y4z/ltmmg/WJjBe7X91yFeXAKRjYP0ddMffRtrcRdcfAmmTgYakPWc2f30dlKQD8j8ao0QD9DLPOuX9EJkE53OaKpoz4Iv5yaeIZ1jiffOpwiUkoN+gPznE5ugu1oe3sDm8gzsPL+LLx5/Gcz/7T/DM+5/NPtujeRrrcy/gk/ufGfbadcDB4+ge/xS69/4qumvPI+1dnPMB5V8hysXcP0B39Dq6o1eA9Z3cUPwHoVJcrQLUq7H0pfWIEbzFL5rABrdto9D1ynGque064dO1YlAs0/lP3zimyRju/Ckh9WtsHt7F8d3XcHz/LXz11k3cvfmP8PynfmXrd615GwsY3vLd/FtYfeCfAlc+7p+Kxu9/trecKpIpTruBVY5TFIH1bSdPPFo6nGBvcxfd8TewOn4N2LwzFoc1lxeMXbJ9VAiv2Oia+QJjOsaqjXjWR9fizhbhpzBZ1mYq8KRvXs3HBSAl9OtDnNx7A/duvYE/vfWTePaT/xo/9MwHCPfoNEtj/cHv/Bp+dvVvh41deg7dB/8Zuqd+GQn7SCmNA5TDkeFLcADDB6TSPnaO6YcXQPWtqUJQAH+BbK2GhCpOXtcQI2GFExz038S59WvY29wa3gqiB/p1/nxljaW/xrDIPJkvrC6kiD8V02i64qp6E6dwvIZANxpoDaQ3ubhDkT3kSUc+aXOEo7uv40uvHOPe4/8QP/cLv6IOj0Szvf9K9gJ04RngsZ9Gn/aw2Wyw6Xts+h69j80wNn22b4brxFj3jBv81nk4xm02RoyPNcVdD0Nt680GJ+txrNc91uvBvt5scJKH69brPAZ+sz5GWt/D3smrODj+CvY23wLS0dBI/RHQPwD6w0HXnwBpffrAptal9RAz4gu86vNAll2XmzylfFW9+Rkv+sK3z3FNR3qXU347bINkt1ljMp+HxyDZGy6h2zuHg8tP4D3XgaO7X5FqfXSarbGAHikl9HuPIR08RY00jE3fo7dG2/RlQ/WbwVY1x9AgQxMOo8/+fR5FoxRNGmCCMcy7LuXcyPZCUOPzi0PGDHOtgc19HPRv4uL6RVxcfwX7/e1c1CdDM/WH+W5VF8I4TGbKst8tRK98gWO9/RPF0aF2M5ltAneqPvBtrTnCuSpoMMLvHVzCtetXsbd5x3Xbotkaq8/7TdjHBueG4ku5qNdUvOs11lTIw6v8ZtD5q3892LYxbI6zznxxNZ7m2hS2en7z9buZz0d228N6Pdzl1kND7fffwsX+FVzavIjz/etYpcP81u8Y2BwOj9j7TaOhjMTmRWO2Bg6WfMUrbzFZ1YpLuvCFgOzs5/FFX1wZq5iIZ6wr6BqMNHy5feHiZRyc2/4vMWZpLPv81Ceg75O//RsaKhfleoOT9XoYJyc+hgIdrifSQDZGrPkd42R9jPXJyTDW65E/OcFJjlfGsLmHsV4POFuT4n3e9RrH6zXWJ2ts1ifDdyXrI6TNA6w2d3DQv4lL6au40n8ZF/tXsZ/uoUN+C9Y/zHepYykgBDwVihUn9HPVaTGmeCnMjm3CpzxnWMwq52uB1fUGPhw3kX5UBLLG06uJI647OI/Vwfb/ZxazPLz4/c+9gOfxGfR9h/Sev4f+R/49+s0GqV+jS0dAWufvG3r0GA6gzKUu0b5A5tyVX5SO55IZw7uNvsZPGObP0OFLxkFI+ScF9oXxSNmepQ49VuixwhqrboM9PMTB6hDnuvvYx8OMtM8c66GZ+vzAoihOjtrgbf0FCY4xnqcgFsa9VvrWwxBXBbaKz/KZfabmINnWVa3RKEks/kkJYVKPz7/0DJ7/xX9J+kenWRrr/37uBfxM/xn0qcPmyV8GfvjfYdU/wCrdxz4eYIVjdPkDKBd4/Qo38IOkBzAIHfIvZJIUV7b7hV6Rx6eFI7b8Gpqbzn5KVMbtkIbm6jZYYRjDh2rz3+TPT8f5M5V9KGcK1sq8qU59Koa6gAqq91vGU3yOd1qD+jrVf0qm8y5+mjXhc6a9Zf60WEj4/Evvx/Of/ueke3Sap7F++wV8ov8M+rQCnvy72H/uX+F8dxt7OESHDW2UX9my3OTtEFR/Rl31FopsiGzFwkTPB2j+9PTKHlCk49xg7K+8ysTrHiI+ceOJrZBtnawzCuQqLtn4+t00VZXjU+6ujxq7wX/+pWfw/Kf/Bdkeneb5jJX/f1K48AzOXX0vLnTfwj7uo0sn+bdxx8DmIbA5yo+cj/LnD+Z5ZH2B53Hc1qVAZ2vwEekmxuZ4fGvXH9M6Hwxf+m7u589S+nDCsmNXtgkubKoIEzR5hc1XxzFpbJKLuEG8ZiyVI1+mBq54L85+sibPsWICPkUvFo9Os9yxfu+3X8BP7f0HnHvv38b5p34eq4PLw3c0fS5I+56joCgRstSw2JjXpEVxOMkTtogv8Hy1u1UeVVyVhTexeVclOUV3kjPEVn1Bdoci/qz4ybsK8UXMU3wKc+TDcadiZdnmznfHz7/0fjz/i9+Hd6yu28Pq8gdxcOPjWO1fBDYPgPVdYHM3f39zRG+Vpgbd4bwpg+GYk0Zc1p8IjvENXG88Y2ys84uEfdmJoAhUzlfDe0G3ikiKxedQG/HFK3MDYzLjPDbpCtLCZzIDrSvZvtjGFMzldyrzCzCqLhTsR/rk/2ydZmksrM5hdflD2Dt/fXhbtH47N1NOMj1ICBPiKsZyQlo8yw29xT21iJP9DF1w0VpUbvG2BinOU+/ELOt8rLfYjDNswCs2mc2IeMcSFTlkXu2uEF5lnkfthHE+mFP5RC9cYczt0EyNdR4HVz+IDifDZ460LjdWFTVtWA+6KjrxSazXuILz2OwT8Dxn5eOGUS5i81CcFmcDZ2twUZuA8VFsniOSM77Sa2wTmWc744I1u4PgjOd9pciHeMdkXMcN0/LJfBXX5O3RLI3VrQ6wf/Fm/gM+/nMIyOYoAdVeg0QZXxxEFJvlFi6irLfPDlxQLf8qthtIH8UiWxg764uiUEwkKy9rCPelAwFW7DpPITYwupaWrdDbReav1ka6ZGsIYu2IZmqsFVarg+GX283N6UaDRJ2ZF7lKMBPPwck3PGOMGEO4ydiqi+SWja++KOGzbOuJbH9pXklxJPP8/tb5rGvJcvGZingPE/j4NfNVozJPeA21JZqlsQZaB79ChvCWkMimCeGkKCaSz6InW2Kc2AqM4jRmvvIrqu9RY9s1moexgRw2lM4TraHlwyqOY0rGRoP9FEv+LrIfy1GMyG6+tMcpvOMYsz2ap7FSPzwxqzYg8mRCCJPy27MzPY5u6MO49qoY2Ao/u6ie51KbsRGGhrsJX/mY2Jin4FluFR5jKK7mwn1I76ziAt5ZaqqiwGU+xtdK4qN9abx8beZsezRPYyHlv9UhmTdpo0qCbJoTF/o4MF9Yr7GZFMfUsk3xuk79YD3BV98d6XqIqv3ZVfS2hhAfyFWBuqHmXUWN4m/lst7ZHK86u2gthKnwjMtXXkdxFf1kDrZHMzWWkSQm3GSAOTWxmWfsmYsjwvFcNMK1aLx8TXbY5KvxNGYVm/wjfBibSedjXYDRuBVG+NSwJZaNDfxDntdhpLyOSB/gm2vYPs3YWCnvZypxomOM/zf+NHmWNANGcQM5ncXH1pzxLYyOs8Rt0hSuZQtwnmfSVT4kN9dscuYTggYMcCwXuTMKdBa7Ugof7o2vmbdYTazOtT2ar7GS/yPKIClVIrJcvMUwG8Wumo95w/JBTxyQ66NYRsIX5gmcXRKvmWwFb0FVVhzZvOgjjMqSD9Z/V7zIRfHbeniwD+NEH/L5ak8dC1/VTcVQ/fZovsaa3AxtuHjFIr56UGGF3IpFvB+yYaMm5DWIf8WrHMUK4hrPa+Y1OZFPEUIxJBd7bGBMZmw1f4vn+SOMxC706mOk+AhH+mRnk3XRXKpTO2Mcu32asbEgSeONkkptyE3Ah5oYQz7Ngw/IY7BiInZB0cFM4YmKg1Se5vUiyrZwb2zTORtyc36ViU/s18CA16ukhmi9po/k6Fxa64iohT3N7y9PMzZWY0PFK0q26RM0xliC3Sy+6pf0R5zKk4/FLjCK4yJnHGNsQsJXTajzsNiyKc8FJ/qCz/Lk/GIrIBInosKksZlIPut6kunYTrzDNV4UV3nFbIdmbCzUCWOeX3WjwnJz5M/6zPOhFa/oyhur+oAPm0ObhmyuV5vgXGzEVxysmFh/Cl/EZYzELfjW+skWrpmx6gPJS4AxucIF+LPE8ViYiLddmrGxaAO2SdVHCWnaGno/ZLMxGVZihz5nwShvsuqMWnqLr2tTPBVIcw3C63KqB0Ao4xaxdS1TvK6B7cY29Iqp9qjYLFdnwrLpVG6tYbs0Y2MZ0aY8MZoUS5yNwBbxRb4UF83RWgPjeH7FRPFMHdgK3vC2hhaeZI+rsRhHvIs8X4Ar+LNg7MJ6k3WA9siYgG9ijKJ4oo/8XB/47IhmbCx6JeqmfmjZKIgiMZIk91GsDsNqA0zFZZsbhLfYJE/G5n22MEaBLfzziDx4f2Fskh0bPSVV3nxMpRiNb6LilM8Yj6lD9FU8sRXna/goFtu3T/M0lu/FEpA35Zs1G/FFApnOglNMEAYgpQI07kRsZ6dwTFpEEWUbFwrbTt2zyi3bGdfPxVo1NRGHKOKdElf1TDavXQclA0ZcQRqX1lNA1W87NE9jAXEynCd58pWTZE90hDPiw0CjWRiQMa4SW2ueKu7ESByHiWPYhecQubBZ8ZmeYwnPhVphVD5rU7Mc+PhV9MW7lmB4c2oMwVTzRX7Gamyxb4lmaqzWZqOEGB8RJzLyn8JFsQMf1ysvcSx+WGjEO87UipO5inVHuABfYCb4Km/RHMSb2J3ygje5ZuMVj8Z6Mp8CP8VWew8wzqPEF/vZPs3UWEpUaEXhtZJlcovEx8TwFZFlmd9tglFTQY244L0EtiqY4rOu8GFTtGblKUQYe4Ln2D5XhNM1sky4Ii7jxI4optjPxJuKm57i8hyB26PSjI1FG/ONtJKiPDViZHOeMVExqNyyKYbmqZqfccQXoSdwGr/QsxzZWryp2FYYYt4aKJm+FTvz1QsHk/pzXL6KvYrZmpv4ai57MSC/IhfEF028PZqxsTJVrx5BUow/00FnPnFsxTCOh9giHxancMxXcRu8hzKfABPFTvpWRjFcMIoTmfNR4IxUfxZ8lotc8/w6MrbSW1yOM4XVuXg9UTyzb5/mayxPCCsKY8knfSvX4D05E5giNpPZIn+Lbaop32yvCoixxLtZcUakSxybbMyPwCBuNAcXqOgLnmPUbBtvsXVuiZfyP74Ovp42ZxCrqi/FZt7mLQNvleZrLN1ciy/yocmRYQnyEJos4r0wTc9xmYLCDw+eqLK7QXymDjWIEe7fjSXv5gmMjQJH+kI2Yt4eYrQw9gIQ2Tk+Rkxiu/oRPsRILCf1IT6xXfnt0cyNFWyU7b7pqWFw1Ussk/2g2SYYlpPadA7yKYoowrOc8ewfYo0N/CuZ+Oo/JhrxFpcHY2T4ixE1jIeKsN9F3MJuvBHPp/7iV52tYrO+iMVY47dLMzYWU5CMFOmF91xMJcSw0QHyYDz5FLEj3lRscyXxIhcFgCC2YoM5FeMhtOADvsqHG4gnSvYPn02wrmpfEIzMVcQivbMRpoEt7BHW4oku9NsuzdxYmoDMJ/8n2KzyUROSDZBEtvgsu1sLJz5hgdLcThR78mBZx4OJdVIoxVoiXudvYNiWiGe98ha3wAfYlLFVXJb5jhLEYL2dQRWPeD+nifmK63ZpxsayZHBScgI8aZokS6ThRB/5TcbLV8MwdvJQc9wwNuNNVizp1b/IySl4z1sU20j8T12zxmec2E0/mYtWvLPiArvrzTaF0TlbWM57hm2RZmos3iSreeOubCQkwjE15gBif5+7RdFc6hPISWPr+tUmlFRPfBeNILYVSxVLiWxVPiyAYCbPTLC8zgJLmGqNAZ9o7gKvsSJ7g+dpdkAzNZbkSzdZ6EX0RLUSJKPCyTwej0nXYNjTCon5aD71Ib0VQfGj1gafIPtkWXx8vaL39fA6jJW1VRjVaVy+UjwPp5ipvNo1Dz9THuJXrV/sThaTZb5uj+ZrLCDYuI6cJC/oCJ/5MJlGLEvsKp7Kxp42V+Ydy0WueI5lovlEWG4gsymGZVDORF/wWeYcN/NMsosBhucN1xBgm3Maz1fVEfZMsWik7KP6HdB8jdX8D+RnKg4Fgsm8JcZMVRiOLfEmY3NAlRknoh+SXabwtO6CeL5Ir2tiW0SKY7I1mF7jEO9NoLjI95SGqvyM1J55mzcxnv1aeuW5mfltM2N5Dduj+RqrKGzUiYz0Td5I/YgvxFaMgE/2T8tnShfxPD+C2GyKmq/lS7I3OMeNcJmv3n6KHOZLebvoPKKzwlZ9i2/OzToeEZabiXURdjc0X2M58cY56WaL+CxykorkCM8JrIrOiHzsEAqs+pCuWjPFUp8qpuI4ZjQUbyrbp9ntyjjaG9uq4iW5uQ4ayWJEcVTXiksYi1edlcYwMdgT46vzIZvxxZlvn2ZuLN4k62TTylvCq4S1EqU45skeFV2BN5JDNV0V21haTxXvjP6R3ny4AB0b4TLfnbbPaL1qN5XGUDzH0qeWTIazGBorj+LslRes6cK7lJH67YZmbKy8CU56tTGSvVFEPxjp2orHiQv4ZkEyRX7GM5FscYu3WxanMWexlog32S4T80d86GMU4ENd5l2MMJyfPIq5WR/5M5+vHaaxKdu5XqbyWdhNv32ar7EmNxQkoLCxnofFbPkLrppfB9n8sE4rfMWRznFMJFsxRPMzedFEOB1Zf9qaDVPFlfhu0hjMUyz253xUehfomnmPFdmjwVjVZz7luKov/LdH8zVWlQDl+XBMz0kgKjDMq2ys8M2iz7qUr6qveI7FeuMD2dXRGtjHYvNo4FylBc4Y8q8wjVHMb3iNp7GMxMfXNoHxOQNe6dRaoVz4PhS7O5qvsaoHD7pZoiKhEzY3MUZ8woNU3mQuEtGzHBaIymJzyNQ8Zqa9nWWeonBIr3yxbr1m3kJVZxDgfZ06n/iEe4gGY/Rt4FQ8sSOqDbFXY7s0X2P54dMm+KALeyMJjElsE97iRofiMvPkx/NFOD5Ux+sLR+aLdYgt4jleC+O87nECZ9hIz7rUsou+2pPi83USx/GMVb1ion3QfJFfgWMsx2P7dmi+xqoWLxuM9E0fTUYrFlMjyYkTbDgm8mmus2WbiOWysQ19xKcIz3MS76JiSGem6gmeGbKcrPkUwzrCViQ6h5NfFY/tPCJMa16MfjtsJqYZG4vID0g3KDybw8IvAHWywr92BSU486wvqGVTXmWM6/UfoOo6CVc1CeNEXxXFaXwLb/EIU8QWn+YaRZdwBqzqeWQdn49dCxI8onnPYte426GZG6t1Z9ANUjL9/42liaJk2SEUOC0U8puKpzIXfvFXuoazq/iY/qzFWv0FsF2juGyb4ItcK8YuaiM7pMCrwRjNqw6JUcQ0Mlvkx3iOw3M3MB6T5+C426cZGytKWNYrxjbdmbmBrwqNeU0aJ5Z1rBc/PoywwMzG4mnzMIZsRWzjGaY+dpW4ya6NOFPr0vndpBi78pmqnXgvfl5bw49VyPiK1E/j8VWxqud9bo9maiw+6Czr5nyDmfcnQq1k6H+iOOJN5kNlfcQbzuY7DWf6yEf9s49fW7EbPlVsogLjSrrmYXtLfWAXv+ouqnPIGiJsc+0ykmF1GBmOcl7l0HA5Fk9XxSS++Hux7dBMjWUUbUyTqo9ZDcs+jadwzmd/S25xAC0+klmnPqo3W4u3QmjYlPf16zwy5ySmVYjk75hgFLEC3uKeaRhJLF5fiKXB63decWjgKK7NmYwn25Zoxsbixcsm1RYdKiejIo0d+LvcIpoH/B/EZDKM4Vxoz1msu4UjvlnUJrOoOB0OzKL4h0SYKj7xVTyy+xLUnwe7c3y6U3outPgbPOMLeySrfrs0Y2Oh3EzKiajsymtSKYGJccJXf3tD8Xh4LJmnFbvSMwXrRL67VusJ+KoQ3UBy5r2AIiyz7MeUAPSNOZVHmZ+ieI1nnen5KnxxphIrsa6FbfESq7C3dNunGRuLEyVysUHivXlYH+BMrhqkhc98EZuJ5yJsVcxR7IxjrMqVv8VGqWPZ92bYIIZiKwzJFUbsFY7ffkexTNQYGevrP2W+72ZUMRPFjdaY1xlit0vzNRYnIfoPoLisvGLYlnk+fOhnNE0iFYHrGMcy02l6E1s4I9IXhSE2XgvvLVxHxiadX3nDsS3CGhtgEvNaqBpDffK1mJ/15pL5opGFr9ZmV5mnym/Lb7s0X2NVpJvNsieDMYqLBuGahcoq9lOcYbkIgnkUV2AZQ7KrolgBHvwXvw278c1fTmDMaVHUjGU+wsj+3BzgQr3qRB/Fq3LEvAxtnsLX9GQ3TIXbDs3UWFNJIIwmp+DZH1TM5B8NTl46Q2xQbMNUySe5OnyJxXJiOeIVz+tXbOaL/SlGsH5lvcQO51Q/9p/gqzhsp5Ea+mJkTIrOnGWcfiacs8J/ezRTYzGdtklNSkSKCZJUHICZVMHrsKEY5hmvRUO2Am8iywHvBW0mjRXwvNYohxyv+M6P4xmO9+OGMlbBi91lise6Fl/lxa4Sy8bUz9T8GsUzNljDDmjmxpJNcfKLDWcd857PrP+u3n/bEJnV4Qdz4T2sxiyMJT7h9EKsdPaiwPOQrxduNNiP4wU62DwREdbW7/Oy3ag1R4NPOV5oj8j8FEv6xPthW56rqgvGbZdmbCzZVDKdbpZ1LT4nKsJz8qpXacaNsHbBKE8HqPpCtovMWWAMF+XCeJvTcDq3+HFxeX4YE2CnMGCM6QwrPrauIqZgfW3i6ziKUayP4xkRpsgJx4t00dg+zddYnISEYEOSiALfSozgIb/ICA/Z5id5ks9yaugL/jSczFEVTuDj8VivfiiLK3zqyjGMNJbMU7goJl+r8zEKsIVedcZGeo2layO98xZL1xDptk/zNVZBmrxog1MY4Ys8RQkkvSU7/MJWfIrG5sE+xNv8bCqFUWdY1vlV4ql+NGZWMFVBWbxT7IYp9mwYB0g81gd8FU/jkl334byR8hqPMfla7SPy2T7N11jVb/tM5mtORHhgmpCI14KNfIxlm2K0EMRX/cLCCYYXEMfTOTRehI1whjEyjMoSo2ljP+J9D+KrfLiHVlzWTYxibo0rGLdpbBY11vZovsYqEmCy2KtNTmDtUh2w+Ljaiqw1B2Ga6whkn1/0upZqncYbZb6K18C6qHHJJ9ELGruz4HsWPccpeJbVHo2ItEmyrvKJ1qYYI64fjptt5lM1UxTr0Wm+xirWH206GoTlg0hZVoxTFF/1IhcHzBTI1eFkfYt3kedo8apjPfHVn3SI3fhqrdEcLd7kfC2K1Yjt5q44NzTm0jmZsi0Zr7ZIbzqJrevawZ+LGM3XWLr5qlEYIwkpfFk/ZdNCUD7CtTAk6+FoLI2bAn1hlzxUsWhexoRxlWdd1lsco+aDDpGb8+naA7vrst6xjCM7x60wGjfH85gR1ngmi6/67dCMjWVEmw8fIChlffi9lSQyQQqQsexD+qT6CEPxC2r4VIXGg/2UAn0Uy2XSu9l4jqXzGy5aT+Y9j1yAEsfm8l/vazz1iexGxIdrU3/ep8ZnP4vH+gi/XZq3sYoi0aSYnnhLbjKsEeNZp4ni+DKHrsVtzPOBmE5tpGsWBNNUsfJgX44hOIdH/qbP1wJnap4j82fJNa8/xIvK8l3lh3n7MxYebKdzS9zMiiVMFU+wbt8uzdhYtKlkstpI9r1LIgqeMNXh8iC9qzSWxhPc1AEZvogVxC/WGdgr7FTxsF9k5zhaQBEep6zPSHU0D8tqb9l4fcUajSi+m3RO1oHiaDxZR8q8TrkFmq+xqsS7gfgs24ZDHCUlRXFZNooOJl+LD7A6J9NEXPDbIcZoPLU3+GT/aPEwJu9n6qdYRYEF9kI2Up3iM1998Cc7N0l1PpmvGqm1Dl2L4mXeSK8YF6M5tkPzNRYgG4g2zk3FJHJYMAWgIQY+xcHbhePryPao4N2XZBc1hmL1wPVKI9H/OFvXb3wRZ4K3Ai+K0jA8GGvzNua265nXptTw8yvPYaqzYCP9bmjGxgo2bodTJEc3HyWGSeOK/2RBM454tVW6fOXYhb/IzaIlsdCznQrfijrECo79eS7jHaeYRrwij4Jt2g0jWNXp4L1W68xXs6uvxrb5qvUpfrs0Y2Oh3Igly/fFG6TkFInNuupXHJIgPxSzMUksnp/56D8mw4ddGso1VPMaTxjjwwNXrBFhijlk7U3KtqJQG3wVRhUaK/O+Lo0XnKNfKVaFCWKxrXpaTDYXNWbEb5dmaqzWRqOkNRJoI0X+TJFNYvDo+DDJJ3GszIefZ3jglEYxlvcR2JVvFY8VYjL7GUaxV/YjvtgDYwUfFqzoms1ivLGyhgJH+mS8qQOM2R2r8ZTfPs3UWEy6SdaxjDJpSX9vKEkqDjCIxT5JYrvSjafElfiO4UF2jVdgIny+plxIraJLrGNf0dv6qjXqXBNNwLZmLIoHXp+R8NWc4t/iPa4O04PW1yCzT0AehWZsLE0i6f1Km41woS67hR/miffwrDdin3xNcoCtYuI1ReuzazW3rkPmjOYqsPnKOuaL9QZ25qtYSrSGIr9sE77KM2F8bUw0R6EjPplO1yD6sAaMSPZ426d5Gsv3pxuWBIXFoMlhLKsnDsvVEreYj0YijBNjjFW74jSeYo2P1hFgiz3qfA4i3kTF0ijsUxgmjkc6W1+1l2gwsU4wHtNs7EP4Ym7FEq7gW9hHp3kaCwg2w/qIVH/WA5N5kv1j8TguYe3wHB9gWFXE09h60DrErygGLiLTG8bswXw8qjkVaxfF6UAQi+PkURS0B2/gorf0jDea2ofoqrkbozgTxm6fZmwsJdtsTkyVHMIUycn4gqbk03gtZJ2bscaqPsLyXEYZZwVWHTLjiPcCY7vE96IxuxtiLCIs0eTaNOZpvOjCwpaY1doEm3BK3ZCuyAsP1m2XZmws3aypdFO68axzUfSRnBAURsB7wpla2Ix3HWOMsr44bNKH8ll51bGsOuUJV61N7C6zPuATGoUtMSzHiXRsZx+L53kWu8t8NZ5G4lhsF7/w/LdDMzYWgg0qTzpOcpUck5knP9AvE6o5TNQ5g7kLP8GwzOtMZmth1GbUwBbrbOFEz/gqVjCfq06Zz+c1fWTPunCvgvO1Z77AGs868nOKbGpXPppjuzRfY+kB+2/NWhtnask5QYniF7AgXoRTO6gpLbbO6bxhG7Zq7aozn6wz01R+qj3oXBxTcaxTfObdRXF57khfYTJFX7RX85k8sZ6U4xZnyjiZV2PwcBjjt0vzNRbkh5vFAWW7XVld/SEeJ9JETZAegOpEH+mSrSOyZ97hwdoMU1xbfL76fFxshE02F+GqGFyI5kt2NVqxFnsI4lYBG1iNkwJsMZ/ZjYR3kbE8TK32iLeL1EdRF9uhGRvLSDdLclHMebhsZHpJGNsKXuM0hs0dNrKNrOfCqNahPmeZG3VBOhmG9YEdFoN10VA7U0O23KTGz8ksH4l8qnkplpPEKebTvBnPV8Kq3vw4VpVjjr1dmrGxOAFZLmjipzsVT0nhu6ATJxVBUTJvF/MhvV+N1E76wt900dxid9/I3tIHfJFbTPunjK8KzewyOEZzPyzLfHZpnr/M7TodhK3WprzGF/8d04yNhelNp5ws1auPNYvDFEMN5XHsqvEb/mZPYq+KSnzMbvNX+yHe7MlskZ34AsPz8rp4UCxnOVZEWd986CN8MVVj7pTnrWLIqM5swifMq+LRmJd5nnO7NFNj8abyhnUUO6SNM7nIdk7SVNLFL4Gw6jMV1/TCV/O2YvB+o1hiT2YL4iY0cif8afNpvALPsQynmBaW3lpXzUq4xD5RLDTOVvEUrzovxbJt+zRTYxlFyWGKNs+kthbPsl4hxchX0VVvMyNsljsrIh5kt2tx4HYlbFiwjMnXRLwropjRW+yIV3+205ynzWsNYPswfLTvZjy7Em9fn7TOLkXx9Gqivjhsn+ZrLNv4qBCeh6mDgyp87EoH2BwG1xiB3UM3Pqw78YHyGuxKftVDEcIWe2QSbDGHDvYxlvLW8kuGC/wLnOnVTrzPwWb248Eg1XMMXqP65SurqxiF8Qz72A7N2Fi9McEwvbF6kNHItpTxRRyJaRjHaZyW3WJ7kHHYgVf/2a9G3GR2xrFuQl/4ayzSu533kv01brhfHeyiMWRUc+jI+oRgbiOKFWI05ln0ald9T/L2aJ7GSglpczyxAdJ7ISsFSUqRnngPpQlVndqjQsFY4D6vFHxFU3NkvvDnYZCGn18znzK2iKdEhc065bmwPZ5diXcxiFHwkW6Kj3Q8L81d5KfBV7jx2vdpfM3fIs3SWCmtsTl+hzU1769QrOdhGFaJ3f0yFtwgAQYUr/lfWFJ9hCE+QYqSiefltbHN+DOsvSBdUyCnCGeU+eIMTB/FI7vH1WH6HLdqggA7tWfPqfoGWOMdn/1lvs1Jwvpk+501S2MBwOH9t4G0GTfGiS4Os9x4qWe+NaJ46pNlTnRSrLHcJOI/grJJ7TIMU8zFPPkXsdgmes9jYPN5GWN6shdz8hM8jmW6qTkn8BXWILS+ao0k29oK/wBbxdIx4lOfcPQw4eSkekr1yDRLY632zuH2vRP0J4eUIIyJML5KlImnFHYyDMdjjMQNcSybWjF2lZH0jhfxJvPVeIqTEMwrfpPFI35FLNPzNfMcK4zb8Kt4wRfnK/Zqn2wnvhmDdVM868ZaWp8k3H7nAOvuMQU+Ms3SWBcvP44371zC8dtvol8f+cYG4iSxHkHxKIYbjol9eJ4cM5w780XRRhi+GhutQ2I1iyP7uqvaI94o0pFcFa7gU8Yk0rGded+H6RTDezS1zMfXam3B1acxJpo3X6u12Rwac9D164SHD9b4xp3ruHDzoxmzPZqlsR5/8odwt/8g7t/6Bo7vvY5+fdhIkibF9IG9GI0YGi88TOL9IE4bGRsdHM/npP6ETS27Yg2vNoplo7nXCH+KvdjnxHC3KR+zR2835Vr4M5aGzzUVi3GDvu8TDh+scevOCnfSh/GB5z6R8dujWRrr6mM3cHD9x/DG7fM4vPUqju68hs3De0ibE/rchZwEEzlRRpYoEqsDMspyAhWZ4XQQviDS2QE24zGeYynWRC4+VxJPOikM1/uV+LOsjeO0HtqkvMaKRFfsg20a1+JZfPZhPePcUWTDuBDwZS2llNBvEk6Oerxzb427t3u88fYT2Lv503jyPe8l/+1Qd3R0JCvePqWU8MpXX8Srf/Sf8ezeb+PJyw+wf/EG9i9ex97BBXR754Cu8ySIt33lPtoKyCAkpPxDiRprCLMYyvwMNxq0iLNOZfap8KTjXz44TPyr+JmkyHgvo1J9fVflfOOmhSH/VO5nuIz2TtZq9vLjv66H10hrc8oamxuUG7YHngOJXtZsTbVeJxw/7PHwQY87Dy/j66u/iR/+5D/G+z/4IXTDxrZGszQWABwfH+OrL30Rb/zZf8Ozq8/h8Qt3sepWWO2fQ7e3PxwNryTv02vBbNw3lIsEoKMCSwC6rhvrUoub8ziAkVJUfAEe44IGEzsNvIXKoZHSUFBRGDvTlAHF0ngdvqwOXbFA5BeWMdBozTnAsKAin90Qx+aotp6ANCx+VHZ5va6qvGKyNbg4+A2hcjAubs1XXkaYRF6c7U3Osu8T+g2w6Tu8fXIZ30g/gyd/4lfx0Y/9NA4ODjzStmi2xgKAvu/xyldfxNf+32dx4/j3cPPgm7hw8BAH3Ror9J57v3llGpKfM9tlTQYMRZFP2iB0RbISpMKTo+CzKpIhhkEc442xy5oAn2vWc4PYmqWOaDXMd3435hhjMw64hOGFhN2HAhuA41YsT5YN3jHlJ9x79qO/Ci7PBcN66cUig/L6RplMI5/KnAy64cqurfiGs7UPuRnWuE57OO7P4c76Cdw7/wk8/eO/hB/98Z/C3t4eBdoezdpYAJBSwnfe+jZe/tIf4sG3/xj7J2/iXLqLDidFWTneS2w4wA45aXagbq3LZKR8NxrFssnkoJL/sxvyYrHNVHPaq7VUWUApDehV16HP/qvsZuF0vkEelP4WaGK/YT6CwzJxatWMKeJ2yC8Cw85HXZyLKg7N63Fzc/XdAfrVZWwOnsSl9/wEnvvYz+HJJ5/a+ts/ptkby6jve9x/5x3cvv0WDh+8jX6zVsgWiA9Kj0KTqsfzvSc+mGgHsxKnbPbJ//LUdR1We3u4cOEyHrt+A9euXcdqtftndt+zxlpooXcz7b51F1roB5CWxlpooR3Q0lgLLbQDWhproYV2QEtjLbTQDmhprIUW2gEtjbXQQjugpbEWWmgHtDTWQgvtgJbGWmihHdDSWAsttANaGmuhhXZAS2MttNAOaGmshRbaAS2NtdBCO6ClsRZaaAe0NNZCC+2AlsZaaKEd0NJYCy20A/r/86aOfhLWLFYAAAAASUVORK5CYII=;" vertex="1" parent="1">
          <mxGeometry x="-114.17" y="394" width="59.78" height="50" as="geometry" />
        </mxCell>
        <mxCell id="_Jj7Ve39ARDFc18teFEc-24" style="edgeStyle=orthogonalEdgeStyle;rounded=0;orthogonalLoop=1;jettySize=auto;html=1;entryX=0.5;entryY=0;entryDx=0;entryDy=0;" edge="1" parent="1" source="_Jj7Ve39ARDFc18teFEc-9" target="_Jj7Ve39ARDFc18teFEc-11">
          <mxGeometry relative="1" as="geometry" />
        </mxCell>
        <mxCell id="_Jj7Ve39ARDFc18teFEc-25" style="edgeStyle=orthogonalEdgeStyle;rounded=0;orthogonalLoop=1;jettySize=auto;html=1;" edge="1" parent="1" source="_Jj7Ve39ARDFc18teFEc-9" target="_Jj7Ve39ARDFc18teFEc-10">
          <mxGeometry relative="1" as="geometry">
            <Array as="points">
              <mxPoint x="289" y="266" />
            </Array>
          </mxGeometry>
        </mxCell>
        <mxCell id="_Jj7Ve39ARDFc18teFEc-9" value="" style="shape=image;verticalLabelPosition=bottom;labelBackgroundColor=default;verticalAlign=top;aspect=fixed;imageAspect=0;image=data:image/png,iVBORw0KGgoAAAANSUhEUgAAANYAAACzCAYAAAD12uLHAAAAAXNSR0IArs4c6QAAAARnQU1BAACxjwv8YQUAAAAJcEhZcwAADsMAAA7DAcdvqGQAADQ4SURBVHhe7X3PryXHdd7X9703v4czwyFFiaYkSqJt2bIcyyZgK1ZiJDIQwAhgJwi8TLLJIlnkB5BFoOyyyT5/QIAACQ0ECSDbcQJkYdkIIMc2YBmObcmiSJGiKFISNb/ImTfvvXu7sug6p7/66lS/J8+9LYvqA9T0+fGdU1Wnzrl9b9/7yO7o6ChhoYUW2iqtVLHQQgs9Oi2NtdBCO6ClsRZaaAe0NNZCC+2AlsZaaKEd0NJYCy20A1oaa6GFdkBLYy200A5oaayFFtoBLY210EI7oKWxFlpoB7Q01kIL7YCWxlpooR3Q0lgLLbQDWhproYV2QEtjLbTQDmhprIUW2gEtjbXQQjugpbEWWmgHtDTWQgvtgJbGWmihHdDSWAsttANaGmuhhXZAS2MttNAOqPte/Qc7U0q4d+8ubr31Bg7v38NmcwygU9hfWeq6FfbPXcDFS1dx5ep1XL58FRcuXFDYQj+gNHtjpZRw+9Z38I3XvoR7b/4xDh7+OS7imzi3OkTXAQnDcoYW65CQ0KEDEoAuN14aRKcOQErSmIyYbtg0lYHs6lNk2qR9POyv4Lh7CuuD92H/8jO48dSP4n3PfASPPXZtBC70A0mzNtZ6vca33nwdr37xf+Pmw9/Ah66+iPP7x1h1PTqkoXI7q2L1LpsjpRGUUoeuM4cOKSXvQdflpu7yBEPDUr/KfC4mC5Qb13q7B3p02PQr9Gkf944v4bUHH8XhlV/A9fd9Au99+sO4+tg1HBwcWKSFfoBotsY6OjrCa6++iG/+xWfxkf3fwjOPvYFV12fr0AwRedOksagxljlSsiYDNdeIQQK63GVjs+Qrx0uDYmi5AWNtaHfNqSa0tdw7voKX3v4Y7l/8FK49/Tw+8KEfW+5gP4A0S2OllPD1r72Mr/3xf8JPXPwNPHHp9vDi39kbPwyNY3esglZASsONIw2FrQ1ijQUUN5XxbWTQVCnHYhvr/M5nYm6ssY2C9WRdn1a4c3wNL7/zcZzc+CX8yE9+Go/ffIJRC73LaZangg8fPsSbr/0J3r//f/DE5Tu5LtNwl0i5qUBNlbr8Rm24f9jNKmwqk6ljLKw1QzIzdQA3ld0svalczmtIwxianzAmprxmu8t1CTfO38Vfu/F53Lz3H/GlL/xP3L71neZdeaF3H83SWHduv4WTW1/A+658Hej6ssKNEvKdwIq5bojAK79Vy13RpfFtn/nlEfmazt7e2ecvmL+Rq3PzJ4e5fVD5aoDUY3+1wbNXX8bN+/8VX/yj38Jbb32LnBZ6N9MsjXX7rddxI/0/XDo4GpX02UjfAnrdUnEPkFzBQydlS36zl2PZXaFjCLEpx0oujCC/o3Rd9TbRmwrFe83qbmdvPU1xsLfBhx/7Mp64/1/w5S/8Fu7du5udF3o30yyNdfjOt/DeSy97U3RdR++qOgAdUqKldGOj2VtCUOGPn6mG61DDwwOOxHe7TP5Wzgp/7KXcOh3Q5c9Q1ri2VoUyxkR/Gzg++GD7wWqNjzz2Eh5/8Ot48c8+j6MjeoFZ6F1JszRWf/IANy/cy1J+uobhrmBN0OXPXPwWzoq0/GxS3k3cJHcM67URSfVujMXJuOHJ39iYRfwB4OsaRhlAH6IYpQTsdT3ef+VlbN78dbz84p+i7+2J6ELvRpqlsVLqsbfaUCVTAxlmZL247amFPbSwO0OBz8050vgkj6fw54+moCch9hkL1vYWM/ps1nX+OQ7WyFl2dXGbG6e6vP8AH77wh/jOi/8d33j91RK00LuKZmmsgexxdUBy50Au7oLs0aDL0lASPIGe4Jmr322GQMwr+WemYE6fN9gQv+3ME1j7AQm4ceEOPnTwu3jlTz6Lt779zeVJ4buUZmushKE5/G1XlxuKCpfvTEgYPmtZYdLdgPvPmyWNj9YH+/iE0DA1DcGKt36FuSsesQ/zuJFvejnOMJ/0IpC/AkAHrLqEp6+8iac3v4m/+ML/wttv21vkhd5NNFtjjfeIoIBJGHqt/ObVCt8pC3w3GQqYS3q8QybAv5Ny8maht5e2MHccHkckjM3Ov+5wztaXfQc8hXGPLCfg6Uuv48rb/wNf+eIfYL1eC2Kh73earbEKooobinosbngTAMCKa3y8k5luZNEB5ecor+zOH2iEjQD4nbTEZb6YpLyDGSV+4ejG94q63oGGO925/TU+dPUvcPL6Z/HyV/58aa53Gc3UWGXjALlAuSCtEPmzWJfy00JrtLJK+f40fDlMBqtpq3Ny7YYuHBqiG5rBb5Dd+HloaIIczJ11FfrQYvwsOIjj201Qo3YArp57gOcu/T6+/cUX8LVXXlyeFL6LaKbGKotx+MCef9JENv3MMhT/WNTcXuOwwre7ySi7Jxf62DPeEHaHtIbD0M50ByxbyXE0DDF+1zZOmII5hjswcOP8bXz43Ofw9T//Tdy+9R2bYqHvc5qtsTr/py5oo6Kp5DNSRawkPtlbQOsJsldx8jwD6RfL49O98snhyNfrGx+ydB0/qMlxrKEcDwAdbl64jff0v4sX//R3cP/+/cK60PcnzfLr9j/4nV/DJ/f+DTWSTUm/diBK/MqecaWVm2K483X5lxMBMgckA5B/pTGqz56EYmG56QYhJXp6KSQ3vYqON+fxxbsfx8Mbfx9Xrv+Qmhd6BFrtHeDi5cdw7foTuHb9Bvb39xWydZqpsV7AX9//DAB7q2Qv60PBVbVI1T40zVj4jE/0uGF43J5/O0EBE6yJyi+O6Y3id9FURU9lyg8+pKMNY/pWY/Fd7fDkHL59+AQebK6Vmx6QLGTiPNqkudF9QTlDtIDxDkpfSRDpL12GEIKz22+X3/TkJAz55h9D03lXh216W7YnI9wuRcpm/XnaYChwCVinczjs3oPNxedw/elP4NnnfhLXrl0Xx+3S96CxBl3i75kGxUg5scNnnDGVdi7DGeaDA/zuA37Txgkv7k420ehTgulQ+dE6r88atYP4Ci5vZdB3xVzDHuzBjK4Bw/pMXTSAK/Ncq3GdNPfgO7zQuClh8LUkOtY+cA5V2eUXPEp9Jto3T1m8+NmG80odWwajpZZfk9jc9LI5SJYzU/AZZFV+x5ByzyPP3yegT3t4uLmArx9+BA+u/R0888OfwtPPPItz586NAbZIszbWeLgYmqbbR3fwOHD+KWDvMoC97JGLhrPGRCtOwHCfyn+O7wk1gN0V7dWUiJPPDTGUI7/JIzJFtbRBUb3aFzSstkmpB/pjoH8IpJNBruA5hheP3gUyVQvXpY+AYslE4x2tTHgJ1z0Rnpu3mNdeOMnVOzlaTDVpRSmH8OXmu/ggJqTNMfr1EfrNGm8dXsfXNn8DT370H+AjP/LxnTTXLI31+9ZYiTK8dwXd1Y+hu/HzwJWPAQc30a0OvFhsUUPe7Y4z/ltmmg/WJjBe7X91yFeXAKRjYP0ddMffRtrcRdcfAmmTgYakPWc2f30dlKQD8j8ao0QD9DLPOuX9EJkE53OaKpoz4Iv5yaeIZ1jiffOpwiUkoN+gPznE5ugu1oe3sDm8gzsPL+LLx5/Gcz/7T/DM+5/NPtujeRrrcy/gk/ufGfbadcDB4+ge/xS69/4qumvPI+1dnPMB5V8hysXcP0B39Dq6o1eA9Z3cUPwHoVJcrQLUq7H0pfWIEbzFL5rABrdto9D1ynGque064dO1YlAs0/lP3zimyRju/Ckh9WtsHt7F8d3XcHz/LXz11k3cvfmP8PynfmXrd615GwsY3vLd/FtYfeCfAlc+7p+Kxu9/trecKpIpTruBVY5TFIH1bSdPPFo6nGBvcxfd8TewOn4N2LwzFoc1lxeMXbJ9VAiv2Oia+QJjOsaqjXjWR9fizhbhpzBZ1mYq8KRvXs3HBSAl9OtDnNx7A/duvYE/vfWTePaT/xo/9MwHCPfoNEtj/cHv/Bp+dvVvh41deg7dB/8Zuqd+GQn7SCmNA5TDkeFLcADDB6TSPnaO6YcXQPWtqUJQAH+BbK2GhCpOXtcQI2GFExz038S59WvY29wa3gqiB/p1/nxljaW/xrDIPJkvrC6kiD8V02i64qp6E6dwvIZANxpoDaQ3ubhDkT3kSUc+aXOEo7uv40uvHOPe4/8QP/cLv6IOj0Szvf9K9gJ04RngsZ9Gn/aw2Wyw6Xts+h69j80wNn22b4brxFj3jBv81nk4xm02RoyPNcVdD0Nt680GJ+txrNc91uvBvt5scJKH69brPAZ+sz5GWt/D3smrODj+CvY23wLS0dBI/RHQPwD6w0HXnwBpffrAptal9RAz4gu86vNAll2XmzylfFW9+Rkv+sK3z3FNR3qXU347bINkt1ljMp+HxyDZGy6h2zuHg8tP4D3XgaO7X5FqfXSarbGAHikl9HuPIR08RY00jE3fo7dG2/RlQ/WbwVY1x9AgQxMOo8/+fR5FoxRNGmCCMcy7LuXcyPZCUOPzi0PGDHOtgc19HPRv4uL6RVxcfwX7/e1c1CdDM/WH+W5VF8I4TGbKst8tRK98gWO9/RPF0aF2M5ltAneqPvBtrTnCuSpoMMLvHVzCtetXsbd5x3Xbotkaq8/7TdjHBueG4ku5qNdUvOs11lTIw6v8ZtD5q3892LYxbI6zznxxNZ7m2hS2en7z9buZz0d228N6Pdzl1kND7fffwsX+FVzavIjz/etYpcP81u8Y2BwOj9j7TaOhjMTmRWO2Bg6WfMUrbzFZ1YpLuvCFgOzs5/FFX1wZq5iIZ6wr6BqMNHy5feHiZRyc2/4vMWZpLPv81Ceg75O//RsaKhfleoOT9XoYJyc+hgIdrifSQDZGrPkd42R9jPXJyTDW65E/OcFJjlfGsLmHsV4POFuT4n3e9RrH6zXWJ2ts1ifDdyXrI6TNA6w2d3DQv4lL6au40n8ZF/tXsZ/uoUN+C9Y/zHepYykgBDwVihUn9HPVaTGmeCnMjm3CpzxnWMwq52uB1fUGPhw3kX5UBLLG06uJI647OI/Vwfb/ZxazPLz4/c+9gOfxGfR9h/Sev4f+R/49+s0GqV+jS0dAWufvG3r0GA6gzKUu0b5A5tyVX5SO55IZw7uNvsZPGObP0OFLxkFI+ScF9oXxSNmepQ49VuixwhqrboM9PMTB6hDnuvvYx8OMtM8c66GZ+vzAoihOjtrgbf0FCY4xnqcgFsa9VvrWwxBXBbaKz/KZfabmINnWVa3RKEks/kkJYVKPz7/0DJ7/xX9J+kenWRrr/37uBfxM/xn0qcPmyV8GfvjfYdU/wCrdxz4eYIVjdPkDKBd4/Qo38IOkBzAIHfIvZJIUV7b7hV6Rx6eFI7b8Gpqbzn5KVMbtkIbm6jZYYRjDh2rz3+TPT8f5M5V9KGcK1sq8qU59Koa6gAqq91vGU3yOd1qD+jrVf0qm8y5+mjXhc6a9Zf60WEj4/Evvx/Of/ueke3Sap7F++wV8ov8M+rQCnvy72H/uX+F8dxt7OESHDW2UX9my3OTtEFR/Rl31FopsiGzFwkTPB2j+9PTKHlCk49xg7K+8ysTrHiI+ceOJrZBtnawzCuQqLtn4+t00VZXjU+6ujxq7wX/+pWfw/Kf/Bdkeneb5jJX/f1K48AzOXX0vLnTfwj7uo0sn+bdxx8DmIbA5yo+cj/LnD+Z5ZH2B53Hc1qVAZ2vwEekmxuZ4fGvXH9M6Hwxf+m7u589S+nDCsmNXtgkubKoIEzR5hc1XxzFpbJKLuEG8ZiyVI1+mBq54L85+sibPsWICPkUvFo9Os9yxfu+3X8BP7f0HnHvv38b5p34eq4PLw3c0fS5I+56joCgRstSw2JjXpEVxOMkTtogv8Hy1u1UeVVyVhTexeVclOUV3kjPEVn1Bdoci/qz4ybsK8UXMU3wKc+TDcadiZdnmznfHz7/0fjz/i9+Hd6yu28Pq8gdxcOPjWO1fBDYPgPVdYHM3f39zRG+Vpgbd4bwpg+GYk0Zc1p8IjvENXG88Y2ys84uEfdmJoAhUzlfDe0G3ikiKxedQG/HFK3MDYzLjPDbpCtLCZzIDrSvZvtjGFMzldyrzCzCqLhTsR/rk/2ydZmksrM5hdflD2Dt/fXhbtH47N1NOMj1ICBPiKsZyQlo8yw29xT21iJP9DF1w0VpUbvG2BinOU+/ELOt8rLfYjDNswCs2mc2IeMcSFTlkXu2uEF5lnkfthHE+mFP5RC9cYczt0EyNdR4HVz+IDifDZ460LjdWFTVtWA+6KjrxSazXuILz2OwT8Dxn5eOGUS5i81CcFmcDZ2twUZuA8VFsniOSM77Sa2wTmWc744I1u4PgjOd9pciHeMdkXMcN0/LJfBXX5O3RLI3VrQ6wf/Fm/gM+/nMIyOYoAdVeg0QZXxxEFJvlFi6irLfPDlxQLf8qthtIH8UiWxg764uiUEwkKy9rCPelAwFW7DpPITYwupaWrdDbReav1ka6ZGsIYu2IZmqsFVarg+GX283N6UaDRJ2ZF7lKMBPPwck3PGOMGEO4ydiqi+SWja++KOGzbOuJbH9pXklxJPP8/tb5rGvJcvGZingPE/j4NfNVozJPeA21JZqlsQZaB79ChvCWkMimCeGkKCaSz6InW2Kc2AqM4jRmvvIrqu9RY9s1moexgRw2lM4TraHlwyqOY0rGRoP9FEv+LrIfy1GMyG6+tMcpvOMYsz2ap7FSPzwxqzYg8mRCCJPy27MzPY5u6MO49qoY2Ao/u6ie51KbsRGGhrsJX/mY2Jin4FluFR5jKK7mwn1I76ziAt5ZaqqiwGU+xtdK4qN9abx8beZsezRPYyHlv9UhmTdpo0qCbJoTF/o4MF9Yr7GZFMfUsk3xuk79YD3BV98d6XqIqv3ZVfS2hhAfyFWBuqHmXUWN4m/lst7ZHK86u2gthKnwjMtXXkdxFf1kDrZHMzWWkSQm3GSAOTWxmWfsmYsjwvFcNMK1aLx8TXbY5KvxNGYVm/wjfBibSedjXYDRuBVG+NSwJZaNDfxDntdhpLyOSB/gm2vYPs3YWCnvZypxomOM/zf+NHmWNANGcQM5ncXH1pzxLYyOs8Rt0hSuZQtwnmfSVT4kN9dscuYTggYMcCwXuTMKdBa7Ugof7o2vmbdYTazOtT2ar7GS/yPKIClVIrJcvMUwG8Wumo95w/JBTxyQ66NYRsIX5gmcXRKvmWwFb0FVVhzZvOgjjMqSD9Z/V7zIRfHbeniwD+NEH/L5ak8dC1/VTcVQ/fZovsaa3AxtuHjFIr56UGGF3IpFvB+yYaMm5DWIf8WrHMUK4hrPa+Y1OZFPEUIxJBd7bGBMZmw1f4vn+SOMxC706mOk+AhH+mRnk3XRXKpTO2Mcu32asbEgSeONkkptyE3Ah5oYQz7Ngw/IY7BiInZB0cFM4YmKg1Se5vUiyrZwb2zTORtyc36ViU/s18CA16ukhmi9po/k6Fxa64iohT3N7y9PMzZWY0PFK0q26RM0xliC3Sy+6pf0R5zKk4/FLjCK4yJnHGNsQsJXTajzsNiyKc8FJ/qCz/Lk/GIrIBInosKksZlIPut6kunYTrzDNV4UV3nFbIdmbCzUCWOeX3WjwnJz5M/6zPOhFa/oyhur+oAPm0ObhmyuV5vgXGzEVxysmFh/Cl/EZYzELfjW+skWrpmx6gPJS4AxucIF+LPE8ViYiLddmrGxaAO2SdVHCWnaGno/ZLMxGVZihz5nwShvsuqMWnqLr2tTPBVIcw3C63KqB0Ao4xaxdS1TvK6B7cY29Iqp9qjYLFdnwrLpVG6tYbs0Y2MZ0aY8MZoUS5yNwBbxRb4UF83RWgPjeH7FRPFMHdgK3vC2hhaeZI+rsRhHvIs8X4Ar+LNg7MJ6k3WA9siYgG9ijKJ4oo/8XB/47IhmbCx6JeqmfmjZKIgiMZIk91GsDsNqA0zFZZsbhLfYJE/G5n22MEaBLfzziDx4f2Fskh0bPSVV3nxMpRiNb6LilM8Yj6lD9FU8sRXna/goFtu3T/M0lu/FEpA35Zs1G/FFApnOglNMEAYgpQI07kRsZ6dwTFpEEWUbFwrbTt2zyi3bGdfPxVo1NRGHKOKdElf1TDavXQclA0ZcQRqX1lNA1W87NE9jAXEynCd58pWTZE90hDPiw0CjWRiQMa4SW2ueKu7ESByHiWPYhecQubBZ8ZmeYwnPhVphVD5rU7Mc+PhV9MW7lmB4c2oMwVTzRX7Gamyxb4lmaqzWZqOEGB8RJzLyn8JFsQMf1ysvcSx+WGjEO87UipO5inVHuABfYCb4Km/RHMSb2J3ygje5ZuMVj8Z6Mp8CP8VWew8wzqPEF/vZPs3UWEpUaEXhtZJlcovEx8TwFZFlmd9tglFTQY244L0EtiqY4rOu8GFTtGblKUQYe4Ln2D5XhNM1sky4Ii7jxI4optjPxJuKm57i8hyB26PSjI1FG/ONtJKiPDViZHOeMVExqNyyKYbmqZqfccQXoSdwGr/QsxzZWryp2FYYYt4aKJm+FTvz1QsHk/pzXL6KvYrZmpv4ai57MSC/IhfEF028PZqxsTJVrx5BUow/00FnPnFsxTCOh9giHxancMxXcRu8hzKfABPFTvpWRjFcMIoTmfNR4IxUfxZ8lotc8/w6MrbSW1yOM4XVuXg9UTyzb5/mayxPCCsKY8knfSvX4D05E5giNpPZIn+Lbaop32yvCoixxLtZcUakSxybbMyPwCBuNAcXqOgLnmPUbBtvsXVuiZfyP74Ovp42ZxCrqi/FZt7mLQNvleZrLN1ciy/yocmRYQnyEJos4r0wTc9xmYLCDw+eqLK7QXymDjWIEe7fjSXv5gmMjQJH+kI2Yt4eYrQw9gIQ2Tk+Rkxiu/oRPsRILCf1IT6xXfnt0cyNFWyU7b7pqWFw1Ussk/2g2SYYlpPadA7yKYoowrOc8ewfYo0N/CuZ+Oo/JhrxFpcHY2T4ixE1jIeKsN9F3MJuvBHPp/7iV52tYrO+iMVY47dLMzYWU5CMFOmF91xMJcSw0QHyYDz5FLEj3lRscyXxIhcFgCC2YoM5FeMhtOADvsqHG4gnSvYPn02wrmpfEIzMVcQivbMRpoEt7BHW4oku9NsuzdxYmoDMJ/8n2KzyUROSDZBEtvgsu1sLJz5hgdLcThR78mBZx4OJdVIoxVoiXudvYNiWiGe98ha3wAfYlLFVXJb5jhLEYL2dQRWPeD+nifmK63ZpxsayZHBScgI8aZokS6ThRB/5TcbLV8MwdvJQc9wwNuNNVizp1b/IySl4z1sU20j8T12zxmec2E0/mYtWvLPiArvrzTaF0TlbWM57hm2RZmos3iSreeOubCQkwjE15gBif5+7RdFc6hPISWPr+tUmlFRPfBeNILYVSxVLiWxVPiyAYCbPTLC8zgJLmGqNAZ9o7gKvsSJ7g+dpdkAzNZbkSzdZ6EX0RLUSJKPCyTwej0nXYNjTCon5aD71Ib0VQfGj1gafIPtkWXx8vaL39fA6jJW1VRjVaVy+UjwPp5ipvNo1Dz9THuJXrV/sThaTZb5uj+ZrLCDYuI6cJC/oCJ/5MJlGLEvsKp7Kxp42V+Ydy0WueI5lovlEWG4gsymGZVDORF/wWeYcN/NMsosBhucN1xBgm3Maz1fVEfZMsWik7KP6HdB8jdX8D+RnKg4Fgsm8JcZMVRiOLfEmY3NAlRknoh+SXabwtO6CeL5Ir2tiW0SKY7I1mF7jEO9NoLjI95SGqvyM1J55mzcxnv1aeuW5mfltM2N5Dduj+RqrKGzUiYz0Td5I/YgvxFaMgE/2T8tnShfxPD+C2GyKmq/lS7I3OMeNcJmv3n6KHOZLebvoPKKzwlZ9i2/OzToeEZabiXURdjc0X2M58cY56WaL+CxykorkCM8JrIrOiHzsEAqs+pCuWjPFUp8qpuI4ZjQUbyrbp9ntyjjaG9uq4iW5uQ4ayWJEcVTXiksYi1edlcYwMdgT46vzIZvxxZlvn2ZuLN4k62TTylvCq4S1EqU45skeFV2BN5JDNV0V21haTxXvjP6R3ny4AB0b4TLfnbbPaL1qN5XGUDzH0qeWTIazGBorj+LslRes6cK7lJH67YZmbKy8CU56tTGSvVFEPxjp2orHiQv4ZkEyRX7GM5FscYu3WxanMWexlog32S4T80d86GMU4ENd5l2MMJyfPIq5WR/5M5+vHaaxKdu5XqbyWdhNv32ar7EmNxQkoLCxnofFbPkLrppfB9n8sE4rfMWRznFMJFsxRPMzedFEOB1Zf9qaDVPFlfhu0hjMUyz253xUehfomnmPFdmjwVjVZz7luKov/LdH8zVWlQDl+XBMz0kgKjDMq2ys8M2iz7qUr6qveI7FeuMD2dXRGtjHYvNo4FylBc4Y8q8wjVHMb3iNp7GMxMfXNoHxOQNe6dRaoVz4PhS7O5qvsaoHD7pZoiKhEzY3MUZ8woNU3mQuEtGzHBaIymJzyNQ8Zqa9nWWeonBIr3yxbr1m3kJVZxDgfZ06n/iEe4gGY/Rt4FQ8sSOqDbFXY7s0X2P54dMm+KALeyMJjElsE97iRofiMvPkx/NFOD5Ux+sLR+aLdYgt4jleC+O87nECZ9hIz7rUsou+2pPi83USx/GMVb1ion3QfJFfgWMsx2P7dmi+xqoWLxuM9E0fTUYrFlMjyYkTbDgm8mmus2WbiOWysQ19xKcIz3MS76JiSGem6gmeGbKcrPkUwzrCViQ6h5NfFY/tPCJMa16MfjtsJqYZG4vID0g3KDybw8IvAHWywr92BSU486wvqGVTXmWM6/UfoOo6CVc1CeNEXxXFaXwLb/EIU8QWn+YaRZdwBqzqeWQdn49dCxI8onnPYte426GZG6t1Z9ANUjL9/42liaJk2SEUOC0U8puKpzIXfvFXuoazq/iY/qzFWv0FsF2juGyb4ItcK8YuaiM7pMCrwRjNqw6JUcQ0Mlvkx3iOw3M3MB6T5+C426cZGytKWNYrxjbdmbmBrwqNeU0aJ5Z1rBc/PoywwMzG4mnzMIZsRWzjGaY+dpW4ya6NOFPr0vndpBi78pmqnXgvfl5bw49VyPiK1E/j8VWxqud9bo9maiw+6Czr5nyDmfcnQq1k6H+iOOJN5kNlfcQbzuY7DWf6yEf9s49fW7EbPlVsogLjSrrmYXtLfWAXv+ouqnPIGiJsc+0ykmF1GBmOcl7l0HA5Fk9XxSS++Hux7dBMjWUUbUyTqo9ZDcs+jadwzmd/S25xAC0+klmnPqo3W4u3QmjYlPf16zwy5ySmVYjk75hgFLEC3uKeaRhJLF5fiKXB63decWjgKK7NmYwn25Zoxsbixcsm1RYdKiejIo0d+LvcIpoH/B/EZDKM4Vxoz1msu4UjvlnUJrOoOB0OzKL4h0SYKj7xVTyy+xLUnwe7c3y6U3outPgbPOMLeySrfrs0Y2Oh3EzKiajsymtSKYGJccJXf3tD8Xh4LJmnFbvSMwXrRL67VusJ+KoQ3UBy5r2AIiyz7MeUAPSNOZVHmZ+ieI1nnen5KnxxphIrsa6FbfESq7C3dNunGRuLEyVysUHivXlYH+BMrhqkhc98EZuJ5yJsVcxR7IxjrMqVv8VGqWPZ92bYIIZiKwzJFUbsFY7ffkexTNQYGevrP2W+72ZUMRPFjdaY1xlit0vzNRYnIfoPoLisvGLYlnk+fOhnNE0iFYHrGMcy02l6E1s4I9IXhSE2XgvvLVxHxiadX3nDsS3CGhtgEvNaqBpDffK1mJ/15pL5opGFr9ZmV5mnym/Lb7s0X2NVpJvNsieDMYqLBuGahcoq9lOcYbkIgnkUV2AZQ7KrolgBHvwXvw278c1fTmDMaVHUjGU+wsj+3BzgQr3qRB/Fq3LEvAxtnsLX9GQ3TIXbDs3UWFNJIIwmp+DZH1TM5B8NTl46Q2xQbMNUySe5OnyJxXJiOeIVz+tXbOaL/SlGsH5lvcQO51Q/9p/gqzhsp5Ea+mJkTIrOnGWcfiacs8J/ezRTYzGdtklNSkSKCZJUHICZVMHrsKEY5hmvRUO2Am8iywHvBW0mjRXwvNYohxyv+M6P4xmO9+OGMlbBi91lise6Fl/lxa4Sy8bUz9T8GsUzNljDDmjmxpJNcfKLDWcd857PrP+u3n/bEJnV4Qdz4T2sxiyMJT7h9EKsdPaiwPOQrxduNNiP4wU62DwREdbW7/Oy3ag1R4NPOV5oj8j8FEv6xPthW56rqgvGbZdmbCzZVDKdbpZ1LT4nKsJz8qpXacaNsHbBKE8HqPpCtovMWWAMF+XCeJvTcDq3+HFxeX4YE2CnMGCM6QwrPrauIqZgfW3i6ziKUayP4xkRpsgJx4t00dg+zddYnISEYEOSiALfSozgIb/ICA/Z5id5ks9yaugL/jSczFEVTuDj8VivfiiLK3zqyjGMNJbMU7goJl+r8zEKsIVedcZGeo2layO98xZL1xDptk/zNVZBmrxog1MY4Ys8RQkkvSU7/MJWfIrG5sE+xNv8bCqFUWdY1vlV4ql+NGZWMFVBWbxT7IYp9mwYB0g81gd8FU/jkl334byR8hqPMfla7SPy2T7N11jVb/tM5mtORHhgmpCI14KNfIxlm2K0EMRX/cLCCYYXEMfTOTRehI1whjEyjMoSo2ljP+J9D+KrfLiHVlzWTYxibo0rGLdpbBY11vZovsYqEmCy2KtNTmDtUh2w+Ljaiqw1B2Ga6whkn1/0upZqncYbZb6K18C6qHHJJ9ELGruz4HsWPccpeJbVHo2ItEmyrvKJ1qYYI64fjptt5lM1UxTr0Wm+xirWH206GoTlg0hZVoxTFF/1IhcHzBTI1eFkfYt3kedo8apjPfHVn3SI3fhqrdEcLd7kfC2K1Yjt5q44NzTm0jmZsi0Zr7ZIbzqJrevawZ+LGM3XWLr5qlEYIwkpfFk/ZdNCUD7CtTAk6+FoLI2bAn1hlzxUsWhexoRxlWdd1lsco+aDDpGb8+naA7vrst6xjCM7x60wGjfH85gR1ngmi6/67dCMjWVEmw8fIChlffi9lSQyQQqQsexD+qT6CEPxC2r4VIXGg/2UAn0Uy2XSu9l4jqXzGy5aT+Y9j1yAEsfm8l/vazz1iexGxIdrU3/ep8ZnP4vH+gi/XZq3sYoi0aSYnnhLbjKsEeNZp4ni+DKHrsVtzPOBmE5tpGsWBNNUsfJgX44hOIdH/qbP1wJnap4j82fJNa8/xIvK8l3lh3n7MxYebKdzS9zMiiVMFU+wbt8uzdhYtKlkstpI9r1LIgqeMNXh8iC9qzSWxhPc1AEZvogVxC/WGdgr7FTxsF9k5zhaQBEep6zPSHU0D8tqb9l4fcUajSi+m3RO1oHiaDxZR8q8TrkFmq+xqsS7gfgs24ZDHCUlRXFZNooOJl+LD7A6J9NEXPDbIcZoPLU3+GT/aPEwJu9n6qdYRYEF9kI2Up3iM1998Cc7N0l1PpmvGqm1Dl2L4mXeSK8YF6M5tkPzNRYgG4g2zk3FJHJYMAWgIQY+xcHbhePryPao4N2XZBc1hmL1wPVKI9H/OFvXb3wRZ4K3Ai+K0jA8GGvzNua265nXptTw8yvPYaqzYCP9bmjGxgo2bodTJEc3HyWGSeOK/2RBM454tVW6fOXYhb/IzaIlsdCznQrfijrECo79eS7jHaeYRrwij4Jt2g0jWNXp4L1W68xXs6uvxrb5qvUpfrs0Y2Oh3Igly/fFG6TkFInNuupXHJIgPxSzMUksnp/56D8mw4ddGso1VPMaTxjjwwNXrBFhijlk7U3KtqJQG3wVRhUaK/O+Lo0XnKNfKVaFCWKxrXpaTDYXNWbEb5dmaqzWRqOkNRJoI0X+TJFNYvDo+DDJJ3GszIefZ3jglEYxlvcR2JVvFY8VYjL7GUaxV/YjvtgDYwUfFqzoms1ivLGyhgJH+mS8qQOM2R2r8ZTfPs3UWEy6SdaxjDJpSX9vKEkqDjCIxT5JYrvSjafElfiO4UF2jVdgIny+plxIraJLrGNf0dv6qjXqXBNNwLZmLIoHXp+R8NWc4t/iPa4O04PW1yCzT0AehWZsLE0i6f1Km41woS67hR/miffwrDdin3xNcoCtYuI1ReuzazW3rkPmjOYqsPnKOuaL9QZ25qtYSrSGIr9sE77KM2F8bUw0R6EjPplO1yD6sAaMSPZ426d5Gsv3pxuWBIXFoMlhLKsnDsvVEreYj0YijBNjjFW74jSeYo2P1hFgiz3qfA4i3kTF0ijsUxgmjkc6W1+1l2gwsU4wHtNs7EP4Ym7FEq7gW9hHp3kaCwg2w/qIVH/WA5N5kv1j8TguYe3wHB9gWFXE09h60DrErygGLiLTG8bswXw8qjkVaxfF6UAQi+PkURS0B2/gorf0jDea2ofoqrkbozgTxm6fZmwsJdtsTkyVHMIUycn4gqbk03gtZJ2bscaqPsLyXEYZZwVWHTLjiPcCY7vE96IxuxtiLCIs0eTaNOZpvOjCwpaY1doEm3BK3ZCuyAsP1m2XZmws3aypdFO68axzUfSRnBAURsB7wpla2Ix3HWOMsr44bNKH8ll51bGsOuUJV61N7C6zPuATGoUtMSzHiXRsZx+L53kWu8t8NZ5G4lhsF7/w/LdDMzYWgg0qTzpOcpUck5knP9AvE6o5TNQ5g7kLP8GwzOtMZmth1GbUwBbrbOFEz/gqVjCfq06Zz+c1fWTPunCvgvO1Z77AGs868nOKbGpXPppjuzRfY+kB+2/NWhtnask5QYniF7AgXoRTO6gpLbbO6bxhG7Zq7aozn6wz01R+qj3oXBxTcaxTfObdRXF57khfYTJFX7RX85k8sZ6U4xZnyjiZV2PwcBjjt0vzNRbkh5vFAWW7XVld/SEeJ9JETZAegOpEH+mSrSOyZ97hwdoMU1xbfL76fFxshE02F+GqGFyI5kt2NVqxFnsI4lYBG1iNkwJsMZ/ZjYR3kbE8TK32iLeL1EdRF9uhGRvLSDdLclHMebhsZHpJGNsKXuM0hs0dNrKNrOfCqNahPmeZG3VBOhmG9YEdFoN10VA7U0O23KTGz8ksH4l8qnkplpPEKebTvBnPV8Kq3vw4VpVjjr1dmrGxOAFZLmjipzsVT0nhu6ATJxVBUTJvF/MhvV+N1E76wt900dxid9/I3tIHfJFbTPunjK8KzewyOEZzPyzLfHZpnr/M7TodhK3WprzGF/8d04yNhelNp5ws1auPNYvDFEMN5XHsqvEb/mZPYq+KSnzMbvNX+yHe7MlskZ34AsPz8rp4UCxnOVZEWd986CN8MVVj7pTnrWLIqM5swifMq+LRmJd5nnO7NFNj8abyhnUUO6SNM7nIdk7SVNLFL4Gw6jMV1/TCV/O2YvB+o1hiT2YL4iY0cif8afNpvALPsQynmBaW3lpXzUq4xD5RLDTOVvEUrzovxbJt+zRTYxlFyWGKNs+kthbPsl4hxchX0VVvMyNsljsrIh5kt2tx4HYlbFiwjMnXRLwropjRW+yIV3+205ynzWsNYPswfLTvZjy7Em9fn7TOLkXx9Gqivjhsn+ZrLNv4qBCeh6mDgyp87EoH2BwG1xiB3UM3Pqw78YHyGuxKftVDEcIWe2QSbDGHDvYxlvLW8kuGC/wLnOnVTrzPwWb248Eg1XMMXqP65SurqxiF8Qz72A7N2Fi9McEwvbF6kNHItpTxRRyJaRjHaZyW3WJ7kHHYgVf/2a9G3GR2xrFuQl/4ayzSu533kv01brhfHeyiMWRUc+jI+oRgbiOKFWI05ln0ald9T/L2aJ7GSglpczyxAdJ7ISsFSUqRnngPpQlVndqjQsFY4D6vFHxFU3NkvvDnYZCGn18znzK2iKdEhc065bmwPZ5diXcxiFHwkW6Kj3Q8L81d5KfBV7jx2vdpfM3fIs3SWCmtsTl+hzU1769QrOdhGFaJ3f0yFtwgAQYUr/lfWFJ9hCE+QYqSiefltbHN+DOsvSBdUyCnCGeU+eIMTB/FI7vH1WH6HLdqggA7tWfPqfoGWOMdn/1lvs1Jwvpk+501S2MBwOH9t4G0GTfGiS4Os9x4qWe+NaJ46pNlTnRSrLHcJOI/grJJ7TIMU8zFPPkXsdgmes9jYPN5GWN6shdz8hM8jmW6qTkn8BXWILS+ao0k29oK/wBbxdIx4lOfcPQw4eSkekr1yDRLY632zuH2vRP0J4eUIIyJML5KlImnFHYyDMdjjMQNcSybWjF2lZH0jhfxJvPVeIqTEMwrfpPFI35FLNPzNfMcK4zb8Kt4wRfnK/Zqn2wnvhmDdVM868ZaWp8k3H7nAOvuMQU+Ms3SWBcvP44371zC8dtvol8f+cYG4iSxHkHxKIYbjol9eJ4cM5w780XRRhi+GhutQ2I1iyP7uqvaI94o0pFcFa7gU8Yk0rGded+H6RTDezS1zMfXam3B1acxJpo3X6u12Rwac9D164SHD9b4xp3ruHDzoxmzPZqlsR5/8odwt/8g7t/6Bo7vvY5+fdhIkibF9IG9GI0YGi88TOL9IE4bGRsdHM/npP6ETS27Yg2vNoplo7nXCH+KvdjnxHC3KR+zR2835Vr4M5aGzzUVi3GDvu8TDh+scevOCnfSh/GB5z6R8dujWRrr6mM3cHD9x/DG7fM4vPUqju68hs3De0ibE/rchZwEEzlRRpYoEqsDMspyAhWZ4XQQviDS2QE24zGeYynWRC4+VxJPOikM1/uV+LOsjeO0HtqkvMaKRFfsg20a1+JZfPZhPePcUWTDuBDwZS2llNBvEk6Oerxzb427t3u88fYT2Lv503jyPe8l/+1Qd3R0JCvePqWU8MpXX8Srf/Sf8ezeb+PJyw+wf/EG9i9ex97BBXR754Cu8ySIt33lPtoKyCAkpPxDiRprCLMYyvwMNxq0iLNOZfap8KTjXz44TPyr+JmkyHgvo1J9fVflfOOmhSH/VO5nuIz2TtZq9vLjv66H10hrc8oamxuUG7YHngOJXtZsTbVeJxw/7PHwQY87Dy/j66u/iR/+5D/G+z/4IXTDxrZGszQWABwfH+OrL30Rb/zZf8Ozq8/h8Qt3sepWWO2fQ7e3PxwNryTv02vBbNw3lIsEoKMCSwC6rhvrUoub8ziAkVJUfAEe44IGEzsNvIXKoZHSUFBRGDvTlAHF0ngdvqwOXbFA5BeWMdBozTnAsKAin90Qx+aotp6ANCx+VHZ5va6qvGKyNbg4+A2hcjAubs1XXkaYRF6c7U3Osu8T+g2w6Tu8fXIZ30g/gyd/4lfx0Y/9NA4ODjzStmi2xgKAvu/xyldfxNf+32dx4/j3cPPgm7hw8BAH3Ror9J57v3llGpKfM9tlTQYMRZFP2iB0RbISpMKTo+CzKpIhhkEc442xy5oAn2vWc4PYmqWOaDXMd3435hhjMw64hOGFhN2HAhuA41YsT5YN3jHlJ9x79qO/Ci7PBcN66cUig/L6RplMI5/KnAy64cqurfiGs7UPuRnWuE57OO7P4c76Cdw7/wk8/eO/hB/98Z/C3t4eBdoezdpYAJBSwnfe+jZe/tIf4sG3/xj7J2/iXLqLDidFWTneS2w4wA45aXagbq3LZKR8NxrFssnkoJL/sxvyYrHNVHPaq7VUWUApDehV16HP/qvsZuF0vkEelP4WaGK/YT6CwzJxatWMKeJ2yC8Cw85HXZyLKg7N63Fzc/XdAfrVZWwOnsSl9/wEnvvYz+HJJ5/a+ts/ptkby6jve9x/5x3cvv0WDh+8jX6zVsgWiA9Kj0KTqsfzvSc+mGgHsxKnbPbJ//LUdR1We3u4cOEyHrt+A9euXcdqtftndt+zxlpooXcz7b51F1roB5CWxlpooR3Q0lgLLbQDWhproYV2QEtjLbTQDmhprIUW2gEtjbXQQjugpbEWWmgHtDTWQgvtgJbGWmihHdDSWAsttANaGmuhhXZAS2MttNAOaGmshRbaAS2NtdBCO6ClsRZaaAe0NNZCC+2AlsZaaKEd0NJYCy20A/r/86aOfhLWLFYAAAAASUVORK5CYII=;" vertex="1" parent="1">
          <mxGeometry x="201" y="241" width="59.78" height="50" as="geometry" />
        </mxCell>
        <mxCell id="_Jj7Ve39ARDFc18teFEc-10" value="" style="shape=image;verticalLabelPosition=bottom;labelBackgroundColor=default;verticalAlign=top;aspect=fixed;imageAspect=0;image=data:image/png,iVBORw0KGgoAAAANSUhEUgAAANYAAACzCAYAAAD12uLHAAAAAXNSR0IArs4c6QAAAARnQU1BAACxjwv8YQUAAAAJcEhZcwAADsMAAA7DAcdvqGQAADQ4SURBVHhe7X3PryXHdd7X9703v4czwyFFiaYkSqJt2bIcyyZgK1ZiJDIQwAhgJwi8TLLJIlnkB5BFoOyyyT5/QIAACQ0ECSDbcQJkYdkIIMc2YBmObcmiSJGiKFISNb/ImTfvvXu7sug6p7/66lS/J8+9LYvqA9T0+fGdU1Wnzrl9b9/7yO7o6ChhoYUW2iqtVLHQQgs9Oi2NtdBCO6ClsRZaaAe0NNZCC+2AlsZaaKEd0NJYCy20A1oaa6GFdkBLYy200A5oaayFFtoBLY210EI7oKWxFlpoB7Q01kIL7YCWxlpooR3Q0lgLLbQDWhproYV2QEtjLbTQDmhprIUW2gEtjbXQQjugpbEWWmgHtDTWQgvtgJbGWmihHdDSWAsttANaGmuhhXZAS2MttNAOqPte/Qc7U0q4d+8ubr31Bg7v38NmcwygU9hfWeq6FfbPXcDFS1dx5ep1XL58FRcuXFDYQj+gNHtjpZRw+9Z38I3XvoR7b/4xDh7+OS7imzi3OkTXAQnDcoYW65CQ0KEDEoAuN14aRKcOQErSmIyYbtg0lYHs6lNk2qR9POyv4Lh7CuuD92H/8jO48dSP4n3PfASPPXZtBC70A0mzNtZ6vca33nwdr37xf+Pmw9/Ah66+iPP7x1h1PTqkoXI7q2L1LpsjpRGUUoeuM4cOKSXvQdflpu7yBEPDUr/KfC4mC5Qb13q7B3p02PQr9Gkf944v4bUHH8XhlV/A9fd9Au99+sO4+tg1HBwcWKSFfoBotsY6OjrCa6++iG/+xWfxkf3fwjOPvYFV12fr0AwRedOksagxljlSsiYDNdeIQQK63GVjs+Qrx0uDYmi5AWNtaHfNqSa0tdw7voKX3v4Y7l/8FK49/Tw+8KEfW+5gP4A0S2OllPD1r72Mr/3xf8JPXPwNPHHp9vDi39kbPwyNY3esglZASsONIw2FrQ1ijQUUN5XxbWTQVCnHYhvr/M5nYm6ssY2C9WRdn1a4c3wNL7/zcZzc+CX8yE9+Go/ffIJRC73LaZangg8fPsSbr/0J3r//f/DE5Tu5LtNwl0i5qUBNlbr8Rm24f9jNKmwqk6ljLKw1QzIzdQA3ld0svalczmtIwxianzAmprxmu8t1CTfO38Vfu/F53Lz3H/GlL/xP3L71neZdeaF3H83SWHduv4WTW1/A+658Hej6ssKNEvKdwIq5bojAK79Vy13RpfFtn/nlEfmazt7e2ecvmL+Rq3PzJ4e5fVD5aoDUY3+1wbNXX8bN+/8VX/yj38Jbb32LnBZ6N9MsjXX7rddxI/0/XDo4GpX02UjfAnrdUnEPkFzBQydlS36zl2PZXaFjCLEpx0oujCC/o3Rd9TbRmwrFe83qbmdvPU1xsLfBhx/7Mp64/1/w5S/8Fu7du5udF3o30yyNdfjOt/DeSy97U3RdR++qOgAdUqKldGOj2VtCUOGPn6mG61DDwwOOxHe7TP5Wzgp/7KXcOh3Q5c9Q1ri2VoUyxkR/Gzg++GD7wWqNjzz2Eh5/8Ot48c8+j6MjeoFZ6F1JszRWf/IANy/cy1J+uobhrmBN0OXPXPwWzoq0/GxS3k3cJHcM67URSfVujMXJuOHJ39iYRfwB4OsaRhlAH6IYpQTsdT3ef+VlbN78dbz84p+i7+2J6ELvRpqlsVLqsbfaUCVTAxlmZL247amFPbSwO0OBz8050vgkj6fw54+moCch9hkL1vYWM/ps1nX+OQ7WyFl2dXGbG6e6vP8AH77wh/jOi/8d33j91RK00LuKZmmsgexxdUBy50Au7oLs0aDL0lASPIGe4Jmr322GQMwr+WemYE6fN9gQv+3ME1j7AQm4ceEOPnTwu3jlTz6Lt779zeVJ4buUZmushKE5/G1XlxuKCpfvTEgYPmtZYdLdgPvPmyWNj9YH+/iE0DA1DcGKt36FuSsesQ/zuJFvejnOMJ/0IpC/AkAHrLqEp6+8iac3v4m/+ML/wttv21vkhd5NNFtjjfeIoIBJGHqt/ObVCt8pC3w3GQqYS3q8QybAv5Ny8maht5e2MHccHkckjM3Ov+5wztaXfQc8hXGPLCfg6Uuv48rb/wNf+eIfYL1eC2Kh73earbEKooobinosbngTAMCKa3y8k5luZNEB5ecor+zOH2iEjQD4nbTEZb6YpLyDGSV+4ejG94q63oGGO925/TU+dPUvcPL6Z/HyV/58aa53Gc3UWGXjALlAuSCtEPmzWJfy00JrtLJK+f40fDlMBqtpq3Ny7YYuHBqiG5rBb5Dd+HloaIIczJ11FfrQYvwsOIjj201Qo3YArp57gOcu/T6+/cUX8LVXXlyeFL6LaKbGKotx+MCef9JENv3MMhT/WNTcXuOwwre7ySi7Jxf62DPeEHaHtIbD0M50ByxbyXE0DDF+1zZOmII5hjswcOP8bXz43Ofw9T//Tdy+9R2bYqHvc5qtsTr/py5oo6Kp5DNSRawkPtlbQOsJsldx8jwD6RfL49O98snhyNfrGx+ydB0/qMlxrKEcDwAdbl64jff0v4sX//R3cP/+/cK60PcnzfLr9j/4nV/DJ/f+DTWSTUm/diBK/MqecaWVm2K483X5lxMBMgckA5B/pTGqz56EYmG56QYhJXp6KSQ3vYqON+fxxbsfx8Mbfx9Xrv+Qmhd6BFrtHeDi5cdw7foTuHb9Bvb39xWydZqpsV7AX9//DAB7q2Qv60PBVbVI1T40zVj4jE/0uGF43J5/O0EBE6yJyi+O6Y3id9FURU9lyg8+pKMNY/pWY/Fd7fDkHL59+AQebK6Vmx6QLGTiPNqkudF9QTlDtIDxDkpfSRDpL12GEIKz22+X3/TkJAz55h9D03lXh216W7YnI9wuRcpm/XnaYChwCVinczjs3oPNxedw/elP4NnnfhLXrl0Xx+3S96CxBl3i75kGxUg5scNnnDGVdi7DGeaDA/zuA37Txgkv7k420ehTgulQ+dE6r88atYP4Ci5vZdB3xVzDHuzBjK4Bw/pMXTSAK/Ncq3GdNPfgO7zQuClh8LUkOtY+cA5V2eUXPEp9Jto3T1m8+NmG80odWwajpZZfk9jc9LI5SJYzU/AZZFV+x5ByzyPP3yegT3t4uLmArx9+BA+u/R0888OfwtPPPItz586NAbZIszbWeLgYmqbbR3fwOHD+KWDvMoC97JGLhrPGRCtOwHCfyn+O7wk1gN0V7dWUiJPPDTGUI7/JIzJFtbRBUb3aFzSstkmpB/pjoH8IpJNBruA5hheP3gUyVQvXpY+AYslE4x2tTHgJ1z0Rnpu3mNdeOMnVOzlaTDVpRSmH8OXmu/ggJqTNMfr1EfrNGm8dXsfXNn8DT370H+AjP/LxnTTXLI31+9ZYiTK8dwXd1Y+hu/HzwJWPAQc30a0OvFhsUUPe7Y4z/ltmmg/WJjBe7X91yFeXAKRjYP0ddMffRtrcRdcfAmmTgYakPWc2f30dlKQD8j8ao0QD9DLPOuX9EJkE53OaKpoz4Iv5yaeIZ1jiffOpwiUkoN+gPznE5ugu1oe3sDm8gzsPL+LLx5/Gcz/7T/DM+5/NPtujeRrrcy/gk/ufGfbadcDB4+ge/xS69/4qumvPI+1dnPMB5V8hysXcP0B39Dq6o1eA9Z3cUPwHoVJcrQLUq7H0pfWIEbzFL5rABrdto9D1ynGque064dO1YlAs0/lP3zimyRju/Ckh9WtsHt7F8d3XcHz/LXz11k3cvfmP8PynfmXrd615GwsY3vLd/FtYfeCfAlc+7p+Kxu9/trecKpIpTruBVY5TFIH1bSdPPFo6nGBvcxfd8TewOn4N2LwzFoc1lxeMXbJ9VAiv2Oia+QJjOsaqjXjWR9fizhbhpzBZ1mYq8KRvXs3HBSAl9OtDnNx7A/duvYE/vfWTePaT/xo/9MwHCPfoNEtj/cHv/Bp+dvVvh41deg7dB/8Zuqd+GQn7SCmNA5TDkeFLcADDB6TSPnaO6YcXQPWtqUJQAH+BbK2GhCpOXtcQI2GFExz038S59WvY29wa3gqiB/p1/nxljaW/xrDIPJkvrC6kiD8V02i64qp6E6dwvIZANxpoDaQ3ubhDkT3kSUc+aXOEo7uv40uvHOPe4/8QP/cLv6IOj0Szvf9K9gJ04RngsZ9Gn/aw2Wyw6Xts+h69j80wNn22b4brxFj3jBv81nk4xm02RoyPNcVdD0Nt680GJ+txrNc91uvBvt5scJKH69brPAZ+sz5GWt/D3smrODj+CvY23wLS0dBI/RHQPwD6w0HXnwBpffrAptal9RAz4gu86vNAll2XmzylfFW9+Rkv+sK3z3FNR3qXU347bINkt1ljMp+HxyDZGy6h2zuHg8tP4D3XgaO7X5FqfXSarbGAHikl9HuPIR08RY00jE3fo7dG2/RlQ/WbwVY1x9AgQxMOo8/+fR5FoxRNGmCCMcy7LuXcyPZCUOPzi0PGDHOtgc19HPRv4uL6RVxcfwX7/e1c1CdDM/WH+W5VF8I4TGbKst8tRK98gWO9/RPF0aF2M5ltAneqPvBtrTnCuSpoMMLvHVzCtetXsbd5x3Xbotkaq8/7TdjHBueG4ku5qNdUvOs11lTIw6v8ZtD5q3892LYxbI6zznxxNZ7m2hS2en7z9buZz0d228N6Pdzl1kND7fffwsX+FVzavIjz/etYpcP81u8Y2BwOj9j7TaOhjMTmRWO2Bg6WfMUrbzFZ1YpLuvCFgOzs5/FFX1wZq5iIZ6wr6BqMNHy5feHiZRyc2/4vMWZpLPv81Ceg75O//RsaKhfleoOT9XoYJyc+hgIdrifSQDZGrPkd42R9jPXJyTDW65E/OcFJjlfGsLmHsV4POFuT4n3e9RrH6zXWJ2ts1ifDdyXrI6TNA6w2d3DQv4lL6au40n8ZF/tXsZ/uoUN+C9Y/zHepYykgBDwVihUn9HPVaTGmeCnMjm3CpzxnWMwq52uB1fUGPhw3kX5UBLLG06uJI647OI/Vwfb/ZxazPLz4/c+9gOfxGfR9h/Sev4f+R/49+s0GqV+jS0dAWufvG3r0GA6gzKUu0b5A5tyVX5SO55IZw7uNvsZPGObP0OFLxkFI+ScF9oXxSNmepQ49VuixwhqrboM9PMTB6hDnuvvYx8OMtM8c66GZ+vzAoihOjtrgbf0FCY4xnqcgFsa9VvrWwxBXBbaKz/KZfabmINnWVa3RKEks/kkJYVKPz7/0DJ7/xX9J+kenWRrr/37uBfxM/xn0qcPmyV8GfvjfYdU/wCrdxz4eYIVjdPkDKBd4/Qo38IOkBzAIHfIvZJIUV7b7hV6Rx6eFI7b8Gpqbzn5KVMbtkIbm6jZYYRjDh2rz3+TPT8f5M5V9KGcK1sq8qU59Koa6gAqq91vGU3yOd1qD+jrVf0qm8y5+mjXhc6a9Zf60WEj4/Evvx/Of/ueke3Sap7F++wV8ov8M+rQCnvy72H/uX+F8dxt7OESHDW2UX9my3OTtEFR/Rl31FopsiGzFwkTPB2j+9PTKHlCk49xg7K+8ysTrHiI+ceOJrZBtnawzCuQqLtn4+t00VZXjU+6ujxq7wX/+pWfw/Kf/Bdkeneb5jJX/f1K48AzOXX0vLnTfwj7uo0sn+bdxx8DmIbA5yo+cj/LnD+Z5ZH2B53Hc1qVAZ2vwEekmxuZ4fGvXH9M6Hwxf+m7u589S+nDCsmNXtgkubKoIEzR5hc1XxzFpbJKLuEG8ZiyVI1+mBq54L85+sibPsWICPkUvFo9Os9yxfu+3X8BP7f0HnHvv38b5p34eq4PLw3c0fS5I+56joCgRstSw2JjXpEVxOMkTtogv8Hy1u1UeVVyVhTexeVclOUV3kjPEVn1Bdoci/qz4ybsK8UXMU3wKc+TDcadiZdnmznfHz7/0fjz/i9+Hd6yu28Pq8gdxcOPjWO1fBDYPgPVdYHM3f39zRG+Vpgbd4bwpg+GYk0Zc1p8IjvENXG88Y2ys84uEfdmJoAhUzlfDe0G3ikiKxedQG/HFK3MDYzLjPDbpCtLCZzIDrSvZvtjGFMzldyrzCzCqLhTsR/rk/2ydZmksrM5hdflD2Dt/fXhbtH47N1NOMj1ICBPiKsZyQlo8yw29xT21iJP9DF1w0VpUbvG2BinOU+/ELOt8rLfYjDNswCs2mc2IeMcSFTlkXu2uEF5lnkfthHE+mFP5RC9cYczt0EyNdR4HVz+IDifDZ460LjdWFTVtWA+6KjrxSazXuILz2OwT8Dxn5eOGUS5i81CcFmcDZ2twUZuA8VFsniOSM77Sa2wTmWc744I1u4PgjOd9pciHeMdkXMcN0/LJfBXX5O3RLI3VrQ6wf/Fm/gM+/nMIyOYoAdVeg0QZXxxEFJvlFi6irLfPDlxQLf8qthtIH8UiWxg764uiUEwkKy9rCPelAwFW7DpPITYwupaWrdDbReav1ka6ZGsIYu2IZmqsFVarg+GX283N6UaDRJ2ZF7lKMBPPwck3PGOMGEO4ydiqi+SWja++KOGzbOuJbH9pXklxJPP8/tb5rGvJcvGZingPE/j4NfNVozJPeA21JZqlsQZaB79ChvCWkMimCeGkKCaSz6InW2Kc2AqM4jRmvvIrqu9RY9s1moexgRw2lM4TraHlwyqOY0rGRoP9FEv+LrIfy1GMyG6+tMcpvOMYsz2ap7FSPzwxqzYg8mRCCJPy27MzPY5u6MO49qoY2Ao/u6ie51KbsRGGhrsJX/mY2Jin4FluFR5jKK7mwn1I76ziAt5ZaqqiwGU+xtdK4qN9abx8beZsezRPYyHlv9UhmTdpo0qCbJoTF/o4MF9Yr7GZFMfUsk3xuk79YD3BV98d6XqIqv3ZVfS2hhAfyFWBuqHmXUWN4m/lst7ZHK86u2gthKnwjMtXXkdxFf1kDrZHMzWWkSQm3GSAOTWxmWfsmYsjwvFcNMK1aLx8TXbY5KvxNGYVm/wjfBibSedjXYDRuBVG+NSwJZaNDfxDntdhpLyOSB/gm2vYPs3YWCnvZypxomOM/zf+NHmWNANGcQM5ncXH1pzxLYyOs8Rt0hSuZQtwnmfSVT4kN9dscuYTggYMcCwXuTMKdBa7Ugof7o2vmbdYTazOtT2ar7GS/yPKIClVIrJcvMUwG8Wumo95w/JBTxyQ66NYRsIX5gmcXRKvmWwFb0FVVhzZvOgjjMqSD9Z/V7zIRfHbeniwD+NEH/L5ak8dC1/VTcVQ/fZovsaa3AxtuHjFIr56UGGF3IpFvB+yYaMm5DWIf8WrHMUK4hrPa+Y1OZFPEUIxJBd7bGBMZmw1f4vn+SOMxC706mOk+AhH+mRnk3XRXKpTO2Mcu32asbEgSeONkkptyE3Ah5oYQz7Ngw/IY7BiInZB0cFM4YmKg1Se5vUiyrZwb2zTORtyc36ViU/s18CA16ukhmi9po/k6Fxa64iohT3N7y9PMzZWY0PFK0q26RM0xliC3Sy+6pf0R5zKk4/FLjCK4yJnHGNsQsJXTajzsNiyKc8FJ/qCz/Lk/GIrIBInosKksZlIPut6kunYTrzDNV4UV3nFbIdmbCzUCWOeX3WjwnJz5M/6zPOhFa/oyhur+oAPm0ObhmyuV5vgXGzEVxysmFh/Cl/EZYzELfjW+skWrpmx6gPJS4AxucIF+LPE8ViYiLddmrGxaAO2SdVHCWnaGno/ZLMxGVZihz5nwShvsuqMWnqLr2tTPBVIcw3C63KqB0Ao4xaxdS1TvK6B7cY29Iqp9qjYLFdnwrLpVG6tYbs0Y2MZ0aY8MZoUS5yNwBbxRb4UF83RWgPjeH7FRPFMHdgK3vC2hhaeZI+rsRhHvIs8X4Ar+LNg7MJ6k3WA9siYgG9ijKJ4oo/8XB/47IhmbCx6JeqmfmjZKIgiMZIk91GsDsNqA0zFZZsbhLfYJE/G5n22MEaBLfzziDx4f2Fskh0bPSVV3nxMpRiNb6LilM8Yj6lD9FU8sRXna/goFtu3T/M0lu/FEpA35Zs1G/FFApnOglNMEAYgpQI07kRsZ6dwTFpEEWUbFwrbTt2zyi3bGdfPxVo1NRGHKOKdElf1TDavXQclA0ZcQRqX1lNA1W87NE9jAXEynCd58pWTZE90hDPiw0CjWRiQMa4SW2ueKu7ESByHiWPYhecQubBZ8ZmeYwnPhVphVD5rU7Mc+PhV9MW7lmB4c2oMwVTzRX7Gamyxb4lmaqzWZqOEGB8RJzLyn8JFsQMf1ysvcSx+WGjEO87UipO5inVHuABfYCb4Km/RHMSb2J3ygje5ZuMVj8Z6Mp8CP8VWew8wzqPEF/vZPs3UWEpUaEXhtZJlcovEx8TwFZFlmd9tglFTQY244L0EtiqY4rOu8GFTtGblKUQYe4Ln2D5XhNM1sky4Ii7jxI4optjPxJuKm57i8hyB26PSjI1FG/ONtJKiPDViZHOeMVExqNyyKYbmqZqfccQXoSdwGr/QsxzZWryp2FYYYt4aKJm+FTvz1QsHk/pzXL6KvYrZmpv4ai57MSC/IhfEF028PZqxsTJVrx5BUow/00FnPnFsxTCOh9giHxancMxXcRu8hzKfABPFTvpWRjFcMIoTmfNR4IxUfxZ8lotc8/w6MrbSW1yOM4XVuXg9UTyzb5/mayxPCCsKY8knfSvX4D05E5giNpPZIn+Lbaop32yvCoixxLtZcUakSxybbMyPwCBuNAcXqOgLnmPUbBtvsXVuiZfyP74Ovp42ZxCrqi/FZt7mLQNvleZrLN1ciy/yocmRYQnyEJos4r0wTc9xmYLCDw+eqLK7QXymDjWIEe7fjSXv5gmMjQJH+kI2Yt4eYrQw9gIQ2Tk+Rkxiu/oRPsRILCf1IT6xXfnt0cyNFWyU7b7pqWFw1Ussk/2g2SYYlpPadA7yKYoowrOc8ewfYo0N/CuZ+Oo/JhrxFpcHY2T4ixE1jIeKsN9F3MJuvBHPp/7iV52tYrO+iMVY47dLMzYWU5CMFOmF91xMJcSw0QHyYDz5FLEj3lRscyXxIhcFgCC2YoM5FeMhtOADvsqHG4gnSvYPn02wrmpfEIzMVcQivbMRpoEt7BHW4oku9NsuzdxYmoDMJ/8n2KzyUROSDZBEtvgsu1sLJz5hgdLcThR78mBZx4OJdVIoxVoiXudvYNiWiGe98ha3wAfYlLFVXJb5jhLEYL2dQRWPeD+nifmK63ZpxsayZHBScgI8aZokS6ThRB/5TcbLV8MwdvJQc9wwNuNNVizp1b/IySl4z1sU20j8T12zxmec2E0/mYtWvLPiArvrzTaF0TlbWM57hm2RZmos3iSreeOubCQkwjE15gBif5+7RdFc6hPISWPr+tUmlFRPfBeNILYVSxVLiWxVPiyAYCbPTLC8zgJLmGqNAZ9o7gKvsSJ7g+dpdkAzNZbkSzdZ6EX0RLUSJKPCyTwej0nXYNjTCon5aD71Ib0VQfGj1gafIPtkWXx8vaL39fA6jJW1VRjVaVy+UjwPp5ipvNo1Dz9THuJXrV/sThaTZb5uj+ZrLCDYuI6cJC/oCJ/5MJlGLEvsKp7Kxp42V+Ydy0WueI5lovlEWG4gsymGZVDORF/wWeYcN/NMsosBhucN1xBgm3Maz1fVEfZMsWik7KP6HdB8jdX8D+RnKg4Fgsm8JcZMVRiOLfEmY3NAlRknoh+SXabwtO6CeL5Ir2tiW0SKY7I1mF7jEO9NoLjI95SGqvyM1J55mzcxnv1aeuW5mfltM2N5Dduj+RqrKGzUiYz0Td5I/YgvxFaMgE/2T8tnShfxPD+C2GyKmq/lS7I3OMeNcJmv3n6KHOZLebvoPKKzwlZ9i2/OzToeEZabiXURdjc0X2M58cY56WaL+CxykorkCM8JrIrOiHzsEAqs+pCuWjPFUp8qpuI4ZjQUbyrbp9ntyjjaG9uq4iW5uQ4ayWJEcVTXiksYi1edlcYwMdgT46vzIZvxxZlvn2ZuLN4k62TTylvCq4S1EqU45skeFV2BN5JDNV0V21haTxXvjP6R3ny4AB0b4TLfnbbPaL1qN5XGUDzH0qeWTIazGBorj+LslRes6cK7lJH67YZmbKy8CU56tTGSvVFEPxjp2orHiQv4ZkEyRX7GM5FscYu3WxanMWexlog32S4T80d86GMU4ENd5l2MMJyfPIq5WR/5M5+vHaaxKdu5XqbyWdhNv32ar7EmNxQkoLCxnofFbPkLrppfB9n8sE4rfMWRznFMJFsxRPMzedFEOB1Zf9qaDVPFlfhu0hjMUyz253xUehfomnmPFdmjwVjVZz7luKov/LdH8zVWlQDl+XBMz0kgKjDMq2ys8M2iz7qUr6qveI7FeuMD2dXRGtjHYvNo4FylBc4Y8q8wjVHMb3iNp7GMxMfXNoHxOQNe6dRaoVz4PhS7O5qvsaoHD7pZoiKhEzY3MUZ8woNU3mQuEtGzHBaIymJzyNQ8Zqa9nWWeonBIr3yxbr1m3kJVZxDgfZ06n/iEe4gGY/Rt4FQ8sSOqDbFXY7s0X2P54dMm+KALeyMJjElsE97iRofiMvPkx/NFOD5Ux+sLR+aLdYgt4jleC+O87nECZ9hIz7rUsou+2pPi83USx/GMVb1ion3QfJFfgWMsx2P7dmi+xqoWLxuM9E0fTUYrFlMjyYkTbDgm8mmus2WbiOWysQ19xKcIz3MS76JiSGem6gmeGbKcrPkUwzrCViQ6h5NfFY/tPCJMa16MfjtsJqYZG4vID0g3KDybw8IvAHWywr92BSU486wvqGVTXmWM6/UfoOo6CVc1CeNEXxXFaXwLb/EIU8QWn+YaRZdwBqzqeWQdn49dCxI8onnPYte426GZG6t1Z9ANUjL9/42liaJk2SEUOC0U8puKpzIXfvFXuoazq/iY/qzFWv0FsF2juGyb4ItcK8YuaiM7pMCrwRjNqw6JUcQ0Mlvkx3iOw3M3MB6T5+C426cZGytKWNYrxjbdmbmBrwqNeU0aJ5Z1rBc/PoywwMzG4mnzMIZsRWzjGaY+dpW4ya6NOFPr0vndpBi78pmqnXgvfl5bw49VyPiK1E/j8VWxqud9bo9maiw+6Czr5nyDmfcnQq1k6H+iOOJN5kNlfcQbzuY7DWf6yEf9s49fW7EbPlVsogLjSrrmYXtLfWAXv+ouqnPIGiJsc+0ykmF1GBmOcl7l0HA5Fk9XxSS++Hux7dBMjWUUbUyTqo9ZDcs+jadwzmd/S25xAC0+klmnPqo3W4u3QmjYlPf16zwy5ySmVYjk75hgFLEC3uKeaRhJLF5fiKXB63decWjgKK7NmYwn25Zoxsbixcsm1RYdKiejIo0d+LvcIpoH/B/EZDKM4Vxoz1msu4UjvlnUJrOoOB0OzKL4h0SYKj7xVTyy+xLUnwe7c3y6U3outPgbPOMLeySrfrs0Y2Oh3EzKiajsymtSKYGJccJXf3tD8Xh4LJmnFbvSMwXrRL67VusJ+KoQ3UBy5r2AIiyz7MeUAPSNOZVHmZ+ieI1nnen5KnxxphIrsa6FbfESq7C3dNunGRuLEyVysUHivXlYH+BMrhqkhc98EZuJ5yJsVcxR7IxjrMqVv8VGqWPZ92bYIIZiKwzJFUbsFY7ffkexTNQYGevrP2W+72ZUMRPFjdaY1xlit0vzNRYnIfoPoLisvGLYlnk+fOhnNE0iFYHrGMcy02l6E1s4I9IXhSE2XgvvLVxHxiadX3nDsS3CGhtgEvNaqBpDffK1mJ/15pL5opGFr9ZmV5mnym/Lb7s0X2NVpJvNsieDMYqLBuGahcoq9lOcYbkIgnkUV2AZQ7KrolgBHvwXvw278c1fTmDMaVHUjGU+wsj+3BzgQr3qRB/Fq3LEvAxtnsLX9GQ3TIXbDs3UWFNJIIwmp+DZH1TM5B8NTl46Q2xQbMNUySe5OnyJxXJiOeIVz+tXbOaL/SlGsH5lvcQO51Q/9p/gqzhsp5Ea+mJkTIrOnGWcfiacs8J/ezRTYzGdtklNSkSKCZJUHICZVMHrsKEY5hmvRUO2Am8iywHvBW0mjRXwvNYohxyv+M6P4xmO9+OGMlbBi91lise6Fl/lxa4Sy8bUz9T8GsUzNljDDmjmxpJNcfKLDWcd857PrP+u3n/bEJnV4Qdz4T2sxiyMJT7h9EKsdPaiwPOQrxduNNiP4wU62DwREdbW7/Oy3ag1R4NPOV5oj8j8FEv6xPthW56rqgvGbZdmbCzZVDKdbpZ1LT4nKsJz8qpXacaNsHbBKE8HqPpCtovMWWAMF+XCeJvTcDq3+HFxeX4YE2CnMGCM6QwrPrauIqZgfW3i6ziKUayP4xkRpsgJx4t00dg+zddYnISEYEOSiALfSozgIb/ICA/Z5id5ks9yaugL/jSczFEVTuDj8VivfiiLK3zqyjGMNJbMU7goJl+r8zEKsIVedcZGeo2layO98xZL1xDptk/zNVZBmrxog1MY4Ys8RQkkvSU7/MJWfIrG5sE+xNv8bCqFUWdY1vlV4ql+NGZWMFVBWbxT7IYp9mwYB0g81gd8FU/jkl334byR8hqPMfla7SPy2T7N11jVb/tM5mtORHhgmpCI14KNfIxlm2K0EMRX/cLCCYYXEMfTOTRehI1whjEyjMoSo2ljP+J9D+KrfLiHVlzWTYxibo0rGLdpbBY11vZovsYqEmCy2KtNTmDtUh2w+Ljaiqw1B2Ga6whkn1/0upZqncYbZb6K18C6qHHJJ9ELGruz4HsWPccpeJbVHo2ItEmyrvKJ1qYYI64fjptt5lM1UxTr0Wm+xirWH206GoTlg0hZVoxTFF/1IhcHzBTI1eFkfYt3kedo8apjPfHVn3SI3fhqrdEcLd7kfC2K1Yjt5q44NzTm0jmZsi0Zr7ZIbzqJrevawZ+LGM3XWLr5qlEYIwkpfFk/ZdNCUD7CtTAk6+FoLI2bAn1hlzxUsWhexoRxlWdd1lsco+aDDpGb8+naA7vrst6xjCM7x60wGjfH85gR1ngmi6/67dCMjWVEmw8fIChlffi9lSQyQQqQsexD+qT6CEPxC2r4VIXGg/2UAn0Uy2XSu9l4jqXzGy5aT+Y9j1yAEsfm8l/vazz1iexGxIdrU3/ep8ZnP4vH+gi/XZq3sYoi0aSYnnhLbjKsEeNZp4ni+DKHrsVtzPOBmE5tpGsWBNNUsfJgX44hOIdH/qbP1wJnap4j82fJNa8/xIvK8l3lh3n7MxYebKdzS9zMiiVMFU+wbt8uzdhYtKlkstpI9r1LIgqeMNXh8iC9qzSWxhPc1AEZvogVxC/WGdgr7FTxsF9k5zhaQBEep6zPSHU0D8tqb9l4fcUajSi+m3RO1oHiaDxZR8q8TrkFmq+xqsS7gfgs24ZDHCUlRXFZNooOJl+LD7A6J9NEXPDbIcZoPLU3+GT/aPEwJu9n6qdYRYEF9kI2Up3iM1998Cc7N0l1PpmvGqm1Dl2L4mXeSK8YF6M5tkPzNRYgG4g2zk3FJHJYMAWgIQY+xcHbhePryPao4N2XZBc1hmL1wPVKI9H/OFvXb3wRZ4K3Ai+K0jA8GGvzNua265nXptTw8yvPYaqzYCP9bmjGxgo2bodTJEc3HyWGSeOK/2RBM454tVW6fOXYhb/IzaIlsdCznQrfijrECo79eS7jHaeYRrwij4Jt2g0jWNXp4L1W68xXs6uvxrb5qvUpfrs0Y2Oh3Igly/fFG6TkFInNuupXHJIgPxSzMUksnp/56D8mw4ddGso1VPMaTxjjwwNXrBFhijlk7U3KtqJQG3wVRhUaK/O+Lo0XnKNfKVaFCWKxrXpaTDYXNWbEb5dmaqzWRqOkNRJoI0X+TJFNYvDo+DDJJ3GszIefZ3jglEYxlvcR2JVvFY8VYjL7GUaxV/YjvtgDYwUfFqzoms1ivLGyhgJH+mS8qQOM2R2r8ZTfPs3UWEy6SdaxjDJpSX9vKEkqDjCIxT5JYrvSjafElfiO4UF2jVdgIny+plxIraJLrGNf0dv6qjXqXBNNwLZmLIoHXp+R8NWc4t/iPa4O04PW1yCzT0AehWZsLE0i6f1Km41woS67hR/miffwrDdin3xNcoCtYuI1ReuzazW3rkPmjOYqsPnKOuaL9QZ25qtYSrSGIr9sE77KM2F8bUw0R6EjPplO1yD6sAaMSPZ426d5Gsv3pxuWBIXFoMlhLKsnDsvVEreYj0YijBNjjFW74jSeYo2P1hFgiz3qfA4i3kTF0ijsUxgmjkc6W1+1l2gwsU4wHtNs7EP4Ym7FEq7gW9hHp3kaCwg2w/qIVH/WA5N5kv1j8TguYe3wHB9gWFXE09h60DrErygGLiLTG8bswXw8qjkVaxfF6UAQi+PkURS0B2/gorf0jDea2ofoqrkbozgTxm6fZmwsJdtsTkyVHMIUycn4gqbk03gtZJ2bscaqPsLyXEYZZwVWHTLjiPcCY7vE96IxuxtiLCIs0eTaNOZpvOjCwpaY1doEm3BK3ZCuyAsP1m2XZmws3aypdFO68axzUfSRnBAURsB7wpla2Ix3HWOMsr44bNKH8ll51bGsOuUJV61N7C6zPuATGoUtMSzHiXRsZx+L53kWu8t8NZ5G4lhsF7/w/LdDMzYWgg0qTzpOcpUck5knP9AvE6o5TNQ5g7kLP8GwzOtMZmth1GbUwBbrbOFEz/gqVjCfq06Zz+c1fWTPunCvgvO1Z77AGs868nOKbGpXPppjuzRfY+kB+2/NWhtnask5QYniF7AgXoRTO6gpLbbO6bxhG7Zq7aozn6wz01R+qj3oXBxTcaxTfObdRXF57khfYTJFX7RX85k8sZ6U4xZnyjiZV2PwcBjjt0vzNRbkh5vFAWW7XVld/SEeJ9JETZAegOpEH+mSrSOyZ97hwdoMU1xbfL76fFxshE02F+GqGFyI5kt2NVqxFnsI4lYBG1iNkwJsMZ/ZjYR3kbE8TK32iLeL1EdRF9uhGRvLSDdLclHMebhsZHpJGNsKXuM0hs0dNrKNrOfCqNahPmeZG3VBOhmG9YEdFoN10VA7U0O23KTGz8ksH4l8qnkplpPEKebTvBnPV8Kq3vw4VpVjjr1dmrGxOAFZLmjipzsVT0nhu6ATJxVBUTJvF/MhvV+N1E76wt900dxid9/I3tIHfJFbTPunjK8KzewyOEZzPyzLfHZpnr/M7TodhK3WprzGF/8d04yNhelNp5ws1auPNYvDFEMN5XHsqvEb/mZPYq+KSnzMbvNX+yHe7MlskZ34AsPz8rp4UCxnOVZEWd986CN8MVVj7pTnrWLIqM5swifMq+LRmJd5nnO7NFNj8abyhnUUO6SNM7nIdk7SVNLFL4Gw6jMV1/TCV/O2YvB+o1hiT2YL4iY0cif8afNpvALPsQynmBaW3lpXzUq4xD5RLDTOVvEUrzovxbJt+zRTYxlFyWGKNs+kthbPsl4hxchX0VVvMyNsljsrIh5kt2tx4HYlbFiwjMnXRLwropjRW+yIV3+205ynzWsNYPswfLTvZjy7Em9fn7TOLkXx9Gqivjhsn+ZrLNv4qBCeh6mDgyp87EoH2BwG1xiB3UM3Pqw78YHyGuxKftVDEcIWe2QSbDGHDvYxlvLW8kuGC/wLnOnVTrzPwWb248Eg1XMMXqP65SurqxiF8Qz72A7N2Fi9McEwvbF6kNHItpTxRRyJaRjHaZyW3WJ7kHHYgVf/2a9G3GR2xrFuQl/4ayzSu533kv01brhfHeyiMWRUc+jI+oRgbiOKFWI05ln0ald9T/L2aJ7GSglpczyxAdJ7ISsFSUqRnngPpQlVndqjQsFY4D6vFHxFU3NkvvDnYZCGn18znzK2iKdEhc065bmwPZ5diXcxiFHwkW6Kj3Q8L81d5KfBV7jx2vdpfM3fIs3SWCmtsTl+hzU1769QrOdhGFaJ3f0yFtwgAQYUr/lfWFJ9hCE+QYqSiefltbHN+DOsvSBdUyCnCGeU+eIMTB/FI7vH1WH6HLdqggA7tWfPqfoGWOMdn/1lvs1Jwvpk+501S2MBwOH9t4G0GTfGiS4Os9x4qWe+NaJ46pNlTnRSrLHcJOI/grJJ7TIMU8zFPPkXsdgmes9jYPN5GWN6shdz8hM8jmW6qTkn8BXWILS+ao0k29oK/wBbxdIx4lOfcPQw4eSkekr1yDRLY632zuH2vRP0J4eUIIyJML5KlImnFHYyDMdjjMQNcSybWjF2lZH0jhfxJvPVeIqTEMwrfpPFI35FLNPzNfMcK4zb8Kt4wRfnK/Zqn2wnvhmDdVM868ZaWp8k3H7nAOvuMQU+Ms3SWBcvP44371zC8dtvol8f+cYG4iSxHkHxKIYbjol9eJ4cM5w780XRRhi+GhutQ2I1iyP7uqvaI94o0pFcFa7gU8Yk0rGded+H6RTDezS1zMfXam3B1acxJpo3X6u12Rwac9D164SHD9b4xp3ruHDzoxmzPZqlsR5/8odwt/8g7t/6Bo7vvY5+fdhIkibF9IG9GI0YGi88TOL9IE4bGRsdHM/npP6ETS27Yg2vNoplo7nXCH+KvdjnxHC3KR+zR2835Vr4M5aGzzUVi3GDvu8TDh+scevOCnfSh/GB5z6R8dujWRrr6mM3cHD9x/DG7fM4vPUqju68hs3De0ibE/rchZwEEzlRRpYoEqsDMspyAhWZ4XQQviDS2QE24zGeYynWRC4+VxJPOikM1/uV+LOsjeO0HtqkvMaKRFfsg20a1+JZfPZhPePcUWTDuBDwZS2llNBvEk6Oerxzb427t3u88fYT2Lv503jyPe8l/+1Qd3R0JCvePqWU8MpXX8Srf/Sf8ezeb+PJyw+wf/EG9i9ex97BBXR754Cu8ySIt33lPtoKyCAkpPxDiRprCLMYyvwMNxq0iLNOZfap8KTjXz44TPyr+JmkyHgvo1J9fVflfOOmhSH/VO5nuIz2TtZq9vLjv66H10hrc8oamxuUG7YHngOJXtZsTbVeJxw/7PHwQY87Dy/j66u/iR/+5D/G+z/4IXTDxrZGszQWABwfH+OrL30Rb/zZf8Ozq8/h8Qt3sepWWO2fQ7e3PxwNryTv02vBbNw3lIsEoKMCSwC6rhvrUoub8ziAkVJUfAEe44IGEzsNvIXKoZHSUFBRGDvTlAHF0ngdvqwOXbFA5BeWMdBozTnAsKAin90Qx+aotp6ANCx+VHZ5va6qvGKyNbg4+A2hcjAubs1XXkaYRF6c7U3Osu8T+g2w6Tu8fXIZ30g/gyd/4lfx0Y/9NA4ODjzStmi2xgKAvu/xyldfxNf+32dx4/j3cPPgm7hw8BAH3Ror9J57v3llGpKfM9tlTQYMRZFP2iB0RbISpMKTo+CzKpIhhkEc442xy5oAn2vWc4PYmqWOaDXMd3435hhjMw64hOGFhN2HAhuA41YsT5YN3jHlJ9x79qO/Ci7PBcN66cUig/L6RplMI5/KnAy64cqurfiGs7UPuRnWuE57OO7P4c76Cdw7/wk8/eO/hB/98Z/C3t4eBdoezdpYAJBSwnfe+jZe/tIf4sG3/xj7J2/iXLqLDidFWTneS2w4wA45aXagbq3LZKR8NxrFssnkoJL/sxvyYrHNVHPaq7VUWUApDehV16HP/qvsZuF0vkEelP4WaGK/YT6CwzJxatWMKeJ2yC8Cw85HXZyLKg7N63Fzc/XdAfrVZWwOnsSl9/wEnvvYz+HJJ5/a+ts/ptkby6jve9x/5x3cvv0WDh+8jX6zVsgWiA9Kj0KTqsfzvSc+mGgHsxKnbPbJ//LUdR1We3u4cOEyHrt+A9euXcdqtftndt+zxlpooXcz7b51F1roB5CWxlpooR3Q0lgLLbQDWhproYV2QEtjLbTQDmhprIUW2gEtjbXQQjugpbEWWmgHtDTWQgvtgJbGWmihHdDSWAsttANaGmuhhXZAS2MttNAOaGmshRbaAS2NtdBCO6ClsRZaaAe0NNZCC+2AlsZaaKEd0NJYCy20A/r/86aOfhLWLFYAAAAASUVORK5CYII=;" vertex="1" parent="1">
          <mxGeometry x="259.39000000000004" y="394" width="59.78" height="50" as="geometry" />
        </mxCell>
        <mxCell id="_Jj7Ve39ARDFc18teFEc-11" value="" style="shape=image;verticalLabelPosition=bottom;labelBackgroundColor=default;verticalAlign=top;aspect=fixed;imageAspect=0;image=data:image/png,iVBORw0KGgoAAAANSUhEUgAAANYAAACzCAYAAAD12uLHAAAAAXNSR0IArs4c6QAAAARnQU1BAACxjwv8YQUAAAAJcEhZcwAADsMAAA7DAcdvqGQAADQ4SURBVHhe7X3PryXHdd7X9703v4czwyFFiaYkSqJt2bIcyyZgK1ZiJDIQwAhgJwi8TLLJIlnkB5BFoOyyyT5/QIAACQ0ECSDbcQJkYdkIIMc2YBmObcmiSJGiKFISNb/ImTfvvXu7sug6p7/66lS/J8+9LYvqA9T0+fGdU1Wnzrl9b9/7yO7o6ChhoYUW2iqtVLHQQgs9Oi2NtdBCO6ClsRZaaAe0NNZCC+2AlsZaaKEd0NJYCy20A1oaa6GFdkBLYy200A5oaayFFtoBLY210EI7oKWxFlpoB7Q01kIL7YCWxlpooR3Q0lgLLbQDWhproYV2QEtjLbTQDmhprIUW2gEtjbXQQjugpbEWWmgHtDTWQgvtgJbGWmihHdDSWAsttANaGmuhhXZAS2MttNAOqPte/Qc7U0q4d+8ubr31Bg7v38NmcwygU9hfWeq6FfbPXcDFS1dx5ep1XL58FRcuXFDYQj+gNHtjpZRw+9Z38I3XvoR7b/4xDh7+OS7imzi3OkTXAQnDcoYW65CQ0KEDEoAuN14aRKcOQErSmIyYbtg0lYHs6lNk2qR9POyv4Lh7CuuD92H/8jO48dSP4n3PfASPPXZtBC70A0mzNtZ6vca33nwdr37xf+Pmw9/Ah66+iPP7x1h1PTqkoXI7q2L1LpsjpRGUUoeuM4cOKSXvQdflpu7yBEPDUr/KfC4mC5Qb13q7B3p02PQr9Gkf944v4bUHH8XhlV/A9fd9Au99+sO4+tg1HBwcWKSFfoBotsY6OjrCa6++iG/+xWfxkf3fwjOPvYFV12fr0AwRedOksagxljlSsiYDNdeIQQK63GVjs+Qrx0uDYmi5AWNtaHfNqSa0tdw7voKX3v4Y7l/8FK49/Tw+8KEfW+5gP4A0S2OllPD1r72Mr/3xf8JPXPwNPHHp9vDi39kbPwyNY3esglZASsONIw2FrQ1ijQUUN5XxbWTQVCnHYhvr/M5nYm6ssY2C9WRdn1a4c3wNL7/zcZzc+CX8yE9+Go/ffIJRC73LaZangg8fPsSbr/0J3r//f/DE5Tu5LtNwl0i5qUBNlbr8Rm24f9jNKmwqk6ljLKw1QzIzdQA3ld0svalczmtIwxianzAmprxmu8t1CTfO38Vfu/F53Lz3H/GlL/xP3L71neZdeaF3H83SWHduv4WTW1/A+658Hej6ssKNEvKdwIq5bojAK79Vy13RpfFtn/nlEfmazt7e2ecvmL+Rq3PzJ4e5fVD5aoDUY3+1wbNXX8bN+/8VX/yj38Jbb32LnBZ6N9MsjXX7rddxI/0/XDo4GpX02UjfAnrdUnEPkFzBQydlS36zl2PZXaFjCLEpx0oujCC/o3Rd9TbRmwrFe83qbmdvPU1xsLfBhx/7Mp64/1/w5S/8Fu7du5udF3o30yyNdfjOt/DeSy97U3RdR++qOgAdUqKldGOj2VtCUOGPn6mG61DDwwOOxHe7TP5Wzgp/7KXcOh3Q5c9Q1ri2VoUyxkR/Gzg++GD7wWqNjzz2Eh5/8Ot48c8+j6MjeoFZ6F1JszRWf/IANy/cy1J+uobhrmBN0OXPXPwWzoq0/GxS3k3cJHcM67URSfVujMXJuOHJ39iYRfwB4OsaRhlAH6IYpQTsdT3ef+VlbN78dbz84p+i7+2J6ELvRpqlsVLqsbfaUCVTAxlmZL247amFPbSwO0OBz8050vgkj6fw54+moCch9hkL1vYWM/ps1nX+OQ7WyFl2dXGbG6e6vP8AH77wh/jOi/8d33j91RK00LuKZmmsgexxdUBy50Au7oLs0aDL0lASPIGe4Jmr322GQMwr+WemYE6fN9gQv+3ME1j7AQm4ceEOPnTwu3jlTz6Lt779zeVJ4buUZmushKE5/G1XlxuKCpfvTEgYPmtZYdLdgPvPmyWNj9YH+/iE0DA1DcGKt36FuSsesQ/zuJFvejnOMJ/0IpC/AkAHrLqEp6+8iac3v4m/+ML/wttv21vkhd5NNFtjjfeIoIBJGHqt/ObVCt8pC3w3GQqYS3q8QybAv5Ny8maht5e2MHccHkckjM3Ov+5wztaXfQc8hXGPLCfg6Uuv48rb/wNf+eIfYL1eC2Kh73earbEKooobinosbngTAMCKa3y8k5luZNEB5ecor+zOH2iEjQD4nbTEZb6YpLyDGSV+4ejG94q63oGGO925/TU+dPUvcPL6Z/HyV/58aa53Gc3UWGXjALlAuSCtEPmzWJfy00JrtLJK+f40fDlMBqtpq3Ny7YYuHBqiG5rBb5Dd+HloaIIczJ11FfrQYvwsOIjj201Qo3YArp57gOcu/T6+/cUX8LVXXlyeFL6LaKbGKotx+MCef9JENv3MMhT/WNTcXuOwwre7ySi7Jxf62DPeEHaHtIbD0M50ByxbyXE0DDF+1zZOmII5hjswcOP8bXz43Ofw9T//Tdy+9R2bYqHvc5qtsTr/py5oo6Kp5DNSRawkPtlbQOsJsldx8jwD6RfL49O98snhyNfrGx+ydB0/qMlxrKEcDwAdbl64jff0v4sX//R3cP/+/cK60PcnzfLr9j/4nV/DJ/f+DTWSTUm/diBK/MqecaWVm2K483X5lxMBMgckA5B/pTGqz56EYmG56QYhJXp6KSQ3vYqON+fxxbsfx8Mbfx9Xrv+Qmhd6BFrtHeDi5cdw7foTuHb9Bvb39xWydZqpsV7AX9//DAB7q2Qv60PBVbVI1T40zVj4jE/0uGF43J5/O0EBE6yJyi+O6Y3id9FURU9lyg8+pKMNY/pWY/Fd7fDkHL59+AQebK6Vmx6QLGTiPNqkudF9QTlDtIDxDkpfSRDpL12GEIKz22+X3/TkJAz55h9D03lXh216W7YnI9wuRcpm/XnaYChwCVinczjs3oPNxedw/elP4NnnfhLXrl0Xx+3S96CxBl3i75kGxUg5scNnnDGVdi7DGeaDA/zuA37Txgkv7k420ehTgulQ+dE6r88atYP4Ci5vZdB3xVzDHuzBjK4Bw/pMXTSAK/Ncq3GdNPfgO7zQuClh8LUkOtY+cA5V2eUXPEp9Jto3T1m8+NmG80odWwajpZZfk9jc9LI5SJYzU/AZZFV+x5ByzyPP3yegT3t4uLmArx9+BA+u/R0888OfwtPPPItz586NAbZIszbWeLgYmqbbR3fwOHD+KWDvMoC97JGLhrPGRCtOwHCfyn+O7wk1gN0V7dWUiJPPDTGUI7/JIzJFtbRBUb3aFzSstkmpB/pjoH8IpJNBruA5hheP3gUyVQvXpY+AYslE4x2tTHgJ1z0Rnpu3mNdeOMnVOzlaTDVpRSmH8OXmu/ggJqTNMfr1EfrNGm8dXsfXNn8DT370H+AjP/LxnTTXLI31+9ZYiTK8dwXd1Y+hu/HzwJWPAQc30a0OvFhsUUPe7Y4z/ltmmg/WJjBe7X91yFeXAKRjYP0ddMffRtrcRdcfAmmTgYakPWc2f30dlKQD8j8ao0QD9DLPOuX9EJkE53OaKpoz4Iv5yaeIZ1jiffOpwiUkoN+gPznE5ugu1oe3sDm8gzsPL+LLx5/Gcz/7T/DM+5/NPtujeRrrcy/gk/ufGfbadcDB4+ge/xS69/4qumvPI+1dnPMB5V8hysXcP0B39Dq6o1eA9Z3cUPwHoVJcrQLUq7H0pfWIEbzFL5rABrdto9D1ynGque064dO1YlAs0/lP3zimyRju/Ckh9WtsHt7F8d3XcHz/LXz11k3cvfmP8PynfmXrd615GwsY3vLd/FtYfeCfAlc+7p+Kxu9/trecKpIpTruBVY5TFIH1bSdPPFo6nGBvcxfd8TewOn4N2LwzFoc1lxeMXbJ9VAiv2Oia+QJjOsaqjXjWR9fizhbhpzBZ1mYq8KRvXs3HBSAl9OtDnNx7A/duvYE/vfWTePaT/xo/9MwHCPfoNEtj/cHv/Bp+dvVvh41deg7dB/8Zuqd+GQn7SCmNA5TDkeFLcADDB6TSPnaO6YcXQPWtqUJQAH+BbK2GhCpOXtcQI2GFExz038S59WvY29wa3gqiB/p1/nxljaW/xrDIPJkvrC6kiD8V02i64qp6E6dwvIZANxpoDaQ3ubhDkT3kSUc+aXOEo7uv40uvHOPe4/8QP/cLv6IOj0Szvf9K9gJ04RngsZ9Gn/aw2Wyw6Xts+h69j80wNn22b4brxFj3jBv81nk4xm02RoyPNcVdD0Nt680GJ+txrNc91uvBvt5scJKH69brPAZ+sz5GWt/D3smrODj+CvY23wLS0dBI/RHQPwD6w0HXnwBpffrAptal9RAz4gu86vNAll2XmzylfFW9+Rkv+sK3z3FNR3qXU347bINkt1ljMp+HxyDZGy6h2zuHg8tP4D3XgaO7X5FqfXSarbGAHikl9HuPIR08RY00jE3fo7dG2/RlQ/WbwVY1x9AgQxMOo8/+fR5FoxRNGmCCMcy7LuXcyPZCUOPzi0PGDHOtgc19HPRv4uL6RVxcfwX7/e1c1CdDM/WH+W5VF8I4TGbKst8tRK98gWO9/RPF0aF2M5ltAneqPvBtrTnCuSpoMMLvHVzCtetXsbd5x3Xbotkaq8/7TdjHBueG4ku5qNdUvOs11lTIw6v8ZtD5q3892LYxbI6zznxxNZ7m2hS2en7z9buZz0d228N6Pdzl1kND7fffwsX+FVzavIjz/etYpcP81u8Y2BwOj9j7TaOhjMTmRWO2Bg6WfMUrbzFZ1YpLuvCFgOzs5/FFX1wZq5iIZ6wr6BqMNHy5feHiZRyc2/4vMWZpLPv81Ceg75O//RsaKhfleoOT9XoYJyc+hgIdrifSQDZGrPkd42R9jPXJyTDW65E/OcFJjlfGsLmHsV4POFuT4n3e9RrH6zXWJ2ts1ifDdyXrI6TNA6w2d3DQv4lL6au40n8ZF/tXsZ/uoUN+C9Y/zHepYykgBDwVihUn9HPVaTGmeCnMjm3CpzxnWMwq52uB1fUGPhw3kX5UBLLG06uJI647OI/Vwfb/ZxazPLz4/c+9gOfxGfR9h/Sev4f+R/49+s0GqV+jS0dAWufvG3r0GA6gzKUu0b5A5tyVX5SO55IZw7uNvsZPGObP0OFLxkFI+ScF9oXxSNmepQ49VuixwhqrboM9PMTB6hDnuvvYx8OMtM8c66GZ+vzAoihOjtrgbf0FCY4xnqcgFsa9VvrWwxBXBbaKz/KZfabmINnWVa3RKEks/kkJYVKPz7/0DJ7/xX9J+kenWRrr/37uBfxM/xn0qcPmyV8GfvjfYdU/wCrdxz4eYIVjdPkDKBd4/Qo38IOkBzAIHfIvZJIUV7b7hV6Rx6eFI7b8Gpqbzn5KVMbtkIbm6jZYYRjDh2rz3+TPT8f5M5V9KGcK1sq8qU59Koa6gAqq91vGU3yOd1qD+jrVf0qm8y5+mjXhc6a9Zf60WEj4/Evvx/Of/ueke3Sap7F++wV8ov8M+rQCnvy72H/uX+F8dxt7OESHDW2UX9my3OTtEFR/Rl31FopsiGzFwkTPB2j+9PTKHlCk49xg7K+8ysTrHiI+ceOJrZBtnawzCuQqLtn4+t00VZXjU+6ujxq7wX/+pWfw/Kf/Bdkeneb5jJX/f1K48AzOXX0vLnTfwj7uo0sn+bdxx8DmIbA5yo+cj/LnD+Z5ZH2B53Hc1qVAZ2vwEekmxuZ4fGvXH9M6Hwxf+m7u589S+nDCsmNXtgkubKoIEzR5hc1XxzFpbJKLuEG8ZiyVI1+mBq54L85+sibPsWICPkUvFo9Os9yxfu+3X8BP7f0HnHvv38b5p34eq4PLw3c0fS5I+56joCgRstSw2JjXpEVxOMkTtogv8Hy1u1UeVVyVhTexeVclOUV3kjPEVn1Bdoci/qz4ybsK8UXMU3wKc+TDcadiZdnmznfHz7/0fjz/i9+Hd6yu28Pq8gdxcOPjWO1fBDYPgPVdYHM3f39zRG+Vpgbd4bwpg+GYk0Zc1p8IjvENXG88Y2ys84uEfdmJoAhUzlfDe0G3ikiKxedQG/HFK3MDYzLjPDbpCtLCZzIDrSvZvtjGFMzldyrzCzCqLhTsR/rk/2ydZmksrM5hdflD2Dt/fXhbtH47N1NOMj1ICBPiKsZyQlo8yw29xT21iJP9DF1w0VpUbvG2BinOU+/ELOt8rLfYjDNswCs2mc2IeMcSFTlkXu2uEF5lnkfthHE+mFP5RC9cYczt0EyNdR4HVz+IDifDZ460LjdWFTVtWA+6KjrxSazXuILz2OwT8Dxn5eOGUS5i81CcFmcDZ2twUZuA8VFsniOSM77Sa2wTmWc744I1u4PgjOd9pciHeMdkXMcN0/LJfBXX5O3RLI3VrQ6wf/Fm/gM+/nMIyOYoAdVeg0QZXxxEFJvlFi6irLfPDlxQLf8qthtIH8UiWxg764uiUEwkKy9rCPelAwFW7DpPITYwupaWrdDbReav1ka6ZGsIYu2IZmqsFVarg+GX283N6UaDRJ2ZF7lKMBPPwck3PGOMGEO4ydiqi+SWja++KOGzbOuJbH9pXklxJPP8/tb5rGvJcvGZingPE/j4NfNVozJPeA21JZqlsQZaB79ChvCWkMimCeGkKCaSz6InW2Kc2AqM4jRmvvIrqu9RY9s1moexgRw2lM4TraHlwyqOY0rGRoP9FEv+LrIfy1GMyG6+tMcpvOMYsz2ap7FSPzwxqzYg8mRCCJPy27MzPY5u6MO49qoY2Ao/u6ie51KbsRGGhrsJX/mY2Jin4FluFR5jKK7mwn1I76ziAt5ZaqqiwGU+xtdK4qN9abx8beZsezRPYyHlv9UhmTdpo0qCbJoTF/o4MF9Yr7GZFMfUsk3xuk79YD3BV98d6XqIqv3ZVfS2hhAfyFWBuqHmXUWN4m/lst7ZHK86u2gthKnwjMtXXkdxFf1kDrZHMzWWkSQm3GSAOTWxmWfsmYsjwvFcNMK1aLx8TXbY5KvxNGYVm/wjfBibSedjXYDRuBVG+NSwJZaNDfxDntdhpLyOSB/gm2vYPs3YWCnvZypxomOM/zf+NHmWNANGcQM5ncXH1pzxLYyOs8Rt0hSuZQtwnmfSVT4kN9dscuYTggYMcCwXuTMKdBa7Ugof7o2vmbdYTazOtT2ar7GS/yPKIClVIrJcvMUwG8Wumo95w/JBTxyQ66NYRsIX5gmcXRKvmWwFb0FVVhzZvOgjjMqSD9Z/V7zIRfHbeniwD+NEH/L5ak8dC1/VTcVQ/fZovsaa3AxtuHjFIr56UGGF3IpFvB+yYaMm5DWIf8WrHMUK4hrPa+Y1OZFPEUIxJBd7bGBMZmw1f4vn+SOMxC706mOk+AhH+mRnk3XRXKpTO2Mcu32asbEgSeONkkptyE3Ah5oYQz7Ngw/IY7BiInZB0cFM4YmKg1Se5vUiyrZwb2zTORtyc36ViU/s18CA16ukhmi9po/k6Fxa64iohT3N7y9PMzZWY0PFK0q26RM0xliC3Sy+6pf0R5zKk4/FLjCK4yJnHGNsQsJXTajzsNiyKc8FJ/qCz/Lk/GIrIBInosKksZlIPut6kunYTrzDNV4UV3nFbIdmbCzUCWOeX3WjwnJz5M/6zPOhFa/oyhur+oAPm0ObhmyuV5vgXGzEVxysmFh/Cl/EZYzELfjW+skWrpmx6gPJS4AxucIF+LPE8ViYiLddmrGxaAO2SdVHCWnaGno/ZLMxGVZihz5nwShvsuqMWnqLr2tTPBVIcw3C63KqB0Ao4xaxdS1TvK6B7cY29Iqp9qjYLFdnwrLpVG6tYbs0Y2MZ0aY8MZoUS5yNwBbxRb4UF83RWgPjeH7FRPFMHdgK3vC2hhaeZI+rsRhHvIs8X4Ar+LNg7MJ6k3WA9siYgG9ijKJ4oo/8XB/47IhmbCx6JeqmfmjZKIgiMZIk91GsDsNqA0zFZZsbhLfYJE/G5n22MEaBLfzziDx4f2Fskh0bPSVV3nxMpRiNb6LilM8Yj6lD9FU8sRXna/goFtu3T/M0lu/FEpA35Zs1G/FFApnOglNMEAYgpQI07kRsZ6dwTFpEEWUbFwrbTt2zyi3bGdfPxVo1NRGHKOKdElf1TDavXQclA0ZcQRqX1lNA1W87NE9jAXEynCd58pWTZE90hDPiw0CjWRiQMa4SW2ueKu7ESByHiWPYhecQubBZ8ZmeYwnPhVphVD5rU7Mc+PhV9MW7lmB4c2oMwVTzRX7Gamyxb4lmaqzWZqOEGB8RJzLyn8JFsQMf1ysvcSx+WGjEO87UipO5inVHuABfYCb4Km/RHMSb2J3ygje5ZuMVj8Z6Mp8CP8VWew8wzqPEF/vZPs3UWEpUaEXhtZJlcovEx8TwFZFlmd9tglFTQY244L0EtiqY4rOu8GFTtGblKUQYe4Ln2D5XhNM1sky4Ii7jxI4optjPxJuKm57i8hyB26PSjI1FG/ONtJKiPDViZHOeMVExqNyyKYbmqZqfccQXoSdwGr/QsxzZWryp2FYYYt4aKJm+FTvz1QsHk/pzXL6KvYrZmpv4ai57MSC/IhfEF028PZqxsTJVrx5BUow/00FnPnFsxTCOh9giHxancMxXcRu8hzKfABPFTvpWRjFcMIoTmfNR4IxUfxZ8lotc8/w6MrbSW1yOM4XVuXg9UTyzb5/mayxPCCsKY8knfSvX4D05E5giNpPZIn+Lbaop32yvCoixxLtZcUakSxybbMyPwCBuNAcXqOgLnmPUbBtvsXVuiZfyP74Ovp42ZxCrqi/FZt7mLQNvleZrLN1ciy/yocmRYQnyEJos4r0wTc9xmYLCDw+eqLK7QXymDjWIEe7fjSXv5gmMjQJH+kI2Yt4eYrQw9gIQ2Tk+Rkxiu/oRPsRILCf1IT6xXfnt0cyNFWyU7b7pqWFw1Ussk/2g2SYYlpPadA7yKYoowrOc8ewfYo0N/CuZ+Oo/JhrxFpcHY2T4ixE1jIeKsN9F3MJuvBHPp/7iV52tYrO+iMVY47dLMzYWU5CMFOmF91xMJcSw0QHyYDz5FLEj3lRscyXxIhcFgCC2YoM5FeMhtOADvsqHG4gnSvYPn02wrmpfEIzMVcQivbMRpoEt7BHW4oku9NsuzdxYmoDMJ/8n2KzyUROSDZBEtvgsu1sLJz5hgdLcThR78mBZx4OJdVIoxVoiXudvYNiWiGe98ha3wAfYlLFVXJb5jhLEYL2dQRWPeD+nifmK63ZpxsayZHBScgI8aZokS6ThRB/5TcbLV8MwdvJQc9wwNuNNVizp1b/IySl4z1sU20j8T12zxmec2E0/mYtWvLPiArvrzTaF0TlbWM57hm2RZmos3iSreeOubCQkwjE15gBif5+7RdFc6hPISWPr+tUmlFRPfBeNILYVSxVLiWxVPiyAYCbPTLC8zgJLmGqNAZ9o7gKvsSJ7g+dpdkAzNZbkSzdZ6EX0RLUSJKPCyTwej0nXYNjTCon5aD71Ib0VQfGj1gafIPtkWXx8vaL39fA6jJW1VRjVaVy+UjwPp5ipvNo1Dz9THuJXrV/sThaTZb5uj+ZrLCDYuI6cJC/oCJ/5MJlGLEvsKp7Kxp42V+Ydy0WueI5lovlEWG4gsymGZVDORF/wWeYcN/NMsosBhucN1xBgm3Maz1fVEfZMsWik7KP6HdB8jdX8D+RnKg4Fgsm8JcZMVRiOLfEmY3NAlRknoh+SXabwtO6CeL5Ir2tiW0SKY7I1mF7jEO9NoLjI95SGqvyM1J55mzcxnv1aeuW5mfltM2N5Dduj+RqrKGzUiYz0Td5I/YgvxFaMgE/2T8tnShfxPD+C2GyKmq/lS7I3OMeNcJmv3n6KHOZLebvoPKKzwlZ9i2/OzToeEZabiXURdjc0X2M58cY56WaL+CxykorkCM8JrIrOiHzsEAqs+pCuWjPFUp8qpuI4ZjQUbyrbp9ntyjjaG9uq4iW5uQ4ayWJEcVTXiksYi1edlcYwMdgT46vzIZvxxZlvn2ZuLN4k62TTylvCq4S1EqU45skeFV2BN5JDNV0V21haTxXvjP6R3ny4AB0b4TLfnbbPaL1qN5XGUDzH0qeWTIazGBorj+LslRes6cK7lJH67YZmbKy8CU56tTGSvVFEPxjp2orHiQv4ZkEyRX7GM5FscYu3WxanMWexlog32S4T80d86GMU4ENd5l2MMJyfPIq5WR/5M5+vHaaxKdu5XqbyWdhNv32ar7EmNxQkoLCxnofFbPkLrppfB9n8sE4rfMWRznFMJFsxRPMzedFEOB1Zf9qaDVPFlfhu0hjMUyz253xUehfomnmPFdmjwVjVZz7luKov/LdH8zVWlQDl+XBMz0kgKjDMq2ys8M2iz7qUr6qveI7FeuMD2dXRGtjHYvNo4FylBc4Y8q8wjVHMb3iNp7GMxMfXNoHxOQNe6dRaoVz4PhS7O5qvsaoHD7pZoiKhEzY3MUZ8woNU3mQuEtGzHBaIymJzyNQ8Zqa9nWWeonBIr3yxbr1m3kJVZxDgfZ06n/iEe4gGY/Rt4FQ8sSOqDbFXY7s0X2P54dMm+KALeyMJjElsE97iRofiMvPkx/NFOD5Ux+sLR+aLdYgt4jleC+O87nECZ9hIz7rUsou+2pPi83USx/GMVb1ion3QfJFfgWMsx2P7dmi+xqoWLxuM9E0fTUYrFlMjyYkTbDgm8mmus2WbiOWysQ19xKcIz3MS76JiSGem6gmeGbKcrPkUwzrCViQ6h5NfFY/tPCJMa16MfjtsJqYZG4vID0g3KDybw8IvAHWywr92BSU486wvqGVTXmWM6/UfoOo6CVc1CeNEXxXFaXwLb/EIU8QWn+YaRZdwBqzqeWQdn49dCxI8onnPYte426GZG6t1Z9ANUjL9/42liaJk2SEUOC0U8puKpzIXfvFXuoazq/iY/qzFWv0FsF2juGyb4ItcK8YuaiM7pMCrwRjNqw6JUcQ0Mlvkx3iOw3M3MB6T5+C426cZGytKWNYrxjbdmbmBrwqNeU0aJ5Z1rBc/PoywwMzG4mnzMIZsRWzjGaY+dpW4ya6NOFPr0vndpBi78pmqnXgvfl5bw49VyPiK1E/j8VWxqud9bo9maiw+6Czr5nyDmfcnQq1k6H+iOOJN5kNlfcQbzuY7DWf6yEf9s49fW7EbPlVsogLjSrrmYXtLfWAXv+ouqnPIGiJsc+0ykmF1GBmOcl7l0HA5Fk9XxSS++Hux7dBMjWUUbUyTqo9ZDcs+jadwzmd/S25xAC0+klmnPqo3W4u3QmjYlPf16zwy5ySmVYjk75hgFLEC3uKeaRhJLF5fiKXB63decWjgKK7NmYwn25Zoxsbixcsm1RYdKiejIo0d+LvcIpoH/B/EZDKM4Vxoz1msu4UjvlnUJrOoOB0OzKL4h0SYKj7xVTyy+xLUnwe7c3y6U3outPgbPOMLeySrfrs0Y2Oh3EzKiajsymtSKYGJccJXf3tD8Xh4LJmnFbvSMwXrRL67VusJ+KoQ3UBy5r2AIiyz7MeUAPSNOZVHmZ+ieI1nnen5KnxxphIrsa6FbfESq7C3dNunGRuLEyVysUHivXlYH+BMrhqkhc98EZuJ5yJsVcxR7IxjrMqVv8VGqWPZ92bYIIZiKwzJFUbsFY7ffkexTNQYGevrP2W+72ZUMRPFjdaY1xlit0vzNRYnIfoPoLisvGLYlnk+fOhnNE0iFYHrGMcy02l6E1s4I9IXhSE2XgvvLVxHxiadX3nDsS3CGhtgEvNaqBpDffK1mJ/15pL5opGFr9ZmV5mnym/Lb7s0X2NVpJvNsieDMYqLBuGahcoq9lOcYbkIgnkUV2AZQ7KrolgBHvwXvw278c1fTmDMaVHUjGU+wsj+3BzgQr3qRB/Fq3LEvAxtnsLX9GQ3TIXbDs3UWFNJIIwmp+DZH1TM5B8NTl46Q2xQbMNUySe5OnyJxXJiOeIVz+tXbOaL/SlGsH5lvcQO51Q/9p/gqzhsp5Ea+mJkTIrOnGWcfiacs8J/ezRTYzGdtklNSkSKCZJUHICZVMHrsKEY5hmvRUO2Am8iywHvBW0mjRXwvNYohxyv+M6P4xmO9+OGMlbBi91lise6Fl/lxa4Sy8bUz9T8GsUzNljDDmjmxpJNcfKLDWcd857PrP+u3n/bEJnV4Qdz4T2sxiyMJT7h9EKsdPaiwPOQrxduNNiP4wU62DwREdbW7/Oy3ag1R4NPOV5oj8j8FEv6xPthW56rqgvGbZdmbCzZVDKdbpZ1LT4nKsJz8qpXacaNsHbBKE8HqPpCtovMWWAMF+XCeJvTcDq3+HFxeX4YE2CnMGCM6QwrPrauIqZgfW3i6ziKUayP4xkRpsgJx4t00dg+zddYnISEYEOSiALfSozgIb/ICA/Z5id5ks9yaugL/jSczFEVTuDj8VivfiiLK3zqyjGMNJbMU7goJl+r8zEKsIVedcZGeo2layO98xZL1xDptk/zNVZBmrxog1MY4Ys8RQkkvSU7/MJWfIrG5sE+xNv8bCqFUWdY1vlV4ql+NGZWMFVBWbxT7IYp9mwYB0g81gd8FU/jkl334byR8hqPMfla7SPy2T7N11jVb/tM5mtORHhgmpCI14KNfIxlm2K0EMRX/cLCCYYXEMfTOTRehI1whjEyjMoSo2ljP+J9D+KrfLiHVlzWTYxibo0rGLdpbBY11vZovsYqEmCy2KtNTmDtUh2w+Ljaiqw1B2Ga6whkn1/0upZqncYbZb6K18C6qHHJJ9ELGruz4HsWPccpeJbVHo2ItEmyrvKJ1qYYI64fjptt5lM1UxTr0Wm+xirWH206GoTlg0hZVoxTFF/1IhcHzBTI1eFkfYt3kedo8apjPfHVn3SI3fhqrdEcLd7kfC2K1Yjt5q44NzTm0jmZsi0Zr7ZIbzqJrevawZ+LGM3XWLr5qlEYIwkpfFk/ZdNCUD7CtTAk6+FoLI2bAn1hlzxUsWhexoRxlWdd1lsco+aDDpGb8+naA7vrst6xjCM7x60wGjfH85gR1ngmi6/67dCMjWVEmw8fIChlffi9lSQyQQqQsexD+qT6CEPxC2r4VIXGg/2UAn0Uy2XSu9l4jqXzGy5aT+Y9j1yAEsfm8l/vazz1iexGxIdrU3/ep8ZnP4vH+gi/XZq3sYoi0aSYnnhLbjKsEeNZp4ni+DKHrsVtzPOBmE5tpGsWBNNUsfJgX44hOIdH/qbP1wJnap4j82fJNa8/xIvK8l3lh3n7MxYebKdzS9zMiiVMFU+wbt8uzdhYtKlkstpI9r1LIgqeMNXh8iC9qzSWxhPc1AEZvogVxC/WGdgr7FTxsF9k5zhaQBEep6zPSHU0D8tqb9l4fcUajSi+m3RO1oHiaDxZR8q8TrkFmq+xqsS7gfgs24ZDHCUlRXFZNooOJl+LD7A6J9NEXPDbIcZoPLU3+GT/aPEwJu9n6qdYRYEF9kI2Up3iM1998Cc7N0l1PpmvGqm1Dl2L4mXeSK8YF6M5tkPzNRYgG4g2zk3FJHJYMAWgIQY+xcHbhePryPao4N2XZBc1hmL1wPVKI9H/OFvXb3wRZ4K3Ai+K0jA8GGvzNua265nXptTw8yvPYaqzYCP9bmjGxgo2bodTJEc3HyWGSeOK/2RBM454tVW6fOXYhb/IzaIlsdCznQrfijrECo79eS7jHaeYRrwij4Jt2g0jWNXp4L1W68xXs6uvxrb5qvUpfrs0Y2Oh3Igly/fFG6TkFInNuupXHJIgPxSzMUksnp/56D8mw4ddGso1VPMaTxjjwwNXrBFhijlk7U3KtqJQG3wVRhUaK/O+Lo0XnKNfKVaFCWKxrXpaTDYXNWbEb5dmaqzWRqOkNRJoI0X+TJFNYvDo+DDJJ3GszIefZ3jglEYxlvcR2JVvFY8VYjL7GUaxV/YjvtgDYwUfFqzoms1ivLGyhgJH+mS8qQOM2R2r8ZTfPs3UWEy6SdaxjDJpSX9vKEkqDjCIxT5JYrvSjafElfiO4UF2jVdgIny+plxIraJLrGNf0dv6qjXqXBNNwLZmLIoHXp+R8NWc4t/iPa4O04PW1yCzT0AehWZsLE0i6f1Km41woS67hR/miffwrDdin3xNcoCtYuI1ReuzazW3rkPmjOYqsPnKOuaL9QZ25qtYSrSGIr9sE77KM2F8bUw0R6EjPplO1yD6sAaMSPZ426d5Gsv3pxuWBIXFoMlhLKsnDsvVEreYj0YijBNjjFW74jSeYo2P1hFgiz3qfA4i3kTF0ijsUxgmjkc6W1+1l2gwsU4wHtNs7EP4Ym7FEq7gW9hHp3kaCwg2w/qIVH/WA5N5kv1j8TguYe3wHB9gWFXE09h60DrErygGLiLTG8bswXw8qjkVaxfF6UAQi+PkURS0B2/gorf0jDea2ofoqrkbozgTxm6fZmwsJdtsTkyVHMIUycn4gqbk03gtZJ2bscaqPsLyXEYZZwVWHTLjiPcCY7vE96IxuxtiLCIs0eTaNOZpvOjCwpaY1doEm3BK3ZCuyAsP1m2XZmws3aypdFO68axzUfSRnBAURsB7wpla2Ix3HWOMsr44bNKH8ll51bGsOuUJV61N7C6zPuATGoUtMSzHiXRsZx+L53kWu8t8NZ5G4lhsF7/w/LdDMzYWgg0qTzpOcpUck5knP9AvE6o5TNQ5g7kLP8GwzOtMZmth1GbUwBbrbOFEz/gqVjCfq06Zz+c1fWTPunCvgvO1Z77AGs868nOKbGpXPppjuzRfY+kB+2/NWhtnask5QYniF7AgXoRTO6gpLbbO6bxhG7Zq7aozn6wz01R+qj3oXBxTcaxTfObdRXF57khfYTJFX7RX85k8sZ6U4xZnyjiZV2PwcBjjt0vzNRbkh5vFAWW7XVld/SEeJ9JETZAegOpEH+mSrSOyZ97hwdoMU1xbfL76fFxshE02F+GqGFyI5kt2NVqxFnsI4lYBG1iNkwJsMZ/ZjYR3kbE8TK32iLeL1EdRF9uhGRvLSDdLclHMebhsZHpJGNsKXuM0hs0dNrKNrOfCqNahPmeZG3VBOhmG9YEdFoN10VA7U0O23KTGz8ksH4l8qnkplpPEKebTvBnPV8Kq3vw4VpVjjr1dmrGxOAFZLmjipzsVT0nhu6ATJxVBUTJvF/MhvV+N1E76wt900dxid9/I3tIHfJFbTPunjK8KzewyOEZzPyzLfHZpnr/M7TodhK3WprzGF/8d04yNhelNp5ws1auPNYvDFEMN5XHsqvEb/mZPYq+KSnzMbvNX+yHe7MlskZ34AsPz8rp4UCxnOVZEWd986CN8MVVj7pTnrWLIqM5swifMq+LRmJd5nnO7NFNj8abyhnUUO6SNM7nIdk7SVNLFL4Gw6jMV1/TCV/O2YvB+o1hiT2YL4iY0cif8afNpvALPsQynmBaW3lpXzUq4xD5RLDTOVvEUrzovxbJt+zRTYxlFyWGKNs+kthbPsl4hxchX0VVvMyNsljsrIh5kt2tx4HYlbFiwjMnXRLwropjRW+yIV3+205ynzWsNYPswfLTvZjy7Em9fn7TOLkXx9Gqivjhsn+ZrLNv4qBCeh6mDgyp87EoH2BwG1xiB3UM3Pqw78YHyGuxKftVDEcIWe2QSbDGHDvYxlvLW8kuGC/wLnOnVTrzPwWb248Eg1XMMXqP65SurqxiF8Qz72A7N2Fi9McEwvbF6kNHItpTxRRyJaRjHaZyW3WJ7kHHYgVf/2a9G3GR2xrFuQl/4ayzSu533kv01brhfHeyiMWRUc+jI+oRgbiOKFWI05ln0ald9T/L2aJ7GSglpczyxAdJ7ISsFSUqRnngPpQlVndqjQsFY4D6vFHxFU3NkvvDnYZCGn18znzK2iKdEhc065bmwPZ5diXcxiFHwkW6Kj3Q8L81d5KfBV7jx2vdpfM3fIs3SWCmtsTl+hzU1769QrOdhGFaJ3f0yFtwgAQYUr/lfWFJ9hCE+QYqSiefltbHN+DOsvSBdUyCnCGeU+eIMTB/FI7vH1WH6HLdqggA7tWfPqfoGWOMdn/1lvs1Jwvpk+501S2MBwOH9t4G0GTfGiS4Os9x4qWe+NaJ46pNlTnRSrLHcJOI/grJJ7TIMU8zFPPkXsdgmes9jYPN5GWN6shdz8hM8jmW6qTkn8BXWILS+ao0k29oK/wBbxdIx4lOfcPQw4eSkekr1yDRLY632zuH2vRP0J4eUIIyJML5KlImnFHYyDMdjjMQNcSybWjF2lZH0jhfxJvPVeIqTEMwrfpPFI35FLNPzNfMcK4zb8Kt4wRfnK/Zqn2wnvhmDdVM868ZaWp8k3H7nAOvuMQU+Ms3SWBcvP44371zC8dtvol8f+cYG4iSxHkHxKIYbjol9eJ4cM5w780XRRhi+GhutQ2I1iyP7uqvaI94o0pFcFa7gU8Yk0rGded+H6RTDezS1zMfXam3B1acxJpo3X6u12Rwac9D164SHD9b4xp3ruHDzoxmzPZqlsR5/8odwt/8g7t/6Bo7vvY5+fdhIkibF9IG9GI0YGi88TOL9IE4bGRsdHM/npP6ETS27Yg2vNoplo7nXCH+KvdjnxHC3KR+zR2835Vr4M5aGzzUVi3GDvu8TDh+scevOCnfSh/GB5z6R8dujWRrr6mM3cHD9x/DG7fM4vPUqju68hs3De0ibE/rchZwEEzlRRpYoEqsDMspyAhWZ4XQQviDS2QE24zGeYynWRC4+VxJPOikM1/uV+LOsjeO0HtqkvMaKRFfsg20a1+JZfPZhPePcUWTDuBDwZS2llNBvEk6Oerxzb427t3u88fYT2Lv503jyPe8l/+1Qd3R0JCvePqWU8MpXX8Srf/Sf8ezeb+PJyw+wf/EG9i9ex97BBXR754Cu8ySIt33lPtoKyCAkpPxDiRprCLMYyvwMNxq0iLNOZfap8KTjXz44TPyr+JmkyHgvo1J9fVflfOOmhSH/VO5nuIz2TtZq9vLjv66H10hrc8oamxuUG7YHngOJXtZsTbVeJxw/7PHwQY87Dy/j66u/iR/+5D/G+z/4IXTDxrZGszQWABwfH+OrL30Rb/zZf8Ozq8/h8Qt3sepWWO2fQ7e3PxwNryTv02vBbNw3lIsEoKMCSwC6rhvrUoub8ziAkVJUfAEe44IGEzsNvIXKoZHSUFBRGDvTlAHF0ngdvqwOXbFA5BeWMdBozTnAsKAin90Qx+aotp6ANCx+VHZ5va6qvGKyNbg4+A2hcjAubs1XXkaYRF6c7U3Osu8T+g2w6Tu8fXIZ30g/gyd/4lfx0Y/9NA4ODjzStmi2xgKAvu/xyldfxNf+32dx4/j3cPPgm7hw8BAH3Ror9J57v3llGpKfM9tlTQYMRZFP2iB0RbISpMKTo+CzKpIhhkEc442xy5oAn2vWc4PYmqWOaDXMd3435hhjMw64hOGFhN2HAhuA41YsT5YN3jHlJ9x79qO/Ci7PBcN66cUig/L6RplMI5/KnAy64cqurfiGs7UPuRnWuE57OO7P4c76Cdw7/wk8/eO/hB/98Z/C3t4eBdoezdpYAJBSwnfe+jZe/tIf4sG3/xj7J2/iXLqLDidFWTneS2w4wA45aXagbq3LZKR8NxrFssnkoJL/sxvyYrHNVHPaq7VUWUApDehV16HP/qvsZuF0vkEelP4WaGK/YT6CwzJxatWMKeJ2yC8Cw85HXZyLKg7N63Fzc/XdAfrVZWwOnsSl9/wEnvvYz+HJJ5/a+ts/ptkby6jve9x/5x3cvv0WDh+8jX6zVsgWiA9Kj0KTqsfzvSc+mGgHsxKnbPbJ//LUdR1We3u4cOEyHrt+A9euXcdqtftndt+zxlpooXcz7b51F1roB5CWxlpooR3Q0lgLLbQDWhproYV2QEtjLbTQDmhprIUW2gEtjbXQQjugpbEWWmgHtDTWQgvtgJbGWmihHdDSWAsttANaGmuhhXZAS2MttNAOaGmshRbaAS2NtdBCO6ClsRZaaAe0NNZCC+2AlsZaaKEd0NJYCy20A/r/86aOfhLWLFYAAAAASUVORK5CYII=;" vertex="1" parent="1">
          <mxGeometry x="139.83" y="394" width="59.78" height="50" as="geometry" />
        </mxCell>
        <mxCell id="_Jj7Ve39ARDFc18teFEc-26" style="edgeStyle=orthogonalEdgeStyle;rounded=0;orthogonalLoop=1;jettySize=auto;html=1;entryX=0.5;entryY=0;entryDx=0;entryDy=0;" edge="1" parent="1" source="_Jj7Ve39ARDFc18teFEc-12" target="_Jj7Ve39ARDFc18teFEc-14">
          <mxGeometry relative="1" as="geometry" />
        </mxCell>
        <mxCell id="_Jj7Ve39ARDFc18teFEc-27" style="edgeStyle=orthogonalEdgeStyle;rounded=0;orthogonalLoop=1;jettySize=auto;html=1;entryX=0.5;entryY=0;entryDx=0;entryDy=0;" edge="1" parent="1" source="_Jj7Ve39ARDFc18teFEc-12" target="_Jj7Ve39ARDFc18teFEc-13">
          <mxGeometry relative="1" as="geometry">
            <Array as="points">
              <mxPoint x="546" y="270" />
            </Array>
          </mxGeometry>
        </mxCell>
        <mxCell id="_Jj7Ve39ARDFc18teFEc-12" value="" style="shape=image;verticalLabelPosition=bottom;labelBackgroundColor=default;verticalAlign=top;aspect=fixed;imageAspect=0;image=data:image/png,iVBORw0KGgoAAAANSUhEUgAAANYAAACzCAYAAAD12uLHAAAAAXNSR0IArs4c6QAAAARnQU1BAACxjwv8YQUAAAAJcEhZcwAADsMAAA7DAcdvqGQAADQ4SURBVHhe7X3PryXHdd7X9703v4czwyFFiaYkSqJt2bIcyyZgK1ZiJDIQwAhgJwi8TLLJIlnkB5BFoOyyyT5/QIAACQ0ECSDbcQJkYdkIIMc2YBmObcmiSJGiKFISNb/ImTfvvXu7sug6p7/66lS/J8+9LYvqA9T0+fGdU1Wnzrl9b9/7yO7o6ChhoYUW2iqtVLHQQgs9Oi2NtdBCO6ClsRZaaAe0NNZCC+2AlsZaaKEd0NJYCy20A1oaa6GFdkBLYy200A5oaayFFtoBLY210EI7oKWxFlpoB7Q01kIL7YCWxlpooR3Q0lgLLbQDWhproYV2QEtjLbTQDmhprIUW2gEtjbXQQjugpbEWWmgHtDTWQgvtgJbGWmihHdDSWAsttANaGmuhhXZAS2MttNAOqPte/Qc7U0q4d+8ubr31Bg7v38NmcwygU9hfWeq6FfbPXcDFS1dx5ep1XL58FRcuXFDYQj+gNHtjpZRw+9Z38I3XvoR7b/4xDh7+OS7imzi3OkTXAQnDcoYW65CQ0KEDEoAuN14aRKcOQErSmIyYbtg0lYHs6lNk2qR9POyv4Lh7CuuD92H/8jO48dSP4n3PfASPPXZtBC70A0mzNtZ6vca33nwdr37xf+Pmw9/Ah66+iPP7x1h1PTqkoXI7q2L1LpsjpRGUUoeuM4cOKSXvQdflpu7yBEPDUr/KfC4mC5Qb13q7B3p02PQr9Gkf944v4bUHH8XhlV/A9fd9Au99+sO4+tg1HBwcWKSFfoBotsY6OjrCa6++iG/+xWfxkf3fwjOPvYFV12fr0AwRedOksagxljlSsiYDNdeIQQK63GVjs+Qrx0uDYmi5AWNtaHfNqSa0tdw7voKX3v4Y7l/8FK49/Tw+8KEfW+5gP4A0S2OllPD1r72Mr/3xf8JPXPwNPHHp9vDi39kbPwyNY3esglZASsONIw2FrQ1ijQUUN5XxbWTQVCnHYhvr/M5nYm6ssY2C9WRdn1a4c3wNL7/zcZzc+CX8yE9+Go/ffIJRC73LaZangg8fPsSbr/0J3r//f/DE5Tu5LtNwl0i5qUBNlbr8Rm24f9jNKmwqk6ljLKw1QzIzdQA3ld0svalczmtIwxianzAmprxmu8t1CTfO38Vfu/F53Lz3H/GlL/xP3L71neZdeaF3H83SWHduv4WTW1/A+658Hej6ssKNEvKdwIq5bojAK79Vy13RpfFtn/nlEfmazt7e2ecvmL+Rq3PzJ4e5fVD5aoDUY3+1wbNXX8bN+/8VX/yj38Jbb32LnBZ6N9MsjXX7rddxI/0/XDo4GpX02UjfAnrdUnEPkFzBQydlS36zl2PZXaFjCLEpx0oujCC/o3Rd9TbRmwrFe83qbmdvPU1xsLfBhx/7Mp64/1/w5S/8Fu7du5udF3o30yyNdfjOt/DeSy97U3RdR++qOgAdUqKldGOj2VtCUOGPn6mG61DDwwOOxHe7TP5Wzgp/7KXcOh3Q5c9Q1ri2VoUyxkR/Gzg++GD7wWqNjzz2Eh5/8Ot48c8+j6MjeoFZ6F1JszRWf/IANy/cy1J+uobhrmBN0OXPXPwWzoq0/GxS3k3cJHcM67URSfVujMXJuOHJ39iYRfwB4OsaRhlAH6IYpQTsdT3ef+VlbN78dbz84p+i7+2J6ELvRpqlsVLqsbfaUCVTAxlmZL247amFPbSwO0OBz8050vgkj6fw54+moCch9hkL1vYWM/ps1nX+OQ7WyFl2dXGbG6e6vP8AH77wh/jOi/8d33j91RK00LuKZmmsgexxdUBy50Au7oLs0aDL0lASPIGe4Jmr322GQMwr+WemYE6fN9gQv+3ME1j7AQm4ceEOPnTwu3jlTz6Lt779zeVJ4buUZmushKE5/G1XlxuKCpfvTEgYPmtZYdLdgPvPmyWNj9YH+/iE0DA1DcGKt36FuSsesQ/zuJFvejnOMJ/0IpC/AkAHrLqEp6+8iac3v4m/+ML/wttv21vkhd5NNFtjjfeIoIBJGHqt/ObVCt8pC3w3GQqYS3q8QybAv5Ny8maht5e2MHccHkckjM3Ov+5wztaXfQc8hXGPLCfg6Uuv48rb/wNf+eIfYL1eC2Kh73earbEKooobinosbngTAMCKa3y8k5luZNEB5ecor+zOH2iEjQD4nbTEZb6YpLyDGSV+4ejG94q63oGGO925/TU+dPUvcPL6Z/HyV/58aa53Gc3UWGXjALlAuSCtEPmzWJfy00JrtLJK+f40fDlMBqtpq3Ny7YYuHBqiG5rBb5Dd+HloaIIczJ11FfrQYvwsOIjj201Qo3YArp57gOcu/T6+/cUX8LVXXlyeFL6LaKbGKotx+MCef9JENv3MMhT/WNTcXuOwwre7ySi7Jxf62DPeEHaHtIbD0M50ByxbyXE0DDF+1zZOmII5hjswcOP8bXz43Ofw9T//Tdy+9R2bYqHvc5qtsTr/py5oo6Kp5DNSRawkPtlbQOsJsldx8jwD6RfL49O98snhyNfrGx+ydB0/qMlxrKEcDwAdbl64jff0v4sX//R3cP/+/cK60PcnzfLr9j/4nV/DJ/f+DTWSTUm/diBK/MqecaWVm2K483X5lxMBMgckA5B/pTGqz56EYmG56QYhJXp6KSQ3vYqON+fxxbsfx8Mbfx9Xrv+Qmhd6BFrtHeDi5cdw7foTuHb9Bvb39xWydZqpsV7AX9//DAB7q2Qv60PBVbVI1T40zVj4jE/0uGF43J5/O0EBE6yJyi+O6Y3id9FURU9lyg8+pKMNY/pWY/Fd7fDkHL59+AQebK6Vmx6QLGTiPNqkudF9QTlDtIDxDkpfSRDpL12GEIKz22+X3/TkJAz55h9D03lXh216W7YnI9wuRcpm/XnaYChwCVinczjs3oPNxedw/elP4NnnfhLXrl0Xx+3S96CxBl3i75kGxUg5scNnnDGVdi7DGeaDA/zuA37Txgkv7k420ehTgulQ+dE6r88atYP4Ci5vZdB3xVzDHuzBjK4Bw/pMXTSAK/Ncq3GdNPfgO7zQuClh8LUkOtY+cA5V2eUXPEp9Jto3T1m8+NmG80odWwajpZZfk9jc9LI5SJYzU/AZZFV+x5ByzyPP3yegT3t4uLmArx9+BA+u/R0888OfwtPPPItz586NAbZIszbWeLgYmqbbR3fwOHD+KWDvMoC97JGLhrPGRCtOwHCfyn+O7wk1gN0V7dWUiJPPDTGUI7/JIzJFtbRBUb3aFzSstkmpB/pjoH8IpJNBruA5hheP3gUyVQvXpY+AYslE4x2tTHgJ1z0Rnpu3mNdeOMnVOzlaTDVpRSmH8OXmu/ggJqTNMfr1EfrNGm8dXsfXNn8DT370H+AjP/LxnTTXLI31+9ZYiTK8dwXd1Y+hu/HzwJWPAQc30a0OvFhsUUPe7Y4z/ltmmg/WJjBe7X91yFeXAKRjYP0ddMffRtrcRdcfAmmTgYakPWc2f30dlKQD8j8ao0QD9DLPOuX9EJkE53OaKpoz4Iv5yaeIZ1jiffOpwiUkoN+gPznE5ugu1oe3sDm8gzsPL+LLx5/Gcz/7T/DM+5/NPtujeRrrcy/gk/ufGfbadcDB4+ge/xS69/4qumvPI+1dnPMB5V8hysXcP0B39Dq6o1eA9Z3cUPwHoVJcrQLUq7H0pfWIEbzFL5rABrdto9D1ynGque064dO1YlAs0/lP3zimyRju/Ckh9WtsHt7F8d3XcHz/LXz11k3cvfmP8PynfmXrd615GwsY3vLd/FtYfeCfAlc+7p+Kxu9/trecKpIpTruBVY5TFIH1bSdPPFo6nGBvcxfd8TewOn4N2LwzFoc1lxeMXbJ9VAiv2Oia+QJjOsaqjXjWR9fizhbhpzBZ1mYq8KRvXs3HBSAl9OtDnNx7A/duvYE/vfWTePaT/xo/9MwHCPfoNEtj/cHv/Bp+dvVvh41deg7dB/8Zuqd+GQn7SCmNA5TDkeFLcADDB6TSPnaO6YcXQPWtqUJQAH+BbK2GhCpOXtcQI2GFExz038S59WvY29wa3gqiB/p1/nxljaW/xrDIPJkvrC6kiD8V02i64qp6E6dwvIZANxpoDaQ3ubhDkT3kSUc+aXOEo7uv40uvHOPe4/8QP/cLv6IOj0Szvf9K9gJ04RngsZ9Gn/aw2Wyw6Xts+h69j80wNn22b4brxFj3jBv81nk4xm02RoyPNcVdD0Nt680GJ+txrNc91uvBvt5scJKH69brPAZ+sz5GWt/D3smrODj+CvY23wLS0dBI/RHQPwD6w0HXnwBpffrAptal9RAz4gu86vNAll2XmzylfFW9+Rkv+sK3z3FNR3qXU347bINkt1ljMp+HxyDZGy6h2zuHg8tP4D3XgaO7X5FqfXSarbGAHikl9HuPIR08RY00jE3fo7dG2/RlQ/WbwVY1x9AgQxMOo8/+fR5FoxRNGmCCMcy7LuXcyPZCUOPzi0PGDHOtgc19HPRv4uL6RVxcfwX7/e1c1CdDM/WH+W5VF8I4TGbKst8tRK98gWO9/RPF0aF2M5ltAneqPvBtrTnCuSpoMMLvHVzCtetXsbd5x3Xbotkaq8/7TdjHBueG4ku5qNdUvOs11lTIw6v8ZtD5q3892LYxbI6zznxxNZ7m2hS2en7z9buZz0d228N6Pdzl1kND7fffwsX+FVzavIjz/etYpcP81u8Y2BwOj9j7TaOhjMTmRWO2Bg6WfMUrbzFZ1YpLuvCFgOzs5/FFX1wZq5iIZ6wr6BqMNHy5feHiZRyc2/4vMWZpLPv81Ceg75O//RsaKhfleoOT9XoYJyc+hgIdrifSQDZGrPkd42R9jPXJyTDW65E/OcFJjlfGsLmHsV4POFuT4n3e9RrH6zXWJ2ts1ifDdyXrI6TNA6w2d3DQv4lL6au40n8ZF/tXsZ/uoUN+C9Y/zHepYykgBDwVihUn9HPVaTGmeCnMjm3CpzxnWMwq52uB1fUGPhw3kX5UBLLG06uJI647OI/Vwfb/ZxazPLz4/c+9gOfxGfR9h/Sev4f+R/49+s0GqV+jS0dAWufvG3r0GA6gzKUu0b5A5tyVX5SO55IZw7uNvsZPGObP0OFLxkFI+ScF9oXxSNmepQ49VuixwhqrboM9PMTB6hDnuvvYx8OMtM8c66GZ+vzAoihOjtrgbf0FCY4xnqcgFsa9VvrWwxBXBbaKz/KZfabmINnWVa3RKEks/kkJYVKPz7/0DJ7/xX9J+kenWRrr/37uBfxM/xn0qcPmyV8GfvjfYdU/wCrdxz4eYIVjdPkDKBd4/Qo38IOkBzAIHfIvZJIUV7b7hV6Rx6eFI7b8Gpqbzn5KVMbtkIbm6jZYYRjDh2rz3+TPT8f5M5V9KGcK1sq8qU59Koa6gAqq91vGU3yOd1qD+jrVf0qm8y5+mjXhc6a9Zf60WEj4/Evvx/Of/ueke3Sap7F++wV8ov8M+rQCnvy72H/uX+F8dxt7OESHDW2UX9my3OTtEFR/Rl31FopsiGzFwkTPB2j+9PTKHlCk49xg7K+8ysTrHiI+ceOJrZBtnawzCuQqLtn4+t00VZXjU+6ujxq7wX/+pWfw/Kf/Bdkeneb5jJX/f1K48AzOXX0vLnTfwj7uo0sn+bdxx8DmIbA5yo+cj/LnD+Z5ZH2B53Hc1qVAZ2vwEekmxuZ4fGvXH9M6Hwxf+m7u589S+nDCsmNXtgkubKoIEzR5hc1XxzFpbJKLuEG8ZiyVI1+mBq54L85+sibPsWICPkUvFo9Os9yxfu+3X8BP7f0HnHvv38b5p34eq4PLw3c0fS5I+56joCgRstSw2JjXpEVxOMkTtogv8Hy1u1UeVVyVhTexeVclOUV3kjPEVn1Bdoci/qz4ybsK8UXMU3wKc+TDcadiZdnmznfHz7/0fjz/i9+Hd6yu28Pq8gdxcOPjWO1fBDYPgPVdYHM3f39zRG+Vpgbd4bwpg+GYk0Zc1p8IjvENXG88Y2ys84uEfdmJoAhUzlfDe0G3ikiKxedQG/HFK3MDYzLjPDbpCtLCZzIDrSvZvtjGFMzldyrzCzCqLhTsR/rk/2ydZmksrM5hdflD2Dt/fXhbtH47N1NOMj1ICBPiKsZyQlo8yw29xT21iJP9DF1w0VpUbvG2BinOU+/ELOt8rLfYjDNswCs2mc2IeMcSFTlkXu2uEF5lnkfthHE+mFP5RC9cYczt0EyNdR4HVz+IDifDZ460LjdWFTVtWA+6KjrxSazXuILz2OwT8Dxn5eOGUS5i81CcFmcDZ2twUZuA8VFsniOSM77Sa2wTmWc744I1u4PgjOd9pciHeMdkXMcN0/LJfBXX5O3RLI3VrQ6wf/Fm/gM+/nMIyOYoAdVeg0QZXxxEFJvlFi6irLfPDlxQLf8qthtIH8UiWxg764uiUEwkKy9rCPelAwFW7DpPITYwupaWrdDbReav1ka6ZGsIYu2IZmqsFVarg+GX283N6UaDRJ2ZF7lKMBPPwck3PGOMGEO4ydiqi+SWja++KOGzbOuJbH9pXklxJPP8/tb5rGvJcvGZingPE/j4NfNVozJPeA21JZqlsQZaB79ChvCWkMimCeGkKCaSz6InW2Kc2AqM4jRmvvIrqu9RY9s1moexgRw2lM4TraHlwyqOY0rGRoP9FEv+LrIfy1GMyG6+tMcpvOMYsz2ap7FSPzwxqzYg8mRCCJPy27MzPY5u6MO49qoY2Ao/u6ie51KbsRGGhrsJX/mY2Jin4FluFR5jKK7mwn1I76ziAt5ZaqqiwGU+xtdK4qN9abx8beZsezRPYyHlv9UhmTdpo0qCbJoTF/o4MF9Yr7GZFMfUsk3xuk79YD3BV98d6XqIqv3ZVfS2hhAfyFWBuqHmXUWN4m/lst7ZHK86u2gthKnwjMtXXkdxFf1kDrZHMzWWkSQm3GSAOTWxmWfsmYsjwvFcNMK1aLx8TXbY5KvxNGYVm/wjfBibSedjXYDRuBVG+NSwJZaNDfxDntdhpLyOSB/gm2vYPs3YWCnvZypxomOM/zf+NHmWNANGcQM5ncXH1pzxLYyOs8Rt0hSuZQtwnmfSVT4kN9dscuYTggYMcCwXuTMKdBa7Ugof7o2vmbdYTazOtT2ar7GS/yPKIClVIrJcvMUwG8Wumo95w/JBTxyQ66NYRsIX5gmcXRKvmWwFb0FVVhzZvOgjjMqSD9Z/V7zIRfHbeniwD+NEH/L5ak8dC1/VTcVQ/fZovsaa3AxtuHjFIr56UGGF3IpFvB+yYaMm5DWIf8WrHMUK4hrPa+Y1OZFPEUIxJBd7bGBMZmw1f4vn+SOMxC706mOk+AhH+mRnk3XRXKpTO2Mcu32asbEgSeONkkptyE3Ah5oYQz7Ngw/IY7BiInZB0cFM4YmKg1Se5vUiyrZwb2zTORtyc36ViU/s18CA16ukhmi9po/k6Fxa64iohT3N7y9PMzZWY0PFK0q26RM0xliC3Sy+6pf0R5zKk4/FLjCK4yJnHGNsQsJXTajzsNiyKc8FJ/qCz/Lk/GIrIBInosKksZlIPut6kunYTrzDNV4UV3nFbIdmbCzUCWOeX3WjwnJz5M/6zPOhFa/oyhur+oAPm0ObhmyuV5vgXGzEVxysmFh/Cl/EZYzELfjW+skWrpmx6gPJS4AxucIF+LPE8ViYiLddmrGxaAO2SdVHCWnaGno/ZLMxGVZihz5nwShvsuqMWnqLr2tTPBVIcw3C63KqB0Ao4xaxdS1TvK6B7cY29Iqp9qjYLFdnwrLpVG6tYbs0Y2MZ0aY8MZoUS5yNwBbxRb4UF83RWgPjeH7FRPFMHdgK3vC2hhaeZI+rsRhHvIs8X4Ar+LNg7MJ6k3WA9siYgG9ijKJ4oo/8XB/47IhmbCx6JeqmfmjZKIgiMZIk91GsDsNqA0zFZZsbhLfYJE/G5n22MEaBLfzziDx4f2Fskh0bPSVV3nxMpRiNb6LilM8Yj6lD9FU8sRXna/goFtu3T/M0lu/FEpA35Zs1G/FFApnOglNMEAYgpQI07kRsZ6dwTFpEEWUbFwrbTt2zyi3bGdfPxVo1NRGHKOKdElf1TDavXQclA0ZcQRqX1lNA1W87NE9jAXEynCd58pWTZE90hDPiw0CjWRiQMa4SW2ueKu7ESByHiWPYhecQubBZ8ZmeYwnPhVphVD5rU7Mc+PhV9MW7lmB4c2oMwVTzRX7Gamyxb4lmaqzWZqOEGB8RJzLyn8JFsQMf1ysvcSx+WGjEO87UipO5inVHuABfYCb4Km/RHMSb2J3ygje5ZuMVj8Z6Mp8CP8VWew8wzqPEF/vZPs3UWEpUaEXhtZJlcovEx8TwFZFlmd9tglFTQY244L0EtiqY4rOu8GFTtGblKUQYe4Ln2D5XhNM1sky4Ii7jxI4optjPxJuKm57i8hyB26PSjI1FG/ONtJKiPDViZHOeMVExqNyyKYbmqZqfccQXoSdwGr/QsxzZWryp2FYYYt4aKJm+FTvz1QsHk/pzXL6KvYrZmpv4ai57MSC/IhfEF028PZqxsTJVrx5BUow/00FnPnFsxTCOh9giHxancMxXcRu8hzKfABPFTvpWRjFcMIoTmfNR4IxUfxZ8lotc8/w6MrbSW1yOM4XVuXg9UTyzb5/mayxPCCsKY8knfSvX4D05E5giNpPZIn+Lbaop32yvCoixxLtZcUakSxybbMyPwCBuNAcXqOgLnmPUbBtvsXVuiZfyP74Ovp42ZxCrqi/FZt7mLQNvleZrLN1ciy/yocmRYQnyEJos4r0wTc9xmYLCDw+eqLK7QXymDjWIEe7fjSXv5gmMjQJH+kI2Yt4eYrQw9gIQ2Tk+Rkxiu/oRPsRILCf1IT6xXfnt0cyNFWyU7b7pqWFw1Ussk/2g2SYYlpPadA7yKYoowrOc8ewfYo0N/CuZ+Oo/JhrxFpcHY2T4ixE1jIeKsN9F3MJuvBHPp/7iV52tYrO+iMVY47dLMzYWU5CMFOmF91xMJcSw0QHyYDz5FLEj3lRscyXxIhcFgCC2YoM5FeMhtOADvsqHG4gnSvYPn02wrmpfEIzMVcQivbMRpoEt7BHW4oku9NsuzdxYmoDMJ/8n2KzyUROSDZBEtvgsu1sLJz5hgdLcThR78mBZx4OJdVIoxVoiXudvYNiWiGe98ha3wAfYlLFVXJb5jhLEYL2dQRWPeD+nifmK63ZpxsayZHBScgI8aZokS6ThRB/5TcbLV8MwdvJQc9wwNuNNVizp1b/IySl4z1sU20j8T12zxmec2E0/mYtWvLPiArvrzTaF0TlbWM57hm2RZmos3iSreeOubCQkwjE15gBif5+7RdFc6hPISWPr+tUmlFRPfBeNILYVSxVLiWxVPiyAYCbPTLC8zgJLmGqNAZ9o7gKvsSJ7g+dpdkAzNZbkSzdZ6EX0RLUSJKPCyTwej0nXYNjTCon5aD71Ib0VQfGj1gafIPtkWXx8vaL39fA6jJW1VRjVaVy+UjwPp5ipvNo1Dz9THuJXrV/sThaTZb5uj+ZrLCDYuI6cJC/oCJ/5MJlGLEvsKp7Kxp42V+Ydy0WueI5lovlEWG4gsymGZVDORF/wWeYcN/NMsosBhucN1xBgm3Maz1fVEfZMsWik7KP6HdB8jdX8D+RnKg4Fgsm8JcZMVRiOLfEmY3NAlRknoh+SXabwtO6CeL5Ir2tiW0SKY7I1mF7jEO9NoLjI95SGqvyM1J55mzcxnv1aeuW5mfltM2N5Dduj+RqrKGzUiYz0Td5I/YgvxFaMgE/2T8tnShfxPD+C2GyKmq/lS7I3OMeNcJmv3n6KHOZLebvoPKKzwlZ9i2/OzToeEZabiXURdjc0X2M58cY56WaL+CxykorkCM8JrIrOiHzsEAqs+pCuWjPFUp8qpuI4ZjQUbyrbp9ntyjjaG9uq4iW5uQ4ayWJEcVTXiksYi1edlcYwMdgT46vzIZvxxZlvn2ZuLN4k62TTylvCq4S1EqU45skeFV2BN5JDNV0V21haTxXvjP6R3ny4AB0b4TLfnbbPaL1qN5XGUDzH0qeWTIazGBorj+LslRes6cK7lJH67YZmbKy8CU56tTGSvVFEPxjp2orHiQv4ZkEyRX7GM5FscYu3WxanMWexlog32S4T80d86GMU4ENd5l2MMJyfPIq5WR/5M5+vHaaxKdu5XqbyWdhNv32ar7EmNxQkoLCxnofFbPkLrppfB9n8sE4rfMWRznFMJFsxRPMzedFEOB1Zf9qaDVPFlfhu0hjMUyz253xUehfomnmPFdmjwVjVZz7luKov/LdH8zVWlQDl+XBMz0kgKjDMq2ys8M2iz7qUr6qveI7FeuMD2dXRGtjHYvNo4FylBc4Y8q8wjVHMb3iNp7GMxMfXNoHxOQNe6dRaoVz4PhS7O5qvsaoHD7pZoiKhEzY3MUZ8woNU3mQuEtGzHBaIymJzyNQ8Zqa9nWWeonBIr3yxbr1m3kJVZxDgfZ06n/iEe4gGY/Rt4FQ8sSOqDbFXY7s0X2P54dMm+KALeyMJjElsE97iRofiMvPkx/NFOD5Ux+sLR+aLdYgt4jleC+O87nECZ9hIz7rUsou+2pPi83USx/GMVb1ion3QfJFfgWMsx2P7dmi+xqoWLxuM9E0fTUYrFlMjyYkTbDgm8mmus2WbiOWysQ19xKcIz3MS76JiSGem6gmeGbKcrPkUwzrCViQ6h5NfFY/tPCJMa16MfjtsJqYZG4vID0g3KDybw8IvAHWywr92BSU486wvqGVTXmWM6/UfoOo6CVc1CeNEXxXFaXwLb/EIU8QWn+YaRZdwBqzqeWQdn49dCxI8onnPYte426GZG6t1Z9ANUjL9/42liaJk2SEUOC0U8puKpzIXfvFXuoazq/iY/qzFWv0FsF2juGyb4ItcK8YuaiM7pMCrwRjNqw6JUcQ0Mlvkx3iOw3M3MB6T5+C426cZGytKWNYrxjbdmbmBrwqNeU0aJ5Z1rBc/PoywwMzG4mnzMIZsRWzjGaY+dpW4ya6NOFPr0vndpBi78pmqnXgvfl5bw49VyPiK1E/j8VWxqud9bo9maiw+6Czr5nyDmfcnQq1k6H+iOOJN5kNlfcQbzuY7DWf6yEf9s49fW7EbPlVsogLjSrrmYXtLfWAXv+ouqnPIGiJsc+0ykmF1GBmOcl7l0HA5Fk9XxSS++Hux7dBMjWUUbUyTqo9ZDcs+jadwzmd/S25xAC0+klmnPqo3W4u3QmjYlPf16zwy5ySmVYjk75hgFLEC3uKeaRhJLF5fiKXB63decWjgKK7NmYwn25Zoxsbixcsm1RYdKiejIo0d+LvcIpoH/B/EZDKM4Vxoz1msu4UjvlnUJrOoOB0OzKL4h0SYKj7xVTyy+xLUnwe7c3y6U3outPgbPOMLeySrfrs0Y2Oh3EzKiajsymtSKYGJccJXf3tD8Xh4LJmnFbvSMwXrRL67VusJ+KoQ3UBy5r2AIiyz7MeUAPSNOZVHmZ+ieI1nnen5KnxxphIrsa6FbfESq7C3dNunGRuLEyVysUHivXlYH+BMrhqkhc98EZuJ5yJsVcxR7IxjrMqVv8VGqWPZ92bYIIZiKwzJFUbsFY7ffkexTNQYGevrP2W+72ZUMRPFjdaY1xlit0vzNRYnIfoPoLisvGLYlnk+fOhnNE0iFYHrGMcy02l6E1s4I9IXhSE2XgvvLVxHxiadX3nDsS3CGhtgEvNaqBpDffK1mJ/15pL5opGFr9ZmV5mnym/Lb7s0X2NVpJvNsieDMYqLBuGahcoq9lOcYbkIgnkUV2AZQ7KrolgBHvwXvw278c1fTmDMaVHUjGU+wsj+3BzgQr3qRB/Fq3LEvAxtnsLX9GQ3TIXbDs3UWFNJIIwmp+DZH1TM5B8NTl46Q2xQbMNUySe5OnyJxXJiOeIVz+tXbOaL/SlGsH5lvcQO51Q/9p/gqzhsp5Ea+mJkTIrOnGWcfiacs8J/ezRTYzGdtklNSkSKCZJUHICZVMHrsKEY5hmvRUO2Am8iywHvBW0mjRXwvNYohxyv+M6P4xmO9+OGMlbBi91lise6Fl/lxa4Sy8bUz9T8GsUzNljDDmjmxpJNcfKLDWcd857PrP+u3n/bEJnV4Qdz4T2sxiyMJT7h9EKsdPaiwPOQrxduNNiP4wU62DwREdbW7/Oy3ag1R4NPOV5oj8j8FEv6xPthW56rqgvGbZdmbCzZVDKdbpZ1LT4nKsJz8qpXacaNsHbBKE8HqPpCtovMWWAMF+XCeJvTcDq3+HFxeX4YE2CnMGCM6QwrPrauIqZgfW3i6ziKUayP4xkRpsgJx4t00dg+zddYnISEYEOSiALfSozgIb/ICA/Z5id5ks9yaugL/jSczFEVTuDj8VivfiiLK3zqyjGMNJbMU7goJl+r8zEKsIVedcZGeo2layO98xZL1xDptk/zNVZBmrxog1MY4Ys8RQkkvSU7/MJWfIrG5sE+xNv8bCqFUWdY1vlV4ql+NGZWMFVBWbxT7IYp9mwYB0g81gd8FU/jkl334byR8hqPMfla7SPy2T7N11jVb/tM5mtORHhgmpCI14KNfIxlm2K0EMRX/cLCCYYXEMfTOTRehI1whjEyjMoSo2ljP+J9D+KrfLiHVlzWTYxibo0rGLdpbBY11vZovsYqEmCy2KtNTmDtUh2w+Ljaiqw1B2Ga6whkn1/0upZqncYbZb6K18C6qHHJJ9ELGruz4HsWPccpeJbVHo2ItEmyrvKJ1qYYI64fjptt5lM1UxTr0Wm+xirWH206GoTlg0hZVoxTFF/1IhcHzBTI1eFkfYt3kedo8apjPfHVn3SI3fhqrdEcLd7kfC2K1Yjt5q44NzTm0jmZsi0Zr7ZIbzqJrevawZ+LGM3XWLr5qlEYIwkpfFk/ZdNCUD7CtTAk6+FoLI2bAn1hlzxUsWhexoRxlWdd1lsco+aDDpGb8+naA7vrst6xjCM7x60wGjfH85gR1ngmi6/67dCMjWVEmw8fIChlffi9lSQyQQqQsexD+qT6CEPxC2r4VIXGg/2UAn0Uy2XSu9l4jqXzGy5aT+Y9j1yAEsfm8l/vazz1iexGxIdrU3/ep8ZnP4vH+gi/XZq3sYoi0aSYnnhLbjKsEeNZp4ni+DKHrsVtzPOBmE5tpGsWBNNUsfJgX44hOIdH/qbP1wJnap4j82fJNa8/xIvK8l3lh3n7MxYebKdzS9zMiiVMFU+wbt8uzdhYtKlkstpI9r1LIgqeMNXh8iC9qzSWxhPc1AEZvogVxC/WGdgr7FTxsF9k5zhaQBEep6zPSHU0D8tqb9l4fcUajSi+m3RO1oHiaDxZR8q8TrkFmq+xqsS7gfgs24ZDHCUlRXFZNooOJl+LD7A6J9NEXPDbIcZoPLU3+GT/aPEwJu9n6qdYRYEF9kI2Up3iM1998Cc7N0l1PpmvGqm1Dl2L4mXeSK8YF6M5tkPzNRYgG4g2zk3FJHJYMAWgIQY+xcHbhePryPao4N2XZBc1hmL1wPVKI9H/OFvXb3wRZ4K3Ai+K0jA8GGvzNua265nXptTw8yvPYaqzYCP9bmjGxgo2bodTJEc3HyWGSeOK/2RBM454tVW6fOXYhb/IzaIlsdCznQrfijrECo79eS7jHaeYRrwij4Jt2g0jWNXp4L1W68xXs6uvxrb5qvUpfrs0Y2Oh3Igly/fFG6TkFInNuupXHJIgPxSzMUksnp/56D8mw4ddGso1VPMaTxjjwwNXrBFhijlk7U3KtqJQG3wVRhUaK/O+Lo0XnKNfKVaFCWKxrXpaTDYXNWbEb5dmaqzWRqOkNRJoI0X+TJFNYvDo+DDJJ3GszIefZ3jglEYxlvcR2JVvFY8VYjL7GUaxV/YjvtgDYwUfFqzoms1ivLGyhgJH+mS8qQOM2R2r8ZTfPs3UWEy6SdaxjDJpSX9vKEkqDjCIxT5JYrvSjafElfiO4UF2jVdgIny+plxIraJLrGNf0dv6qjXqXBNNwLZmLIoHXp+R8NWc4t/iPa4O04PW1yCzT0AehWZsLE0i6f1Km41woS67hR/miffwrDdin3xNcoCtYuI1ReuzazW3rkPmjOYqsPnKOuaL9QZ25qtYSrSGIr9sE77KM2F8bUw0R6EjPplO1yD6sAaMSPZ426d5Gsv3pxuWBIXFoMlhLKsnDsvVEreYj0YijBNjjFW74jSeYo2P1hFgiz3qfA4i3kTF0ijsUxgmjkc6W1+1l2gwsU4wHtNs7EP4Ym7FEq7gW9hHp3kaCwg2w/qIVH/WA5N5kv1j8TguYe3wHB9gWFXE09h60DrErygGLiLTG8bswXw8qjkVaxfF6UAQi+PkURS0B2/gorf0jDea2ofoqrkbozgTxm6fZmwsJdtsTkyVHMIUycn4gqbk03gtZJ2bscaqPsLyXEYZZwVWHTLjiPcCY7vE96IxuxtiLCIs0eTaNOZpvOjCwpaY1doEm3BK3ZCuyAsP1m2XZmws3aypdFO68axzUfSRnBAURsB7wpla2Ix3HWOMsr44bNKH8ll51bGsOuUJV61N7C6zPuATGoUtMSzHiXRsZx+L53kWu8t8NZ5G4lhsF7/w/LdDMzYWgg0qTzpOcpUck5knP9AvE6o5TNQ5g7kLP8GwzOtMZmth1GbUwBbrbOFEz/gqVjCfq06Zz+c1fWTPunCvgvO1Z77AGs868nOKbGpXPppjuzRfY+kB+2/NWhtnask5QYniF7AgXoRTO6gpLbbO6bxhG7Zq7aozn6wz01R+qj3oXBxTcaxTfObdRXF57khfYTJFX7RX85k8sZ6U4xZnyjiZV2PwcBjjt0vzNRbkh5vFAWW7XVld/SEeJ9JETZAegOpEH+mSrSOyZ97hwdoMU1xbfL76fFxshE02F+GqGFyI5kt2NVqxFnsI4lYBG1iNkwJsMZ/ZjYR3kbE8TK32iLeL1EdRF9uhGRvLSDdLclHMebhsZHpJGNsKXuM0hs0dNrKNrOfCqNahPmeZG3VBOhmG9YEdFoN10VA7U0O23KTGz8ksH4l8qnkplpPEKebTvBnPV8Kq3vw4VpVjjr1dmrGxOAFZLmjipzsVT0nhu6ATJxVBUTJvF/MhvV+N1E76wt900dxid9/I3tIHfJFbTPunjK8KzewyOEZzPyzLfHZpnr/M7TodhK3WprzGF/8d04yNhelNp5ws1auPNYvDFEMN5XHsqvEb/mZPYq+KSnzMbvNX+yHe7MlskZ34AsPz8rp4UCxnOVZEWd986CN8MVVj7pTnrWLIqM5swifMq+LRmJd5nnO7NFNj8abyhnUUO6SNM7nIdk7SVNLFL4Gw6jMV1/TCV/O2YvB+o1hiT2YL4iY0cif8afNpvALPsQynmBaW3lpXzUq4xD5RLDTOVvEUrzovxbJt+zRTYxlFyWGKNs+kthbPsl4hxchX0VVvMyNsljsrIh5kt2tx4HYlbFiwjMnXRLwropjRW+yIV3+205ynzWsNYPswfLTvZjy7Em9fn7TOLkXx9Gqivjhsn+ZrLNv4qBCeh6mDgyp87EoH2BwG1xiB3UM3Pqw78YHyGuxKftVDEcIWe2QSbDGHDvYxlvLW8kuGC/wLnOnVTrzPwWb248Eg1XMMXqP65SurqxiF8Qz72A7N2Fi9McEwvbF6kNHItpTxRRyJaRjHaZyW3WJ7kHHYgVf/2a9G3GR2xrFuQl/4ayzSu533kv01brhfHeyiMWRUc+jI+oRgbiOKFWI05ln0ald9T/L2aJ7GSglpczyxAdJ7ISsFSUqRnngPpQlVndqjQsFY4D6vFHxFU3NkvvDnYZCGn18znzK2iKdEhc065bmwPZ5diXcxiFHwkW6Kj3Q8L81d5KfBV7jx2vdpfM3fIs3SWCmtsTl+hzU1769QrOdhGFaJ3f0yFtwgAQYUr/lfWFJ9hCE+QYqSiefltbHN+DOsvSBdUyCnCGeU+eIMTB/FI7vH1WH6HLdqggA7tWfPqfoGWOMdn/1lvs1Jwvpk+501S2MBwOH9t4G0GTfGiS4Os9x4qWe+NaJ46pNlTnRSrLHcJOI/grJJ7TIMU8zFPPkXsdgmes9jYPN5GWN6shdz8hM8jmW6qTkn8BXWILS+ao0k29oK/wBbxdIx4lOfcPQw4eSkekr1yDRLY632zuH2vRP0J4eUIIyJML5KlImnFHYyDMdjjMQNcSybWjF2lZH0jhfxJvPVeIqTEMwrfpPFI35FLNPzNfMcK4zb8Kt4wRfnK/Zqn2wnvhmDdVM868ZaWp8k3H7nAOvuMQU+Ms3SWBcvP44371zC8dtvol8f+cYG4iSxHkHxKIYbjol9eJ4cM5w780XRRhi+GhutQ2I1iyP7uqvaI94o0pFcFa7gU8Yk0rGded+H6RTDezS1zMfXam3B1acxJpo3X6u12Rwac9D164SHD9b4xp3ruHDzoxmzPZqlsR5/8odwt/8g7t/6Bo7vvY5+fdhIkibF9IG9GI0YGi88TOL9IE4bGRsdHM/npP6ETS27Yg2vNoplo7nXCH+KvdjnxHC3KR+zR2835Vr4M5aGzzUVi3GDvu8TDh+scevOCnfSh/GB5z6R8dujWRrr6mM3cHD9x/DG7fM4vPUqju68hs3De0ibE/rchZwEEzlRRpYoEqsDMspyAhWZ4XQQviDS2QE24zGeYynWRC4+VxJPOikM1/uV+LOsjeO0HtqkvMaKRFfsg20a1+JZfPZhPePcUWTDuBDwZS2llNBvEk6Oerxzb427t3u88fYT2Lv503jyPe8l/+1Qd3R0JCvePqWU8MpXX8Srf/Sf8ezeb+PJyw+wf/EG9i9ex97BBXR754Cu8ySIt33lPtoKyCAkpPxDiRprCLMYyvwMNxq0iLNOZfap8KTjXz44TPyr+JmkyHgvo1J9fVflfOOmhSH/VO5nuIz2TtZq9vLjv66H10hrc8oamxuUG7YHngOJXtZsTbVeJxw/7PHwQY87Dy/j66u/iR/+5D/G+z/4IXTDxrZGszQWABwfH+OrL30Rb/zZf8Ozq8/h8Qt3sepWWO2fQ7e3PxwNryTv02vBbNw3lIsEoKMCSwC6rhvrUoub8ziAkVJUfAEe44IGEzsNvIXKoZHSUFBRGDvTlAHF0ngdvqwOXbFA5BeWMdBozTnAsKAin90Qx+aotp6ANCx+VHZ5va6qvGKyNbg4+A2hcjAubs1XXkaYRF6c7U3Osu8T+g2w6Tu8fXIZ30g/gyd/4lfx0Y/9NA4ODjzStmi2xgKAvu/xyldfxNf+32dx4/j3cPPgm7hw8BAH3Ror9J57v3llGpKfM9tlTQYMRZFP2iB0RbISpMKTo+CzKpIhhkEc442xy5oAn2vWc4PYmqWOaDXMd3435hhjMw64hOGFhN2HAhuA41YsT5YN3jHlJ9x79qO/Ci7PBcN66cUig/L6RplMI5/KnAy64cqurfiGs7UPuRnWuE57OO7P4c76Cdw7/wk8/eO/hB/98Z/C3t4eBdoezdpYAJBSwnfe+jZe/tIf4sG3/xj7J2/iXLqLDidFWTneS2w4wA45aXagbq3LZKR8NxrFssnkoJL/sxvyYrHNVHPaq7VUWUApDehV16HP/qvsZuF0vkEelP4WaGK/YT6CwzJxatWMKeJ2yC8Cw85HXZyLKg7N63Fzc/XdAfrVZWwOnsSl9/wEnvvYz+HJJ5/a+ts/ptkby6jve9x/5x3cvv0WDh+8jX6zVsgWiA9Kj0KTqsfzvSc+mGgHsxKnbPbJ//LUdR1We3u4cOEyHrt+A9euXcdqtftndt+zxlpooXcz7b51F1roB5CWxlpooR3Q0lgLLbQDWhproYV2QEtjLbTQDmhprIUW2gEtjbXQQjugpbEWWmgHtDTWQgvtgJbGWmihHdDSWAsttANaGmuhhXZAS2MttNAOaGmshRbaAS2NtdBCO6ClsRZaaAe0NNZCC+2AlsZaaKEd0NJYCy20A/r/86aOfhLWLFYAAAAASUVORK5CYII=;" vertex="1" parent="1">
          <mxGeometry x="457.78" y="245" width="59.78" height="50" as="geometry" />
        </mxCell>
        <mxCell id="_Jj7Ve39ARDFc18teFEc-13" value="" style="shape=image;verticalLabelPosition=bottom;labelBackgroundColor=default;verticalAlign=top;aspect=fixed;imageAspect=0;image=data:image/png,iVBORw0KGgoAAAANSUhEUgAAANYAAACzCAYAAAD12uLHAAAAAXNSR0IArs4c6QAAAARnQU1BAACxjwv8YQUAAAAJcEhZcwAADsMAAA7DAcdvqGQAADQ4SURBVHhe7X3PryXHdd7X9703v4czwyFFiaYkSqJt2bIcyyZgK1ZiJDIQwAhgJwi8TLLJIlnkB5BFoOyyyT5/QIAACQ0ECSDbcQJkYdkIIMc2YBmObcmiSJGiKFISNb/ImTfvvXu7sug6p7/66lS/J8+9LYvqA9T0+fGdU1Wnzrl9b9/7yO7o6ChhoYUW2iqtVLHQQgs9Oi2NtdBCO6ClsRZaaAe0NNZCC+2AlsZaaKEd0NJYCy20A1oaa6GFdkBLYy200A5oaayFFtoBLY210EI7oKWxFlpoB7Q01kIL7YCWxlpooR3Q0lgLLbQDWhproYV2QEtjLbTQDmhprIUW2gEtjbXQQjugpbEWWmgHtDTWQgvtgJbGWmihHdDSWAsttANaGmuhhXZAS2MttNAOqPte/Qc7U0q4d+8ubr31Bg7v38NmcwygU9hfWeq6FfbPXcDFS1dx5ep1XL58FRcuXFDYQj+gNHtjpZRw+9Z38I3XvoR7b/4xDh7+OS7imzi3OkTXAQnDcoYW65CQ0KEDEoAuN14aRKcOQErSmIyYbtg0lYHs6lNk2qR9POyv4Lh7CuuD92H/8jO48dSP4n3PfASPPXZtBC70A0mzNtZ6vca33nwdr37xf+Pmw9/Ah66+iPP7x1h1PTqkoXI7q2L1LpsjpRGUUoeuM4cOKSXvQdflpu7yBEPDUr/KfC4mC5Qb13q7B3p02PQr9Gkf944v4bUHH8XhlV/A9fd9Au99+sO4+tg1HBwcWKSFfoBotsY6OjrCa6++iG/+xWfxkf3fwjOPvYFV12fr0AwRedOksagxljlSsiYDNdeIQQK63GVjs+Qrx0uDYmi5AWNtaHfNqSa0tdw7voKX3v4Y7l/8FK49/Tw+8KEfW+5gP4A0S2OllPD1r72Mr/3xf8JPXPwNPHHp9vDi39kbPwyNY3esglZASsONIw2FrQ1ijQUUN5XxbWTQVCnHYhvr/M5nYm6ssY2C9WRdn1a4c3wNL7/zcZzc+CX8yE9+Go/ffIJRC73LaZangg8fPsSbr/0J3r//f/DE5Tu5LtNwl0i5qUBNlbr8Rm24f9jNKmwqk6ljLKw1QzIzdQA3ld0svalczmtIwxianzAmprxmu8t1CTfO38Vfu/F53Lz3H/GlL/xP3L71neZdeaF3H83SWHduv4WTW1/A+658Hej6ssKNEvKdwIq5bojAK79Vy13RpfFtn/nlEfmazt7e2ecvmL+Rq3PzJ4e5fVD5aoDUY3+1wbNXX8bN+/8VX/yj38Jbb32LnBZ6N9MsjXX7rddxI/0/XDo4GpX02UjfAnrdUnEPkFzBQydlS36zl2PZXaFjCLEpx0oujCC/o3Rd9TbRmwrFe83qbmdvPU1xsLfBhx/7Mp64/1/w5S/8Fu7du5udF3o30yyNdfjOt/DeSy97U3RdR++qOgAdUqKldGOj2VtCUOGPn6mG61DDwwOOxHe7TP5Wzgp/7KXcOh3Q5c9Q1ri2VoUyxkR/Gzg++GD7wWqNjzz2Eh5/8Ot48c8+j6MjeoFZ6F1JszRWf/IANy/cy1J+uobhrmBN0OXPXPwWzoq0/GxS3k3cJHcM67URSfVujMXJuOHJ39iYRfwB4OsaRhlAH6IYpQTsdT3ef+VlbN78dbz84p+i7+2J6ELvRpqlsVLqsbfaUCVTAxlmZL247amFPbSwO0OBz8050vgkj6fw54+moCch9hkL1vYWM/ps1nX+OQ7WyFl2dXGbG6e6vP8AH77wh/jOi/8d33j91RK00LuKZmmsgexxdUBy50Au7oLs0aDL0lASPIGe4Jmr322GQMwr+WemYE6fN9gQv+3ME1j7AQm4ceEOPnTwu3jlTz6Lt779zeVJ4buUZmushKE5/G1XlxuKCpfvTEgYPmtZYdLdgPvPmyWNj9YH+/iE0DA1DcGKt36FuSsesQ/zuJFvejnOMJ/0IpC/AkAHrLqEp6+8iac3v4m/+ML/wttv21vkhd5NNFtjjfeIoIBJGHqt/ObVCt8pC3w3GQqYS3q8QybAv5Ny8maht5e2MHccHkckjM3Ov+5wztaXfQc8hXGPLCfg6Uuv48rb/wNf+eIfYL1eC2Kh73earbEKooobinosbngTAMCKa3y8k5luZNEB5ecor+zOH2iEjQD4nbTEZb6YpLyDGSV+4ejG94q63oGGO925/TU+dPUvcPL6Z/HyV/58aa53Gc3UWGXjALlAuSCtEPmzWJfy00JrtLJK+f40fDlMBqtpq3Ny7YYuHBqiG5rBb5Dd+HloaIIczJ11FfrQYvwsOIjj201Qo3YArp57gOcu/T6+/cUX8LVXXlyeFL6LaKbGKotx+MCef9JENv3MMhT/WNTcXuOwwre7ySi7Jxf62DPeEHaHtIbD0M50ByxbyXE0DDF+1zZOmII5hjswcOP8bXz43Ofw9T//Tdy+9R2bYqHvc5qtsTr/py5oo6Kp5DNSRawkPtlbQOsJsldx8jwD6RfL49O98snhyNfrGx+ydB0/qMlxrKEcDwAdbl64jff0v4sX//R3cP/+/cK60PcnzfLr9j/4nV/DJ/f+DTWSTUm/diBK/MqecaWVm2K483X5lxMBMgckA5B/pTGqz56EYmG56QYhJXp6KSQ3vYqON+fxxbsfx8Mbfx9Xrv+Qmhd6BFrtHeDi5cdw7foTuHb9Bvb39xWydZqpsV7AX9//DAB7q2Qv60PBVbVI1T40zVj4jE/0uGF43J5/O0EBE6yJyi+O6Y3id9FURU9lyg8+pKMNY/pWY/Fd7fDkHL59+AQebK6Vmx6QLGTiPNqkudF9QTlDtIDxDkpfSRDpL12GEIKz22+X3/TkJAz55h9D03lXh216W7YnI9wuRcpm/XnaYChwCVinczjs3oPNxedw/elP4NnnfhLXrl0Xx+3S96CxBl3i75kGxUg5scNnnDGVdi7DGeaDA/zuA37Txgkv7k420ehTgulQ+dE6r88atYP4Ci5vZdB3xVzDHuzBjK4Bw/pMXTSAK/Ncq3GdNPfgO7zQuClh8LUkOtY+cA5V2eUXPEp9Jto3T1m8+NmG80odWwajpZZfk9jc9LI5SJYzU/AZZFV+x5ByzyPP3yegT3t4uLmArx9+BA+u/R0888OfwtPPPItz586NAbZIszbWeLgYmqbbR3fwOHD+KWDvMoC97JGLhrPGRCtOwHCfyn+O7wk1gN0V7dWUiJPPDTGUI7/JIzJFtbRBUb3aFzSstkmpB/pjoH8IpJNBruA5hheP3gUyVQvXpY+AYslE4x2tTHgJ1z0Rnpu3mNdeOMnVOzlaTDVpRSmH8OXmu/ggJqTNMfr1EfrNGm8dXsfXNn8DT370H+AjP/LxnTTXLI31+9ZYiTK8dwXd1Y+hu/HzwJWPAQc30a0OvFhsUUPe7Y4z/ltmmg/WJjBe7X91yFeXAKRjYP0ddMffRtrcRdcfAmmTgYakPWc2f30dlKQD8j8ao0QD9DLPOuX9EJkE53OaKpoz4Iv5yaeIZ1jiffOpwiUkoN+gPznE5ugu1oe3sDm8gzsPL+LLx5/Gcz/7T/DM+5/NPtujeRrrcy/gk/ufGfbadcDB4+ge/xS69/4qumvPI+1dnPMB5V8hysXcP0B39Dq6o1eA9Z3cUPwHoVJcrQLUq7H0pfWIEbzFL5rABrdto9D1ynGque064dO1YlAs0/lP3zimyRju/Ckh9WtsHt7F8d3XcHz/LXz11k3cvfmP8PynfmXrd615GwsY3vLd/FtYfeCfAlc+7p+Kxu9/trecKpIpTruBVY5TFIH1bSdPPFo6nGBvcxfd8TewOn4N2LwzFoc1lxeMXbJ9VAiv2Oia+QJjOsaqjXjWR9fizhbhpzBZ1mYq8KRvXs3HBSAl9OtDnNx7A/duvYE/vfWTePaT/xo/9MwHCPfoNEtj/cHv/Bp+dvVvh41deg7dB/8Zuqd+GQn7SCmNA5TDkeFLcADDB6TSPnaO6YcXQPWtqUJQAH+BbK2GhCpOXtcQI2GFExz038S59WvY29wa3gqiB/p1/nxljaW/xrDIPJkvrC6kiD8V02i64qp6E6dwvIZANxpoDaQ3ubhDkT3kSUc+aXOEo7uv40uvHOPe4/8QP/cLv6IOj0Szvf9K9gJ04RngsZ9Gn/aw2Wyw6Xts+h69j80wNn22b4brxFj3jBv81nk4xm02RoyPNcVdD0Nt680GJ+txrNc91uvBvt5scJKH69brPAZ+sz5GWt/D3smrODj+CvY23wLS0dBI/RHQPwD6w0HXnwBpffrAptal9RAz4gu86vNAll2XmzylfFW9+Rkv+sK3z3FNR3qXU347bINkt1ljMp+HxyDZGy6h2zuHg8tP4D3XgaO7X5FqfXSarbGAHikl9HuPIR08RY00jE3fo7dG2/RlQ/WbwVY1x9AgQxMOo8/+fR5FoxRNGmCCMcy7LuXcyPZCUOPzi0PGDHOtgc19HPRv4uL6RVxcfwX7/e1c1CdDM/WH+W5VF8I4TGbKst8tRK98gWO9/RPF0aF2M5ltAneqPvBtrTnCuSpoMMLvHVzCtetXsbd5x3Xbotkaq8/7TdjHBueG4ku5qNdUvOs11lTIw6v8ZtD5q3892LYxbI6zznxxNZ7m2hS2en7z9buZz0d228N6Pdzl1kND7fffwsX+FVzavIjz/etYpcP81u8Y2BwOj9j7TaOhjMTmRWO2Bg6WfMUrbzFZ1YpLuvCFgOzs5/FFX1wZq5iIZ6wr6BqMNHy5feHiZRyc2/4vMWZpLPv81Ceg75O//RsaKhfleoOT9XoYJyc+hgIdrifSQDZGrPkd42R9jPXJyTDW65E/OcFJjlfGsLmHsV4POFuT4n3e9RrH6zXWJ2ts1ifDdyXrI6TNA6w2d3DQv4lL6au40n8ZF/tXsZ/uoUN+C9Y/zHepYykgBDwVihUn9HPVaTGmeCnMjm3CpzxnWMwq52uB1fUGPhw3kX5UBLLG06uJI647OI/Vwfb/ZxazPLz4/c+9gOfxGfR9h/Sev4f+R/49+s0GqV+jS0dAWufvG3r0GA6gzKUu0b5A5tyVX5SO55IZw7uNvsZPGObP0OFLxkFI+ScF9oXxSNmepQ49VuixwhqrboM9PMTB6hDnuvvYx8OMtM8c66GZ+vzAoihOjtrgbf0FCY4xnqcgFsa9VvrWwxBXBbaKz/KZfabmINnWVa3RKEks/kkJYVKPz7/0DJ7/xX9J+kenWRrr/37uBfxM/xn0qcPmyV8GfvjfYdU/wCrdxz4eYIVjdPkDKBd4/Qo38IOkBzAIHfIvZJIUV7b7hV6Rx6eFI7b8Gpqbzn5KVMbtkIbm6jZYYRjDh2rz3+TPT8f5M5V9KGcK1sq8qU59Koa6gAqq91vGU3yOd1qD+jrVf0qm8y5+mjXhc6a9Zf60WEj4/Evvx/Of/ueke3Sap7F++wV8ov8M+rQCnvy72H/uX+F8dxt7OESHDW2UX9my3OTtEFR/Rl31FopsiGzFwkTPB2j+9PTKHlCk49xg7K+8ysTrHiI+ceOJrZBtnawzCuQqLtn4+t00VZXjU+6ujxq7wX/+pWfw/Kf/Bdkeneb5jJX/f1K48AzOXX0vLnTfwj7uo0sn+bdxx8DmIbA5yo+cj/LnD+Z5ZH2B53Hc1qVAZ2vwEekmxuZ4fGvXH9M6Hwxf+m7u589S+nDCsmNXtgkubKoIEzR5hc1XxzFpbJKLuEG8ZiyVI1+mBq54L85+sibPsWICPkUvFo9Os9yxfu+3X8BP7f0HnHvv38b5p34eq4PLw3c0fS5I+56joCgRstSw2JjXpEVxOMkTtogv8Hy1u1UeVVyVhTexeVclOUV3kjPEVn1Bdoci/qz4ybsK8UXMU3wKc+TDcadiZdnmznfHz7/0fjz/i9+Hd6yu28Pq8gdxcOPjWO1fBDYPgPVdYHM3f39zRG+Vpgbd4bwpg+GYk0Zc1p8IjvENXG88Y2ys84uEfdmJoAhUzlfDe0G3ikiKxedQG/HFK3MDYzLjPDbpCtLCZzIDrSvZvtjGFMzldyrzCzCqLhTsR/rk/2ydZmksrM5hdflD2Dt/fXhbtH47N1NOMj1ICBPiKsZyQlo8yw29xT21iJP9DF1w0VpUbvG2BinOU+/ELOt8rLfYjDNswCs2mc2IeMcSFTlkXu2uEF5lnkfthHE+mFP5RC9cYczt0EyNdR4HVz+IDifDZ460LjdWFTVtWA+6KjrxSazXuILz2OwT8Dxn5eOGUS5i81CcFmcDZ2twUZuA8VFsniOSM77Sa2wTmWc744I1u4PgjOd9pciHeMdkXMcN0/LJfBXX5O3RLI3VrQ6wf/Fm/gM+/nMIyOYoAdVeg0QZXxxEFJvlFi6irLfPDlxQLf8qthtIH8UiWxg764uiUEwkKy9rCPelAwFW7DpPITYwupaWrdDbReav1ka6ZGsIYu2IZmqsFVarg+GX283N6UaDRJ2ZF7lKMBPPwck3PGOMGEO4ydiqi+SWja++KOGzbOuJbH9pXklxJPP8/tb5rGvJcvGZingPE/j4NfNVozJPeA21JZqlsQZaB79ChvCWkMimCeGkKCaSz6InW2Kc2AqM4jRmvvIrqu9RY9s1moexgRw2lM4TraHlwyqOY0rGRoP9FEv+LrIfy1GMyG6+tMcpvOMYsz2ap7FSPzwxqzYg8mRCCJPy27MzPY5u6MO49qoY2Ao/u6ie51KbsRGGhrsJX/mY2Jin4FluFR5jKK7mwn1I76ziAt5ZaqqiwGU+xtdK4qN9abx8beZsezRPYyHlv9UhmTdpo0qCbJoTF/o4MF9Yr7GZFMfUsk3xuk79YD3BV98d6XqIqv3ZVfS2hhAfyFWBuqHmXUWN4m/lst7ZHK86u2gthKnwjMtXXkdxFf1kDrZHMzWWkSQm3GSAOTWxmWfsmYsjwvFcNMK1aLx8TXbY5KvxNGYVm/wjfBibSedjXYDRuBVG+NSwJZaNDfxDntdhpLyOSB/gm2vYPs3YWCnvZypxomOM/zf+NHmWNANGcQM5ncXH1pzxLYyOs8Rt0hSuZQtwnmfSVT4kN9dscuYTggYMcCwXuTMKdBa7Ugof7o2vmbdYTazOtT2ar7GS/yPKIClVIrJcvMUwG8Wumo95w/JBTxyQ66NYRsIX5gmcXRKvmWwFb0FVVhzZvOgjjMqSD9Z/V7zIRfHbeniwD+NEH/L5ak8dC1/VTcVQ/fZovsaa3AxtuHjFIr56UGGF3IpFvB+yYaMm5DWIf8WrHMUK4hrPa+Y1OZFPEUIxJBd7bGBMZmw1f4vn+SOMxC706mOk+AhH+mRnk3XRXKpTO2Mcu32asbEgSeONkkptyE3Ah5oYQz7Ngw/IY7BiInZB0cFM4YmKg1Se5vUiyrZwb2zTORtyc36ViU/s18CA16ukhmi9po/k6Fxa64iohT3N7y9PMzZWY0PFK0q26RM0xliC3Sy+6pf0R5zKk4/FLjCK4yJnHGNsQsJXTajzsNiyKc8FJ/qCz/Lk/GIrIBInosKksZlIPut6kunYTrzDNV4UV3nFbIdmbCzUCWOeX3WjwnJz5M/6zPOhFa/oyhur+oAPm0ObhmyuV5vgXGzEVxysmFh/Cl/EZYzELfjW+skWrpmx6gPJS4AxucIF+LPE8ViYiLddmrGxaAO2SdVHCWnaGno/ZLMxGVZihz5nwShvsuqMWnqLr2tTPBVIcw3C63KqB0Ao4xaxdS1TvK6B7cY29Iqp9qjYLFdnwrLpVG6tYbs0Y2MZ0aY8MZoUS5yNwBbxRb4UF83RWgPjeH7FRPFMHdgK3vC2hhaeZI+rsRhHvIs8X4Ar+LNg7MJ6k3WA9siYgG9ijKJ4oo/8XB/47IhmbCx6JeqmfmjZKIgiMZIk91GsDsNqA0zFZZsbhLfYJE/G5n22MEaBLfzziDx4f2Fskh0bPSVV3nxMpRiNb6LilM8Yj6lD9FU8sRXna/goFtu3T/M0lu/FEpA35Zs1G/FFApnOglNMEAYgpQI07kRsZ6dwTFpEEWUbFwrbTt2zyi3bGdfPxVo1NRGHKOKdElf1TDavXQclA0ZcQRqX1lNA1W87NE9jAXEynCd58pWTZE90hDPiw0CjWRiQMa4SW2ueKu7ESByHiWPYhecQubBZ8ZmeYwnPhVphVD5rU7Mc+PhV9MW7lmB4c2oMwVTzRX7Gamyxb4lmaqzWZqOEGB8RJzLyn8JFsQMf1ysvcSx+WGjEO87UipO5inVHuABfYCb4Km/RHMSb2J3ygje5ZuMVj8Z6Mp8CP8VWew8wzqPEF/vZPs3UWEpUaEXhtZJlcovEx8TwFZFlmd9tglFTQY244L0EtiqY4rOu8GFTtGblKUQYe4Ln2D5XhNM1sky4Ii7jxI4optjPxJuKm57i8hyB26PSjI1FG/ONtJKiPDViZHOeMVExqNyyKYbmqZqfccQXoSdwGr/QsxzZWryp2FYYYt4aKJm+FTvz1QsHk/pzXL6KvYrZmpv4ai57MSC/IhfEF028PZqxsTJVrx5BUow/00FnPnFsxTCOh9giHxancMxXcRu8hzKfABPFTvpWRjFcMIoTmfNR4IxUfxZ8lotc8/w6MrbSW1yOM4XVuXg9UTyzb5/mayxPCCsKY8knfSvX4D05E5giNpPZIn+Lbaop32yvCoixxLtZcUakSxybbMyPwCBuNAcXqOgLnmPUbBtvsXVuiZfyP74Ovp42ZxCrqi/FZt7mLQNvleZrLN1ciy/yocmRYQnyEJos4r0wTc9xmYLCDw+eqLK7QXymDjWIEe7fjSXv5gmMjQJH+kI2Yt4eYrQw9gIQ2Tk+Rkxiu/oRPsRILCf1IT6xXfnt0cyNFWyU7b7pqWFw1Ussk/2g2SYYlpPadA7yKYoowrOc8ewfYo0N/CuZ+Oo/JhrxFpcHY2T4ixE1jIeKsN9F3MJuvBHPp/7iV52tYrO+iMVY47dLMzYWU5CMFOmF91xMJcSw0QHyYDz5FLEj3lRscyXxIhcFgCC2YoM5FeMhtOADvsqHG4gnSvYPn02wrmpfEIzMVcQivbMRpoEt7BHW4oku9NsuzdxYmoDMJ/8n2KzyUROSDZBEtvgsu1sLJz5hgdLcThR78mBZx4OJdVIoxVoiXudvYNiWiGe98ha3wAfYlLFVXJb5jhLEYL2dQRWPeD+nifmK63ZpxsayZHBScgI8aZokS6ThRB/5TcbLV8MwdvJQc9wwNuNNVizp1b/IySl4z1sU20j8T12zxmec2E0/mYtWvLPiArvrzTaF0TlbWM57hm2RZmos3iSreeOubCQkwjE15gBif5+7RdFc6hPISWPr+tUmlFRPfBeNILYVSxVLiWxVPiyAYCbPTLC8zgJLmGqNAZ9o7gKvsSJ7g+dpdkAzNZbkSzdZ6EX0RLUSJKPCyTwej0nXYNjTCon5aD71Ib0VQfGj1gafIPtkWXx8vaL39fA6jJW1VRjVaVy+UjwPp5ipvNo1Dz9THuJXrV/sThaTZb5uj+ZrLCDYuI6cJC/oCJ/5MJlGLEvsKp7Kxp42V+Ydy0WueI5lovlEWG4gsymGZVDORF/wWeYcN/NMsosBhucN1xBgm3Maz1fVEfZMsWik7KP6HdB8jdX8D+RnKg4Fgsm8JcZMVRiOLfEmY3NAlRknoh+SXabwtO6CeL5Ir2tiW0SKY7I1mF7jEO9NoLjI95SGqvyM1J55mzcxnv1aeuW5mfltM2N5Dduj+RqrKGzUiYz0Td5I/YgvxFaMgE/2T8tnShfxPD+C2GyKmq/lS7I3OMeNcJmv3n6KHOZLebvoPKKzwlZ9i2/OzToeEZabiXURdjc0X2M58cY56WaL+CxykorkCM8JrIrOiHzsEAqs+pCuWjPFUp8qpuI4ZjQUbyrbp9ntyjjaG9uq4iW5uQ4ayWJEcVTXiksYi1edlcYwMdgT46vzIZvxxZlvn2ZuLN4k62TTylvCq4S1EqU45skeFV2BN5JDNV0V21haTxXvjP6R3ny4AB0b4TLfnbbPaL1qN5XGUDzH0qeWTIazGBorj+LslRes6cK7lJH67YZmbKy8CU56tTGSvVFEPxjp2orHiQv4ZkEyRX7GM5FscYu3WxanMWexlog32S4T80d86GMU4ENd5l2MMJyfPIq5WR/5M5+vHaaxKdu5XqbyWdhNv32ar7EmNxQkoLCxnofFbPkLrppfB9n8sE4rfMWRznFMJFsxRPMzedFEOB1Zf9qaDVPFlfhu0hjMUyz253xUehfomnmPFdmjwVjVZz7luKov/LdH8zVWlQDl+XBMz0kgKjDMq2ys8M2iz7qUr6qveI7FeuMD2dXRGtjHYvNo4FylBc4Y8q8wjVHMb3iNp7GMxMfXNoHxOQNe6dRaoVz4PhS7O5qvsaoHD7pZoiKhEzY3MUZ8woNU3mQuEtGzHBaIymJzyNQ8Zqa9nWWeonBIr3yxbr1m3kJVZxDgfZ06n/iEe4gGY/Rt4FQ8sSOqDbFXY7s0X2P54dMm+KALeyMJjElsE97iRofiMvPkx/NFOD5Ux+sLR+aLdYgt4jleC+O87nECZ9hIz7rUsou+2pPi83USx/GMVb1ion3QfJFfgWMsx2P7dmi+xqoWLxuM9E0fTUYrFlMjyYkTbDgm8mmus2WbiOWysQ19xKcIz3MS76JiSGem6gmeGbKcrPkUwzrCViQ6h5NfFY/tPCJMa16MfjtsJqYZG4vID0g3KDybw8IvAHWywr92BSU486wvqGVTXmWM6/UfoOo6CVc1CeNEXxXFaXwLb/EIU8QWn+YaRZdwBqzqeWQdn49dCxI8onnPYte426GZG6t1Z9ANUjL9/42liaJk2SEUOC0U8puKpzIXfvFXuoazq/iY/qzFWv0FsF2juGyb4ItcK8YuaiM7pMCrwRjNqw6JUcQ0Mlvkx3iOw3M3MB6T5+C426cZGytKWNYrxjbdmbmBrwqNeU0aJ5Z1rBc/PoywwMzG4mnzMIZsRWzjGaY+dpW4ya6NOFPr0vndpBi78pmqnXgvfl5bw49VyPiK1E/j8VWxqud9bo9maiw+6Czr5nyDmfcnQq1k6H+iOOJN5kNlfcQbzuY7DWf6yEf9s49fW7EbPlVsogLjSrrmYXtLfWAXv+ouqnPIGiJsc+0ykmF1GBmOcl7l0HA5Fk9XxSS++Hux7dBMjWUUbUyTqo9ZDcs+jadwzmd/S25xAC0+klmnPqo3W4u3QmjYlPf16zwy5ySmVYjk75hgFLEC3uKeaRhJLF5fiKXB63decWjgKK7NmYwn25Zoxsbixcsm1RYdKiejIo0d+LvcIpoH/B/EZDKM4Vxoz1msu4UjvlnUJrOoOB0OzKL4h0SYKj7xVTyy+xLUnwe7c3y6U3outPgbPOMLeySrfrs0Y2Oh3EzKiajsymtSKYGJccJXf3tD8Xh4LJmnFbvSMwXrRL67VusJ+KoQ3UBy5r2AIiyz7MeUAPSNOZVHmZ+ieI1nnen5KnxxphIrsa6FbfESq7C3dNunGRuLEyVysUHivXlYH+BMrhqkhc98EZuJ5yJsVcxR7IxjrMqVv8VGqWPZ92bYIIZiKwzJFUbsFY7ffkexTNQYGevrP2W+72ZUMRPFjdaY1xlit0vzNRYnIfoPoLisvGLYlnk+fOhnNE0iFYHrGMcy02l6E1s4I9IXhSE2XgvvLVxHxiadX3nDsS3CGhtgEvNaqBpDffK1mJ/15pL5opGFr9ZmV5mnym/Lb7s0X2NVpJvNsieDMYqLBuGahcoq9lOcYbkIgnkUV2AZQ7KrolgBHvwXvw278c1fTmDMaVHUjGU+wsj+3BzgQr3qRB/Fq3LEvAxtnsLX9GQ3TIXbDs3UWFNJIIwmp+DZH1TM5B8NTl46Q2xQbMNUySe5OnyJxXJiOeIVz+tXbOaL/SlGsH5lvcQO51Q/9p/gqzhsp5Ea+mJkTIrOnGWcfiacs8J/ezRTYzGdtklNSkSKCZJUHICZVMHrsKEY5hmvRUO2Am8iywHvBW0mjRXwvNYohxyv+M6P4xmO9+OGMlbBi91lise6Fl/lxa4Sy8bUz9T8GsUzNljDDmjmxpJNcfKLDWcd857PrP+u3n/bEJnV4Qdz4T2sxiyMJT7h9EKsdPaiwPOQrxduNNiP4wU62DwREdbW7/Oy3ag1R4NPOV5oj8j8FEv6xPthW56rqgvGbZdmbCzZVDKdbpZ1LT4nKsJz8qpXacaNsHbBKE8HqPpCtovMWWAMF+XCeJvTcDq3+HFxeX4YE2CnMGCM6QwrPrauIqZgfW3i6ziKUayP4xkRpsgJx4t00dg+zddYnISEYEOSiALfSozgIb/ICA/Z5id5ks9yaugL/jSczFEVTuDj8VivfiiLK3zqyjGMNJbMU7goJl+r8zEKsIVedcZGeo2layO98xZL1xDptk/zNVZBmrxog1MY4Ys8RQkkvSU7/MJWfIrG5sE+xNv8bCqFUWdY1vlV4ql+NGZWMFVBWbxT7IYp9mwYB0g81gd8FU/jkl334byR8hqPMfla7SPy2T7N11jVb/tM5mtORHhgmpCI14KNfIxlm2K0EMRX/cLCCYYXEMfTOTRehI1whjEyjMoSo2ljP+J9D+KrfLiHVlzWTYxibo0rGLdpbBY11vZovsYqEmCy2KtNTmDtUh2w+Ljaiqw1B2Ga6whkn1/0upZqncYbZb6K18C6qHHJJ9ELGruz4HsWPccpeJbVHo2ItEmyrvKJ1qYYI64fjptt5lM1UxTr0Wm+xirWH206GoTlg0hZVoxTFF/1IhcHzBTI1eFkfYt3kedo8apjPfHVn3SI3fhqrdEcLd7kfC2K1Yjt5q44NzTm0jmZsi0Zr7ZIbzqJrevawZ+LGM3XWLr5qlEYIwkpfFk/ZdNCUD7CtTAk6+FoLI2bAn1hlzxUsWhexoRxlWdd1lsco+aDDpGb8+naA7vrst6xjCM7x60wGjfH85gR1ngmi6/67dCMjWVEmw8fIChlffi9lSQyQQqQsexD+qT6CEPxC2r4VIXGg/2UAn0Uy2XSu9l4jqXzGy5aT+Y9j1yAEsfm8l/vazz1iexGxIdrU3/ep8ZnP4vH+gi/XZq3sYoi0aSYnnhLbjKsEeNZp4ni+DKHrsVtzPOBmE5tpGsWBNNUsfJgX44hOIdH/qbP1wJnap4j82fJNa8/xIvK8l3lh3n7MxYebKdzS9zMiiVMFU+wbt8uzdhYtKlkstpI9r1LIgqeMNXh8iC9qzSWxhPc1AEZvogVxC/WGdgr7FTxsF9k5zhaQBEep6zPSHU0D8tqb9l4fcUajSi+m3RO1oHiaDxZR8q8TrkFmq+xqsS7gfgs24ZDHCUlRXFZNooOJl+LD7A6J9NEXPDbIcZoPLU3+GT/aPEwJu9n6qdYRYEF9kI2Up3iM1998Cc7N0l1PpmvGqm1Dl2L4mXeSK8YF6M5tkPzNRYgG4g2zk3FJHJYMAWgIQY+xcHbhePryPao4N2XZBc1hmL1wPVKI9H/OFvXb3wRZ4K3Ai+K0jA8GGvzNua265nXptTw8yvPYaqzYCP9bmjGxgo2bodTJEc3HyWGSeOK/2RBM454tVW6fOXYhb/IzaIlsdCznQrfijrECo79eS7jHaeYRrwij4Jt2g0jWNXp4L1W68xXs6uvxrb5qvUpfrs0Y2Oh3Igly/fFG6TkFInNuupXHJIgPxSzMUksnp/56D8mw4ddGso1VPMaTxjjwwNXrBFhijlk7U3KtqJQG3wVRhUaK/O+Lo0XnKNfKVaFCWKxrXpaTDYXNWbEb5dmaqzWRqOkNRJoI0X+TJFNYvDo+DDJJ3GszIefZ3jglEYxlvcR2JVvFY8VYjL7GUaxV/YjvtgDYwUfFqzoms1ivLGyhgJH+mS8qQOM2R2r8ZTfPs3UWEy6SdaxjDJpSX9vKEkqDjCIxT5JYrvSjafElfiO4UF2jVdgIny+plxIraJLrGNf0dv6qjXqXBNNwLZmLIoHXp+R8NWc4t/iPa4O04PW1yCzT0AehWZsLE0i6f1Km41woS67hR/miffwrDdin3xNcoCtYuI1ReuzazW3rkPmjOYqsPnKOuaL9QZ25qtYSrSGIr9sE77KM2F8bUw0R6EjPplO1yD6sAaMSPZ426d5Gsv3pxuWBIXFoMlhLKsnDsvVEreYj0YijBNjjFW74jSeYo2P1hFgiz3qfA4i3kTF0ijsUxgmjkc6W1+1l2gwsU4wHtNs7EP4Ym7FEq7gW9hHp3kaCwg2w/qIVH/WA5N5kv1j8TguYe3wHB9gWFXE09h60DrErygGLiLTG8bswXw8qjkVaxfF6UAQi+PkURS0B2/gorf0jDea2ofoqrkbozgTxm6fZmwsJdtsTkyVHMIUycn4gqbk03gtZJ2bscaqPsLyXEYZZwVWHTLjiPcCY7vE96IxuxtiLCIs0eTaNOZpvOjCwpaY1doEm3BK3ZCuyAsP1m2XZmws3aypdFO68axzUfSRnBAURsB7wpla2Ix3HWOMsr44bNKH8ll51bGsOuUJV61N7C6zPuATGoUtMSzHiXRsZx+L53kWu8t8NZ5G4lhsF7/w/LdDMzYWgg0qTzpOcpUck5knP9AvE6o5TNQ5g7kLP8GwzOtMZmth1GbUwBbrbOFEz/gqVjCfq06Zz+c1fWTPunCvgvO1Z77AGs868nOKbGpXPppjuzRfY+kB+2/NWhtnask5QYniF7AgXoRTO6gpLbbO6bxhG7Zq7aozn6wz01R+qj3oXBxTcaxTfObdRXF57khfYTJFX7RX85k8sZ6U4xZnyjiZV2PwcBjjt0vzNRbkh5vFAWW7XVld/SEeJ9JETZAegOpEH+mSrSOyZ97hwdoMU1xbfL76fFxshE02F+GqGFyI5kt2NVqxFnsI4lYBG1iNkwJsMZ/ZjYR3kbE8TK32iLeL1EdRF9uhGRvLSDdLclHMebhsZHpJGNsKXuM0hs0dNrKNrOfCqNahPmeZG3VBOhmG9YEdFoN10VA7U0O23KTGz8ksH4l8qnkplpPEKebTvBnPV8Kq3vw4VpVjjr1dmrGxOAFZLmjipzsVT0nhu6ATJxVBUTJvF/MhvV+N1E76wt900dxid9/I3tIHfJFbTPunjK8KzewyOEZzPyzLfHZpnr/M7TodhK3WprzGF/8d04yNhelNp5ws1auPNYvDFEMN5XHsqvEb/mZPYq+KSnzMbvNX+yHe7MlskZ34AsPz8rp4UCxnOVZEWd986CN8MVVj7pTnrWLIqM5swifMq+LRmJd5nnO7NFNj8abyhnUUO6SNM7nIdk7SVNLFL4Gw6jMV1/TCV/O2YvB+o1hiT2YL4iY0cif8afNpvALPsQynmBaW3lpXzUq4xD5RLDTOVvEUrzovxbJt+zRTYxlFyWGKNs+kthbPsl4hxchX0VVvMyNsljsrIh5kt2tx4HYlbFiwjMnXRLwropjRW+yIV3+205ynzWsNYPswfLTvZjy7Em9fn7TOLkXx9Gqivjhsn+ZrLNv4qBCeh6mDgyp87EoH2BwG1xiB3UM3Pqw78YHyGuxKftVDEcIWe2QSbDGHDvYxlvLW8kuGC/wLnOnVTrzPwWb248Eg1XMMXqP65SurqxiF8Qz72A7N2Fi9McEwvbF6kNHItpTxRRyJaRjHaZyW3WJ7kHHYgVf/2a9G3GR2xrFuQl/4ayzSu533kv01brhfHeyiMWRUc+jI+oRgbiOKFWI05ln0ald9T/L2aJ7GSglpczyxAdJ7ISsFSUqRnngPpQlVndqjQsFY4D6vFHxFU3NkvvDnYZCGn18znzK2iKdEhc065bmwPZ5diXcxiFHwkW6Kj3Q8L81d5KfBV7jx2vdpfM3fIs3SWCmtsTl+hzU1769QrOdhGFaJ3f0yFtwgAQYUr/lfWFJ9hCE+QYqSiefltbHN+DOsvSBdUyCnCGeU+eIMTB/FI7vH1WH6HLdqggA7tWfPqfoGWOMdn/1lvs1Jwvpk+501S2MBwOH9t4G0GTfGiS4Os9x4qWe+NaJ46pNlTnRSrLHcJOI/grJJ7TIMU8zFPPkXsdgmes9jYPN5GWN6shdz8hM8jmW6qTkn8BXWILS+ao0k29oK/wBbxdIx4lOfcPQw4eSkekr1yDRLY632zuH2vRP0J4eUIIyJML5KlImnFHYyDMdjjMQNcSybWjF2lZH0jhfxJvPVeIqTEMwrfpPFI35FLNPzNfMcK4zb8Kt4wRfnK/Zqn2wnvhmDdVM868ZaWp8k3H7nAOvuMQU+Ms3SWBcvP44371zC8dtvol8f+cYG4iSxHkHxKIYbjol9eJ4cM5w780XRRhi+GhutQ2I1iyP7uqvaI94o0pFcFa7gU8Yk0rGded+H6RTDezS1zMfXam3B1acxJpo3X6u12Rwac9D164SHD9b4xp3ruHDzoxmzPZqlsR5/8odwt/8g7t/6Bo7vvY5+fdhIkibF9IG9GI0YGi88TOL9IE4bGRsdHM/npP6ETS27Yg2vNoplo7nXCH+KvdjnxHC3KR+zR2835Vr4M5aGzzUVi3GDvu8TDh+scevOCnfSh/GB5z6R8dujWRrr6mM3cHD9x/DG7fM4vPUqju68hs3De0ibE/rchZwEEzlRRpYoEqsDMspyAhWZ4XQQviDS2QE24zGeYynWRC4+VxJPOikM1/uV+LOsjeO0HtqkvMaKRFfsg20a1+JZfPZhPePcUWTDuBDwZS2llNBvEk6Oerxzb427t3u88fYT2Lv503jyPe8l/+1Qd3R0JCvePqWU8MpXX8Srf/Sf8ezeb+PJyw+wf/EG9i9ex97BBXR754Cu8ySIt33lPtoKyCAkpPxDiRprCLMYyvwMNxq0iLNOZfap8KTjXz44TPyr+JmkyHgvo1J9fVflfOOmhSH/VO5nuIz2TtZq9vLjv66H10hrc8oamxuUG7YHngOJXtZsTbVeJxw/7PHwQY87Dy/j66u/iR/+5D/G+z/4IXTDxrZGszQWABwfH+OrL30Rb/zZf8Ozq8/h8Qt3sepWWO2fQ7e3PxwNryTv02vBbNw3lIsEoKMCSwC6rhvrUoub8ziAkVJUfAEe44IGEzsNvIXKoZHSUFBRGDvTlAHF0ngdvqwOXbFA5BeWMdBozTnAsKAin90Qx+aotp6ANCx+VHZ5va6qvGKyNbg4+A2hcjAubs1XXkaYRF6c7U3Osu8T+g2w6Tu8fXIZ30g/gyd/4lfx0Y/9NA4ODjzStmi2xgKAvu/xyldfxNf+32dx4/j3cPPgm7hw8BAH3Ror9J57v3llGpKfM9tlTQYMRZFP2iB0RbISpMKTo+CzKpIhhkEc442xy5oAn2vWc4PYmqWOaDXMd3435hhjMw64hOGFhN2HAhuA41YsT5YN3jHlJ9x79qO/Ci7PBcN66cUig/L6RplMI5/KnAy64cqurfiGs7UPuRnWuE57OO7P4c76Cdw7/wk8/eO/hB/98Z/C3t4eBdoezdpYAJBSwnfe+jZe/tIf4sG3/xj7J2/iXLqLDidFWTneS2w4wA45aXagbq3LZKR8NxrFssnkoJL/sxvyYrHNVHPaq7VUWUApDehV16HP/qvsZuF0vkEelP4WaGK/YT6CwzJxatWMKeJ2yC8Cw85HXZyLKg7N63Fzc/XdAfrVZWwOnsSl9/wEnvvYz+HJJ5/a+ts/ptkby6jve9x/5x3cvv0WDh+8jX6zVsgWiA9Kj0KTqsfzvSc+mGgHsxKnbPbJ//LUdR1We3u4cOEyHrt+A9euXcdqtftndt+zxlpooXcz7b51F1roB5CWxlpooR3Q0lgLLbQDWhproYV2QEtjLbTQDmhprIUW2gEtjbXQQjugpbEWWmgHtDTWQgvtgJbGWmihHdDSWAsttANaGmuhhXZAS2MttNAOaGmshRbaAS2NtdBCO6ClsRZaaAe0NNZCC+2AlsZaaKEd0NJYCy20A/r/86aOfhLWLFYAAAAASUVORK5CYII=;" vertex="1" parent="1">
          <mxGeometry x="516.1700000000001" y="398" width="59.78" height="50" as="geometry" />
        </mxCell>
        <mxCell id="_Jj7Ve39ARDFc18teFEc-14" value="" style="shape=image;verticalLabelPosition=bottom;labelBackgroundColor=default;verticalAlign=top;aspect=fixed;imageAspect=0;image=data:image/png,iVBORw0KGgoAAAANSUhEUgAAANYAAACzCAYAAAD12uLHAAAAAXNSR0IArs4c6QAAAARnQU1BAACxjwv8YQUAAAAJcEhZcwAADsMAAA7DAcdvqGQAADQ4SURBVHhe7X3PryXHdd7X9703v4czwyFFiaYkSqJt2bIcyyZgK1ZiJDIQwAhgJwi8TLLJIlnkB5BFoOyyyT5/QIAACQ0ECSDbcQJkYdkIIMc2YBmObcmiSJGiKFISNb/ImTfvvXu7sug6p7/66lS/J8+9LYvqA9T0+fGdU1Wnzrl9b9/7yO7o6ChhoYUW2iqtVLHQQgs9Oi2NtdBCO6ClsRZaaAe0NNZCC+2AlsZaaKEd0NJYCy20A1oaa6GFdkBLYy200A5oaayFFtoBLY210EI7oKWxFlpoB7Q01kIL7YCWxlpooR3Q0lgLLbQDWhproYV2QEtjLbTQDmhprIUW2gEtjbXQQjugpbEWWmgHtDTWQgvtgJbGWmihHdDSWAsttANaGmuhhXZAS2MttNAOqPte/Qc7U0q4d+8ubr31Bg7v38NmcwygU9hfWeq6FfbPXcDFS1dx5ep1XL58FRcuXFDYQj+gNHtjpZRw+9Z38I3XvoR7b/4xDh7+OS7imzi3OkTXAQnDcoYW65CQ0KEDEoAuN14aRKcOQErSmIyYbtg0lYHs6lNk2qR9POyv4Lh7CuuD92H/8jO48dSP4n3PfASPPXZtBC70A0mzNtZ6vca33nwdr37xf+Pmw9/Ah66+iPP7x1h1PTqkoXI7q2L1LpsjpRGUUoeuM4cOKSXvQdflpu7yBEPDUr/KfC4mC5Qb13q7B3p02PQr9Gkf944v4bUHH8XhlV/A9fd9Au99+sO4+tg1HBwcWKSFfoBotsY6OjrCa6++iG/+xWfxkf3fwjOPvYFV12fr0AwRedOksagxljlSsiYDNdeIQQK63GVjs+Qrx0uDYmi5AWNtaHfNqSa0tdw7voKX3v4Y7l/8FK49/Tw+8KEfW+5gP4A0S2OllPD1r72Mr/3xf8JPXPwNPHHp9vDi39kbPwyNY3esglZASsONIw2FrQ1ijQUUN5XxbWTQVCnHYhvr/M5nYm6ssY2C9WRdn1a4c3wNL7/zcZzc+CX8yE9+Go/ffIJRC73LaZangg8fPsSbr/0J3r//f/DE5Tu5LtNwl0i5qUBNlbr8Rm24f9jNKmwqk6ljLKw1QzIzdQA3ld0svalczmtIwxianzAmprxmu8t1CTfO38Vfu/F53Lz3H/GlL/xP3L71neZdeaF3H83SWHduv4WTW1/A+658Hej6ssKNEvKdwIq5bojAK79Vy13RpfFtn/nlEfmazt7e2ecvmL+Rq3PzJ4e5fVD5aoDUY3+1wbNXX8bN+/8VX/yj38Jbb32LnBZ6N9MsjXX7rddxI/0/XDo4GpX02UjfAnrdUnEPkFzBQydlS36zl2PZXaFjCLEpx0oujCC/o3Rd9TbRmwrFe83qbmdvPU1xsLfBhx/7Mp64/1/w5S/8Fu7du5udF3o30yyNdfjOt/DeSy97U3RdR++qOgAdUqKldGOj2VtCUOGPn6mG61DDwwOOxHe7TP5Wzgp/7KXcOh3Q5c9Q1ri2VoUyxkR/Gzg++GD7wWqNjzz2Eh5/8Ot48c8+j6MjeoFZ6F1JszRWf/IANy/cy1J+uobhrmBN0OXPXPwWzoq0/GxS3k3cJHcM67URSfVujMXJuOHJ39iYRfwB4OsaRhlAH6IYpQTsdT3ef+VlbN78dbz84p+i7+2J6ELvRpqlsVLqsbfaUCVTAxlmZL247amFPbSwO0OBz8050vgkj6fw54+moCch9hkL1vYWM/ps1nX+OQ7WyFl2dXGbG6e6vP8AH77wh/jOi/8d33j91RK00LuKZmmsgexxdUBy50Au7oLs0aDL0lASPIGe4Jmr322GQMwr+WemYE6fN9gQv+3ME1j7AQm4ceEOPnTwu3jlTz6Lt779zeVJ4buUZmushKE5/G1XlxuKCpfvTEgYPmtZYdLdgPvPmyWNj9YH+/iE0DA1DcGKt36FuSsesQ/zuJFvejnOMJ/0IpC/AkAHrLqEp6+8iac3v4m/+ML/wttv21vkhd5NNFtjjfeIoIBJGHqt/ObVCt8pC3w3GQqYS3q8QybAv5Ny8maht5e2MHccHkckjM3Ov+5wztaXfQc8hXGPLCfg6Uuv48rb/wNf+eIfYL1eC2Kh73earbEKooobinosbngTAMCKa3y8k5luZNEB5ecor+zOH2iEjQD4nbTEZb6YpLyDGSV+4ejG94q63oGGO925/TU+dPUvcPL6Z/HyV/58aa53Gc3UWGXjALlAuSCtEPmzWJfy00JrtLJK+f40fDlMBqtpq3Ny7YYuHBqiG5rBb5Dd+HloaIIczJ11FfrQYvwsOIjj201Qo3YArp57gOcu/T6+/cUX8LVXXlyeFL6LaKbGKotx+MCef9JENv3MMhT/WNTcXuOwwre7ySi7Jxf62DPeEHaHtIbD0M50ByxbyXE0DDF+1zZOmII5hjswcOP8bXz43Ofw9T//Tdy+9R2bYqHvc5qtsTr/py5oo6Kp5DNSRawkPtlbQOsJsldx8jwD6RfL49O98snhyNfrGx+ydB0/qMlxrKEcDwAdbl64jff0v4sX//R3cP/+/cK60PcnzfLr9j/4nV/DJ/f+DTWSTUm/diBK/MqecaWVm2K483X5lxMBMgckA5B/pTGqz56EYmG56QYhJXp6KSQ3vYqON+fxxbsfx8Mbfx9Xrv+Qmhd6BFrtHeDi5cdw7foTuHb9Bvb39xWydZqpsV7AX9//DAB7q2Qv60PBVbVI1T40zVj4jE/0uGF43J5/O0EBE6yJyi+O6Y3id9FURU9lyg8+pKMNY/pWY/Fd7fDkHL59+AQebK6Vmx6QLGTiPNqkudF9QTlDtIDxDkpfSRDpL12GEIKz22+X3/TkJAz55h9D03lXh216W7YnI9wuRcpm/XnaYChwCVinczjs3oPNxedw/elP4NnnfhLXrl0Xx+3S96CxBl3i75kGxUg5scNnnDGVdi7DGeaDA/zuA37Txgkv7k420ehTgulQ+dE6r88atYP4Ci5vZdB3xVzDHuzBjK4Bw/pMXTSAK/Ncq3GdNPfgO7zQuClh8LUkOtY+cA5V2eUXPEp9Jto3T1m8+NmG80odWwajpZZfk9jc9LI5SJYzU/AZZFV+x5ByzyPP3yegT3t4uLmArx9+BA+u/R0888OfwtPPPItz586NAbZIszbWeLgYmqbbR3fwOHD+KWDvMoC97JGLhrPGRCtOwHCfyn+O7wk1gN0V7dWUiJPPDTGUI7/JIzJFtbRBUb3aFzSstkmpB/pjoH8IpJNBruA5hheP3gUyVQvXpY+AYslE4x2tTHgJ1z0Rnpu3mNdeOMnVOzlaTDVpRSmH8OXmu/ggJqTNMfr1EfrNGm8dXsfXNn8DT370H+AjP/LxnTTXLI31+9ZYiTK8dwXd1Y+hu/HzwJWPAQc30a0OvFhsUUPe7Y4z/ltmmg/WJjBe7X91yFeXAKRjYP0ddMffRtrcRdcfAmmTgYakPWc2f30dlKQD8j8ao0QD9DLPOuX9EJkE53OaKpoz4Iv5yaeIZ1jiffOpwiUkoN+gPznE5ugu1oe3sDm8gzsPL+LLx5/Gcz/7T/DM+5/NPtujeRrrcy/gk/ufGfbadcDB4+ge/xS69/4qumvPI+1dnPMB5V8hysXcP0B39Dq6o1eA9Z3cUPwHoVJcrQLUq7H0pfWIEbzFL5rABrdto9D1ynGque064dO1YlAs0/lP3zimyRju/Ckh9WtsHt7F8d3XcHz/LXz11k3cvfmP8PynfmXrd615GwsY3vLd/FtYfeCfAlc+7p+Kxu9/trecKpIpTruBVY5TFIH1bSdPPFo6nGBvcxfd8TewOn4N2LwzFoc1lxeMXbJ9VAiv2Oia+QJjOsaqjXjWR9fizhbhpzBZ1mYq8KRvXs3HBSAl9OtDnNx7A/duvYE/vfWTePaT/xo/9MwHCPfoNEtj/cHv/Bp+dvVvh41deg7dB/8Zuqd+GQn7SCmNA5TDkeFLcADDB6TSPnaO6YcXQPWtqUJQAH+BbK2GhCpOXtcQI2GFExz038S59WvY29wa3gqiB/p1/nxljaW/xrDIPJkvrC6kiD8V02i64qp6E6dwvIZANxpoDaQ3ubhDkT3kSUc+aXOEo7uv40uvHOPe4/8QP/cLv6IOj0Szvf9K9gJ04RngsZ9Gn/aw2Wyw6Xts+h69j80wNn22b4brxFj3jBv81nk4xm02RoyPNcVdD0Nt680GJ+txrNc91uvBvt5scJKH69brPAZ+sz5GWt/D3smrODj+CvY23wLS0dBI/RHQPwD6w0HXnwBpffrAptal9RAz4gu86vNAll2XmzylfFW9+Rkv+sK3z3FNR3qXU347bINkt1ljMp+HxyDZGy6h2zuHg8tP4D3XgaO7X5FqfXSarbGAHikl9HuPIR08RY00jE3fo7dG2/RlQ/WbwVY1x9AgQxMOo8/+fR5FoxRNGmCCMcy7LuXcyPZCUOPzi0PGDHOtgc19HPRv4uL6RVxcfwX7/e1c1CdDM/WH+W5VF8I4TGbKst8tRK98gWO9/RPF0aF2M5ltAneqPvBtrTnCuSpoMMLvHVzCtetXsbd5x3Xbotkaq8/7TdjHBueG4ku5qNdUvOs11lTIw6v8ZtD5q3892LYxbI6zznxxNZ7m2hS2en7z9buZz0d228N6Pdzl1kND7fffwsX+FVzavIjz/etYpcP81u8Y2BwOj9j7TaOhjMTmRWO2Bg6WfMUrbzFZ1YpLuvCFgOzs5/FFX1wZq5iIZ6wr6BqMNHy5feHiZRyc2/4vMWZpLPv81Ceg75O//RsaKhfleoOT9XoYJyc+hgIdrifSQDZGrPkd42R9jPXJyTDW65E/OcFJjlfGsLmHsV4POFuT4n3e9RrH6zXWJ2ts1ifDdyXrI6TNA6w2d3DQv4lL6au40n8ZF/tXsZ/uoUN+C9Y/zHepYykgBDwVihUn9HPVaTGmeCnMjm3CpzxnWMwq52uB1fUGPhw3kX5UBLLG06uJI647OI/Vwfb/ZxazPLz4/c+9gOfxGfR9h/Sev4f+R/49+s0GqV+jS0dAWufvG3r0GA6gzKUu0b5A5tyVX5SO55IZw7uNvsZPGObP0OFLxkFI+ScF9oXxSNmepQ49VuixwhqrboM9PMTB6hDnuvvYx8OMtM8c66GZ+vzAoihOjtrgbf0FCY4xnqcgFsa9VvrWwxBXBbaKz/KZfabmINnWVa3RKEks/kkJYVKPz7/0DJ7/xX9J+kenWRrr/37uBfxM/xn0qcPmyV8GfvjfYdU/wCrdxz4eYIVjdPkDKBd4/Qo38IOkBzAIHfIvZJIUV7b7hV6Rx6eFI7b8Gpqbzn5KVMbtkIbm6jZYYRjDh2rz3+TPT8f5M5V9KGcK1sq8qU59Koa6gAqq91vGU3yOd1qD+jrVf0qm8y5+mjXhc6a9Zf60WEj4/Evvx/Of/ueke3Sap7F++wV8ov8M+rQCnvy72H/uX+F8dxt7OESHDW2UX9my3OTtEFR/Rl31FopsiGzFwkTPB2j+9PTKHlCk49xg7K+8ysTrHiI+ceOJrZBtnawzCuQqLtn4+t00VZXjU+6ujxq7wX/+pWfw/Kf/Bdkeneb5jJX/f1K48AzOXX0vLnTfwj7uo0sn+bdxx8DmIbA5yo+cj/LnD+Z5ZH2B53Hc1qVAZ2vwEekmxuZ4fGvXH9M6Hwxf+m7u589S+nDCsmNXtgkubKoIEzR5hc1XxzFpbJKLuEG8ZiyVI1+mBq54L85+sibPsWICPkUvFo9Os9yxfu+3X8BP7f0HnHvv38b5p34eq4PLw3c0fS5I+56joCgRstSw2JjXpEVxOMkTtogv8Hy1u1UeVVyVhTexeVclOUV3kjPEVn1Bdoci/qz4ybsK8UXMU3wKc+TDcadiZdnmznfHz7/0fjz/i9+Hd6yu28Pq8gdxcOPjWO1fBDYPgPVdYHM3f39zRG+Vpgbd4bwpg+GYk0Zc1p8IjvENXG88Y2ys84uEfdmJoAhUzlfDe0G3ikiKxedQG/HFK3MDYzLjPDbpCtLCZzIDrSvZvtjGFMzldyrzCzCqLhTsR/rk/2ydZmksrM5hdflD2Dt/fXhbtH47N1NOMj1ICBPiKsZyQlo8yw29xT21iJP9DF1w0VpUbvG2BinOU+/ELOt8rLfYjDNswCs2mc2IeMcSFTlkXu2uEF5lnkfthHE+mFP5RC9cYczt0EyNdR4HVz+IDifDZ460LjdWFTVtWA+6KjrxSazXuILz2OwT8Dxn5eOGUS5i81CcFmcDZ2twUZuA8VFsniOSM77Sa2wTmWc744I1u4PgjOd9pciHeMdkXMcN0/LJfBXX5O3RLI3VrQ6wf/Fm/gM+/nMIyOYoAdVeg0QZXxxEFJvlFi6irLfPDlxQLf8qthtIH8UiWxg764uiUEwkKy9rCPelAwFW7DpPITYwupaWrdDbReav1ka6ZGsIYu2IZmqsFVarg+GX283N6UaDRJ2ZF7lKMBPPwck3PGOMGEO4ydiqi+SWja++KOGzbOuJbH9pXklxJPP8/tb5rGvJcvGZingPE/j4NfNVozJPeA21JZqlsQZaB79ChvCWkMimCeGkKCaSz6InW2Kc2AqM4jRmvvIrqu9RY9s1moexgRw2lM4TraHlwyqOY0rGRoP9FEv+LrIfy1GMyG6+tMcpvOMYsz2ap7FSPzwxqzYg8mRCCJPy27MzPY5u6MO49qoY2Ao/u6ie51KbsRGGhrsJX/mY2Jin4FluFR5jKK7mwn1I76ziAt5ZaqqiwGU+xtdK4qN9abx8beZsezRPYyHlv9UhmTdpo0qCbJoTF/o4MF9Yr7GZFMfUsk3xuk79YD3BV98d6XqIqv3ZVfS2hhAfyFWBuqHmXUWN4m/lst7ZHK86u2gthKnwjMtXXkdxFf1kDrZHMzWWkSQm3GSAOTWxmWfsmYsjwvFcNMK1aLx8TXbY5KvxNGYVm/wjfBibSedjXYDRuBVG+NSwJZaNDfxDntdhpLyOSB/gm2vYPs3YWCnvZypxomOM/zf+NHmWNANGcQM5ncXH1pzxLYyOs8Rt0hSuZQtwnmfSVT4kN9dscuYTggYMcCwXuTMKdBa7Ugof7o2vmbdYTazOtT2ar7GS/yPKIClVIrJcvMUwG8Wumo95w/JBTxyQ66NYRsIX5gmcXRKvmWwFb0FVVhzZvOgjjMqSD9Z/V7zIRfHbeniwD+NEH/L5ak8dC1/VTcVQ/fZovsaa3AxtuHjFIr56UGGF3IpFvB+yYaMm5DWIf8WrHMUK4hrPa+Y1OZFPEUIxJBd7bGBMZmw1f4vn+SOMxC706mOk+AhH+mRnk3XRXKpTO2Mcu32asbEgSeONkkptyE3Ah5oYQz7Ngw/IY7BiInZB0cFM4YmKg1Se5vUiyrZwb2zTORtyc36ViU/s18CA16ukhmi9po/k6Fxa64iohT3N7y9PMzZWY0PFK0q26RM0xliC3Sy+6pf0R5zKk4/FLjCK4yJnHGNsQsJXTajzsNiyKc8FJ/qCz/Lk/GIrIBInosKksZlIPut6kunYTrzDNV4UV3nFbIdmbCzUCWOeX3WjwnJz5M/6zPOhFa/oyhur+oAPm0ObhmyuV5vgXGzEVxysmFh/Cl/EZYzELfjW+skWrpmx6gPJS4AxucIF+LPE8ViYiLddmrGxaAO2SdVHCWnaGno/ZLMxGVZihz5nwShvsuqMWnqLr2tTPBVIcw3C63KqB0Ao4xaxdS1TvK6B7cY29Iqp9qjYLFdnwrLpVG6tYbs0Y2MZ0aY8MZoUS5yNwBbxRb4UF83RWgPjeH7FRPFMHdgK3vC2hhaeZI+rsRhHvIs8X4Ar+LNg7MJ6k3WA9siYgG9ijKJ4oo/8XB/47IhmbCx6JeqmfmjZKIgiMZIk91GsDsNqA0zFZZsbhLfYJE/G5n22MEaBLfzziDx4f2Fskh0bPSVV3nxMpRiNb6LilM8Yj6lD9FU8sRXna/goFtu3T/M0lu/FEpA35Zs1G/FFApnOglNMEAYgpQI07kRsZ6dwTFpEEWUbFwrbTt2zyi3bGdfPxVo1NRGHKOKdElf1TDavXQclA0ZcQRqX1lNA1W87NE9jAXEynCd58pWTZE90hDPiw0CjWRiQMa4SW2ueKu7ESByHiWPYhecQubBZ8ZmeYwnPhVphVD5rU7Mc+PhV9MW7lmB4c2oMwVTzRX7Gamyxb4lmaqzWZqOEGB8RJzLyn8JFsQMf1ysvcSx+WGjEO87UipO5inVHuABfYCb4Km/RHMSb2J3ygje5ZuMVj8Z6Mp8CP8VWew8wzqPEF/vZPs3UWEpUaEXhtZJlcovEx8TwFZFlmd9tglFTQY244L0EtiqY4rOu8GFTtGblKUQYe4Ln2D5XhNM1sky4Ii7jxI4optjPxJuKm57i8hyB26PSjI1FG/ONtJKiPDViZHOeMVExqNyyKYbmqZqfccQXoSdwGr/QsxzZWryp2FYYYt4aKJm+FTvz1QsHk/pzXL6KvYrZmpv4ai57MSC/IhfEF028PZqxsTJVrx5BUow/00FnPnFsxTCOh9giHxancMxXcRu8hzKfABPFTvpWRjFcMIoTmfNR4IxUfxZ8lotc8/w6MrbSW1yOM4XVuXg9UTyzb5/mayxPCCsKY8knfSvX4D05E5giNpPZIn+Lbaop32yvCoixxLtZcUakSxybbMyPwCBuNAcXqOgLnmPUbBtvsXVuiZfyP74Ovp42ZxCrqi/FZt7mLQNvleZrLN1ciy/yocmRYQnyEJos4r0wTc9xmYLCDw+eqLK7QXymDjWIEe7fjSXv5gmMjQJH+kI2Yt4eYrQw9gIQ2Tk+Rkxiu/oRPsRILCf1IT6xXfnt0cyNFWyU7b7pqWFw1Ussk/2g2SYYlpPadA7yKYoowrOc8ewfYo0N/CuZ+Oo/JhrxFpcHY2T4ixE1jIeKsN9F3MJuvBHPp/7iV52tYrO+iMVY47dLMzYWU5CMFOmF91xMJcSw0QHyYDz5FLEj3lRscyXxIhcFgCC2YoM5FeMhtOADvsqHG4gnSvYPn02wrmpfEIzMVcQivbMRpoEt7BHW4oku9NsuzdxYmoDMJ/8n2KzyUROSDZBEtvgsu1sLJz5hgdLcThR78mBZx4OJdVIoxVoiXudvYNiWiGe98ha3wAfYlLFVXJb5jhLEYL2dQRWPeD+nifmK63ZpxsayZHBScgI8aZokS6ThRB/5TcbLV8MwdvJQc9wwNuNNVizp1b/IySl4z1sU20j8T12zxmec2E0/mYtWvLPiArvrzTaF0TlbWM57hm2RZmos3iSreeOubCQkwjE15gBif5+7RdFc6hPISWPr+tUmlFRPfBeNILYVSxVLiWxVPiyAYCbPTLC8zgJLmGqNAZ9o7gKvsSJ7g+dpdkAzNZbkSzdZ6EX0RLUSJKPCyTwej0nXYNjTCon5aD71Ib0VQfGj1gafIPtkWXx8vaL39fA6jJW1VRjVaVy+UjwPp5ipvNo1Dz9THuJXrV/sThaTZb5uj+ZrLCDYuI6cJC/oCJ/5MJlGLEvsKp7Kxp42V+Ydy0WueI5lovlEWG4gsymGZVDORF/wWeYcN/NMsosBhucN1xBgm3Maz1fVEfZMsWik7KP6HdB8jdX8D+RnKg4Fgsm8JcZMVRiOLfEmY3NAlRknoh+SXabwtO6CeL5Ir2tiW0SKY7I1mF7jEO9NoLjI95SGqvyM1J55mzcxnv1aeuW5mfltM2N5Dduj+RqrKGzUiYz0Td5I/YgvxFaMgE/2T8tnShfxPD+C2GyKmq/lS7I3OMeNcJmv3n6KHOZLebvoPKKzwlZ9i2/OzToeEZabiXURdjc0X2M58cY56WaL+CxykorkCM8JrIrOiHzsEAqs+pCuWjPFUp8qpuI4ZjQUbyrbp9ntyjjaG9uq4iW5uQ4ayWJEcVTXiksYi1edlcYwMdgT46vzIZvxxZlvn2ZuLN4k62TTylvCq4S1EqU45skeFV2BN5JDNV0V21haTxXvjP6R3ny4AB0b4TLfnbbPaL1qN5XGUDzH0qeWTIazGBorj+LslRes6cK7lJH67YZmbKy8CU56tTGSvVFEPxjp2orHiQv4ZkEyRX7GM5FscYu3WxanMWexlog32S4T80d86GMU4ENd5l2MMJyfPIq5WR/5M5+vHaaxKdu5XqbyWdhNv32ar7EmNxQkoLCxnofFbPkLrppfB9n8sE4rfMWRznFMJFsxRPMzedFEOB1Zf9qaDVPFlfhu0hjMUyz253xUehfomnmPFdmjwVjVZz7luKov/LdH8zVWlQDl+XBMz0kgKjDMq2ys8M2iz7qUr6qveI7FeuMD2dXRGtjHYvNo4FylBc4Y8q8wjVHMb3iNp7GMxMfXNoHxOQNe6dRaoVz4PhS7O5qvsaoHD7pZoiKhEzY3MUZ8woNU3mQuEtGzHBaIymJzyNQ8Zqa9nWWeonBIr3yxbr1m3kJVZxDgfZ06n/iEe4gGY/Rt4FQ8sSOqDbFXY7s0X2P54dMm+KALeyMJjElsE97iRofiMvPkx/NFOD5Ux+sLR+aLdYgt4jleC+O87nECZ9hIz7rUsou+2pPi83USx/GMVb1ion3QfJFfgWMsx2P7dmi+xqoWLxuM9E0fTUYrFlMjyYkTbDgm8mmus2WbiOWysQ19xKcIz3MS76JiSGem6gmeGbKcrPkUwzrCViQ6h5NfFY/tPCJMa16MfjtsJqYZG4vID0g3KDybw8IvAHWywr92BSU486wvqGVTXmWM6/UfoOo6CVc1CeNEXxXFaXwLb/EIU8QWn+YaRZdwBqzqeWQdn49dCxI8onnPYte426GZG6t1Z9ANUjL9/42liaJk2SEUOC0U8puKpzIXfvFXuoazq/iY/qzFWv0FsF2juGyb4ItcK8YuaiM7pMCrwRjNqw6JUcQ0Mlvkx3iOw3M3MB6T5+C426cZGytKWNYrxjbdmbmBrwqNeU0aJ5Z1rBc/PoywwMzG4mnzMIZsRWzjGaY+dpW4ya6NOFPr0vndpBi78pmqnXgvfl5bw49VyPiK1E/j8VWxqud9bo9maiw+6Czr5nyDmfcnQq1k6H+iOOJN5kNlfcQbzuY7DWf6yEf9s49fW7EbPlVsogLjSrrmYXtLfWAXv+ouqnPIGiJsc+0ykmF1GBmOcl7l0HA5Fk9XxSS++Hux7dBMjWUUbUyTqo9ZDcs+jadwzmd/S25xAC0+klmnPqo3W4u3QmjYlPf16zwy5ySmVYjk75hgFLEC3uKeaRhJLF5fiKXB63decWjgKK7NmYwn25Zoxsbixcsm1RYdKiejIo0d+LvcIpoH/B/EZDKM4Vxoz1msu4UjvlnUJrOoOB0OzKL4h0SYKj7xVTyy+xLUnwe7c3y6U3outPgbPOMLeySrfrs0Y2Oh3EzKiajsymtSKYGJccJXf3tD8Xh4LJmnFbvSMwXrRL67VusJ+KoQ3UBy5r2AIiyz7MeUAPSNOZVHmZ+ieI1nnen5KnxxphIrsa6FbfESq7C3dNunGRuLEyVysUHivXlYH+BMrhqkhc98EZuJ5yJsVcxR7IxjrMqVv8VGqWPZ92bYIIZiKwzJFUbsFY7ffkexTNQYGevrP2W+72ZUMRPFjdaY1xlit0vzNRYnIfoPoLisvGLYlnk+fOhnNE0iFYHrGMcy02l6E1s4I9IXhSE2XgvvLVxHxiadX3nDsS3CGhtgEvNaqBpDffK1mJ/15pL5opGFr9ZmV5mnym/Lb7s0X2NVpJvNsieDMYqLBuGahcoq9lOcYbkIgnkUV2AZQ7KrolgBHvwXvw278c1fTmDMaVHUjGU+wsj+3BzgQr3qRB/Fq3LEvAxtnsLX9GQ3TIXbDs3UWFNJIIwmp+DZH1TM5B8NTl46Q2xQbMNUySe5OnyJxXJiOeIVz+tXbOaL/SlGsH5lvcQO51Q/9p/gqzhsp5Ea+mJkTIrOnGWcfiacs8J/ezRTYzGdtklNSkSKCZJUHICZVMHrsKEY5hmvRUO2Am8iywHvBW0mjRXwvNYohxyv+M6P4xmO9+OGMlbBi91lise6Fl/lxa4Sy8bUz9T8GsUzNljDDmjmxpJNcfKLDWcd857PrP+u3n/bEJnV4Qdz4T2sxiyMJT7h9EKsdPaiwPOQrxduNNiP4wU62DwREdbW7/Oy3ag1R4NPOV5oj8j8FEv6xPthW56rqgvGbZdmbCzZVDKdbpZ1LT4nKsJz8qpXacaNsHbBKE8HqPpCtovMWWAMF+XCeJvTcDq3+HFxeX4YE2CnMGCM6QwrPrauIqZgfW3i6ziKUayP4xkRpsgJx4t00dg+zddYnISEYEOSiALfSozgIb/ICA/Z5id5ks9yaugL/jSczFEVTuDj8VivfiiLK3zqyjGMNJbMU7goJl+r8zEKsIVedcZGeo2layO98xZL1xDptk/zNVZBmrxog1MY4Ys8RQkkvSU7/MJWfIrG5sE+xNv8bCqFUWdY1vlV4ql+NGZWMFVBWbxT7IYp9mwYB0g81gd8FU/jkl334byR8hqPMfla7SPy2T7N11jVb/tM5mtORHhgmpCI14KNfIxlm2K0EMRX/cLCCYYXEMfTOTRehI1whjEyjMoSo2ljP+J9D+KrfLiHVlzWTYxibo0rGLdpbBY11vZovsYqEmCy2KtNTmDtUh2w+Ljaiqw1B2Ga6whkn1/0upZqncYbZb6K18C6qHHJJ9ELGruz4HsWPccpeJbVHo2ItEmyrvKJ1qYYI64fjptt5lM1UxTr0Wm+xirWH206GoTlg0hZVoxTFF/1IhcHzBTI1eFkfYt3kedo8apjPfHVn3SI3fhqrdEcLd7kfC2K1Yjt5q44NzTm0jmZsi0Zr7ZIbzqJrevawZ+LGM3XWLr5qlEYIwkpfFk/ZdNCUD7CtTAk6+FoLI2bAn1hlzxUsWhexoRxlWdd1lsco+aDDpGb8+naA7vrst6xjCM7x60wGjfH85gR1ngmi6/67dCMjWVEmw8fIChlffi9lSQyQQqQsexD+qT6CEPxC2r4VIXGg/2UAn0Uy2XSu9l4jqXzGy5aT+Y9j1yAEsfm8l/vazz1iexGxIdrU3/ep8ZnP4vH+gi/XZq3sYoi0aSYnnhLbjKsEeNZp4ni+DKHrsVtzPOBmE5tpGsWBNNUsfJgX44hOIdH/qbP1wJnap4j82fJNa8/xIvK8l3lh3n7MxYebKdzS9zMiiVMFU+wbt8uzdhYtKlkstpI9r1LIgqeMNXh8iC9qzSWxhPc1AEZvogVxC/WGdgr7FTxsF9k5zhaQBEep6zPSHU0D8tqb9l4fcUajSi+m3RO1oHiaDxZR8q8TrkFmq+xqsS7gfgs24ZDHCUlRXFZNooOJl+LD7A6J9NEXPDbIcZoPLU3+GT/aPEwJu9n6qdYRYEF9kI2Up3iM1998Cc7N0l1PpmvGqm1Dl2L4mXeSK8YF6M5tkPzNRYgG4g2zk3FJHJYMAWgIQY+xcHbhePryPao4N2XZBc1hmL1wPVKI9H/OFvXb3wRZ4K3Ai+K0jA8GGvzNua265nXptTw8yvPYaqzYCP9bmjGxgo2bodTJEc3HyWGSeOK/2RBM454tVW6fOXYhb/IzaIlsdCznQrfijrECo79eS7jHaeYRrwij4Jt2g0jWNXp4L1W68xXs6uvxrb5qvUpfrs0Y2Oh3Igly/fFG6TkFInNuupXHJIgPxSzMUksnp/56D8mw4ddGso1VPMaTxjjwwNXrBFhijlk7U3KtqJQG3wVRhUaK/O+Lo0XnKNfKVaFCWKxrXpaTDYXNWbEb5dmaqzWRqOkNRJoI0X+TJFNYvDo+DDJJ3GszIefZ3jglEYxlvcR2JVvFY8VYjL7GUaxV/YjvtgDYwUfFqzoms1ivLGyhgJH+mS8qQOM2R2r8ZTfPs3UWEy6SdaxjDJpSX9vKEkqDjCIxT5JYrvSjafElfiO4UF2jVdgIny+plxIraJLrGNf0dv6qjXqXBNNwLZmLIoHXp+R8NWc4t/iPa4O04PW1yCzT0AehWZsLE0i6f1Km41woS67hR/miffwrDdin3xNcoCtYuI1ReuzazW3rkPmjOYqsPnKOuaL9QZ25qtYSrSGIr9sE77KM2F8bUw0R6EjPplO1yD6sAaMSPZ426d5Gsv3pxuWBIXFoMlhLKsnDsvVEreYj0YijBNjjFW74jSeYo2P1hFgiz3qfA4i3kTF0ijsUxgmjkc6W1+1l2gwsU4wHtNs7EP4Ym7FEq7gW9hHp3kaCwg2w/qIVH/WA5N5kv1j8TguYe3wHB9gWFXE09h60DrErygGLiLTG8bswXw8qjkVaxfF6UAQi+PkURS0B2/gorf0jDea2ofoqrkbozgTxm6fZmwsJdtsTkyVHMIUycn4gqbk03gtZJ2bscaqPsLyXEYZZwVWHTLjiPcCY7vE96IxuxtiLCIs0eTaNOZpvOjCwpaY1doEm3BK3ZCuyAsP1m2XZmws3aypdFO68axzUfSRnBAURsB7wpla2Ix3HWOMsr44bNKH8ll51bGsOuUJV61N7C6zPuATGoUtMSzHiXRsZx+L53kWu8t8NZ5G4lhsF7/w/LdDMzYWgg0qTzpOcpUck5knP9AvE6o5TNQ5g7kLP8GwzOtMZmth1GbUwBbrbOFEz/gqVjCfq06Zz+c1fWTPunCvgvO1Z77AGs868nOKbGpXPppjuzRfY+kB+2/NWhtnask5QYniF7AgXoRTO6gpLbbO6bxhG7Zq7aozn6wz01R+qj3oXBxTcaxTfObdRXF57khfYTJFX7RX85k8sZ6U4xZnyjiZV2PwcBjjt0vzNRbkh5vFAWW7XVld/SEeJ9JETZAegOpEH+mSrSOyZ97hwdoMU1xbfL76fFxshE02F+GqGFyI5kt2NVqxFnsI4lYBG1iNkwJsMZ/ZjYR3kbE8TK32iLeL1EdRF9uhGRvLSDdLclHMebhsZHpJGNsKXuM0hs0dNrKNrOfCqNahPmeZG3VBOhmG9YEdFoN10VA7U0O23KTGz8ksH4l8qnkplpPEKebTvBnPV8Kq3vw4VpVjjr1dmrGxOAFZLmjipzsVT0nhu6ATJxVBUTJvF/MhvV+N1E76wt900dxid9/I3tIHfJFbTPunjK8KzewyOEZzPyzLfHZpnr/M7TodhK3WprzGF/8d04yNhelNp5ws1auPNYvDFEMN5XHsqvEb/mZPYq+KSnzMbvNX+yHe7MlskZ34AsPz8rp4UCxnOVZEWd986CN8MVVj7pTnrWLIqM5swifMq+LRmJd5nnO7NFNj8abyhnUUO6SNM7nIdk7SVNLFL4Gw6jMV1/TCV/O2YvB+o1hiT2YL4iY0cif8afNpvALPsQynmBaW3lpXzUq4xD5RLDTOVvEUrzovxbJt+zRTYxlFyWGKNs+kthbPsl4hxchX0VVvMyNsljsrIh5kt2tx4HYlbFiwjMnXRLwropjRW+yIV3+205ynzWsNYPswfLTvZjy7Em9fn7TOLkXx9Gqivjhsn+ZrLNv4qBCeh6mDgyp87EoH2BwG1xiB3UM3Pqw78YHyGuxKftVDEcIWe2QSbDGHDvYxlvLW8kuGC/wLnOnVTrzPwWb248Eg1XMMXqP65SurqxiF8Qz72A7N2Fi9McEwvbF6kNHItpTxRRyJaRjHaZyW3WJ7kHHYgVf/2a9G3GR2xrFuQl/4ayzSu533kv01brhfHeyiMWRUc+jI+oRgbiOKFWI05ln0ald9T/L2aJ7GSglpczyxAdJ7ISsFSUqRnngPpQlVndqjQsFY4D6vFHxFU3NkvvDnYZCGn18znzK2iKdEhc065bmwPZ5diXcxiFHwkW6Kj3Q8L81d5KfBV7jx2vdpfM3fIs3SWCmtsTl+hzU1769QrOdhGFaJ3f0yFtwgAQYUr/lfWFJ9hCE+QYqSiefltbHN+DOsvSBdUyCnCGeU+eIMTB/FI7vH1WH6HLdqggA7tWfPqfoGWOMdn/1lvs1Jwvpk+501S2MBwOH9t4G0GTfGiS4Os9x4qWe+NaJ46pNlTnRSrLHcJOI/grJJ7TIMU8zFPPkXsdgmes9jYPN5GWN6shdz8hM8jmW6qTkn8BXWILS+ao0k29oK/wBbxdIx4lOfcPQw4eSkekr1yDRLY632zuH2vRP0J4eUIIyJML5KlImnFHYyDMdjjMQNcSybWjF2lZH0jhfxJvPVeIqTEMwrfpPFI35FLNPzNfMcK4zb8Kt4wRfnK/Zqn2wnvhmDdVM868ZaWp8k3H7nAOvuMQU+Ms3SWBcvP44371zC8dtvol8f+cYG4iSxHkHxKIYbjol9eJ4cM5w780XRRhi+GhutQ2I1iyP7uqvaI94o0pFcFa7gU8Yk0rGded+H6RTDezS1zMfXam3B1acxJpo3X6u12Rwac9D164SHD9b4xp3ruHDzoxmzPZqlsR5/8odwt/8g7t/6Bo7vvY5+fdhIkibF9IG9GI0YGi88TOL9IE4bGRsdHM/npP6ETS27Yg2vNoplo7nXCH+KvdjnxHC3KR+zR2835Vr4M5aGzzUVi3GDvu8TDh+scevOCnfSh/GB5z6R8dujWRrr6mM3cHD9x/DG7fM4vPUqju68hs3De0ibE/rchZwEEzlRRpYoEqsDMspyAhWZ4XQQviDS2QE24zGeYynWRC4+VxJPOikM1/uV+LOsjeO0HtqkvMaKRFfsg20a1+JZfPZhPePcUWTDuBDwZS2llNBvEk6Oerxzb427t3u88fYT2Lv503jyPe8l/+1Qd3R0JCvePqWU8MpXX8Srf/Sf8ezeb+PJyw+wf/EG9i9ex97BBXR754Cu8ySIt33lPtoKyCAkpPxDiRprCLMYyvwMNxq0iLNOZfap8KTjXz44TPyr+JmkyHgvo1J9fVflfOOmhSH/VO5nuIz2TtZq9vLjv66H10hrc8oamxuUG7YHngOJXtZsTbVeJxw/7PHwQY87Dy/j66u/iR/+5D/G+z/4IXTDxrZGszQWABwfH+OrL30Rb/zZf8Ozq8/h8Qt3sepWWO2fQ7e3PxwNryTv02vBbNw3lIsEoKMCSwC6rhvrUoub8ziAkVJUfAEe44IGEzsNvIXKoZHSUFBRGDvTlAHF0ngdvqwOXbFA5BeWMdBozTnAsKAin90Qx+aotp6ANCx+VHZ5va6qvGKyNbg4+A2hcjAubs1XXkaYRF6c7U3Osu8T+g2w6Tu8fXIZ30g/gyd/4lfx0Y/9NA4ODjzStmi2xgKAvu/xyldfxNf+32dx4/j3cPPgm7hw8BAH3Ror9J57v3llGpKfM9tlTQYMRZFP2iB0RbISpMKTo+CzKpIhhkEc442xy5oAn2vWc4PYmqWOaDXMd3435hhjMw64hOGFhN2HAhuA41YsT5YN3jHlJ9x79qO/Ci7PBcN66cUig/L6RplMI5/KnAy64cqurfiGs7UPuRnWuE57OO7P4c76Cdw7/wk8/eO/hB/98Z/C3t4eBdoezdpYAJBSwnfe+jZe/tIf4sG3/xj7J2/iXLqLDidFWTneS2w4wA45aXagbq3LZKR8NxrFssnkoJL/sxvyYrHNVHPaq7VUWUApDehV16HP/qvsZuF0vkEelP4WaGK/YT6CwzJxatWMKeJ2yC8Cw85HXZyLKg7N63Fzc/XdAfrVZWwOnsSl9/wEnvvYz+HJJ5/a+ts/ptkby6jve9x/5x3cvv0WDh+8jX6zVsgWiA9Kj0KTqsfzvSc+mGgHsxKnbPbJ//LUdR1We3u4cOEyHrt+A9euXcdqtftndt+zxlpooXcz7b51F1roB5CWxlpooR3Q0lgLLbQDWhproYV2QEtjLbTQDmhprIUW2gEtjbXQQjugpbEWWmgHtDTWQgvtgJbGWmihHdDSWAsttANaGmuhhXZAS2MttNAOaGmshRbaAS2NtdBCO6ClsRZaaAe0NNZCC+2AlsZaaKEd0NJYCy20A/r/86aOfhLWLFYAAAAASUVORK5CYII=;" vertex="1" parent="1">
          <mxGeometry x="396.61" y="398" width="59.78" height="50" as="geometry" />
        </mxCell>
        <mxCell id="_Jj7Ve39ARDFc18teFEc-15" value="split_80_10_10" style="text;html=1;align=center;verticalAlign=middle;whiteSpace=wrap;rounded=0;" vertex="1" parent="1">
          <mxGeometry x="155" y="96" width="148" height="25" as="geometry" />
        </mxCell>
        <mxCell id="_Jj7Ve39ARDFc18teFEc-19" value="Train (80%)" style="text;html=1;align=center;verticalAlign=middle;whiteSpace=wrap;rounded=0;" vertex="1" parent="1">
          <mxGeometry x="-61.61" y="283" width="77" height="30" as="geometry" />
        </mxCell>
        <mxCell id="_Jj7Ve39ARDFc18teFEc-20" value="Valid (10%)" style="text;html=1;align=center;verticalAlign=middle;whiteSpace=wrap;rounded=0;" vertex="1" parent="1">
          <mxGeometry x="192.20000000000002" y="283" width="77.39" height="30" as="geometry" />
        </mxCell>
        <mxCell id="_Jj7Ve39ARDFc18teFEc-21" value="Test (10%)" style="text;html=1;align=center;verticalAlign=middle;whiteSpace=wrap;rounded=0;" vertex="1" parent="1">
          <mxGeometry x="451.55999999999995" y="287" width="72.22" height="30" as="geometry" />
        </mxCell>
        <mxCell id="_Jj7Ve39ARDFc18teFEc-28" value="images" style="text;html=1;align=center;verticalAlign=middle;whiteSpace=wrap;rounded=0;" vertex="1" parent="1">
          <mxGeometry x="-117" y="444" width="60" height="30" as="geometry" />
        </mxCell>
        <mxCell id="_Jj7Ve39ARDFc18teFEc-29" value="annotations" style="text;html=1;align=center;verticalAlign=middle;whiteSpace=wrap;rounded=0;" vertex="1" parent="1">
          <mxGeometry x="-17" y="442" width="112" height="30" as="geometry" />
        </mxCell>
        <mxCell id="_Jj7Ve39ARDFc18teFEc-30" value="images" style="text;html=1;align=center;verticalAlign=middle;whiteSpace=wrap;rounded=0;" vertex="1" parent="1">
          <mxGeometry x="138" y="442" width="60" height="30" as="geometry" />
        </mxCell>
        <mxCell id="_Jj7Ve39ARDFc18teFEc-31" value="annotations" style="text;html=1;align=center;verticalAlign=middle;whiteSpace=wrap;rounded=0;" vertex="1" parent="1">
          <mxGeometry x="233.28" y="444" width="112" height="30" as="geometry" />
        </mxCell>
        <mxCell id="_Jj7Ve39ARDFc18teFEc-32" value="images" style="text;html=1;align=center;verticalAlign=middle;whiteSpace=wrap;rounded=0;" vertex="1" parent="1">
          <mxGeometry x="396.5" y="444" width="60" height="30" as="geometry" />
        </mxCell>
        <mxCell id="_Jj7Ve39ARDFc18teFEc-33" value="annotations" style="text;html=1;align=center;verticalAlign=middle;whiteSpace=wrap;rounded=0;" vertex="1" parent="1">
          <mxGeometry x="490.06" y="444" width="112" height="30" as="geometry" />
        </mxCell>
      </root>
    </mxGraphModel>
  </diagram>
</mxfile>
